%TF.GenerationSoftware,KiCad,Pcbnew,10.0.1*%
%TF.CreationDate,2026-05-25T23:06:50-07:00*%
%TF.ProjectId,HerbUnitPCB,48657262-556e-4697-9450-43422e6b6963,rev?*%
%TF.SameCoordinates,Original*%
%TF.FileFunction,Soldermask,Bot*%
%TF.FilePolarity,Negative*%
%FSLAX46Y46*%
G04 Gerber Fmt 4.6, Leading zero omitted, Abs format (unit mm)*
G04 Created by KiCad (PCBNEW 10.0.1) date 2026-05-25 23:06:50*
%MOMM*%
%LPD*%
G01*
G04 APERTURE LIST*
G04 Aperture macros list*
%AMRoundRect*
0 Rectangle with rounded corners*
0 $1 Rounding radius*
0 $2 $3 $4 $5 $6 $7 $8 $9 X,Y pos of 4 corners*
0 Add a 4 corners polygon primitive as box body*
4,1,4,$2,$3,$4,$5,$6,$7,$8,$9,$2,$3,0*
0 Add four circle primitives for the rounded corners*
1,1,$1+$1,$2,$3*
1,1,$1+$1,$4,$5*
1,1,$1+$1,$6,$7*
1,1,$1+$1,$8,$9*
0 Add four rect primitives between the rounded corners*
20,1,$1+$1,$2,$3,$4,$5,0*
20,1,$1+$1,$4,$5,$6,$7,0*
20,1,$1+$1,$6,$7,$8,$9,0*
20,1,$1+$1,$8,$9,$2,$3,0*%
G04 Aperture macros list end*
%ADD10R,1.700000X1.700000*%
%ADD11C,1.700000*%
%ADD12R,1.500000X1.500000*%
%ADD13C,1.500000*%
%ADD14C,0.650000*%
%ADD15O,1.000000X2.100000*%
%ADD16O,1.000000X1.800000*%
%ADD17R,3.500000X3.500000*%
%ADD18RoundRect,0.750000X1.000000X-0.750000X1.000000X0.750000X-1.000000X0.750000X-1.000000X-0.750000X0*%
%ADD19RoundRect,0.875000X0.875000X-0.875000X0.875000X0.875000X-0.875000X0.875000X-0.875000X-0.875000X0*%
%ADD20RoundRect,0.250000X-1.050000X1.050000X-1.050000X-1.050000X1.050000X-1.050000X1.050000X1.050000X0*%
%ADD21C,2.600000*%
%ADD22RoundRect,0.250000X-0.450000X0.262500X-0.450000X-0.262500X0.450000X-0.262500X0.450000X0.262500X0*%
%ADD23C,1.300000*%
%ADD24R,2.000000X1.100000*%
%ADD25R,1.000000X2.000000*%
%ADD26R,2.000000X2.000000*%
%ADD27RoundRect,0.250000X0.475000X-0.250000X0.475000X0.250000X-0.475000X0.250000X-0.475000X-0.250000X0*%
%ADD28RoundRect,0.140000X0.170000X-0.140000X0.170000X0.140000X-0.170000X0.140000X-0.170000X-0.140000X0*%
G04 APERTURE END LIST*
D10*
%TO.C,J6*%
X150426500Y-65532000D03*
D11*
X150426500Y-62992000D03*
X150426500Y-60452000D03*
%TD*%
D12*
%TO.C,U5*%
X186286000Y-46580000D03*
D13*
X186286000Y-44040000D03*
X186286000Y-41500000D03*
X186286000Y-38960000D03*
%TD*%
D14*
%TO.C,J1*%
X164242000Y-88242000D03*
X170022000Y-88242000D03*
D15*
X162812000Y-87722000D03*
D16*
X162812000Y-91922000D03*
D15*
X171452000Y-87722000D03*
D16*
X171452000Y-91922000D03*
%TD*%
D17*
%TO.C,J2*%
X146616500Y-81122000D03*
D18*
X146616500Y-87122000D03*
D19*
X151316500Y-84122000D03*
%TD*%
D10*
%TO.C,J3*%
X150172500Y-54967500D03*
D11*
X150172500Y-52427500D03*
X150172500Y-49887500D03*
%TD*%
D20*
%TO.C,J5*%
X145585000Y-38603000D03*
D21*
X145585000Y-43683000D03*
%TD*%
D22*
%TO.C,R9*%
X153153500Y-54055000D03*
X153153500Y-55880000D03*
%TD*%
D23*
%TO.C,J4*%
X168800000Y-57100000D03*
X168800000Y-79500000D03*
D24*
X166600000Y-75075000D03*
X166600000Y-72575000D03*
X166600000Y-70075000D03*
X166600000Y-67575000D03*
X166600000Y-65075000D03*
X166600000Y-62575000D03*
X166600000Y-60150000D03*
X166600000Y-58450000D03*
X166600000Y-77575000D03*
D25*
X178000000Y-55400000D03*
D26*
X192000000Y-54500000D03*
X173350000Y-54500000D03*
X192000000Y-83500000D03*
X173350000Y-83500000D03*
D25*
X189550000Y-55400000D03*
X186950000Y-55400000D03*
%TD*%
D27*
%TO.C,C1*%
X161439600Y-37780000D03*
X161439600Y-35880000D03*
%TD*%
D28*
%TO.C,C2*%
X158546800Y-37208400D03*
X158546800Y-36248400D03*
%TD*%
D22*
%TO.C,R14*%
X153000000Y-44087500D03*
X153000000Y-45912500D03*
%TD*%
M02*
