%TF.GenerationSoftware,KiCad,Pcbnew,10.0.1*%
%TF.CreationDate,2026-05-25T23:06:50-07:00*%
%TF.ProjectId,HerbUnitPCB,48657262-556e-4697-9450-43422e6b6963,rev?*%
%TF.SameCoordinates,Original*%
%TF.FileFunction,Legend,Top*%
%TF.FilePolarity,Positive*%
%FSLAX46Y46*%
G04 Gerber Fmt 4.6, Leading zero omitted, Abs format (unit mm)*
G04 Created by KiCad (PCBNEW 10.0.1) date 2026-05-25 23:06:50*
%MOMM*%
%LPD*%
G01*
G04 APERTURE LIST*
%ADD10C,0.075000*%
%ADD11C,0.300000*%
%ADD12C,0.150000*%
%ADD13C,0.120000*%
%ADD14C,0.100000*%
%ADD15C,0.000000*%
G04 APERTURE END LIST*
D10*
X141894585Y-76638029D02*
X141594585Y-76638029D01*
X141594585Y-76638029D02*
X141594585Y-76523743D01*
X141594585Y-76523743D02*
X141608871Y-76495172D01*
X141608871Y-76495172D02*
X141623157Y-76480886D01*
X141623157Y-76480886D02*
X141651728Y-76466600D01*
X141651728Y-76466600D02*
X141694585Y-76466600D01*
X141694585Y-76466600D02*
X141723157Y-76480886D01*
X141723157Y-76480886D02*
X141737442Y-76495172D01*
X141737442Y-76495172D02*
X141751728Y-76523743D01*
X141751728Y-76523743D02*
X141751728Y-76638029D01*
X141594585Y-76338029D02*
X141837442Y-76338029D01*
X141837442Y-76338029D02*
X141866014Y-76323743D01*
X141866014Y-76323743D02*
X141880300Y-76309458D01*
X141880300Y-76309458D02*
X141894585Y-76280886D01*
X141894585Y-76280886D02*
X141894585Y-76223743D01*
X141894585Y-76223743D02*
X141880300Y-76195172D01*
X141880300Y-76195172D02*
X141866014Y-76180886D01*
X141866014Y-76180886D02*
X141837442Y-76166600D01*
X141837442Y-76166600D02*
X141594585Y-76166600D01*
X141894585Y-76023743D02*
X141594585Y-76023743D01*
X141594585Y-76023743D02*
X141808871Y-75923743D01*
X141808871Y-75923743D02*
X141594585Y-75823743D01*
X141594585Y-75823743D02*
X141894585Y-75823743D01*
X141894585Y-75680886D02*
X141594585Y-75680886D01*
X141594585Y-75680886D02*
X141594585Y-75566600D01*
X141594585Y-75566600D02*
X141608871Y-75538029D01*
X141608871Y-75538029D02*
X141623157Y-75523743D01*
X141623157Y-75523743D02*
X141651728Y-75509457D01*
X141651728Y-75509457D02*
X141694585Y-75509457D01*
X141694585Y-75509457D02*
X141723157Y-75523743D01*
X141723157Y-75523743D02*
X141737442Y-75538029D01*
X141737442Y-75538029D02*
X141751728Y-75566600D01*
X141751728Y-75566600D02*
X141751728Y-75680886D01*
X141894585Y-75152315D02*
X141594585Y-75152315D01*
X141594585Y-75152315D02*
X141594585Y-75038029D01*
X141594585Y-75038029D02*
X141608871Y-75009458D01*
X141608871Y-75009458D02*
X141623157Y-74995172D01*
X141623157Y-74995172D02*
X141651728Y-74980886D01*
X141651728Y-74980886D02*
X141694585Y-74980886D01*
X141694585Y-74980886D02*
X141723157Y-74995172D01*
X141723157Y-74995172D02*
X141737442Y-75009458D01*
X141737442Y-75009458D02*
X141751728Y-75038029D01*
X141751728Y-75038029D02*
X141751728Y-75152315D01*
X141594585Y-74880886D02*
X141894585Y-74809458D01*
X141894585Y-74809458D02*
X141680300Y-74752315D01*
X141680300Y-74752315D02*
X141894585Y-74695172D01*
X141894585Y-74695172D02*
X141594585Y-74623744D01*
X141894585Y-74338029D02*
X141751728Y-74438029D01*
X141894585Y-74509458D02*
X141594585Y-74509458D01*
X141594585Y-74509458D02*
X141594585Y-74395172D01*
X141594585Y-74395172D02*
X141608871Y-74366601D01*
X141608871Y-74366601D02*
X141623157Y-74352315D01*
X141623157Y-74352315D02*
X141651728Y-74338029D01*
X141651728Y-74338029D02*
X141694585Y-74338029D01*
X141694585Y-74338029D02*
X141723157Y-74352315D01*
X141723157Y-74352315D02*
X141737442Y-74366601D01*
X141737442Y-74366601D02*
X141751728Y-74395172D01*
X141751728Y-74395172D02*
X141751728Y-74509458D01*
X160644585Y-90506429D02*
X160887442Y-90506429D01*
X160887442Y-90506429D02*
X160916014Y-90492143D01*
X160916014Y-90492143D02*
X160930300Y-90477858D01*
X160930300Y-90477858D02*
X160944585Y-90449286D01*
X160944585Y-90449286D02*
X160944585Y-90392143D01*
X160944585Y-90392143D02*
X160930300Y-90363572D01*
X160930300Y-90363572D02*
X160916014Y-90349286D01*
X160916014Y-90349286D02*
X160887442Y-90335000D01*
X160887442Y-90335000D02*
X160644585Y-90335000D01*
X160930300Y-90206429D02*
X160944585Y-90163572D01*
X160944585Y-90163572D02*
X160944585Y-90092143D01*
X160944585Y-90092143D02*
X160930300Y-90063572D01*
X160930300Y-90063572D02*
X160916014Y-90049286D01*
X160916014Y-90049286D02*
X160887442Y-90035000D01*
X160887442Y-90035000D02*
X160858871Y-90035000D01*
X160858871Y-90035000D02*
X160830300Y-90049286D01*
X160830300Y-90049286D02*
X160816014Y-90063572D01*
X160816014Y-90063572D02*
X160801728Y-90092143D01*
X160801728Y-90092143D02*
X160787442Y-90149286D01*
X160787442Y-90149286D02*
X160773157Y-90177857D01*
X160773157Y-90177857D02*
X160758871Y-90192143D01*
X160758871Y-90192143D02*
X160730300Y-90206429D01*
X160730300Y-90206429D02*
X160701728Y-90206429D01*
X160701728Y-90206429D02*
X160673157Y-90192143D01*
X160673157Y-90192143D02*
X160658871Y-90177857D01*
X160658871Y-90177857D02*
X160644585Y-90149286D01*
X160644585Y-90149286D02*
X160644585Y-90077857D01*
X160644585Y-90077857D02*
X160658871Y-90035000D01*
X160787442Y-89806429D02*
X160801728Y-89763572D01*
X160801728Y-89763572D02*
X160816014Y-89749286D01*
X160816014Y-89749286D02*
X160844585Y-89735000D01*
X160844585Y-89735000D02*
X160887442Y-89735000D01*
X160887442Y-89735000D02*
X160916014Y-89749286D01*
X160916014Y-89749286D02*
X160930300Y-89763572D01*
X160930300Y-89763572D02*
X160944585Y-89792143D01*
X160944585Y-89792143D02*
X160944585Y-89906429D01*
X160944585Y-89906429D02*
X160644585Y-89906429D01*
X160644585Y-89906429D02*
X160644585Y-89806429D01*
X160644585Y-89806429D02*
X160658871Y-89777858D01*
X160658871Y-89777858D02*
X160673157Y-89763572D01*
X160673157Y-89763572D02*
X160701728Y-89749286D01*
X160701728Y-89749286D02*
X160730300Y-89749286D01*
X160730300Y-89749286D02*
X160758871Y-89763572D01*
X160758871Y-89763572D02*
X160773157Y-89777858D01*
X160773157Y-89777858D02*
X160787442Y-89806429D01*
X160787442Y-89806429D02*
X160787442Y-89906429D01*
X160944585Y-89377858D02*
X160644585Y-89377858D01*
X160644585Y-89377858D02*
X160644585Y-89263572D01*
X160644585Y-89263572D02*
X160658871Y-89235001D01*
X160658871Y-89235001D02*
X160673157Y-89220715D01*
X160673157Y-89220715D02*
X160701728Y-89206429D01*
X160701728Y-89206429D02*
X160744585Y-89206429D01*
X160744585Y-89206429D02*
X160773157Y-89220715D01*
X160773157Y-89220715D02*
X160787442Y-89235001D01*
X160787442Y-89235001D02*
X160801728Y-89263572D01*
X160801728Y-89263572D02*
X160801728Y-89377858D01*
X160644585Y-89106429D02*
X160944585Y-89035001D01*
X160944585Y-89035001D02*
X160730300Y-88977858D01*
X160730300Y-88977858D02*
X160944585Y-88920715D01*
X160944585Y-88920715D02*
X160644585Y-88849287D01*
X160944585Y-88563572D02*
X160801728Y-88663572D01*
X160944585Y-88735001D02*
X160644585Y-88735001D01*
X160644585Y-88735001D02*
X160644585Y-88620715D01*
X160644585Y-88620715D02*
X160658871Y-88592144D01*
X160658871Y-88592144D02*
X160673157Y-88577858D01*
X160673157Y-88577858D02*
X160701728Y-88563572D01*
X160701728Y-88563572D02*
X160744585Y-88563572D01*
X160744585Y-88563572D02*
X160773157Y-88577858D01*
X160773157Y-88577858D02*
X160787442Y-88592144D01*
X160787442Y-88592144D02*
X160801728Y-88620715D01*
X160801728Y-88620715D02*
X160801728Y-88735001D01*
D11*
X163746859Y-59246371D02*
X163675431Y-59317800D01*
X163675431Y-59317800D02*
X163461145Y-59389228D01*
X163461145Y-59389228D02*
X163318288Y-59389228D01*
X163318288Y-59389228D02*
X163104002Y-59317800D01*
X163104002Y-59317800D02*
X162961145Y-59174942D01*
X162961145Y-59174942D02*
X162889716Y-59032085D01*
X162889716Y-59032085D02*
X162818288Y-58746371D01*
X162818288Y-58746371D02*
X162818288Y-58532085D01*
X162818288Y-58532085D02*
X162889716Y-58246371D01*
X162889716Y-58246371D02*
X162961145Y-58103514D01*
X162961145Y-58103514D02*
X163104002Y-57960657D01*
X163104002Y-57960657D02*
X163318288Y-57889228D01*
X163318288Y-57889228D02*
X163461145Y-57889228D01*
X163461145Y-57889228D02*
X163675431Y-57960657D01*
X163675431Y-57960657D02*
X163746859Y-58032085D01*
X165032574Y-59389228D02*
X165032574Y-58603514D01*
X165032574Y-58603514D02*
X164961145Y-58460657D01*
X164961145Y-58460657D02*
X164818288Y-58389228D01*
X164818288Y-58389228D02*
X164532574Y-58389228D01*
X164532574Y-58389228D02*
X164389716Y-58460657D01*
X165032574Y-59317800D02*
X164889716Y-59389228D01*
X164889716Y-59389228D02*
X164532574Y-59389228D01*
X164532574Y-59389228D02*
X164389716Y-59317800D01*
X164389716Y-59317800D02*
X164318288Y-59174942D01*
X164318288Y-59174942D02*
X164318288Y-59032085D01*
X164318288Y-59032085D02*
X164389716Y-58889228D01*
X164389716Y-58889228D02*
X164532574Y-58817800D01*
X164532574Y-58817800D02*
X164889716Y-58817800D01*
X164889716Y-58817800D02*
X165032574Y-58746371D01*
X165961145Y-59389228D02*
X165818288Y-59317800D01*
X165818288Y-59317800D02*
X165746859Y-59174942D01*
X165746859Y-59174942D02*
X165746859Y-57889228D01*
X166532573Y-59389228D02*
X166532573Y-58389228D01*
X166532573Y-57889228D02*
X166461145Y-57960657D01*
X166461145Y-57960657D02*
X166532573Y-58032085D01*
X166532573Y-58032085D02*
X166604002Y-57960657D01*
X166604002Y-57960657D02*
X166532573Y-57889228D01*
X166532573Y-57889228D02*
X166532573Y-58032085D01*
X167246859Y-59389228D02*
X167246859Y-57889228D01*
X167246859Y-58460657D02*
X167389717Y-58389228D01*
X167389717Y-58389228D02*
X167675431Y-58389228D01*
X167675431Y-58389228D02*
X167818288Y-58460657D01*
X167818288Y-58460657D02*
X167889717Y-58532085D01*
X167889717Y-58532085D02*
X167961145Y-58674942D01*
X167961145Y-58674942D02*
X167961145Y-59103514D01*
X167961145Y-59103514D02*
X167889717Y-59246371D01*
X167889717Y-59246371D02*
X167818288Y-59317800D01*
X167818288Y-59317800D02*
X167675431Y-59389228D01*
X167675431Y-59389228D02*
X167389717Y-59389228D01*
X167389717Y-59389228D02*
X167246859Y-59317800D01*
X168604002Y-59389228D02*
X168604002Y-58389228D01*
X168604002Y-58674942D02*
X168675431Y-58532085D01*
X168675431Y-58532085D02*
X168746860Y-58460657D01*
X168746860Y-58460657D02*
X168889717Y-58389228D01*
X168889717Y-58389228D02*
X169032574Y-58389228D01*
X170175431Y-59389228D02*
X170175431Y-58603514D01*
X170175431Y-58603514D02*
X170104002Y-58460657D01*
X170104002Y-58460657D02*
X169961145Y-58389228D01*
X169961145Y-58389228D02*
X169675431Y-58389228D01*
X169675431Y-58389228D02*
X169532573Y-58460657D01*
X170175431Y-59317800D02*
X170032573Y-59389228D01*
X170032573Y-59389228D02*
X169675431Y-59389228D01*
X169675431Y-59389228D02*
X169532573Y-59317800D01*
X169532573Y-59317800D02*
X169461145Y-59174942D01*
X169461145Y-59174942D02*
X169461145Y-59032085D01*
X169461145Y-59032085D02*
X169532573Y-58889228D01*
X169532573Y-58889228D02*
X169675431Y-58817800D01*
X169675431Y-58817800D02*
X170032573Y-58817800D01*
X170032573Y-58817800D02*
X170175431Y-58746371D01*
X170675431Y-58389228D02*
X171246859Y-58389228D01*
X170889716Y-57889228D02*
X170889716Y-59174942D01*
X170889716Y-59174942D02*
X170961145Y-59317800D01*
X170961145Y-59317800D02*
X171104002Y-59389228D01*
X171104002Y-59389228D02*
X171246859Y-59389228D01*
X172318288Y-59317800D02*
X172175431Y-59389228D01*
X172175431Y-59389228D02*
X171889717Y-59389228D01*
X171889717Y-59389228D02*
X171746859Y-59317800D01*
X171746859Y-59317800D02*
X171675431Y-59174942D01*
X171675431Y-59174942D02*
X171675431Y-58603514D01*
X171675431Y-58603514D02*
X171746859Y-58460657D01*
X171746859Y-58460657D02*
X171889717Y-58389228D01*
X171889717Y-58389228D02*
X172175431Y-58389228D01*
X172175431Y-58389228D02*
X172318288Y-58460657D01*
X172318288Y-58460657D02*
X172389717Y-58603514D01*
X172389717Y-58603514D02*
X172389717Y-58746371D01*
X172389717Y-58746371D02*
X171675431Y-58889228D01*
X176011253Y-74680028D02*
X175511253Y-73965742D01*
X175154110Y-74680028D02*
X175154110Y-73180028D01*
X175154110Y-73180028D02*
X175725539Y-73180028D01*
X175725539Y-73180028D02*
X175868396Y-73251457D01*
X175868396Y-73251457D02*
X175939825Y-73322885D01*
X175939825Y-73322885D02*
X176011253Y-73465742D01*
X176011253Y-73465742D02*
X176011253Y-73680028D01*
X176011253Y-73680028D02*
X175939825Y-73822885D01*
X175939825Y-73822885D02*
X175868396Y-73894314D01*
X175868396Y-73894314D02*
X175725539Y-73965742D01*
X175725539Y-73965742D02*
X175154110Y-73965742D01*
X177225539Y-74608600D02*
X177082682Y-74680028D01*
X177082682Y-74680028D02*
X176796968Y-74680028D01*
X176796968Y-74680028D02*
X176654110Y-74608600D01*
X176654110Y-74608600D02*
X176582682Y-74465742D01*
X176582682Y-74465742D02*
X176582682Y-73894314D01*
X176582682Y-73894314D02*
X176654110Y-73751457D01*
X176654110Y-73751457D02*
X176796968Y-73680028D01*
X176796968Y-73680028D02*
X177082682Y-73680028D01*
X177082682Y-73680028D02*
X177225539Y-73751457D01*
X177225539Y-73751457D02*
X177296968Y-73894314D01*
X177296968Y-73894314D02*
X177296968Y-74037171D01*
X177296968Y-74037171D02*
X176582682Y-74180028D01*
X177868396Y-74608600D02*
X178011253Y-74680028D01*
X178011253Y-74680028D02*
X178296967Y-74680028D01*
X178296967Y-74680028D02*
X178439824Y-74608600D01*
X178439824Y-74608600D02*
X178511253Y-74465742D01*
X178511253Y-74465742D02*
X178511253Y-74394314D01*
X178511253Y-74394314D02*
X178439824Y-74251457D01*
X178439824Y-74251457D02*
X178296967Y-74180028D01*
X178296967Y-74180028D02*
X178082682Y-74180028D01*
X178082682Y-74180028D02*
X177939824Y-74108600D01*
X177939824Y-74108600D02*
X177868396Y-73965742D01*
X177868396Y-73965742D02*
X177868396Y-73894314D01*
X177868396Y-73894314D02*
X177939824Y-73751457D01*
X177939824Y-73751457D02*
X178082682Y-73680028D01*
X178082682Y-73680028D02*
X178296967Y-73680028D01*
X178296967Y-73680028D02*
X178439824Y-73751457D01*
X179725539Y-74608600D02*
X179582682Y-74680028D01*
X179582682Y-74680028D02*
X179296968Y-74680028D01*
X179296968Y-74680028D02*
X179154110Y-74608600D01*
X179154110Y-74608600D02*
X179082682Y-74465742D01*
X179082682Y-74465742D02*
X179082682Y-73894314D01*
X179082682Y-73894314D02*
X179154110Y-73751457D01*
X179154110Y-73751457D02*
X179296968Y-73680028D01*
X179296968Y-73680028D02*
X179582682Y-73680028D01*
X179582682Y-73680028D02*
X179725539Y-73751457D01*
X179725539Y-73751457D02*
X179796968Y-73894314D01*
X179796968Y-73894314D02*
X179796968Y-74037171D01*
X179796968Y-74037171D02*
X179082682Y-74180028D01*
X180225539Y-73680028D02*
X180796967Y-73680028D01*
X180439824Y-73180028D02*
X180439824Y-74465742D01*
X180439824Y-74465742D02*
X180511253Y-74608600D01*
X180511253Y-74608600D02*
X180654110Y-74680028D01*
X180654110Y-74680028D02*
X180796967Y-74680028D01*
X184950510Y-73894314D02*
X185164796Y-73965742D01*
X185164796Y-73965742D02*
X185236225Y-74037171D01*
X185236225Y-74037171D02*
X185307653Y-74180028D01*
X185307653Y-74180028D02*
X185307653Y-74394314D01*
X185307653Y-74394314D02*
X185236225Y-74537171D01*
X185236225Y-74537171D02*
X185164796Y-74608600D01*
X185164796Y-74608600D02*
X185021939Y-74680028D01*
X185021939Y-74680028D02*
X184450510Y-74680028D01*
X184450510Y-74680028D02*
X184450510Y-73180028D01*
X184450510Y-73180028D02*
X184950510Y-73180028D01*
X184950510Y-73180028D02*
X185093368Y-73251457D01*
X185093368Y-73251457D02*
X185164796Y-73322885D01*
X185164796Y-73322885D02*
X185236225Y-73465742D01*
X185236225Y-73465742D02*
X185236225Y-73608600D01*
X185236225Y-73608600D02*
X185164796Y-73751457D01*
X185164796Y-73751457D02*
X185093368Y-73822885D01*
X185093368Y-73822885D02*
X184950510Y-73894314D01*
X184950510Y-73894314D02*
X184450510Y-73894314D01*
X186164796Y-74680028D02*
X186021939Y-74608600D01*
X186021939Y-74608600D02*
X185950510Y-74537171D01*
X185950510Y-74537171D02*
X185879082Y-74394314D01*
X185879082Y-74394314D02*
X185879082Y-73965742D01*
X185879082Y-73965742D02*
X185950510Y-73822885D01*
X185950510Y-73822885D02*
X186021939Y-73751457D01*
X186021939Y-73751457D02*
X186164796Y-73680028D01*
X186164796Y-73680028D02*
X186379082Y-73680028D01*
X186379082Y-73680028D02*
X186521939Y-73751457D01*
X186521939Y-73751457D02*
X186593368Y-73822885D01*
X186593368Y-73822885D02*
X186664796Y-73965742D01*
X186664796Y-73965742D02*
X186664796Y-74394314D01*
X186664796Y-74394314D02*
X186593368Y-74537171D01*
X186593368Y-74537171D02*
X186521939Y-74608600D01*
X186521939Y-74608600D02*
X186379082Y-74680028D01*
X186379082Y-74680028D02*
X186164796Y-74680028D01*
X187521939Y-74680028D02*
X187379082Y-74608600D01*
X187379082Y-74608600D02*
X187307653Y-74537171D01*
X187307653Y-74537171D02*
X187236225Y-74394314D01*
X187236225Y-74394314D02*
X187236225Y-73965742D01*
X187236225Y-73965742D02*
X187307653Y-73822885D01*
X187307653Y-73822885D02*
X187379082Y-73751457D01*
X187379082Y-73751457D02*
X187521939Y-73680028D01*
X187521939Y-73680028D02*
X187736225Y-73680028D01*
X187736225Y-73680028D02*
X187879082Y-73751457D01*
X187879082Y-73751457D02*
X187950511Y-73822885D01*
X187950511Y-73822885D02*
X188021939Y-73965742D01*
X188021939Y-73965742D02*
X188021939Y-74394314D01*
X188021939Y-74394314D02*
X187950511Y-74537171D01*
X187950511Y-74537171D02*
X187879082Y-74608600D01*
X187879082Y-74608600D02*
X187736225Y-74680028D01*
X187736225Y-74680028D02*
X187521939Y-74680028D01*
X188450511Y-73680028D02*
X189021939Y-73680028D01*
X188664796Y-73180028D02*
X188664796Y-74465742D01*
X188664796Y-74465742D02*
X188736225Y-74608600D01*
X188736225Y-74608600D02*
X188879082Y-74680028D01*
X188879082Y-74680028D02*
X189021939Y-74680028D01*
X152640114Y-44945489D02*
X152640114Y-45445489D01*
X153425828Y-45445489D02*
X151925828Y-45445489D01*
X151925828Y-45445489D02*
X151925828Y-44731203D01*
X153425828Y-43945489D02*
X153354400Y-44088346D01*
X153354400Y-44088346D02*
X153211542Y-44159775D01*
X153211542Y-44159775D02*
X151925828Y-44159775D01*
X153425828Y-43159775D02*
X153354400Y-43302632D01*
X153354400Y-43302632D02*
X153282971Y-43374061D01*
X153282971Y-43374061D02*
X153140114Y-43445489D01*
X153140114Y-43445489D02*
X152711542Y-43445489D01*
X152711542Y-43445489D02*
X152568685Y-43374061D01*
X152568685Y-43374061D02*
X152497257Y-43302632D01*
X152497257Y-43302632D02*
X152425828Y-43159775D01*
X152425828Y-43159775D02*
X152425828Y-42945489D01*
X152425828Y-42945489D02*
X152497257Y-42802632D01*
X152497257Y-42802632D02*
X152568685Y-42731204D01*
X152568685Y-42731204D02*
X152711542Y-42659775D01*
X152711542Y-42659775D02*
X153140114Y-42659775D01*
X153140114Y-42659775D02*
X153282971Y-42731204D01*
X153282971Y-42731204D02*
X153354400Y-42802632D01*
X153354400Y-42802632D02*
X153425828Y-42945489D01*
X153425828Y-42945489D02*
X153425828Y-43159775D01*
X153425828Y-41374061D02*
X152640114Y-41374061D01*
X152640114Y-41374061D02*
X152497257Y-41445489D01*
X152497257Y-41445489D02*
X152425828Y-41588346D01*
X152425828Y-41588346D02*
X152425828Y-41874061D01*
X152425828Y-41874061D02*
X152497257Y-42016918D01*
X153354400Y-41374061D02*
X153425828Y-41516918D01*
X153425828Y-41516918D02*
X153425828Y-41874061D01*
X153425828Y-41874061D02*
X153354400Y-42016918D01*
X153354400Y-42016918D02*
X153211542Y-42088346D01*
X153211542Y-42088346D02*
X153068685Y-42088346D01*
X153068685Y-42088346D02*
X152925828Y-42016918D01*
X152925828Y-42016918D02*
X152854400Y-41874061D01*
X152854400Y-41874061D02*
X152854400Y-41516918D01*
X152854400Y-41516918D02*
X152782971Y-41374061D01*
X152425828Y-40874060D02*
X152425828Y-40302632D01*
X151925828Y-40659775D02*
X153211542Y-40659775D01*
X153211542Y-40659775D02*
X153354400Y-40588346D01*
X153354400Y-40588346D02*
X153425828Y-40445489D01*
X153425828Y-40445489D02*
X153425828Y-40302632D01*
X153354400Y-38731203D02*
X153425828Y-38516918D01*
X153425828Y-38516918D02*
X153425828Y-38159775D01*
X153425828Y-38159775D02*
X153354400Y-38016918D01*
X153354400Y-38016918D02*
X153282971Y-37945489D01*
X153282971Y-37945489D02*
X153140114Y-37874060D01*
X153140114Y-37874060D02*
X152997257Y-37874060D01*
X152997257Y-37874060D02*
X152854400Y-37945489D01*
X152854400Y-37945489D02*
X152782971Y-38016918D01*
X152782971Y-38016918D02*
X152711542Y-38159775D01*
X152711542Y-38159775D02*
X152640114Y-38445489D01*
X152640114Y-38445489D02*
X152568685Y-38588346D01*
X152568685Y-38588346D02*
X152497257Y-38659775D01*
X152497257Y-38659775D02*
X152354400Y-38731203D01*
X152354400Y-38731203D02*
X152211542Y-38731203D01*
X152211542Y-38731203D02*
X152068685Y-38659775D01*
X152068685Y-38659775D02*
X151997257Y-38588346D01*
X151997257Y-38588346D02*
X151925828Y-38445489D01*
X151925828Y-38445489D02*
X151925828Y-38088346D01*
X151925828Y-38088346D02*
X151997257Y-37874060D01*
X152425828Y-37374061D02*
X153425828Y-37088347D01*
X153425828Y-37088347D02*
X152711542Y-36802632D01*
X152711542Y-36802632D02*
X153425828Y-36516918D01*
X153425828Y-36516918D02*
X152425828Y-36231204D01*
X153282971Y-35659775D02*
X153354400Y-35588346D01*
X153354400Y-35588346D02*
X153425828Y-35659775D01*
X153425828Y-35659775D02*
X153354400Y-35731203D01*
X153354400Y-35731203D02*
X153282971Y-35659775D01*
X153282971Y-35659775D02*
X153425828Y-35659775D01*
X153877228Y-55122289D02*
X152377228Y-55122289D01*
X152377228Y-55122289D02*
X153448657Y-54622289D01*
X153448657Y-54622289D02*
X152377228Y-54122289D01*
X152377228Y-54122289D02*
X153877228Y-54122289D01*
X153877228Y-53193717D02*
X153805800Y-53336574D01*
X153805800Y-53336574D02*
X153734371Y-53408003D01*
X153734371Y-53408003D02*
X153591514Y-53479431D01*
X153591514Y-53479431D02*
X153162942Y-53479431D01*
X153162942Y-53479431D02*
X153020085Y-53408003D01*
X153020085Y-53408003D02*
X152948657Y-53336574D01*
X152948657Y-53336574D02*
X152877228Y-53193717D01*
X152877228Y-53193717D02*
X152877228Y-52979431D01*
X152877228Y-52979431D02*
X152948657Y-52836574D01*
X152948657Y-52836574D02*
X153020085Y-52765146D01*
X153020085Y-52765146D02*
X153162942Y-52693717D01*
X153162942Y-52693717D02*
X153591514Y-52693717D01*
X153591514Y-52693717D02*
X153734371Y-52765146D01*
X153734371Y-52765146D02*
X153805800Y-52836574D01*
X153805800Y-52836574D02*
X153877228Y-52979431D01*
X153877228Y-52979431D02*
X153877228Y-53193717D01*
X153877228Y-52050860D02*
X152877228Y-52050860D01*
X152377228Y-52050860D02*
X152448657Y-52122288D01*
X152448657Y-52122288D02*
X152520085Y-52050860D01*
X152520085Y-52050860D02*
X152448657Y-51979431D01*
X152448657Y-51979431D02*
X152377228Y-52050860D01*
X152377228Y-52050860D02*
X152520085Y-52050860D01*
X153805800Y-51408002D02*
X153877228Y-51265145D01*
X153877228Y-51265145D02*
X153877228Y-50979431D01*
X153877228Y-50979431D02*
X153805800Y-50836574D01*
X153805800Y-50836574D02*
X153662942Y-50765145D01*
X153662942Y-50765145D02*
X153591514Y-50765145D01*
X153591514Y-50765145D02*
X153448657Y-50836574D01*
X153448657Y-50836574D02*
X153377228Y-50979431D01*
X153377228Y-50979431D02*
X153377228Y-51193717D01*
X153377228Y-51193717D02*
X153305800Y-51336574D01*
X153305800Y-51336574D02*
X153162942Y-51408002D01*
X153162942Y-51408002D02*
X153091514Y-51408002D01*
X153091514Y-51408002D02*
X152948657Y-51336574D01*
X152948657Y-51336574D02*
X152877228Y-51193717D01*
X152877228Y-51193717D02*
X152877228Y-50979431D01*
X152877228Y-50979431D02*
X152948657Y-50836574D01*
X152877228Y-50336573D02*
X152877228Y-49765145D01*
X152377228Y-50122288D02*
X153662942Y-50122288D01*
X153662942Y-50122288D02*
X153805800Y-50050859D01*
X153805800Y-50050859D02*
X153877228Y-49908002D01*
X153877228Y-49908002D02*
X153877228Y-49765145D01*
X153734371Y-49265145D02*
X153805800Y-49193716D01*
X153805800Y-49193716D02*
X153877228Y-49265145D01*
X153877228Y-49265145D02*
X153805800Y-49336573D01*
X153805800Y-49336573D02*
X153734371Y-49265145D01*
X153734371Y-49265145D02*
X153877228Y-49265145D01*
X154029628Y-65587089D02*
X152529628Y-65587089D01*
X152529628Y-65587089D02*
X152529628Y-65015660D01*
X152529628Y-65015660D02*
X152601057Y-64872803D01*
X152601057Y-64872803D02*
X152672485Y-64801374D01*
X152672485Y-64801374D02*
X152815342Y-64729946D01*
X152815342Y-64729946D02*
X153029628Y-64729946D01*
X153029628Y-64729946D02*
X153172485Y-64801374D01*
X153172485Y-64801374D02*
X153243914Y-64872803D01*
X153243914Y-64872803D02*
X153315342Y-65015660D01*
X153315342Y-65015660D02*
X153315342Y-65587089D01*
X153029628Y-63444232D02*
X154029628Y-63444232D01*
X153029628Y-64087089D02*
X153815342Y-64087089D01*
X153815342Y-64087089D02*
X153958200Y-64015660D01*
X153958200Y-64015660D02*
X154029628Y-63872803D01*
X154029628Y-63872803D02*
X154029628Y-63658517D01*
X154029628Y-63658517D02*
X153958200Y-63515660D01*
X153958200Y-63515660D02*
X153886771Y-63444232D01*
X154029628Y-62729946D02*
X153029628Y-62729946D01*
X153172485Y-62729946D02*
X153101057Y-62658517D01*
X153101057Y-62658517D02*
X153029628Y-62515660D01*
X153029628Y-62515660D02*
X153029628Y-62301374D01*
X153029628Y-62301374D02*
X153101057Y-62158517D01*
X153101057Y-62158517D02*
X153243914Y-62087089D01*
X153243914Y-62087089D02*
X154029628Y-62087089D01*
X153243914Y-62087089D02*
X153101057Y-62015660D01*
X153101057Y-62015660D02*
X153029628Y-61872803D01*
X153029628Y-61872803D02*
X153029628Y-61658517D01*
X153029628Y-61658517D02*
X153101057Y-61515660D01*
X153101057Y-61515660D02*
X153243914Y-61444231D01*
X153243914Y-61444231D02*
X154029628Y-61444231D01*
X153029628Y-60729946D02*
X154529628Y-60729946D01*
X153101057Y-60729946D02*
X153029628Y-60587089D01*
X153029628Y-60587089D02*
X153029628Y-60301374D01*
X153029628Y-60301374D02*
X153101057Y-60158517D01*
X153101057Y-60158517D02*
X153172485Y-60087089D01*
X153172485Y-60087089D02*
X153315342Y-60015660D01*
X153315342Y-60015660D02*
X153743914Y-60015660D01*
X153743914Y-60015660D02*
X153886771Y-60087089D01*
X153886771Y-60087089D02*
X153958200Y-60158517D01*
X153958200Y-60158517D02*
X154029628Y-60301374D01*
X154029628Y-60301374D02*
X154029628Y-60587089D01*
X154029628Y-60587089D02*
X153958200Y-60729946D01*
X155045628Y-94238289D02*
X153545628Y-94238289D01*
X153545628Y-94238289D02*
X153545628Y-93666860D01*
X153545628Y-93666860D02*
X153617057Y-93524003D01*
X153617057Y-93524003D02*
X153688485Y-93452574D01*
X153688485Y-93452574D02*
X153831342Y-93381146D01*
X153831342Y-93381146D02*
X154045628Y-93381146D01*
X154045628Y-93381146D02*
X154188485Y-93452574D01*
X154188485Y-93452574D02*
X154259914Y-93524003D01*
X154259914Y-93524003D02*
X154331342Y-93666860D01*
X154331342Y-93666860D02*
X154331342Y-94238289D01*
X154045628Y-92095432D02*
X155045628Y-92095432D01*
X154045628Y-92738289D02*
X154831342Y-92738289D01*
X154831342Y-92738289D02*
X154974200Y-92666860D01*
X154974200Y-92666860D02*
X155045628Y-92524003D01*
X155045628Y-92524003D02*
X155045628Y-92309717D01*
X155045628Y-92309717D02*
X154974200Y-92166860D01*
X154974200Y-92166860D02*
X154902771Y-92095432D01*
X155045628Y-91381146D02*
X154045628Y-91381146D01*
X154188485Y-91381146D02*
X154117057Y-91309717D01*
X154117057Y-91309717D02*
X154045628Y-91166860D01*
X154045628Y-91166860D02*
X154045628Y-90952574D01*
X154045628Y-90952574D02*
X154117057Y-90809717D01*
X154117057Y-90809717D02*
X154259914Y-90738289D01*
X154259914Y-90738289D02*
X155045628Y-90738289D01*
X154259914Y-90738289D02*
X154117057Y-90666860D01*
X154117057Y-90666860D02*
X154045628Y-90524003D01*
X154045628Y-90524003D02*
X154045628Y-90309717D01*
X154045628Y-90309717D02*
X154117057Y-90166860D01*
X154117057Y-90166860D02*
X154259914Y-90095431D01*
X154259914Y-90095431D02*
X155045628Y-90095431D01*
X154045628Y-89381146D02*
X155545628Y-89381146D01*
X154117057Y-89381146D02*
X154045628Y-89238289D01*
X154045628Y-89238289D02*
X154045628Y-88952574D01*
X154045628Y-88952574D02*
X154117057Y-88809717D01*
X154117057Y-88809717D02*
X154188485Y-88738289D01*
X154188485Y-88738289D02*
X154331342Y-88666860D01*
X154331342Y-88666860D02*
X154759914Y-88666860D01*
X154759914Y-88666860D02*
X154902771Y-88738289D01*
X154902771Y-88738289D02*
X154974200Y-88809717D01*
X154974200Y-88809717D02*
X155045628Y-88952574D01*
X155045628Y-88952574D02*
X155045628Y-89238289D01*
X155045628Y-89238289D02*
X154974200Y-89381146D01*
X155045628Y-86881146D02*
X153545628Y-86881146D01*
X153545628Y-86881146D02*
X153545628Y-86309717D01*
X153545628Y-86309717D02*
X153617057Y-86166860D01*
X153617057Y-86166860D02*
X153688485Y-86095431D01*
X153688485Y-86095431D02*
X153831342Y-86024003D01*
X153831342Y-86024003D02*
X154045628Y-86024003D01*
X154045628Y-86024003D02*
X154188485Y-86095431D01*
X154188485Y-86095431D02*
X154259914Y-86166860D01*
X154259914Y-86166860D02*
X154331342Y-86309717D01*
X154331342Y-86309717D02*
X154331342Y-86881146D01*
X153545628Y-85524003D02*
X155045628Y-85166860D01*
X155045628Y-85166860D02*
X153974200Y-84881146D01*
X153974200Y-84881146D02*
X155045628Y-84595431D01*
X155045628Y-84595431D02*
X153545628Y-84238289D01*
X155045628Y-82809717D02*
X154331342Y-83309717D01*
X155045628Y-83666860D02*
X153545628Y-83666860D01*
X153545628Y-83666860D02*
X153545628Y-83095431D01*
X153545628Y-83095431D02*
X153617057Y-82952574D01*
X153617057Y-82952574D02*
X153688485Y-82881145D01*
X153688485Y-82881145D02*
X153831342Y-82809717D01*
X153831342Y-82809717D02*
X154045628Y-82809717D01*
X154045628Y-82809717D02*
X154188485Y-82881145D01*
X154188485Y-82881145D02*
X154259914Y-82952574D01*
X154259914Y-82952574D02*
X154331342Y-83095431D01*
X154331342Y-83095431D02*
X154331342Y-83666860D01*
X174579914Y-94644689D02*
X174579914Y-94144689D01*
X175365628Y-93930403D02*
X175365628Y-94644689D01*
X175365628Y-94644689D02*
X173865628Y-94644689D01*
X173865628Y-94644689D02*
X173865628Y-93930403D01*
X175294200Y-93358974D02*
X175365628Y-93144689D01*
X175365628Y-93144689D02*
X175365628Y-92787546D01*
X175365628Y-92787546D02*
X175294200Y-92644689D01*
X175294200Y-92644689D02*
X175222771Y-92573260D01*
X175222771Y-92573260D02*
X175079914Y-92501831D01*
X175079914Y-92501831D02*
X174937057Y-92501831D01*
X174937057Y-92501831D02*
X174794200Y-92573260D01*
X174794200Y-92573260D02*
X174722771Y-92644689D01*
X174722771Y-92644689D02*
X174651342Y-92787546D01*
X174651342Y-92787546D02*
X174579914Y-93073260D01*
X174579914Y-93073260D02*
X174508485Y-93216117D01*
X174508485Y-93216117D02*
X174437057Y-93287546D01*
X174437057Y-93287546D02*
X174294200Y-93358974D01*
X174294200Y-93358974D02*
X174151342Y-93358974D01*
X174151342Y-93358974D02*
X174008485Y-93287546D01*
X174008485Y-93287546D02*
X173937057Y-93216117D01*
X173937057Y-93216117D02*
X173865628Y-93073260D01*
X173865628Y-93073260D02*
X173865628Y-92716117D01*
X173865628Y-92716117D02*
X173937057Y-92501831D01*
X175365628Y-91858975D02*
X173865628Y-91858975D01*
X173865628Y-91858975D02*
X173865628Y-91287546D01*
X173865628Y-91287546D02*
X173937057Y-91144689D01*
X173937057Y-91144689D02*
X174008485Y-91073260D01*
X174008485Y-91073260D02*
X174151342Y-91001832D01*
X174151342Y-91001832D02*
X174365628Y-91001832D01*
X174365628Y-91001832D02*
X174508485Y-91073260D01*
X174508485Y-91073260D02*
X174579914Y-91144689D01*
X174579914Y-91144689D02*
X174651342Y-91287546D01*
X174651342Y-91287546D02*
X174651342Y-91858975D01*
X175365628Y-89216118D02*
X173865628Y-89216118D01*
X173865628Y-89216118D02*
X173865628Y-88644689D01*
X173865628Y-88644689D02*
X173937057Y-88501832D01*
X173937057Y-88501832D02*
X174008485Y-88430403D01*
X174008485Y-88430403D02*
X174151342Y-88358975D01*
X174151342Y-88358975D02*
X174365628Y-88358975D01*
X174365628Y-88358975D02*
X174508485Y-88430403D01*
X174508485Y-88430403D02*
X174579914Y-88501832D01*
X174579914Y-88501832D02*
X174651342Y-88644689D01*
X174651342Y-88644689D02*
X174651342Y-89216118D01*
X173865628Y-87858975D02*
X175365628Y-87501832D01*
X175365628Y-87501832D02*
X174294200Y-87216118D01*
X174294200Y-87216118D02*
X175365628Y-86930403D01*
X175365628Y-86930403D02*
X173865628Y-86573261D01*
X175365628Y-85144689D02*
X174651342Y-85644689D01*
X175365628Y-86001832D02*
X173865628Y-86001832D01*
X173865628Y-86001832D02*
X173865628Y-85430403D01*
X173865628Y-85430403D02*
X173937057Y-85287546D01*
X173937057Y-85287546D02*
X174008485Y-85216117D01*
X174008485Y-85216117D02*
X174151342Y-85144689D01*
X174151342Y-85144689D02*
X174365628Y-85144689D01*
X174365628Y-85144689D02*
X174508485Y-85216117D01*
X174508485Y-85216117D02*
X174579914Y-85287546D01*
X174579914Y-85287546D02*
X174651342Y-85430403D01*
X174651342Y-85430403D02*
X174651342Y-86001832D01*
D12*
X140311708Y-71497349D02*
X139835517Y-71830682D01*
X140311708Y-72068777D02*
X139311708Y-72068777D01*
X139311708Y-72068777D02*
X139311708Y-71687825D01*
X139311708Y-71687825D02*
X139359327Y-71592587D01*
X139359327Y-71592587D02*
X139406946Y-71544968D01*
X139406946Y-71544968D02*
X139502184Y-71497349D01*
X139502184Y-71497349D02*
X139645041Y-71497349D01*
X139645041Y-71497349D02*
X139740279Y-71544968D01*
X139740279Y-71544968D02*
X139787898Y-71592587D01*
X139787898Y-71592587D02*
X139835517Y-71687825D01*
X139835517Y-71687825D02*
X139835517Y-72068777D01*
X140311708Y-70544968D02*
X140311708Y-71116396D01*
X140311708Y-70830682D02*
X139311708Y-70830682D01*
X139311708Y-70830682D02*
X139454565Y-70925920D01*
X139454565Y-70925920D02*
X139549803Y-71021158D01*
X139549803Y-71021158D02*
X139597422Y-71116396D01*
X139311708Y-69640206D02*
X139311708Y-70116396D01*
X139311708Y-70116396D02*
X139787898Y-70164015D01*
X139787898Y-70164015D02*
X139740279Y-70116396D01*
X139740279Y-70116396D02*
X139692660Y-70021158D01*
X139692660Y-70021158D02*
X139692660Y-69783063D01*
X139692660Y-69783063D02*
X139740279Y-69687825D01*
X139740279Y-69687825D02*
X139787898Y-69640206D01*
X139787898Y-69640206D02*
X139883136Y-69592587D01*
X139883136Y-69592587D02*
X140121231Y-69592587D01*
X140121231Y-69592587D02*
X140216469Y-69640206D01*
X140216469Y-69640206D02*
X140264089Y-69687825D01*
X140264089Y-69687825D02*
X140311708Y-69783063D01*
X140311708Y-69783063D02*
X140311708Y-70021158D01*
X140311708Y-70021158D02*
X140264089Y-70116396D01*
X140264089Y-70116396D02*
X140216469Y-70164015D01*
X161031333Y-83384580D02*
X160983714Y-83432200D01*
X160983714Y-83432200D02*
X160840857Y-83479819D01*
X160840857Y-83479819D02*
X160745619Y-83479819D01*
X160745619Y-83479819D02*
X160602762Y-83432200D01*
X160602762Y-83432200D02*
X160507524Y-83336961D01*
X160507524Y-83336961D02*
X160459905Y-83241723D01*
X160459905Y-83241723D02*
X160412286Y-83051247D01*
X160412286Y-83051247D02*
X160412286Y-82908390D01*
X160412286Y-82908390D02*
X160459905Y-82717914D01*
X160459905Y-82717914D02*
X160507524Y-82622676D01*
X160507524Y-82622676D02*
X160602762Y-82527438D01*
X160602762Y-82527438D02*
X160745619Y-82479819D01*
X160745619Y-82479819D02*
X160840857Y-82479819D01*
X160840857Y-82479819D02*
X160983714Y-82527438D01*
X160983714Y-82527438D02*
X161031333Y-82575057D01*
X161364667Y-82479819D02*
X161983714Y-82479819D01*
X161983714Y-82479819D02*
X161650381Y-82860771D01*
X161650381Y-82860771D02*
X161793238Y-82860771D01*
X161793238Y-82860771D02*
X161888476Y-82908390D01*
X161888476Y-82908390D02*
X161936095Y-82956009D01*
X161936095Y-82956009D02*
X161983714Y-83051247D01*
X161983714Y-83051247D02*
X161983714Y-83289342D01*
X161983714Y-83289342D02*
X161936095Y-83384580D01*
X161936095Y-83384580D02*
X161888476Y-83432200D01*
X161888476Y-83432200D02*
X161793238Y-83479819D01*
X161793238Y-83479819D02*
X161507524Y-83479819D01*
X161507524Y-83479819D02*
X161412286Y-83432200D01*
X161412286Y-83432200D02*
X161364667Y-83384580D01*
X192902606Y-86796501D02*
X192902606Y-85796501D01*
X192902606Y-85796501D02*
X193140701Y-85796501D01*
X193140701Y-85796501D02*
X193283558Y-85844120D01*
X193283558Y-85844120D02*
X193378796Y-85939358D01*
X193378796Y-85939358D02*
X193426415Y-86034596D01*
X193426415Y-86034596D02*
X193474034Y-86225072D01*
X193474034Y-86225072D02*
X193474034Y-86367929D01*
X193474034Y-86367929D02*
X193426415Y-86558405D01*
X193426415Y-86558405D02*
X193378796Y-86653643D01*
X193378796Y-86653643D02*
X193283558Y-86748882D01*
X193283558Y-86748882D02*
X193140701Y-86796501D01*
X193140701Y-86796501D02*
X192902606Y-86796501D01*
X193854987Y-85891739D02*
X193902606Y-85844120D01*
X193902606Y-85844120D02*
X193997844Y-85796501D01*
X193997844Y-85796501D02*
X194235939Y-85796501D01*
X194235939Y-85796501D02*
X194331177Y-85844120D01*
X194331177Y-85844120D02*
X194378796Y-85891739D01*
X194378796Y-85891739D02*
X194426415Y-85986977D01*
X194426415Y-85986977D02*
X194426415Y-86082215D01*
X194426415Y-86082215D02*
X194378796Y-86225072D01*
X194378796Y-86225072D02*
X193807368Y-86796501D01*
X193807368Y-86796501D02*
X194426415Y-86796501D01*
X158646026Y-84838580D02*
X158646026Y-83838580D01*
X158646026Y-83838580D02*
X158884121Y-83838580D01*
X158884121Y-83838580D02*
X159026978Y-83886199D01*
X159026978Y-83886199D02*
X159122216Y-83981437D01*
X159122216Y-83981437D02*
X159169835Y-84076675D01*
X159169835Y-84076675D02*
X159217454Y-84267151D01*
X159217454Y-84267151D02*
X159217454Y-84410008D01*
X159217454Y-84410008D02*
X159169835Y-84600484D01*
X159169835Y-84600484D02*
X159122216Y-84695722D01*
X159122216Y-84695722D02*
X159026978Y-84790961D01*
X159026978Y-84790961D02*
X158884121Y-84838580D01*
X158884121Y-84838580D02*
X158646026Y-84838580D01*
X160169835Y-84838580D02*
X159598407Y-84838580D01*
X159884121Y-84838580D02*
X159884121Y-83838580D01*
X159884121Y-83838580D02*
X159788883Y-83981437D01*
X159788883Y-83981437D02*
X159693645Y-84076675D01*
X159693645Y-84076675D02*
X159598407Y-84124294D01*
X157215918Y-79333193D02*
X157168299Y-79380813D01*
X157168299Y-79380813D02*
X157025442Y-79428432D01*
X157025442Y-79428432D02*
X156930204Y-79428432D01*
X156930204Y-79428432D02*
X156787347Y-79380813D01*
X156787347Y-79380813D02*
X156692109Y-79285574D01*
X156692109Y-79285574D02*
X156644490Y-79190336D01*
X156644490Y-79190336D02*
X156596871Y-78999860D01*
X156596871Y-78999860D02*
X156596871Y-78857003D01*
X156596871Y-78857003D02*
X156644490Y-78666527D01*
X156644490Y-78666527D02*
X156692109Y-78571289D01*
X156692109Y-78571289D02*
X156787347Y-78476051D01*
X156787347Y-78476051D02*
X156930204Y-78428432D01*
X156930204Y-78428432D02*
X157025442Y-78428432D01*
X157025442Y-78428432D02*
X157168299Y-78476051D01*
X157168299Y-78476051D02*
X157215918Y-78523670D01*
X157549252Y-78428432D02*
X158215918Y-78428432D01*
X158215918Y-78428432D02*
X157787347Y-79428432D01*
X185029142Y-85644819D02*
X184695809Y-85168628D01*
X184457714Y-85644819D02*
X184457714Y-84644819D01*
X184457714Y-84644819D02*
X184838666Y-84644819D01*
X184838666Y-84644819D02*
X184933904Y-84692438D01*
X184933904Y-84692438D02*
X184981523Y-84740057D01*
X184981523Y-84740057D02*
X185029142Y-84835295D01*
X185029142Y-84835295D02*
X185029142Y-84978152D01*
X185029142Y-84978152D02*
X184981523Y-85073390D01*
X184981523Y-85073390D02*
X184933904Y-85121009D01*
X184933904Y-85121009D02*
X184838666Y-85168628D01*
X184838666Y-85168628D02*
X184457714Y-85168628D01*
X185981523Y-85644819D02*
X185410095Y-85644819D01*
X185695809Y-85644819D02*
X185695809Y-84644819D01*
X185695809Y-84644819D02*
X185600571Y-84787676D01*
X185600571Y-84787676D02*
X185505333Y-84882914D01*
X185505333Y-84882914D02*
X185410095Y-84930533D01*
X186600571Y-84644819D02*
X186695809Y-84644819D01*
X186695809Y-84644819D02*
X186791047Y-84692438D01*
X186791047Y-84692438D02*
X186838666Y-84740057D01*
X186838666Y-84740057D02*
X186886285Y-84835295D01*
X186886285Y-84835295D02*
X186933904Y-85025771D01*
X186933904Y-85025771D02*
X186933904Y-85263866D01*
X186933904Y-85263866D02*
X186886285Y-85454342D01*
X186886285Y-85454342D02*
X186838666Y-85549580D01*
X186838666Y-85549580D02*
X186791047Y-85597200D01*
X186791047Y-85597200D02*
X186695809Y-85644819D01*
X186695809Y-85644819D02*
X186600571Y-85644819D01*
X186600571Y-85644819D02*
X186505333Y-85597200D01*
X186505333Y-85597200D02*
X186457714Y-85549580D01*
X186457714Y-85549580D02*
X186410095Y-85454342D01*
X186410095Y-85454342D02*
X186362476Y-85263866D01*
X186362476Y-85263866D02*
X186362476Y-85025771D01*
X186362476Y-85025771D02*
X186410095Y-84835295D01*
X186410095Y-84835295D02*
X186457714Y-84740057D01*
X186457714Y-84740057D02*
X186505333Y-84692438D01*
X186505333Y-84692438D02*
X186600571Y-84644819D01*
X161889333Y-57454819D02*
X161556000Y-56978628D01*
X161317905Y-57454819D02*
X161317905Y-56454819D01*
X161317905Y-56454819D02*
X161698857Y-56454819D01*
X161698857Y-56454819D02*
X161794095Y-56502438D01*
X161794095Y-56502438D02*
X161841714Y-56550057D01*
X161841714Y-56550057D02*
X161889333Y-56645295D01*
X161889333Y-56645295D02*
X161889333Y-56788152D01*
X161889333Y-56788152D02*
X161841714Y-56883390D01*
X161841714Y-56883390D02*
X161794095Y-56931009D01*
X161794095Y-56931009D02*
X161698857Y-56978628D01*
X161698857Y-56978628D02*
X161317905Y-56978628D01*
X162460762Y-56883390D02*
X162365524Y-56835771D01*
X162365524Y-56835771D02*
X162317905Y-56788152D01*
X162317905Y-56788152D02*
X162270286Y-56692914D01*
X162270286Y-56692914D02*
X162270286Y-56645295D01*
X162270286Y-56645295D02*
X162317905Y-56550057D01*
X162317905Y-56550057D02*
X162365524Y-56502438D01*
X162365524Y-56502438D02*
X162460762Y-56454819D01*
X162460762Y-56454819D02*
X162651238Y-56454819D01*
X162651238Y-56454819D02*
X162746476Y-56502438D01*
X162746476Y-56502438D02*
X162794095Y-56550057D01*
X162794095Y-56550057D02*
X162841714Y-56645295D01*
X162841714Y-56645295D02*
X162841714Y-56692914D01*
X162841714Y-56692914D02*
X162794095Y-56788152D01*
X162794095Y-56788152D02*
X162746476Y-56835771D01*
X162746476Y-56835771D02*
X162651238Y-56883390D01*
X162651238Y-56883390D02*
X162460762Y-56883390D01*
X162460762Y-56883390D02*
X162365524Y-56931009D01*
X162365524Y-56931009D02*
X162317905Y-56978628D01*
X162317905Y-56978628D02*
X162270286Y-57073866D01*
X162270286Y-57073866D02*
X162270286Y-57264342D01*
X162270286Y-57264342D02*
X162317905Y-57359580D01*
X162317905Y-57359580D02*
X162365524Y-57407200D01*
X162365524Y-57407200D02*
X162460762Y-57454819D01*
X162460762Y-57454819D02*
X162651238Y-57454819D01*
X162651238Y-57454819D02*
X162746476Y-57407200D01*
X162746476Y-57407200D02*
X162794095Y-57359580D01*
X162794095Y-57359580D02*
X162841714Y-57264342D01*
X162841714Y-57264342D02*
X162841714Y-57073866D01*
X162841714Y-57073866D02*
X162794095Y-56978628D01*
X162794095Y-56978628D02*
X162746476Y-56931009D01*
X162746476Y-56931009D02*
X162651238Y-56883390D01*
X145708166Y-67256819D02*
X145708166Y-67971104D01*
X145708166Y-67971104D02*
X145660547Y-68113961D01*
X145660547Y-68113961D02*
X145565309Y-68209200D01*
X145565309Y-68209200D02*
X145422452Y-68256819D01*
X145422452Y-68256819D02*
X145327214Y-68256819D01*
X146612928Y-67256819D02*
X146422452Y-67256819D01*
X146422452Y-67256819D02*
X146327214Y-67304438D01*
X146327214Y-67304438D02*
X146279595Y-67352057D01*
X146279595Y-67352057D02*
X146184357Y-67494914D01*
X146184357Y-67494914D02*
X146136738Y-67685390D01*
X146136738Y-67685390D02*
X146136738Y-68066342D01*
X146136738Y-68066342D02*
X146184357Y-68161580D01*
X146184357Y-68161580D02*
X146231976Y-68209200D01*
X146231976Y-68209200D02*
X146327214Y-68256819D01*
X146327214Y-68256819D02*
X146517690Y-68256819D01*
X146517690Y-68256819D02*
X146612928Y-68209200D01*
X146612928Y-68209200D02*
X146660547Y-68161580D01*
X146660547Y-68161580D02*
X146708166Y-68066342D01*
X146708166Y-68066342D02*
X146708166Y-67828247D01*
X146708166Y-67828247D02*
X146660547Y-67733009D01*
X146660547Y-67733009D02*
X146612928Y-67685390D01*
X146612928Y-67685390D02*
X146517690Y-67637771D01*
X146517690Y-67637771D02*
X146327214Y-67637771D01*
X146327214Y-67637771D02*
X146231976Y-67685390D01*
X146231976Y-67685390D02*
X146184357Y-67733009D01*
X146184357Y-67733009D02*
X146136738Y-67828247D01*
X193394819Y-45856857D02*
X192918628Y-46190190D01*
X193394819Y-46428285D02*
X192394819Y-46428285D01*
X192394819Y-46428285D02*
X192394819Y-46047333D01*
X192394819Y-46047333D02*
X192442438Y-45952095D01*
X192442438Y-45952095D02*
X192490057Y-45904476D01*
X192490057Y-45904476D02*
X192585295Y-45856857D01*
X192585295Y-45856857D02*
X192728152Y-45856857D01*
X192728152Y-45856857D02*
X192823390Y-45904476D01*
X192823390Y-45904476D02*
X192871009Y-45952095D01*
X192871009Y-45952095D02*
X192918628Y-46047333D01*
X192918628Y-46047333D02*
X192918628Y-46428285D01*
X193394819Y-44904476D02*
X193394819Y-45475904D01*
X193394819Y-45190190D02*
X192394819Y-45190190D01*
X192394819Y-45190190D02*
X192537676Y-45285428D01*
X192537676Y-45285428D02*
X192632914Y-45380666D01*
X192632914Y-45380666D02*
X192680533Y-45475904D01*
X193394819Y-43952095D02*
X193394819Y-44523523D01*
X193394819Y-44237809D02*
X192394819Y-44237809D01*
X192394819Y-44237809D02*
X192537676Y-44333047D01*
X192537676Y-44333047D02*
X192632914Y-44428285D01*
X192632914Y-44428285D02*
X192680533Y-44523523D01*
X186524095Y-49534819D02*
X186524095Y-50344342D01*
X186524095Y-50344342D02*
X186571714Y-50439580D01*
X186571714Y-50439580D02*
X186619333Y-50487200D01*
X186619333Y-50487200D02*
X186714571Y-50534819D01*
X186714571Y-50534819D02*
X186905047Y-50534819D01*
X186905047Y-50534819D02*
X187000285Y-50487200D01*
X187000285Y-50487200D02*
X187047904Y-50439580D01*
X187047904Y-50439580D02*
X187095523Y-50344342D01*
X187095523Y-50344342D02*
X187095523Y-49534819D01*
X188047904Y-49534819D02*
X187571714Y-49534819D01*
X187571714Y-49534819D02*
X187524095Y-50011009D01*
X187524095Y-50011009D02*
X187571714Y-49963390D01*
X187571714Y-49963390D02*
X187666952Y-49915771D01*
X187666952Y-49915771D02*
X187905047Y-49915771D01*
X187905047Y-49915771D02*
X188000285Y-49963390D01*
X188000285Y-49963390D02*
X188047904Y-50011009D01*
X188047904Y-50011009D02*
X188095523Y-50106247D01*
X188095523Y-50106247D02*
X188095523Y-50344342D01*
X188095523Y-50344342D02*
X188047904Y-50439580D01*
X188047904Y-50439580D02*
X188000285Y-50487200D01*
X188000285Y-50487200D02*
X187905047Y-50534819D01*
X187905047Y-50534819D02*
X187666952Y-50534819D01*
X187666952Y-50534819D02*
X187571714Y-50487200D01*
X187571714Y-50487200D02*
X187524095Y-50439580D01*
X175881200Y-79311332D02*
X175928819Y-79168475D01*
X175928819Y-79168475D02*
X175928819Y-78930380D01*
X175928819Y-78930380D02*
X175881200Y-78835142D01*
X175881200Y-78835142D02*
X175833580Y-78787523D01*
X175833580Y-78787523D02*
X175738342Y-78739904D01*
X175738342Y-78739904D02*
X175643104Y-78739904D01*
X175643104Y-78739904D02*
X175547866Y-78787523D01*
X175547866Y-78787523D02*
X175500247Y-78835142D01*
X175500247Y-78835142D02*
X175452628Y-78930380D01*
X175452628Y-78930380D02*
X175405009Y-79120856D01*
X175405009Y-79120856D02*
X175357390Y-79216094D01*
X175357390Y-79216094D02*
X175309771Y-79263713D01*
X175309771Y-79263713D02*
X175214533Y-79311332D01*
X175214533Y-79311332D02*
X175119295Y-79311332D01*
X175119295Y-79311332D02*
X175024057Y-79263713D01*
X175024057Y-79263713D02*
X174976438Y-79216094D01*
X174976438Y-79216094D02*
X174928819Y-79120856D01*
X174928819Y-79120856D02*
X174928819Y-78882761D01*
X174928819Y-78882761D02*
X174976438Y-78739904D01*
X174928819Y-78406570D02*
X175928819Y-78168475D01*
X175928819Y-78168475D02*
X175214533Y-77977999D01*
X175214533Y-77977999D02*
X175928819Y-77787523D01*
X175928819Y-77787523D02*
X174928819Y-77549428D01*
X175928819Y-76644666D02*
X175928819Y-77216094D01*
X175928819Y-76930380D02*
X174928819Y-76930380D01*
X174928819Y-76930380D02*
X175071676Y-77025618D01*
X175071676Y-77025618D02*
X175166914Y-77120856D01*
X175166914Y-77120856D02*
X175214533Y-77216094D01*
X192777905Y-94395890D02*
X192777905Y-93395890D01*
X192777905Y-93395890D02*
X193016000Y-93395890D01*
X193016000Y-93395890D02*
X193158857Y-93443509D01*
X193158857Y-93443509D02*
X193254095Y-93538747D01*
X193254095Y-93538747D02*
X193301714Y-93633985D01*
X193301714Y-93633985D02*
X193349333Y-93824461D01*
X193349333Y-93824461D02*
X193349333Y-93967318D01*
X193349333Y-93967318D02*
X193301714Y-94157794D01*
X193301714Y-94157794D02*
X193254095Y-94253032D01*
X193254095Y-94253032D02*
X193158857Y-94348271D01*
X193158857Y-94348271D02*
X193016000Y-94395890D01*
X193016000Y-94395890D02*
X192777905Y-94395890D01*
X194206476Y-93729223D02*
X194206476Y-94395890D01*
X193968381Y-93348271D02*
X193730286Y-94062556D01*
X193730286Y-94062556D02*
X194349333Y-94062556D01*
X166800666Y-84801819D02*
X166800666Y-85516104D01*
X166800666Y-85516104D02*
X166753047Y-85658961D01*
X166753047Y-85658961D02*
X166657809Y-85754200D01*
X166657809Y-85754200D02*
X166514952Y-85801819D01*
X166514952Y-85801819D02*
X166419714Y-85801819D01*
X167800666Y-85801819D02*
X167229238Y-85801819D01*
X167514952Y-85801819D02*
X167514952Y-84801819D01*
X167514952Y-84801819D02*
X167419714Y-84944676D01*
X167419714Y-84944676D02*
X167324476Y-85039914D01*
X167324476Y-85039914D02*
X167229238Y-85087533D01*
X192843923Y-90618201D02*
X192843923Y-89618201D01*
X192843923Y-89618201D02*
X193082018Y-89618201D01*
X193082018Y-89618201D02*
X193224875Y-89665820D01*
X193224875Y-89665820D02*
X193320113Y-89761058D01*
X193320113Y-89761058D02*
X193367732Y-89856296D01*
X193367732Y-89856296D02*
X193415351Y-90046772D01*
X193415351Y-90046772D02*
X193415351Y-90189629D01*
X193415351Y-90189629D02*
X193367732Y-90380105D01*
X193367732Y-90380105D02*
X193320113Y-90475343D01*
X193320113Y-90475343D02*
X193224875Y-90570582D01*
X193224875Y-90570582D02*
X193082018Y-90618201D01*
X193082018Y-90618201D02*
X192843923Y-90618201D01*
X193748685Y-89618201D02*
X194367732Y-89618201D01*
X194367732Y-89618201D02*
X194034399Y-89999153D01*
X194034399Y-89999153D02*
X194177256Y-89999153D01*
X194177256Y-89999153D02*
X194272494Y-90046772D01*
X194272494Y-90046772D02*
X194320113Y-90094391D01*
X194320113Y-90094391D02*
X194367732Y-90189629D01*
X194367732Y-90189629D02*
X194367732Y-90427724D01*
X194367732Y-90427724D02*
X194320113Y-90522962D01*
X194320113Y-90522962D02*
X194272494Y-90570582D01*
X194272494Y-90570582D02*
X194177256Y-90618201D01*
X194177256Y-90618201D02*
X193891542Y-90618201D01*
X193891542Y-90618201D02*
X193796304Y-90570582D01*
X193796304Y-90570582D02*
X193748685Y-90522962D01*
X163972819Y-83289666D02*
X163496628Y-83622999D01*
X163972819Y-83861094D02*
X162972819Y-83861094D01*
X162972819Y-83861094D02*
X162972819Y-83480142D01*
X162972819Y-83480142D02*
X163020438Y-83384904D01*
X163020438Y-83384904D02*
X163068057Y-83337285D01*
X163068057Y-83337285D02*
X163163295Y-83289666D01*
X163163295Y-83289666D02*
X163306152Y-83289666D01*
X163306152Y-83289666D02*
X163401390Y-83337285D01*
X163401390Y-83337285D02*
X163449009Y-83384904D01*
X163449009Y-83384904D02*
X163496628Y-83480142D01*
X163496628Y-83480142D02*
X163496628Y-83861094D01*
X162972819Y-82956332D02*
X162972819Y-82337285D01*
X162972819Y-82337285D02*
X163353771Y-82670618D01*
X163353771Y-82670618D02*
X163353771Y-82527761D01*
X163353771Y-82527761D02*
X163401390Y-82432523D01*
X163401390Y-82432523D02*
X163449009Y-82384904D01*
X163449009Y-82384904D02*
X163544247Y-82337285D01*
X163544247Y-82337285D02*
X163782342Y-82337285D01*
X163782342Y-82337285D02*
X163877580Y-82384904D01*
X163877580Y-82384904D02*
X163925200Y-82432523D01*
X163925200Y-82432523D02*
X163972819Y-82527761D01*
X163972819Y-82527761D02*
X163972819Y-82813475D01*
X163972819Y-82813475D02*
X163925200Y-82908713D01*
X163925200Y-82908713D02*
X163877580Y-82956332D01*
X151821319Y-89905333D02*
X152535604Y-89905333D01*
X152535604Y-89905333D02*
X152678461Y-89952952D01*
X152678461Y-89952952D02*
X152773700Y-90048190D01*
X152773700Y-90048190D02*
X152821319Y-90191047D01*
X152821319Y-90191047D02*
X152821319Y-90286285D01*
X151916557Y-89476761D02*
X151868938Y-89429142D01*
X151868938Y-89429142D02*
X151821319Y-89333904D01*
X151821319Y-89333904D02*
X151821319Y-89095809D01*
X151821319Y-89095809D02*
X151868938Y-89000571D01*
X151868938Y-89000571D02*
X151916557Y-88952952D01*
X151916557Y-88952952D02*
X152011795Y-88905333D01*
X152011795Y-88905333D02*
X152107033Y-88905333D01*
X152107033Y-88905333D02*
X152249890Y-88952952D01*
X152249890Y-88952952D02*
X152821319Y-89524380D01*
X152821319Y-89524380D02*
X152821319Y-88905333D01*
X157317342Y-88338819D02*
X156984009Y-87862628D01*
X156745914Y-88338819D02*
X156745914Y-87338819D01*
X156745914Y-87338819D02*
X157126866Y-87338819D01*
X157126866Y-87338819D02*
X157222104Y-87386438D01*
X157222104Y-87386438D02*
X157269723Y-87434057D01*
X157269723Y-87434057D02*
X157317342Y-87529295D01*
X157317342Y-87529295D02*
X157317342Y-87672152D01*
X157317342Y-87672152D02*
X157269723Y-87767390D01*
X157269723Y-87767390D02*
X157222104Y-87815009D01*
X157222104Y-87815009D02*
X157126866Y-87862628D01*
X157126866Y-87862628D02*
X156745914Y-87862628D01*
X158269723Y-88338819D02*
X157698295Y-88338819D01*
X157984009Y-88338819D02*
X157984009Y-87338819D01*
X157984009Y-87338819D02*
X157888771Y-87481676D01*
X157888771Y-87481676D02*
X157793533Y-87576914D01*
X157793533Y-87576914D02*
X157698295Y-87624533D01*
X159126866Y-87338819D02*
X158936390Y-87338819D01*
X158936390Y-87338819D02*
X158841152Y-87386438D01*
X158841152Y-87386438D02*
X158793533Y-87434057D01*
X158793533Y-87434057D02*
X158698295Y-87576914D01*
X158698295Y-87576914D02*
X158650676Y-87767390D01*
X158650676Y-87767390D02*
X158650676Y-88148342D01*
X158650676Y-88148342D02*
X158698295Y-88243580D01*
X158698295Y-88243580D02*
X158745914Y-88291200D01*
X158745914Y-88291200D02*
X158841152Y-88338819D01*
X158841152Y-88338819D02*
X159031628Y-88338819D01*
X159031628Y-88338819D02*
X159126866Y-88291200D01*
X159126866Y-88291200D02*
X159174485Y-88243580D01*
X159174485Y-88243580D02*
X159222104Y-88148342D01*
X159222104Y-88148342D02*
X159222104Y-87910247D01*
X159222104Y-87910247D02*
X159174485Y-87815009D01*
X159174485Y-87815009D02*
X159126866Y-87767390D01*
X159126866Y-87767390D02*
X159031628Y-87719771D01*
X159031628Y-87719771D02*
X158841152Y-87719771D01*
X158841152Y-87719771D02*
X158745914Y-87767390D01*
X158745914Y-87767390D02*
X158698295Y-87815009D01*
X158698295Y-87815009D02*
X158650676Y-87910247D01*
X162436768Y-74856454D02*
X162484388Y-74904073D01*
X162484388Y-74904073D02*
X162532007Y-75046930D01*
X162532007Y-75046930D02*
X162532007Y-75142168D01*
X162532007Y-75142168D02*
X162484388Y-75285025D01*
X162484388Y-75285025D02*
X162389149Y-75380263D01*
X162389149Y-75380263D02*
X162293911Y-75427882D01*
X162293911Y-75427882D02*
X162103435Y-75475501D01*
X162103435Y-75475501D02*
X161960578Y-75475501D01*
X161960578Y-75475501D02*
X161770102Y-75427882D01*
X161770102Y-75427882D02*
X161674864Y-75380263D01*
X161674864Y-75380263D02*
X161579626Y-75285025D01*
X161579626Y-75285025D02*
X161532007Y-75142168D01*
X161532007Y-75142168D02*
X161532007Y-75046930D01*
X161532007Y-75046930D02*
X161579626Y-74904073D01*
X161579626Y-74904073D02*
X161627245Y-74856454D01*
X161532007Y-73999311D02*
X161532007Y-74189787D01*
X161532007Y-74189787D02*
X161579626Y-74285025D01*
X161579626Y-74285025D02*
X161627245Y-74332644D01*
X161627245Y-74332644D02*
X161770102Y-74427882D01*
X161770102Y-74427882D02*
X161960578Y-74475501D01*
X161960578Y-74475501D02*
X162341530Y-74475501D01*
X162341530Y-74475501D02*
X162436768Y-74427882D01*
X162436768Y-74427882D02*
X162484388Y-74380263D01*
X162484388Y-74380263D02*
X162532007Y-74285025D01*
X162532007Y-74285025D02*
X162532007Y-74094549D01*
X162532007Y-74094549D02*
X162484388Y-73999311D01*
X162484388Y-73999311D02*
X162436768Y-73951692D01*
X162436768Y-73951692D02*
X162341530Y-73904073D01*
X162341530Y-73904073D02*
X162103435Y-73904073D01*
X162103435Y-73904073D02*
X162008197Y-73951692D01*
X162008197Y-73951692D02*
X161960578Y-73999311D01*
X161960578Y-73999311D02*
X161912959Y-74094549D01*
X161912959Y-74094549D02*
X161912959Y-74285025D01*
X161912959Y-74285025D02*
X161960578Y-74380263D01*
X161960578Y-74380263D02*
X162008197Y-74427882D01*
X162008197Y-74427882D02*
X162103435Y-74475501D01*
X145454166Y-56692319D02*
X145454166Y-57406604D01*
X145454166Y-57406604D02*
X145406547Y-57549461D01*
X145406547Y-57549461D02*
X145311309Y-57644700D01*
X145311309Y-57644700D02*
X145168452Y-57692319D01*
X145168452Y-57692319D02*
X145073214Y-57692319D01*
X145835119Y-56692319D02*
X146454166Y-56692319D01*
X146454166Y-56692319D02*
X146120833Y-57073271D01*
X146120833Y-57073271D02*
X146263690Y-57073271D01*
X146263690Y-57073271D02*
X146358928Y-57120890D01*
X146358928Y-57120890D02*
X146406547Y-57168509D01*
X146406547Y-57168509D02*
X146454166Y-57263747D01*
X146454166Y-57263747D02*
X146454166Y-57501842D01*
X146454166Y-57501842D02*
X146406547Y-57597080D01*
X146406547Y-57597080D02*
X146358928Y-57644700D01*
X146358928Y-57644700D02*
X146263690Y-57692319D01*
X146263690Y-57692319D02*
X145977976Y-57692319D01*
X145977976Y-57692319D02*
X145882738Y-57644700D01*
X145882738Y-57644700D02*
X145835119Y-57597080D01*
X181964819Y-79158666D02*
X181488628Y-79491999D01*
X181964819Y-79730094D02*
X180964819Y-79730094D01*
X180964819Y-79730094D02*
X180964819Y-79349142D01*
X180964819Y-79349142D02*
X181012438Y-79253904D01*
X181012438Y-79253904D02*
X181060057Y-79206285D01*
X181060057Y-79206285D02*
X181155295Y-79158666D01*
X181155295Y-79158666D02*
X181298152Y-79158666D01*
X181298152Y-79158666D02*
X181393390Y-79206285D01*
X181393390Y-79206285D02*
X181441009Y-79253904D01*
X181441009Y-79253904D02*
X181488628Y-79349142D01*
X181488628Y-79349142D02*
X181488628Y-79730094D01*
X180964819Y-78253904D02*
X180964819Y-78730094D01*
X180964819Y-78730094D02*
X181441009Y-78777713D01*
X181441009Y-78777713D02*
X181393390Y-78730094D01*
X181393390Y-78730094D02*
X181345771Y-78634856D01*
X181345771Y-78634856D02*
X181345771Y-78396761D01*
X181345771Y-78396761D02*
X181393390Y-78301523D01*
X181393390Y-78301523D02*
X181441009Y-78253904D01*
X181441009Y-78253904D02*
X181536247Y-78206285D01*
X181536247Y-78206285D02*
X181774342Y-78206285D01*
X181774342Y-78206285D02*
X181869580Y-78253904D01*
X181869580Y-78253904D02*
X181917200Y-78301523D01*
X181917200Y-78301523D02*
X181964819Y-78396761D01*
X181964819Y-78396761D02*
X181964819Y-78634856D01*
X181964819Y-78634856D02*
X181917200Y-78730094D01*
X181917200Y-78730094D02*
X181869580Y-78777713D01*
X184131200Y-79311332D02*
X184178819Y-79168475D01*
X184178819Y-79168475D02*
X184178819Y-78930380D01*
X184178819Y-78930380D02*
X184131200Y-78835142D01*
X184131200Y-78835142D02*
X184083580Y-78787523D01*
X184083580Y-78787523D02*
X183988342Y-78739904D01*
X183988342Y-78739904D02*
X183893104Y-78739904D01*
X183893104Y-78739904D02*
X183797866Y-78787523D01*
X183797866Y-78787523D02*
X183750247Y-78835142D01*
X183750247Y-78835142D02*
X183702628Y-78930380D01*
X183702628Y-78930380D02*
X183655009Y-79120856D01*
X183655009Y-79120856D02*
X183607390Y-79216094D01*
X183607390Y-79216094D02*
X183559771Y-79263713D01*
X183559771Y-79263713D02*
X183464533Y-79311332D01*
X183464533Y-79311332D02*
X183369295Y-79311332D01*
X183369295Y-79311332D02*
X183274057Y-79263713D01*
X183274057Y-79263713D02*
X183226438Y-79216094D01*
X183226438Y-79216094D02*
X183178819Y-79120856D01*
X183178819Y-79120856D02*
X183178819Y-78882761D01*
X183178819Y-78882761D02*
X183226438Y-78739904D01*
X183178819Y-78406570D02*
X184178819Y-78168475D01*
X184178819Y-78168475D02*
X183464533Y-77977999D01*
X183464533Y-77977999D02*
X184178819Y-77787523D01*
X184178819Y-77787523D02*
X183178819Y-77549428D01*
X183274057Y-77216094D02*
X183226438Y-77168475D01*
X183226438Y-77168475D02*
X183178819Y-77073237D01*
X183178819Y-77073237D02*
X183178819Y-76835142D01*
X183178819Y-76835142D02*
X183226438Y-76739904D01*
X183226438Y-76739904D02*
X183274057Y-76692285D01*
X183274057Y-76692285D02*
X183369295Y-76644666D01*
X183369295Y-76644666D02*
X183464533Y-76644666D01*
X183464533Y-76644666D02*
X183607390Y-76692285D01*
X183607390Y-76692285D02*
X184178819Y-77263713D01*
X184178819Y-77263713D02*
X184178819Y-76644666D01*
X159304819Y-90282594D02*
X158304819Y-90282594D01*
X158304819Y-90282594D02*
X158304819Y-90044499D01*
X158304819Y-90044499D02*
X158352438Y-89901642D01*
X158352438Y-89901642D02*
X158447676Y-89806404D01*
X158447676Y-89806404D02*
X158542914Y-89758785D01*
X158542914Y-89758785D02*
X158733390Y-89711166D01*
X158733390Y-89711166D02*
X158876247Y-89711166D01*
X158876247Y-89711166D02*
X159066723Y-89758785D01*
X159066723Y-89758785D02*
X159161961Y-89806404D01*
X159161961Y-89806404D02*
X159257200Y-89901642D01*
X159257200Y-89901642D02*
X159304819Y-90044499D01*
X159304819Y-90044499D02*
X159304819Y-90282594D01*
X158304819Y-88854023D02*
X158304819Y-89044499D01*
X158304819Y-89044499D02*
X158352438Y-89139737D01*
X158352438Y-89139737D02*
X158400057Y-89187356D01*
X158400057Y-89187356D02*
X158542914Y-89282594D01*
X158542914Y-89282594D02*
X158733390Y-89330213D01*
X158733390Y-89330213D02*
X159114342Y-89330213D01*
X159114342Y-89330213D02*
X159209580Y-89282594D01*
X159209580Y-89282594D02*
X159257200Y-89234975D01*
X159257200Y-89234975D02*
X159304819Y-89139737D01*
X159304819Y-89139737D02*
X159304819Y-88949261D01*
X159304819Y-88949261D02*
X159257200Y-88854023D01*
X159257200Y-88854023D02*
X159209580Y-88806404D01*
X159209580Y-88806404D02*
X159114342Y-88758785D01*
X159114342Y-88758785D02*
X158876247Y-88758785D01*
X158876247Y-88758785D02*
X158781009Y-88806404D01*
X158781009Y-88806404D02*
X158733390Y-88854023D01*
X158733390Y-88854023D02*
X158685771Y-88949261D01*
X158685771Y-88949261D02*
X158685771Y-89139737D01*
X158685771Y-89139737D02*
X158733390Y-89234975D01*
X158733390Y-89234975D02*
X158781009Y-89282594D01*
X158781009Y-89282594D02*
X158876247Y-89330213D01*
X190348819Y-78942666D02*
X189872628Y-79275999D01*
X190348819Y-79514094D02*
X189348819Y-79514094D01*
X189348819Y-79514094D02*
X189348819Y-79133142D01*
X189348819Y-79133142D02*
X189396438Y-79037904D01*
X189396438Y-79037904D02*
X189444057Y-78990285D01*
X189444057Y-78990285D02*
X189539295Y-78942666D01*
X189539295Y-78942666D02*
X189682152Y-78942666D01*
X189682152Y-78942666D02*
X189777390Y-78990285D01*
X189777390Y-78990285D02*
X189825009Y-79037904D01*
X189825009Y-79037904D02*
X189872628Y-79133142D01*
X189872628Y-79133142D02*
X189872628Y-79514094D01*
X189348819Y-78609332D02*
X189348819Y-77942666D01*
X189348819Y-77942666D02*
X190348819Y-78371237D01*
X183403542Y-89454819D02*
X183070209Y-88978628D01*
X182832114Y-89454819D02*
X182832114Y-88454819D01*
X182832114Y-88454819D02*
X183213066Y-88454819D01*
X183213066Y-88454819D02*
X183308304Y-88502438D01*
X183308304Y-88502438D02*
X183355923Y-88550057D01*
X183355923Y-88550057D02*
X183403542Y-88645295D01*
X183403542Y-88645295D02*
X183403542Y-88788152D01*
X183403542Y-88788152D02*
X183355923Y-88883390D01*
X183355923Y-88883390D02*
X183308304Y-88931009D01*
X183308304Y-88931009D02*
X183213066Y-88978628D01*
X183213066Y-88978628D02*
X182832114Y-88978628D01*
X184355923Y-89454819D02*
X183784495Y-89454819D01*
X184070209Y-89454819D02*
X184070209Y-88454819D01*
X184070209Y-88454819D02*
X183974971Y-88597676D01*
X183974971Y-88597676D02*
X183879733Y-88692914D01*
X183879733Y-88692914D02*
X183784495Y-88740533D01*
X184736876Y-88550057D02*
X184784495Y-88502438D01*
X184784495Y-88502438D02*
X184879733Y-88454819D01*
X184879733Y-88454819D02*
X185117828Y-88454819D01*
X185117828Y-88454819D02*
X185213066Y-88502438D01*
X185213066Y-88502438D02*
X185260685Y-88550057D01*
X185260685Y-88550057D02*
X185308304Y-88645295D01*
X185308304Y-88645295D02*
X185308304Y-88740533D01*
X185308304Y-88740533D02*
X185260685Y-88883390D01*
X185260685Y-88883390D02*
X184689257Y-89454819D01*
X184689257Y-89454819D02*
X185308304Y-89454819D01*
X151087833Y-77673580D02*
X151040214Y-77721200D01*
X151040214Y-77721200D02*
X150897357Y-77768819D01*
X150897357Y-77768819D02*
X150802119Y-77768819D01*
X150802119Y-77768819D02*
X150659262Y-77721200D01*
X150659262Y-77721200D02*
X150564024Y-77625961D01*
X150564024Y-77625961D02*
X150516405Y-77530723D01*
X150516405Y-77530723D02*
X150468786Y-77340247D01*
X150468786Y-77340247D02*
X150468786Y-77197390D01*
X150468786Y-77197390D02*
X150516405Y-77006914D01*
X150516405Y-77006914D02*
X150564024Y-76911676D01*
X150564024Y-76911676D02*
X150659262Y-76816438D01*
X150659262Y-76816438D02*
X150802119Y-76768819D01*
X150802119Y-76768819D02*
X150897357Y-76768819D01*
X150897357Y-76768819D02*
X151040214Y-76816438D01*
X151040214Y-76816438D02*
X151087833Y-76864057D01*
X151992595Y-76768819D02*
X151516405Y-76768819D01*
X151516405Y-76768819D02*
X151468786Y-77245009D01*
X151468786Y-77245009D02*
X151516405Y-77197390D01*
X151516405Y-77197390D02*
X151611643Y-77149771D01*
X151611643Y-77149771D02*
X151849738Y-77149771D01*
X151849738Y-77149771D02*
X151944976Y-77197390D01*
X151944976Y-77197390D02*
X151992595Y-77245009D01*
X151992595Y-77245009D02*
X152040214Y-77340247D01*
X152040214Y-77340247D02*
X152040214Y-77578342D01*
X152040214Y-77578342D02*
X151992595Y-77673580D01*
X151992595Y-77673580D02*
X151944976Y-77721200D01*
X151944976Y-77721200D02*
X151849738Y-77768819D01*
X151849738Y-77768819D02*
X151611643Y-77768819D01*
X151611643Y-77768819D02*
X151516405Y-77721200D01*
X151516405Y-77721200D02*
X151468786Y-77673580D01*
X140284819Y-76238094D02*
X139284819Y-76238094D01*
X139284819Y-76238094D02*
X139284819Y-75999999D01*
X139284819Y-75999999D02*
X139332438Y-75857142D01*
X139332438Y-75857142D02*
X139427676Y-75761904D01*
X139427676Y-75761904D02*
X139522914Y-75714285D01*
X139522914Y-75714285D02*
X139713390Y-75666666D01*
X139713390Y-75666666D02*
X139856247Y-75666666D01*
X139856247Y-75666666D02*
X140046723Y-75714285D01*
X140046723Y-75714285D02*
X140141961Y-75761904D01*
X140141961Y-75761904D02*
X140237200Y-75857142D01*
X140237200Y-75857142D02*
X140284819Y-75999999D01*
X140284819Y-75999999D02*
X140284819Y-76238094D01*
X139284819Y-74761904D02*
X139284819Y-75238094D01*
X139284819Y-75238094D02*
X139761009Y-75285713D01*
X139761009Y-75285713D02*
X139713390Y-75238094D01*
X139713390Y-75238094D02*
X139665771Y-75142856D01*
X139665771Y-75142856D02*
X139665771Y-74904761D01*
X139665771Y-74904761D02*
X139713390Y-74809523D01*
X139713390Y-74809523D02*
X139761009Y-74761904D01*
X139761009Y-74761904D02*
X139856247Y-74714285D01*
X139856247Y-74714285D02*
X140094342Y-74714285D01*
X140094342Y-74714285D02*
X140189580Y-74761904D01*
X140189580Y-74761904D02*
X140237200Y-74809523D01*
X140237200Y-74809523D02*
X140284819Y-74904761D01*
X140284819Y-74904761D02*
X140284819Y-75142856D01*
X140284819Y-75142856D02*
X140237200Y-75238094D01*
X140237200Y-75238094D02*
X140189580Y-75285713D01*
X181765642Y-93264819D02*
X181432309Y-92788628D01*
X181194214Y-93264819D02*
X181194214Y-92264819D01*
X181194214Y-92264819D02*
X181575166Y-92264819D01*
X181575166Y-92264819D02*
X181670404Y-92312438D01*
X181670404Y-92312438D02*
X181718023Y-92360057D01*
X181718023Y-92360057D02*
X181765642Y-92455295D01*
X181765642Y-92455295D02*
X181765642Y-92598152D01*
X181765642Y-92598152D02*
X181718023Y-92693390D01*
X181718023Y-92693390D02*
X181670404Y-92741009D01*
X181670404Y-92741009D02*
X181575166Y-92788628D01*
X181575166Y-92788628D02*
X181194214Y-92788628D01*
X182718023Y-93264819D02*
X182146595Y-93264819D01*
X182432309Y-93264819D02*
X182432309Y-92264819D01*
X182432309Y-92264819D02*
X182337071Y-92407676D01*
X182337071Y-92407676D02*
X182241833Y-92502914D01*
X182241833Y-92502914D02*
X182146595Y-92550533D01*
X183051357Y-92264819D02*
X183670404Y-92264819D01*
X183670404Y-92264819D02*
X183337071Y-92645771D01*
X183337071Y-92645771D02*
X183479928Y-92645771D01*
X183479928Y-92645771D02*
X183575166Y-92693390D01*
X183575166Y-92693390D02*
X183622785Y-92741009D01*
X183622785Y-92741009D02*
X183670404Y-92836247D01*
X183670404Y-92836247D02*
X183670404Y-93074342D01*
X183670404Y-93074342D02*
X183622785Y-93169580D01*
X183622785Y-93169580D02*
X183575166Y-93217200D01*
X183575166Y-93217200D02*
X183479928Y-93264819D01*
X183479928Y-93264819D02*
X183194214Y-93264819D01*
X183194214Y-93264819D02*
X183098976Y-93217200D01*
X183098976Y-93217200D02*
X183051357Y-93169580D01*
X181964819Y-77126666D02*
X181488628Y-77459999D01*
X181964819Y-77698094D02*
X180964819Y-77698094D01*
X180964819Y-77698094D02*
X180964819Y-77317142D01*
X180964819Y-77317142D02*
X181012438Y-77221904D01*
X181012438Y-77221904D02*
X181060057Y-77174285D01*
X181060057Y-77174285D02*
X181155295Y-77126666D01*
X181155295Y-77126666D02*
X181298152Y-77126666D01*
X181298152Y-77126666D02*
X181393390Y-77174285D01*
X181393390Y-77174285D02*
X181441009Y-77221904D01*
X181441009Y-77221904D02*
X181488628Y-77317142D01*
X181488628Y-77317142D02*
X181488628Y-77698094D01*
X181298152Y-76269523D02*
X181964819Y-76269523D01*
X180917200Y-76507618D02*
X181631485Y-76745713D01*
X181631485Y-76745713D02*
X181631485Y-76126666D01*
X160970933Y-77778780D02*
X160923314Y-77826400D01*
X160923314Y-77826400D02*
X160780457Y-77874019D01*
X160780457Y-77874019D02*
X160685219Y-77874019D01*
X160685219Y-77874019D02*
X160542362Y-77826400D01*
X160542362Y-77826400D02*
X160447124Y-77731161D01*
X160447124Y-77731161D02*
X160399505Y-77635923D01*
X160399505Y-77635923D02*
X160351886Y-77445447D01*
X160351886Y-77445447D02*
X160351886Y-77302590D01*
X160351886Y-77302590D02*
X160399505Y-77112114D01*
X160399505Y-77112114D02*
X160447124Y-77016876D01*
X160447124Y-77016876D02*
X160542362Y-76921638D01*
X160542362Y-76921638D02*
X160685219Y-76874019D01*
X160685219Y-76874019D02*
X160780457Y-76874019D01*
X160780457Y-76874019D02*
X160923314Y-76921638D01*
X160923314Y-76921638D02*
X160970933Y-76969257D01*
X161828076Y-77207352D02*
X161828076Y-77874019D01*
X161589981Y-76826400D02*
X161351886Y-77540685D01*
X161351886Y-77540685D02*
X161970933Y-77540685D01*
X156539992Y-71518563D02*
X156539992Y-72328086D01*
X156539992Y-72328086D02*
X156587611Y-72423324D01*
X156587611Y-72423324D02*
X156635230Y-72470944D01*
X156635230Y-72470944D02*
X156730468Y-72518563D01*
X156730468Y-72518563D02*
X156920944Y-72518563D01*
X156920944Y-72518563D02*
X157016182Y-72470944D01*
X157016182Y-72470944D02*
X157063801Y-72423324D01*
X157063801Y-72423324D02*
X157111420Y-72328086D01*
X157111420Y-72328086D02*
X157111420Y-71518563D01*
X158016182Y-71518563D02*
X157825706Y-71518563D01*
X157825706Y-71518563D02*
X157730468Y-71566182D01*
X157730468Y-71566182D02*
X157682849Y-71613801D01*
X157682849Y-71613801D02*
X157587611Y-71756658D01*
X157587611Y-71756658D02*
X157539992Y-71947134D01*
X157539992Y-71947134D02*
X157539992Y-72328086D01*
X157539992Y-72328086D02*
X157587611Y-72423324D01*
X157587611Y-72423324D02*
X157635230Y-72470944D01*
X157635230Y-72470944D02*
X157730468Y-72518563D01*
X157730468Y-72518563D02*
X157920944Y-72518563D01*
X157920944Y-72518563D02*
X158016182Y-72470944D01*
X158016182Y-72470944D02*
X158063801Y-72423324D01*
X158063801Y-72423324D02*
X158111420Y-72328086D01*
X158111420Y-72328086D02*
X158111420Y-72089991D01*
X158111420Y-72089991D02*
X158063801Y-71994753D01*
X158063801Y-71994753D02*
X158016182Y-71947134D01*
X158016182Y-71947134D02*
X157920944Y-71899515D01*
X157920944Y-71899515D02*
X157730468Y-71899515D01*
X157730468Y-71899515D02*
X157635230Y-71947134D01*
X157635230Y-71947134D02*
X157587611Y-71994753D01*
X157587611Y-71994753D02*
X157539992Y-72089991D01*
X164036757Y-78178112D02*
X163703424Y-77701921D01*
X163465329Y-78178112D02*
X163465329Y-77178112D01*
X163465329Y-77178112D02*
X163846281Y-77178112D01*
X163846281Y-77178112D02*
X163941519Y-77225731D01*
X163941519Y-77225731D02*
X163989138Y-77273350D01*
X163989138Y-77273350D02*
X164036757Y-77368588D01*
X164036757Y-77368588D02*
X164036757Y-77511445D01*
X164036757Y-77511445D02*
X163989138Y-77606683D01*
X163989138Y-77606683D02*
X163941519Y-77654302D01*
X163941519Y-77654302D02*
X163846281Y-77701921D01*
X163846281Y-77701921D02*
X163465329Y-77701921D01*
X164989138Y-78178112D02*
X164417710Y-78178112D01*
X164703424Y-78178112D02*
X164703424Y-77178112D01*
X164703424Y-77178112D02*
X164608186Y-77320969D01*
X164608186Y-77320969D02*
X164512948Y-77416207D01*
X164512948Y-77416207D02*
X164417710Y-77463826D01*
X190348819Y-76932666D02*
X189872628Y-77265999D01*
X190348819Y-77504094D02*
X189348819Y-77504094D01*
X189348819Y-77504094D02*
X189348819Y-77123142D01*
X189348819Y-77123142D02*
X189396438Y-77027904D01*
X189396438Y-77027904D02*
X189444057Y-76980285D01*
X189444057Y-76980285D02*
X189539295Y-76932666D01*
X189539295Y-76932666D02*
X189682152Y-76932666D01*
X189682152Y-76932666D02*
X189777390Y-76980285D01*
X189777390Y-76980285D02*
X189825009Y-77027904D01*
X189825009Y-77027904D02*
X189872628Y-77123142D01*
X189872628Y-77123142D02*
X189872628Y-77504094D01*
X189348819Y-76075523D02*
X189348819Y-76265999D01*
X189348819Y-76265999D02*
X189396438Y-76361237D01*
X189396438Y-76361237D02*
X189444057Y-76408856D01*
X189444057Y-76408856D02*
X189586914Y-76504094D01*
X189586914Y-76504094D02*
X189777390Y-76551713D01*
X189777390Y-76551713D02*
X190158342Y-76551713D01*
X190158342Y-76551713D02*
X190253580Y-76504094D01*
X190253580Y-76504094D02*
X190301200Y-76456475D01*
X190301200Y-76456475D02*
X190348819Y-76361237D01*
X190348819Y-76361237D02*
X190348819Y-76170761D01*
X190348819Y-76170761D02*
X190301200Y-76075523D01*
X190301200Y-76075523D02*
X190253580Y-76027904D01*
X190253580Y-76027904D02*
X190158342Y-75980285D01*
X190158342Y-75980285D02*
X189920247Y-75980285D01*
X189920247Y-75980285D02*
X189825009Y-76027904D01*
X189825009Y-76027904D02*
X189777390Y-76075523D01*
X189777390Y-76075523D02*
X189729771Y-76170761D01*
X189729771Y-76170761D02*
X189729771Y-76361237D01*
X189729771Y-76361237D02*
X189777390Y-76456475D01*
X189777390Y-76456475D02*
X189825009Y-76504094D01*
X189825009Y-76504094D02*
X189920247Y-76551713D01*
X178649333Y-82545580D02*
X178601714Y-82593200D01*
X178601714Y-82593200D02*
X178458857Y-82640819D01*
X178458857Y-82640819D02*
X178363619Y-82640819D01*
X178363619Y-82640819D02*
X178220762Y-82593200D01*
X178220762Y-82593200D02*
X178125524Y-82497961D01*
X178125524Y-82497961D02*
X178077905Y-82402723D01*
X178077905Y-82402723D02*
X178030286Y-82212247D01*
X178030286Y-82212247D02*
X178030286Y-82069390D01*
X178030286Y-82069390D02*
X178077905Y-81878914D01*
X178077905Y-81878914D02*
X178125524Y-81783676D01*
X178125524Y-81783676D02*
X178220762Y-81688438D01*
X178220762Y-81688438D02*
X178363619Y-81640819D01*
X178363619Y-81640819D02*
X178458857Y-81640819D01*
X178458857Y-81640819D02*
X178601714Y-81688438D01*
X178601714Y-81688438D02*
X178649333Y-81736057D01*
X179220762Y-82069390D02*
X179125524Y-82021771D01*
X179125524Y-82021771D02*
X179077905Y-81974152D01*
X179077905Y-81974152D02*
X179030286Y-81878914D01*
X179030286Y-81878914D02*
X179030286Y-81831295D01*
X179030286Y-81831295D02*
X179077905Y-81736057D01*
X179077905Y-81736057D02*
X179125524Y-81688438D01*
X179125524Y-81688438D02*
X179220762Y-81640819D01*
X179220762Y-81640819D02*
X179411238Y-81640819D01*
X179411238Y-81640819D02*
X179506476Y-81688438D01*
X179506476Y-81688438D02*
X179554095Y-81736057D01*
X179554095Y-81736057D02*
X179601714Y-81831295D01*
X179601714Y-81831295D02*
X179601714Y-81878914D01*
X179601714Y-81878914D02*
X179554095Y-81974152D01*
X179554095Y-81974152D02*
X179506476Y-82021771D01*
X179506476Y-82021771D02*
X179411238Y-82069390D01*
X179411238Y-82069390D02*
X179220762Y-82069390D01*
X179220762Y-82069390D02*
X179125524Y-82117009D01*
X179125524Y-82117009D02*
X179077905Y-82164628D01*
X179077905Y-82164628D02*
X179030286Y-82259866D01*
X179030286Y-82259866D02*
X179030286Y-82450342D01*
X179030286Y-82450342D02*
X179077905Y-82545580D01*
X179077905Y-82545580D02*
X179125524Y-82593200D01*
X179125524Y-82593200D02*
X179220762Y-82640819D01*
X179220762Y-82640819D02*
X179411238Y-82640819D01*
X179411238Y-82640819D02*
X179506476Y-82593200D01*
X179506476Y-82593200D02*
X179554095Y-82545580D01*
X179554095Y-82545580D02*
X179601714Y-82450342D01*
X179601714Y-82450342D02*
X179601714Y-82259866D01*
X179601714Y-82259866D02*
X179554095Y-82164628D01*
X179554095Y-82164628D02*
X179506476Y-82117009D01*
X179506476Y-82117009D02*
X179411238Y-82069390D01*
X140757319Y-74117104D02*
X141566842Y-74117104D01*
X141566842Y-74117104D02*
X141662080Y-74069485D01*
X141662080Y-74069485D02*
X141709700Y-74021866D01*
X141709700Y-74021866D02*
X141757319Y-73926628D01*
X141757319Y-73926628D02*
X141757319Y-73736152D01*
X141757319Y-73736152D02*
X141709700Y-73640914D01*
X141709700Y-73640914D02*
X141662080Y-73593295D01*
X141662080Y-73593295D02*
X141566842Y-73545676D01*
X141566842Y-73545676D02*
X140757319Y-73545676D01*
X140757319Y-73164723D02*
X140757319Y-72545676D01*
X140757319Y-72545676D02*
X141138271Y-72879009D01*
X141138271Y-72879009D02*
X141138271Y-72736152D01*
X141138271Y-72736152D02*
X141185890Y-72640914D01*
X141185890Y-72640914D02*
X141233509Y-72593295D01*
X141233509Y-72593295D02*
X141328747Y-72545676D01*
X141328747Y-72545676D02*
X141566842Y-72545676D01*
X141566842Y-72545676D02*
X141662080Y-72593295D01*
X141662080Y-72593295D02*
X141709700Y-72640914D01*
X141709700Y-72640914D02*
X141757319Y-72736152D01*
X141757319Y-72736152D02*
X141757319Y-73021866D01*
X141757319Y-73021866D02*
X141709700Y-73117104D01*
X141709700Y-73117104D02*
X141662080Y-73164723D01*
X156192819Y-53513904D02*
X157002342Y-53513904D01*
X157002342Y-53513904D02*
X157097580Y-53466285D01*
X157097580Y-53466285D02*
X157145200Y-53418666D01*
X157145200Y-53418666D02*
X157192819Y-53323428D01*
X157192819Y-53323428D02*
X157192819Y-53132952D01*
X157192819Y-53132952D02*
X157145200Y-53037714D01*
X157145200Y-53037714D02*
X157097580Y-52990095D01*
X157097580Y-52990095D02*
X157002342Y-52942476D01*
X157002342Y-52942476D02*
X156192819Y-52942476D01*
X156288057Y-52513904D02*
X156240438Y-52466285D01*
X156240438Y-52466285D02*
X156192819Y-52371047D01*
X156192819Y-52371047D02*
X156192819Y-52132952D01*
X156192819Y-52132952D02*
X156240438Y-52037714D01*
X156240438Y-52037714D02*
X156288057Y-51990095D01*
X156288057Y-51990095D02*
X156383295Y-51942476D01*
X156383295Y-51942476D02*
X156478533Y-51942476D01*
X156478533Y-51942476D02*
X156621390Y-51990095D01*
X156621390Y-51990095D02*
X157192819Y-52561523D01*
X157192819Y-52561523D02*
X157192819Y-51942476D01*
X139358019Y-40922533D02*
X140072304Y-40922533D01*
X140072304Y-40922533D02*
X140215161Y-40970152D01*
X140215161Y-40970152D02*
X140310400Y-41065390D01*
X140310400Y-41065390D02*
X140358019Y-41208247D01*
X140358019Y-41208247D02*
X140358019Y-41303485D01*
X139358019Y-39970152D02*
X139358019Y-40446342D01*
X139358019Y-40446342D02*
X139834209Y-40493961D01*
X139834209Y-40493961D02*
X139786590Y-40446342D01*
X139786590Y-40446342D02*
X139738971Y-40351104D01*
X139738971Y-40351104D02*
X139738971Y-40113009D01*
X139738971Y-40113009D02*
X139786590Y-40017771D01*
X139786590Y-40017771D02*
X139834209Y-39970152D01*
X139834209Y-39970152D02*
X139929447Y-39922533D01*
X139929447Y-39922533D02*
X140167542Y-39922533D01*
X140167542Y-39922533D02*
X140262780Y-39970152D01*
X140262780Y-39970152D02*
X140310400Y-40017771D01*
X140310400Y-40017771D02*
X140358019Y-40113009D01*
X140358019Y-40113009D02*
X140358019Y-40351104D01*
X140358019Y-40351104D02*
X140310400Y-40446342D01*
X140310400Y-40446342D02*
X140262780Y-40493961D01*
X165928191Y-77412842D02*
X165928191Y-78222365D01*
X165928191Y-78222365D02*
X165975810Y-78317603D01*
X165975810Y-78317603D02*
X166023429Y-78365223D01*
X166023429Y-78365223D02*
X166118667Y-78412842D01*
X166118667Y-78412842D02*
X166309143Y-78412842D01*
X166309143Y-78412842D02*
X166404381Y-78365223D01*
X166404381Y-78365223D02*
X166452000Y-78317603D01*
X166452000Y-78317603D02*
X166499619Y-78222365D01*
X166499619Y-78222365D02*
X166499619Y-77412842D01*
X167499619Y-78412842D02*
X166928191Y-78412842D01*
X167213905Y-78412842D02*
X167213905Y-77412842D01*
X167213905Y-77412842D02*
X167118667Y-77555699D01*
X167118667Y-77555699D02*
X167023429Y-77650937D01*
X167023429Y-77650937D02*
X166928191Y-77698556D01*
X166090667Y-73508400D02*
X166233524Y-73556019D01*
X166233524Y-73556019D02*
X166471619Y-73556019D01*
X166471619Y-73556019D02*
X166566857Y-73508400D01*
X166566857Y-73508400D02*
X166614476Y-73460780D01*
X166614476Y-73460780D02*
X166662095Y-73365542D01*
X166662095Y-73365542D02*
X166662095Y-73270304D01*
X166662095Y-73270304D02*
X166614476Y-73175066D01*
X166614476Y-73175066D02*
X166566857Y-73127447D01*
X166566857Y-73127447D02*
X166471619Y-73079828D01*
X166471619Y-73079828D02*
X166281143Y-73032209D01*
X166281143Y-73032209D02*
X166185905Y-72984590D01*
X166185905Y-72984590D02*
X166138286Y-72936971D01*
X166138286Y-72936971D02*
X166090667Y-72841733D01*
X166090667Y-72841733D02*
X166090667Y-72746495D01*
X166090667Y-72746495D02*
X166138286Y-72651257D01*
X166138286Y-72651257D02*
X166185905Y-72603638D01*
X166185905Y-72603638D02*
X166281143Y-72556019D01*
X166281143Y-72556019D02*
X166519238Y-72556019D01*
X166519238Y-72556019D02*
X166662095Y-72603638D01*
X166995429Y-72556019D02*
X167233524Y-73556019D01*
X167233524Y-73556019D02*
X167424000Y-72841733D01*
X167424000Y-72841733D02*
X167614476Y-73556019D01*
X167614476Y-73556019D02*
X167852572Y-72556019D01*
X168138286Y-72556019D02*
X168757333Y-72556019D01*
X168757333Y-72556019D02*
X168424000Y-72936971D01*
X168424000Y-72936971D02*
X168566857Y-72936971D01*
X168566857Y-72936971D02*
X168662095Y-72984590D01*
X168662095Y-72984590D02*
X168709714Y-73032209D01*
X168709714Y-73032209D02*
X168757333Y-73127447D01*
X168757333Y-73127447D02*
X168757333Y-73365542D01*
X168757333Y-73365542D02*
X168709714Y-73460780D01*
X168709714Y-73460780D02*
X168662095Y-73508400D01*
X168662095Y-73508400D02*
X168566857Y-73556019D01*
X168566857Y-73556019D02*
X168281143Y-73556019D01*
X168281143Y-73556019D02*
X168185905Y-73508400D01*
X168185905Y-73508400D02*
X168138286Y-73460780D01*
X170122819Y-83289666D02*
X169646628Y-83622999D01*
X170122819Y-83861094D02*
X169122819Y-83861094D01*
X169122819Y-83861094D02*
X169122819Y-83480142D01*
X169122819Y-83480142D02*
X169170438Y-83384904D01*
X169170438Y-83384904D02*
X169218057Y-83337285D01*
X169218057Y-83337285D02*
X169313295Y-83289666D01*
X169313295Y-83289666D02*
X169456152Y-83289666D01*
X169456152Y-83289666D02*
X169551390Y-83337285D01*
X169551390Y-83337285D02*
X169599009Y-83384904D01*
X169599009Y-83384904D02*
X169646628Y-83480142D01*
X169646628Y-83480142D02*
X169646628Y-83861094D01*
X169218057Y-82908713D02*
X169170438Y-82861094D01*
X169170438Y-82861094D02*
X169122819Y-82765856D01*
X169122819Y-82765856D02*
X169122819Y-82527761D01*
X169122819Y-82527761D02*
X169170438Y-82432523D01*
X169170438Y-82432523D02*
X169218057Y-82384904D01*
X169218057Y-82384904D02*
X169313295Y-82337285D01*
X169313295Y-82337285D02*
X169408533Y-82337285D01*
X169408533Y-82337285D02*
X169551390Y-82384904D01*
X169551390Y-82384904D02*
X170122819Y-82956332D01*
X170122819Y-82956332D02*
X170122819Y-82337285D01*
X187003333Y-82545580D02*
X186955714Y-82593200D01*
X186955714Y-82593200D02*
X186812857Y-82640819D01*
X186812857Y-82640819D02*
X186717619Y-82640819D01*
X186717619Y-82640819D02*
X186574762Y-82593200D01*
X186574762Y-82593200D02*
X186479524Y-82497961D01*
X186479524Y-82497961D02*
X186431905Y-82402723D01*
X186431905Y-82402723D02*
X186384286Y-82212247D01*
X186384286Y-82212247D02*
X186384286Y-82069390D01*
X186384286Y-82069390D02*
X186431905Y-81878914D01*
X186431905Y-81878914D02*
X186479524Y-81783676D01*
X186479524Y-81783676D02*
X186574762Y-81688438D01*
X186574762Y-81688438D02*
X186717619Y-81640819D01*
X186717619Y-81640819D02*
X186812857Y-81640819D01*
X186812857Y-81640819D02*
X186955714Y-81688438D01*
X186955714Y-81688438D02*
X187003333Y-81736057D01*
X187479524Y-82640819D02*
X187670000Y-82640819D01*
X187670000Y-82640819D02*
X187765238Y-82593200D01*
X187765238Y-82593200D02*
X187812857Y-82545580D01*
X187812857Y-82545580D02*
X187908095Y-82402723D01*
X187908095Y-82402723D02*
X187955714Y-82212247D01*
X187955714Y-82212247D02*
X187955714Y-81831295D01*
X187955714Y-81831295D02*
X187908095Y-81736057D01*
X187908095Y-81736057D02*
X187860476Y-81688438D01*
X187860476Y-81688438D02*
X187765238Y-81640819D01*
X187765238Y-81640819D02*
X187574762Y-81640819D01*
X187574762Y-81640819D02*
X187479524Y-81688438D01*
X187479524Y-81688438D02*
X187431905Y-81736057D01*
X187431905Y-81736057D02*
X187384286Y-81831295D01*
X187384286Y-81831295D02*
X187384286Y-82069390D01*
X187384286Y-82069390D02*
X187431905Y-82164628D01*
X187431905Y-82164628D02*
X187479524Y-82212247D01*
X187479524Y-82212247D02*
X187574762Y-82259866D01*
X187574762Y-82259866D02*
X187765238Y-82259866D01*
X187765238Y-82259866D02*
X187860476Y-82212247D01*
X187860476Y-82212247D02*
X187908095Y-82164628D01*
X187908095Y-82164628D02*
X187955714Y-82069390D01*
%TO.C,R15*%
D13*
X140620000Y-70846359D02*
X140620000Y-71153641D01*
X141380000Y-70846359D02*
X141380000Y-71153641D01*
%TO.C,C3*%
X161459252Y-80610000D02*
X160936748Y-80610000D01*
X161459252Y-82080000D02*
X160936748Y-82080000D01*
%TO.C,D2*%
X188428500Y-87945000D02*
X192488500Y-87945000D01*
X192488500Y-84775000D02*
X188428500Y-84775000D01*
X192488500Y-87945000D02*
X192488500Y-84775000D01*
%TO.C,D1*%
X162176000Y-83760000D02*
X160766000Y-83760000D01*
X162176000Y-84980000D02*
X160766000Y-84980000D01*
X162176000Y-84980000D02*
X162176000Y-83760000D01*
%TO.C,C7*%
X157167948Y-76633400D02*
X157690452Y-76633400D01*
X157167948Y-78103400D02*
X157690452Y-78103400D01*
%TO.C,R10*%
X185518359Y-85980000D02*
X185825641Y-85980000D01*
X185518359Y-86740000D02*
X185825641Y-86740000D01*
%TO.C,R8*%
X161902359Y-55246000D02*
X162209641Y-55246000D01*
X161902359Y-56006000D02*
X162209641Y-56006000D01*
%TO.C,J6*%
X140276500Y-60022000D02*
X146276500Y-60022000D01*
X140276500Y-60882000D02*
X140276500Y-60022000D01*
X140276500Y-62562000D02*
X146276500Y-62562000D01*
X140276500Y-63422000D02*
X140276500Y-62562000D01*
X146276500Y-60882000D02*
X140276500Y-60882000D01*
X146276500Y-63422000D02*
X140276500Y-63422000D01*
X149036500Y-61722000D02*
X146276500Y-61722000D01*
X149036500Y-64262000D02*
X146276500Y-64262000D01*
X149266500Y-65102000D02*
X149036500Y-65102000D01*
X149266500Y-65962000D02*
X149036500Y-65962000D01*
X149349142Y-60022000D02*
X149036500Y-60022000D01*
X149349142Y-60882000D02*
X149036500Y-60882000D01*
X149349142Y-62562000D02*
X149036500Y-62562000D01*
X149349142Y-63422000D02*
X149036500Y-63422000D01*
X151696500Y-65532000D02*
X151696500Y-66802000D01*
X151696500Y-66802000D02*
X150426500Y-66802000D01*
X140276500Y-65102000D02*
X146276500Y-65102000D01*
X146276500Y-65962000D01*
X140276500Y-65962000D01*
X140276500Y-65102000D01*
G36*
X140276500Y-65102000D02*
G01*
X146276500Y-65102000D01*
X146276500Y-65962000D01*
X140276500Y-65962000D01*
X140276500Y-65102000D01*
G37*
X146276500Y-59072000D02*
X149036500Y-59072000D01*
X149036500Y-66912000D01*
X146276500Y-66912000D01*
X146276500Y-59072000D01*
%TO.C,R11*%
X191390000Y-45060359D02*
X191390000Y-45367641D01*
X192150000Y-45060359D02*
X192150000Y-45367641D01*
%TO.C,U5*%
X183406000Y-36640000D02*
X189166000Y-36640000D01*
X183406000Y-48900000D02*
X183406000Y-36640000D01*
X189156000Y-48900000D02*
X183416000Y-48900000D01*
X189166000Y-36640000D02*
X189166000Y-48890000D01*
X189446000Y-49180000D02*
X187836000Y-49180000D01*
X189446000Y-49180000D02*
X189446000Y-47180000D01*
%TO.C,SW1*%
X176654000Y-76328000D02*
X176654000Y-79628000D01*
X176654000Y-79628000D02*
X176954000Y-79628000D01*
X176954000Y-76328000D02*
X176654000Y-76328000D01*
X179154000Y-76328000D02*
X179454000Y-76328000D01*
X179454000Y-76328000D02*
X179454000Y-79628000D01*
X179454000Y-79628000D02*
X179154000Y-79628000D01*
%TO.C,D4*%
X188428500Y-95565000D02*
X192488500Y-95565000D01*
X192488500Y-92395000D02*
X188428500Y-92395000D01*
X192488500Y-95565000D02*
X192488500Y-92395000D01*
%TO.C,J1*%
X162552000Y-88997000D02*
X162552000Y-90917000D01*
X162552000Y-94632000D02*
X162552000Y-92927000D01*
X171712000Y-90917000D02*
X171712000Y-88997000D01*
X171712000Y-92927000D02*
X171712000Y-94632000D01*
X171712000Y-94632000D02*
X162552000Y-94632000D01*
%TO.C,D3*%
X188428500Y-91755000D02*
X192488500Y-91755000D01*
X192488500Y-88585000D02*
X188428500Y-88585000D01*
X192488500Y-91755000D02*
X192488500Y-88585000D01*
%TO.C,R3*%
X164308000Y-83276641D02*
X164308000Y-82969359D01*
X165068000Y-83276641D02*
X165068000Y-82969359D01*
%TO.C,J2*%
X141816500Y-81072000D02*
X141816500Y-80022000D01*
X142016500Y-80222000D02*
X144616500Y-80222000D01*
X142016500Y-94922000D02*
X142016500Y-80222000D01*
X142866500Y-80022000D02*
X141816500Y-80022000D01*
X148516500Y-80222000D02*
X151216500Y-80222000D01*
X151216500Y-80222000D02*
X151216500Y-82122000D01*
X151216500Y-86122000D02*
X151216500Y-94922000D01*
X151216500Y-94922000D02*
X142016500Y-94922000D01*
%TO.C,R16*%
X157806559Y-86284800D02*
X158113841Y-86284800D01*
X157806559Y-87044800D02*
X158113841Y-87044800D01*
%TO.C,C6*%
X159744200Y-74960652D02*
X159744200Y-74438148D01*
X161214200Y-74960652D02*
X161214200Y-74438148D01*
%TO.C,J3*%
X140022500Y-49457500D02*
X146022500Y-49457500D01*
X140022500Y-50317500D02*
X140022500Y-49457500D01*
X140022500Y-51997500D02*
X146022500Y-51997500D01*
X140022500Y-52857500D02*
X140022500Y-51997500D01*
X146022500Y-50317500D02*
X140022500Y-50317500D01*
X146022500Y-52857500D02*
X140022500Y-52857500D01*
X148782500Y-51157500D02*
X146022500Y-51157500D01*
X148782500Y-53697500D02*
X146022500Y-53697500D01*
X149012500Y-54537500D02*
X148782500Y-54537500D01*
X149012500Y-55397500D02*
X148782500Y-55397500D01*
X149095142Y-49457500D02*
X148782500Y-49457500D01*
X149095142Y-50317500D02*
X148782500Y-50317500D01*
X149095142Y-51997500D02*
X148782500Y-51997500D01*
X149095142Y-52857500D02*
X148782500Y-52857500D01*
X151442500Y-54967500D02*
X151442500Y-56237500D01*
X151442500Y-56237500D02*
X150172500Y-56237500D01*
X140022500Y-54537500D02*
X146022500Y-54537500D01*
X146022500Y-55397500D01*
X140022500Y-55397500D01*
X140022500Y-54537500D01*
G36*
X140022500Y-54537500D02*
G01*
X146022500Y-54537500D01*
X146022500Y-55397500D01*
X140022500Y-55397500D01*
X140022500Y-54537500D01*
G37*
X146022500Y-48507500D02*
X148782500Y-48507500D01*
X148782500Y-56347500D01*
X146022500Y-56347500D01*
X146022500Y-48507500D01*
%TO.C,R5*%
X179960000Y-78838359D02*
X179960000Y-79145641D01*
X180720000Y-78838359D02*
X180720000Y-79145641D01*
%TO.C,SW2*%
X185036000Y-76328000D02*
X185036000Y-79628000D01*
X185036000Y-79628000D02*
X185336000Y-79628000D01*
X185336000Y-76328000D02*
X185036000Y-76328000D01*
X187536000Y-76328000D02*
X187836000Y-76328000D01*
X187836000Y-76328000D02*
X187836000Y-79628000D01*
X187836000Y-79628000D02*
X187536000Y-79628000D01*
%TO.C,D6*%
D14*
X160070000Y-90634500D02*
G75*
G02*
X159970000Y-90634500I-50000J0D01*
G01*
X159970000Y-90634500D02*
G75*
G02*
X160070000Y-90634500I50000J0D01*
G01*
%TO.C,R7*%
D13*
X188344000Y-78622359D02*
X188344000Y-78929641D01*
X189104000Y-78622359D02*
X189104000Y-78929641D01*
%TO.C,R12*%
X183892759Y-89790000D02*
X184200041Y-89790000D01*
X183892759Y-90550000D02*
X184200041Y-90550000D01*
%TO.C,C5*%
X150993248Y-78259000D02*
X151515752Y-78259000D01*
X150993248Y-79729000D02*
X151515752Y-79729000D01*
%TO.C,D5*%
D14*
X141050000Y-76590000D02*
G75*
G02*
X140950000Y-76590000I-50000J0D01*
G01*
X140950000Y-76590000D02*
G75*
G02*
X141050000Y-76590000I50000J0D01*
G01*
%TO.C,R13*%
D13*
X182254859Y-93600000D02*
X182562141Y-93600000D01*
X182254859Y-94360000D02*
X182562141Y-94360000D01*
%TO.C,R4*%
X179960000Y-76806359D02*
X179960000Y-77113641D01*
X180720000Y-76806359D02*
X180720000Y-77113641D01*
%TO.C,C4*%
X161393252Y-78324000D02*
X160870748Y-78324000D01*
X161393252Y-79794000D02*
X160870748Y-79794000D01*
%TO.C,U6*%
X156386700Y-72948400D02*
X158206700Y-72948400D01*
X156386700Y-72998400D02*
X156386700Y-72948400D01*
X156386700Y-74898400D02*
X156386700Y-74118400D01*
X156386700Y-76068400D02*
X156386700Y-76018400D01*
X158206700Y-72948400D02*
X158206700Y-72998400D01*
X158206700Y-76018400D02*
X158206700Y-76068400D01*
X158206700Y-76068400D02*
X156386700Y-76068400D01*
X158986700Y-76348400D02*
X158506700Y-76348400D01*
X158746700Y-76018400D01*
X158986700Y-76348400D01*
G36*
X158986700Y-76348400D02*
G01*
X158506700Y-76348400D01*
X158746700Y-76018400D01*
X158986700Y-76348400D01*
G37*
%TO.C,R1*%
X163445000Y-80302064D02*
X163445000Y-79847936D01*
X164915000Y-80302064D02*
X164915000Y-79847936D01*
%TO.C,R6*%
X188344000Y-76612359D02*
X188344000Y-76919641D01*
X189104000Y-76612359D02*
X189104000Y-76919641D01*
%TO.C,C8*%
X178923836Y-80666000D02*
X178708164Y-80666000D01*
X178923836Y-81386000D02*
X178708164Y-81386000D01*
%TO.C,U3*%
X142392500Y-71598000D02*
X143652500Y-71598000D01*
X142392500Y-75358000D02*
X142392500Y-71598000D01*
X149212500Y-71598000D02*
X147952500Y-71598000D01*
X149212500Y-75358000D02*
X149212500Y-71598000D01*
X142492500Y-76638000D02*
X142162500Y-76878000D01*
X142162500Y-76398000D01*
X142492500Y-76638000D01*
G36*
X142492500Y-76638000D02*
G01*
X142162500Y-76878000D01*
X142162500Y-76398000D01*
X142492500Y-76638000D01*
G37*
%TO.C,U2*%
X158038000Y-28452000D02*
X158038000Y-34652000D01*
X158038000Y-28452000D02*
X176438000Y-28452000D01*
X158038000Y-53302000D02*
X158038000Y-54302000D01*
X158038000Y-54302000D02*
X159538000Y-54302000D01*
X176438000Y-28452000D02*
X176438000Y-34652000D01*
X176438000Y-54302000D02*
X174938000Y-54302000D01*
X176438000Y-54302000D02*
X176438000Y-53302000D01*
X158038000Y-35327000D02*
X157538000Y-35327000D01*
X158038000Y-34827000D01*
X158038000Y-35327000D01*
G36*
X158038000Y-35327000D02*
G01*
X157538000Y-35327000D01*
X158038000Y-34827000D01*
X158038000Y-35327000D01*
G37*
%TO.C,J5*%
X140865000Y-35943000D02*
X150905000Y-35943000D01*
X140865000Y-38303000D02*
X140865000Y-35943000D01*
X140865000Y-46343000D02*
X140865000Y-38903000D01*
X141485000Y-35943000D02*
X141485000Y-46343000D01*
X142985000Y-35943000D02*
X142985000Y-46343000D01*
X147885000Y-35943000D02*
X147885000Y-46343000D01*
X150905000Y-35943000D02*
X150905000Y-46343000D01*
X150905000Y-46343000D02*
X140865000Y-46343000D01*
X140865000Y-38603000D02*
X140255000Y-39043000D01*
X140255000Y-38163000D01*
X140865000Y-38603000D01*
G36*
X140865000Y-38603000D02*
G01*
X140255000Y-39043000D01*
X140255000Y-38163000D01*
X140865000Y-38603000D01*
G37*
%TO.C,U1*%
X165730000Y-79425000D02*
X165730000Y-80475000D01*
X167710000Y-79425000D02*
X167710000Y-80725000D01*
X165730000Y-81125000D02*
X165450000Y-80845000D01*
X165730000Y-80845000D01*
X165730000Y-81125000D01*
G36*
X165730000Y-81125000D02*
G01*
X165450000Y-80845000D01*
X165730000Y-80845000D01*
X165730000Y-81125000D01*
G37*
%TO.C,SW3*%
X161224000Y-61400000D02*
X162824000Y-59800000D01*
X161224000Y-62550000D02*
X161224000Y-61400000D01*
X161224000Y-64450000D02*
X161224000Y-67550000D01*
X161224000Y-69450000D02*
X161224000Y-70600000D01*
X161224000Y-70600000D02*
X162824000Y-72200000D01*
X162824000Y-59800000D02*
X172024000Y-59800000D01*
X162824000Y-72200000D02*
X172024000Y-72200000D01*
X172024000Y-59800000D02*
X173624000Y-61400000D01*
X172024000Y-72200000D02*
X173624000Y-70600000D01*
X173624000Y-62550000D02*
X173624000Y-61400000D01*
X173624000Y-64450000D02*
X173624000Y-67550000D01*
X173624000Y-69450000D02*
X173624000Y-70600000D01*
%TO.C,R2*%
X168118000Y-82969359D02*
X168118000Y-83276641D01*
X168878000Y-82969359D02*
X168878000Y-83276641D01*
%TO.C,C9*%
X187277836Y-80666000D02*
X187062164Y-80666000D01*
X187277836Y-81386000D02*
X187062164Y-81386000D01*
D15*
%TO.C,G\u002A\u002A\u002A*%
G36*
X184798307Y-70257071D02*
G01*
X184812124Y-70288992D01*
X184800037Y-70338244D01*
X184749245Y-70349799D01*
X184692216Y-70332213D01*
X184686366Y-70288992D01*
X184720628Y-70237299D01*
X184749245Y-70228185D01*
X184798307Y-70257071D01*
G37*
G36*
X187995024Y-70257071D02*
G01*
X188008841Y-70288992D01*
X187996754Y-70338244D01*
X187945962Y-70349799D01*
X187888933Y-70332213D01*
X187883083Y-70288992D01*
X187917345Y-70237299D01*
X187945962Y-70228185D01*
X187995024Y-70257071D01*
G37*
G36*
X189938242Y-70562717D02*
G01*
X189954745Y-70602113D01*
X189941942Y-70651572D01*
X189894337Y-70662521D01*
X189834932Y-70639628D01*
X189822295Y-70590480D01*
X189844135Y-70538997D01*
X189891740Y-70530529D01*
X189938242Y-70562717D01*
G37*
G36*
X185235702Y-66527638D02*
G01*
X185235702Y-67222576D01*
X185154626Y-67222576D01*
X185081653Y-67213594D01*
X185050385Y-67199412D01*
X185043204Y-67159001D01*
X185036930Y-67060169D01*
X185031930Y-66913989D01*
X185028573Y-66731530D01*
X185027230Y-66523864D01*
X185027220Y-66504473D01*
X185027220Y-65832699D01*
X185131461Y-65832699D01*
X185235702Y-65832699D01*
X185235702Y-66527638D01*
G37*
G36*
X189155834Y-65910880D02*
G01*
X189143453Y-65952893D01*
X189110550Y-65977729D01*
X189041108Y-65991155D01*
X188919110Y-65998940D01*
X188910189Y-65999335D01*
X188675647Y-66009609D01*
X188675647Y-66616093D01*
X188675647Y-67222576D01*
X188571406Y-67222576D01*
X188467166Y-67222576D01*
X188467166Y-66616093D01*
X188467166Y-66009609D01*
X188232624Y-65999335D01*
X188107127Y-65991699D01*
X188035104Y-65978752D01*
X188000539Y-65954726D01*
X187987414Y-65913854D01*
X187986979Y-65910880D01*
X187975875Y-65832699D01*
X188571406Y-65832699D01*
X189166937Y-65832699D01*
X189155834Y-65910880D01*
G37*
G36*
X180023663Y-66111979D02*
G01*
X180023663Y-66391258D01*
X180345072Y-66381267D01*
X180666482Y-66371277D01*
X180676630Y-66101988D01*
X180686778Y-65832699D01*
X180790292Y-65832699D01*
X180893806Y-65832699D01*
X180884384Y-66518951D01*
X180874963Y-67205203D01*
X180779409Y-67216197D01*
X180683855Y-67227192D01*
X180683855Y-66894788D01*
X180683855Y-66562385D01*
X180353759Y-66562385D01*
X180023663Y-66562385D01*
X180023663Y-66892480D01*
X180023663Y-67222576D01*
X179919423Y-67222576D01*
X179815182Y-67222576D01*
X179815182Y-66527638D01*
X179815182Y-65832699D01*
X179919423Y-65832699D01*
X180023663Y-65832699D01*
X180023663Y-66111979D01*
G37*
G36*
X184097319Y-69900443D02*
G01*
X184198334Y-69908292D01*
X184247276Y-69922811D01*
X184254311Y-69941523D01*
X184213530Y-69972646D01*
X184131282Y-69993692D01*
X184112428Y-69995741D01*
X183984813Y-70006525D01*
X183984813Y-70334523D01*
X183982929Y-70491305D01*
X183976039Y-70590341D01*
X183962290Y-70643308D01*
X183939824Y-70661883D01*
X183932692Y-70662521D01*
X183907847Y-70650708D01*
X183892124Y-70607499D01*
X183883683Y-70521247D01*
X183880686Y-70380301D01*
X183880572Y-70332426D01*
X183880572Y-70002330D01*
X183741584Y-70002330D01*
X183644942Y-69993723D01*
X183605119Y-69965194D01*
X183602596Y-69950210D01*
X183614352Y-69925457D01*
X183657362Y-69909754D01*
X183743238Y-69901281D01*
X183883593Y-69898223D01*
X183935588Y-69898089D01*
X184097319Y-69900443D01*
G37*
G36*
X187294036Y-69900443D02*
G01*
X187395051Y-69908292D01*
X187443993Y-69922811D01*
X187451028Y-69941523D01*
X187410246Y-69972646D01*
X187327998Y-69993692D01*
X187309144Y-69995741D01*
X187181529Y-70006525D01*
X187181529Y-70334523D01*
X187179645Y-70491305D01*
X187172756Y-70590341D01*
X187159006Y-70643308D01*
X187136540Y-70661883D01*
X187129409Y-70662521D01*
X187104564Y-70650708D01*
X187088841Y-70607499D01*
X187080400Y-70521247D01*
X187077403Y-70380301D01*
X187077289Y-70332426D01*
X187077289Y-70002330D01*
X186938301Y-70002330D01*
X186841659Y-69993723D01*
X186801836Y-69965194D01*
X186799313Y-69950210D01*
X186811069Y-69925457D01*
X186854079Y-69909754D01*
X186939955Y-69901281D01*
X187080310Y-69898223D01*
X187132305Y-69898089D01*
X187294036Y-69900443D01*
G37*
G36*
X186080034Y-66206229D02*
G01*
X186197105Y-66431735D01*
X186286944Y-66602148D01*
X186353531Y-66724465D01*
X186400849Y-66805680D01*
X186432878Y-66852791D01*
X186453602Y-66872794D01*
X186460531Y-66874820D01*
X186469599Y-66842181D01*
X186477295Y-66752053D01*
X186483018Y-66616439D01*
X186486169Y-66447339D01*
X186486591Y-66353903D01*
X186486591Y-65832699D01*
X186573458Y-65832699D01*
X186660326Y-65832699D01*
X186660326Y-66527638D01*
X186660326Y-67222576D01*
X186529807Y-67222576D01*
X186399287Y-67222576D01*
X186121530Y-66686534D01*
X185843773Y-66150492D01*
X185826399Y-66677847D01*
X185809026Y-67205203D01*
X185713472Y-67216197D01*
X185617918Y-67227192D01*
X185617918Y-66529946D01*
X185617918Y-65832699D01*
X185752433Y-65832699D01*
X185886948Y-65832699D01*
X186080034Y-66206229D01*
G37*
G36*
X188502097Y-70071205D02*
G01*
X188516155Y-70071824D01*
X188553855Y-70103150D01*
X188601603Y-70188115D01*
X188645228Y-70295120D01*
X188688083Y-70404273D01*
X188724732Y-70479296D01*
X188747519Y-70504613D01*
X188748087Y-70504340D01*
X188771178Y-70466783D01*
X188808960Y-70382672D01*
X188849106Y-70281044D01*
X188900170Y-70164563D01*
X188948058Y-70090831D01*
X188977574Y-70071824D01*
X189001783Y-70075912D01*
X189011419Y-70095565D01*
X189004139Y-70141865D01*
X188977595Y-70225897D01*
X188929445Y-70358744D01*
X188900379Y-70436666D01*
X188845954Y-70563209D01*
X188796322Y-70632819D01*
X188749053Y-70656244D01*
X188679713Y-70640376D01*
X188645912Y-70586750D01*
X188573682Y-70392126D01*
X188522627Y-70253489D01*
X188490379Y-70161441D01*
X188474570Y-70106587D01*
X188472832Y-70079527D01*
X188482797Y-70070866D01*
X188502097Y-70071205D01*
G37*
G36*
X189474826Y-70225768D02*
G01*
X189475819Y-70378583D01*
X189480799Y-70475385D01*
X189492768Y-70529649D01*
X189514726Y-70554849D01*
X189549674Y-70564460D01*
X189550285Y-70564551D01*
X189616717Y-70591117D01*
X189640048Y-70619088D01*
X189627452Y-70643910D01*
X189563631Y-70657800D01*
X189440031Y-70662491D01*
X189425601Y-70662521D01*
X189297994Y-70659118D01*
X189226699Y-70646941D01*
X189198779Y-70623043D01*
X189196851Y-70610401D01*
X189227056Y-70568482D01*
X189283718Y-70558281D01*
X189326539Y-70555384D01*
X189352307Y-70537314D01*
X189365351Y-70490000D01*
X189370000Y-70399373D01*
X189370585Y-70275962D01*
X189370585Y-69993643D01*
X189266345Y-70014491D01*
X189188589Y-70020235D01*
X189162322Y-69992727D01*
X189162104Y-69987805D01*
X189194169Y-69933375D01*
X189287025Y-69903428D01*
X189373427Y-69898089D01*
X189474826Y-69898089D01*
X189474826Y-70225768D01*
G37*
G36*
X181264978Y-69914582D02*
G01*
X181361154Y-69967131D01*
X181407310Y-70060343D01*
X181413540Y-70129982D01*
X181384404Y-70245152D01*
X181301540Y-70320324D01*
X181171765Y-70349614D01*
X181158889Y-70349799D01*
X181031324Y-70349799D01*
X181031324Y-70506160D01*
X181024503Y-70609220D01*
X181001310Y-70656164D01*
X180979204Y-70662521D01*
X180955874Y-70651604D01*
X180940513Y-70611508D01*
X180931618Y-70531219D01*
X180927687Y-70399724D01*
X180927127Y-70288992D01*
X181031324Y-70288992D01*
X181142524Y-70266752D01*
X181228005Y-70238937D01*
X181280320Y-70202599D01*
X181280980Y-70201602D01*
X181307776Y-70111894D01*
X181270424Y-70038335D01*
X181173755Y-69988616D01*
X181142524Y-69981136D01*
X181031324Y-69958896D01*
X181031324Y-70123944D01*
X181031324Y-70288992D01*
X180927127Y-70288992D01*
X180927083Y-70280305D01*
X180927083Y-70123944D01*
X180927083Y-69898089D01*
X181112806Y-69898089D01*
X181264978Y-69914582D01*
G37*
G36*
X190529276Y-69916124D02*
G01*
X190602656Y-70008177D01*
X190646315Y-70150148D01*
X190656222Y-70280305D01*
X190638951Y-70460294D01*
X190585663Y-70584736D01*
X190494394Y-70658690D01*
X190430830Y-70687257D01*
X190392760Y-70691450D01*
X190343414Y-70670065D01*
X190309437Y-70652638D01*
X190206365Y-70562763D01*
X190148981Y-70420776D01*
X190136042Y-70280305D01*
X190138679Y-70259402D01*
X190247434Y-70259402D01*
X190249952Y-70322586D01*
X190276297Y-70465294D01*
X190323326Y-70556633D01*
X190384633Y-70591610D01*
X190453809Y-70565231D01*
X190497890Y-70515802D01*
X190536162Y-70416848D01*
X190550626Y-70281892D01*
X190540039Y-70140662D01*
X190517178Y-70054303D01*
X190472791Y-69985729D01*
X190405120Y-69973860D01*
X190321321Y-70018454D01*
X190267168Y-70117211D01*
X190247434Y-70259402D01*
X190138679Y-70259402D01*
X190158748Y-70100333D01*
X190227138Y-69972233D01*
X190315631Y-69906234D01*
X190431746Y-69880105D01*
X190529276Y-69916124D01*
G37*
G36*
X181682829Y-65840348D02*
G01*
X181865268Y-65845013D01*
X181989380Y-65850887D01*
X182066325Y-65859964D01*
X182107265Y-65874241D01*
X182123362Y-65895714D01*
X182125852Y-65919567D01*
X182120518Y-65951716D01*
X182096054Y-65972777D01*
X182039767Y-65985724D01*
X181938966Y-65993535D01*
X181787070Y-65999005D01*
X181448287Y-66008950D01*
X181448287Y-66198800D01*
X181448287Y-66388650D01*
X181780800Y-66388650D01*
X181934289Y-66389352D01*
X182030797Y-66393485D01*
X182082834Y-66404095D01*
X182102912Y-66424222D01*
X182103542Y-66456912D01*
X182102209Y-66466831D01*
X182092597Y-66503680D01*
X182067371Y-66527337D01*
X182012919Y-66541410D01*
X181915630Y-66549509D01*
X181769696Y-66555002D01*
X181448287Y-66564992D01*
X181448287Y-66806917D01*
X181448287Y-67048842D01*
X181795756Y-67048842D01*
X182143226Y-67048842D01*
X182143226Y-67135709D01*
X182143226Y-67222576D01*
X181691516Y-67222576D01*
X181239806Y-67222576D01*
X181239806Y-66526600D01*
X181239806Y-65830623D01*
X181682829Y-65840348D01*
G37*
G36*
X185003375Y-58892653D02*
G01*
X185161991Y-58922469D01*
X185270799Y-58975462D01*
X185338487Y-59054334D01*
X185338912Y-59055125D01*
X185353928Y-59116850D01*
X185365841Y-59229890D01*
X185373137Y-59376085D01*
X185374689Y-59484363D01*
X185373692Y-59648147D01*
X185368572Y-59758257D01*
X185356138Y-59830505D01*
X185333201Y-59880706D01*
X185296568Y-59924672D01*
X185283084Y-59938358D01*
X185239144Y-59978663D01*
X185193706Y-60005001D01*
X185131514Y-60020334D01*
X185037314Y-60027625D01*
X184895849Y-60029836D01*
X184811328Y-60029963D01*
X184644137Y-60029309D01*
X184530908Y-60025109D01*
X184456106Y-60014009D01*
X184404198Y-59992654D01*
X184359653Y-59957689D01*
X184326460Y-59925246D01*
X184221743Y-59820529D01*
X184233579Y-59453247D01*
X184239542Y-59289542D01*
X184247624Y-59179522D01*
X184262044Y-59107411D01*
X184287021Y-59057431D01*
X184326774Y-59013806D01*
X184358890Y-58984639D01*
X184417399Y-58936264D01*
X184473012Y-58906369D01*
X184544394Y-58890530D01*
X184650206Y-58884324D01*
X184786265Y-58883315D01*
X185003375Y-58892653D01*
G37*
G36*
X186983219Y-58884713D02*
G01*
X187083833Y-58891858D01*
X187152292Y-58909173D01*
X187207259Y-58941085D01*
X187259162Y-58984639D01*
X187309619Y-59031919D01*
X187342809Y-59076239D01*
X187362951Y-59133377D01*
X187374265Y-59219109D01*
X187380969Y-59349212D01*
X187384473Y-59453247D01*
X187396309Y-59820529D01*
X187291592Y-59925246D01*
X187243320Y-59971138D01*
X187198016Y-60001175D01*
X187140138Y-60018719D01*
X187054141Y-60027127D01*
X186924483Y-60029759D01*
X186807060Y-60029963D01*
X186637951Y-60028904D01*
X186522960Y-60023877D01*
X186446722Y-60012106D01*
X186393871Y-59990816D01*
X186349043Y-59957233D01*
X186335304Y-59944755D01*
X186294368Y-59903229D01*
X186267823Y-59859550D01*
X186252560Y-59798371D01*
X186245472Y-59704346D01*
X186243449Y-59562126D01*
X186243362Y-59490761D01*
X186246629Y-59331160D01*
X186255445Y-59192457D01*
X186268338Y-59092587D01*
X186279139Y-59055125D01*
X186346515Y-58976021D01*
X186454936Y-58922818D01*
X186613090Y-58892817D01*
X186829665Y-58883316D01*
X186831786Y-58883315D01*
X186983219Y-58884713D01*
G37*
G36*
X183470414Y-69909957D02*
G01*
X183485449Y-69952750D01*
X183494125Y-70037252D01*
X183497874Y-70174247D01*
X183498356Y-70280305D01*
X183497770Y-70447229D01*
X183494367Y-70556733D01*
X183485672Y-70620888D01*
X183469215Y-70651767D01*
X183442523Y-70661443D01*
X183420175Y-70662091D01*
X183375865Y-70649624D01*
X183329023Y-70605798D01*
X183271448Y-70520222D01*
X183194937Y-70382501D01*
X183185633Y-70364900D01*
X183029272Y-70068141D01*
X183019233Y-70365331D01*
X183011575Y-70515557D01*
X182999437Y-70607584D01*
X182980512Y-70652673D01*
X182958426Y-70662521D01*
X182935600Y-70650654D01*
X182920565Y-70607861D01*
X182911889Y-70523359D01*
X182908140Y-70386364D01*
X182907658Y-70280305D01*
X182908225Y-70113390D01*
X182911595Y-70003879D01*
X182920271Y-69939683D01*
X182936755Y-69908711D01*
X182963550Y-69898875D01*
X182986782Y-69898089D01*
X183030209Y-69909236D01*
X183074813Y-69949739D01*
X183128769Y-70030194D01*
X183200250Y-70161199D01*
X183221323Y-70202125D01*
X183376741Y-70506160D01*
X183386781Y-70202125D01*
X183394290Y-70049996D01*
X183406094Y-69956120D01*
X183424435Y-69909288D01*
X183447588Y-69898089D01*
X183470414Y-69909957D01*
G37*
G36*
X186472873Y-69897656D02*
G01*
X186596861Y-69951164D01*
X186683399Y-70044274D01*
X186691234Y-70059903D01*
X186722777Y-70180823D01*
X186726746Y-70321837D01*
X186704378Y-70451502D01*
X186673158Y-70519473D01*
X186620115Y-70570801D01*
X186539475Y-70626176D01*
X186455043Y-70671791D01*
X186390620Y-70693841D01*
X186374779Y-70692536D01*
X186337183Y-70683022D01*
X186287982Y-70672902D01*
X186215587Y-70637192D01*
X186136233Y-70568381D01*
X186122934Y-70553353D01*
X186055395Y-70429179D01*
X186033950Y-70299901D01*
X186137617Y-70299901D01*
X186164824Y-70434580D01*
X186176140Y-70458284D01*
X186254855Y-70540587D01*
X186362541Y-70572947D01*
X186477429Y-70552905D01*
X186556085Y-70501190D01*
X186592573Y-70426264D01*
X186607931Y-70298608D01*
X186608205Y-70275994D01*
X186601314Y-70159245D01*
X186574851Y-70085518D01*
X186526175Y-70034007D01*
X186418545Y-69975679D01*
X186317452Y-69985187D01*
X186224410Y-70052871D01*
X186158633Y-70162975D01*
X186137617Y-70299901D01*
X186033950Y-70299901D01*
X186031372Y-70284359D01*
X186048507Y-70139276D01*
X186104443Y-70014316D01*
X186194930Y-69930862D01*
X186332031Y-69889104D01*
X186472873Y-69897656D01*
G37*
G36*
X190117109Y-65823840D02*
G01*
X190225202Y-65864106D01*
X190369475Y-65965041D01*
X190475223Y-66110207D01*
X190542249Y-66285869D01*
X190570359Y-66478290D01*
X190559356Y-66673733D01*
X190509044Y-66858463D01*
X190419226Y-67018743D01*
X190289707Y-67140837D01*
X190243806Y-67167595D01*
X190090915Y-67218653D01*
X189913839Y-67238349D01*
X189757069Y-67223251D01*
X189584091Y-67147866D01*
X189444309Y-67020829D01*
X189343377Y-66854292D01*
X189286951Y-66660407D01*
X189282670Y-66517567D01*
X189510145Y-66517567D01*
X189532865Y-66704507D01*
X189594629Y-66868724D01*
X189687483Y-66993117D01*
X189753537Y-67040856D01*
X189876611Y-67072092D01*
X190018210Y-67059955D01*
X190146697Y-67009165D01*
X190191181Y-66975549D01*
X190266400Y-66870009D01*
X190324849Y-66724265D01*
X190357881Y-66567131D01*
X190356848Y-66427421D01*
X190356415Y-66424969D01*
X190296485Y-66224793D01*
X190200477Y-66081259D01*
X190070270Y-65996348D01*
X189926536Y-65971687D01*
X189766403Y-66001630D01*
X189642237Y-66088656D01*
X189557245Y-66228560D01*
X189514635Y-66417135D01*
X189510145Y-66517567D01*
X189282670Y-66517567D01*
X189280684Y-66451326D01*
X189316871Y-66277281D01*
X189413277Y-66075513D01*
X189550235Y-65925313D01*
X189719013Y-65830653D01*
X189910882Y-65795505D01*
X190117109Y-65823840D01*
G37*
G36*
X185671747Y-69903948D02*
G01*
X185753346Y-69925374D01*
X185809526Y-69968142D01*
X185810601Y-69969324D01*
X185852465Y-70031155D01*
X185851402Y-70097213D01*
X185834982Y-70146757D01*
X185812877Y-70236676D01*
X185832935Y-70309111D01*
X185848277Y-70334423D01*
X185882289Y-70425251D01*
X185879125Y-70486880D01*
X185832625Y-70580269D01*
X185756482Y-70635234D01*
X185636076Y-70659484D01*
X185545942Y-70662521D01*
X185339943Y-70662521D01*
X185339943Y-70562276D01*
X185444183Y-70562276D01*
X185591858Y-70551592D01*
X185684665Y-70540874D01*
X185727311Y-70516692D01*
X185739114Y-70464011D01*
X185739532Y-70436666D01*
X185733862Y-70370745D01*
X185703974Y-70338479D01*
X185630553Y-70324836D01*
X185591858Y-70321741D01*
X185444183Y-70311056D01*
X185444183Y-70436666D01*
X185444183Y-70562276D01*
X185339943Y-70562276D01*
X185339943Y-70436666D01*
X185339943Y-70280305D01*
X185339943Y-70084651D01*
X185444183Y-70084651D01*
X185449063Y-70168167D01*
X185477034Y-70203216D01*
X185548098Y-70210757D01*
X185564575Y-70210811D01*
X185673228Y-70190702D01*
X185718512Y-70148132D01*
X185734268Y-70069471D01*
X185684828Y-70013230D01*
X185571673Y-69979179D01*
X185488023Y-69969065D01*
X185452415Y-69987213D01*
X185444318Y-70050608D01*
X185444183Y-70084651D01*
X185339943Y-70084651D01*
X185339943Y-69898089D01*
X185543039Y-69898089D01*
X185671747Y-69903948D01*
G37*
G36*
X191353220Y-65841032D02*
G01*
X191503611Y-65868871D01*
X191608152Y-65920478D01*
X191677818Y-66000115D01*
X191701644Y-66048458D01*
X191727120Y-66169152D01*
X191719805Y-66303635D01*
X191684055Y-66424290D01*
X191630635Y-66498664D01*
X191558263Y-66557267D01*
X191649075Y-66690127D01*
X191718820Y-66799968D01*
X191789056Y-66923192D01*
X191850212Y-67041380D01*
X191892713Y-67136108D01*
X191907111Y-67186674D01*
X191877139Y-67212685D01*
X191811557Y-67222448D01*
X191756456Y-67214020D01*
X191709877Y-67180068D01*
X191659265Y-67107335D01*
X191601192Y-67000274D01*
X191514703Y-66845168D01*
X191438181Y-66743230D01*
X191357923Y-66682288D01*
X191260224Y-66650173D01*
X191196209Y-66640624D01*
X191038438Y-66622841D01*
X191038438Y-66922708D01*
X191038438Y-67222576D01*
X190934197Y-67222576D01*
X190829956Y-67222576D01*
X190829956Y-66527638D01*
X190829956Y-66458144D01*
X191038438Y-66458144D01*
X191227576Y-66458144D01*
X191345820Y-66452855D01*
X191417427Y-66432254D01*
X191464766Y-66389239D01*
X191470804Y-66380919D01*
X191523518Y-66259952D01*
X191512446Y-66150057D01*
X191443263Y-66060258D01*
X191321646Y-65999576D01*
X191218650Y-65980161D01*
X191038438Y-65962845D01*
X191038438Y-66210495D01*
X191038438Y-66458144D01*
X190829956Y-66458144D01*
X190829956Y-66210495D01*
X190829956Y-65832699D01*
X191146004Y-65832699D01*
X191353220Y-65841032D01*
G37*
G36*
X182944465Y-65841032D02*
G01*
X183094856Y-65868871D01*
X183199397Y-65920478D01*
X183269063Y-66000115D01*
X183292889Y-66048458D01*
X183319651Y-66174474D01*
X183310218Y-66310578D01*
X183269240Y-66429992D01*
X183214993Y-66496955D01*
X183161807Y-66543979D01*
X183161401Y-66581519D01*
X183192386Y-66620532D01*
X183235612Y-66680787D01*
X183294951Y-66778469D01*
X183360568Y-66895326D01*
X183422627Y-67013106D01*
X183471291Y-67113554D01*
X183496725Y-67178419D01*
X183498356Y-67188328D01*
X183468375Y-67213142D01*
X183402802Y-67222448D01*
X183347701Y-67214020D01*
X183301122Y-67180068D01*
X183250510Y-67107335D01*
X183192437Y-67000274D01*
X183105948Y-66845168D01*
X183029426Y-66743230D01*
X182949168Y-66682288D01*
X182851469Y-66650173D01*
X182787454Y-66640624D01*
X182629683Y-66622841D01*
X182629683Y-66922708D01*
X182629683Y-67222576D01*
X182525442Y-67222576D01*
X182421201Y-67222576D01*
X182421201Y-66527638D01*
X182421201Y-66458144D01*
X182629683Y-66458144D01*
X182818820Y-66458144D01*
X182937065Y-66452855D01*
X183008672Y-66432254D01*
X183056011Y-66389239D01*
X183062049Y-66380919D01*
X183114763Y-66259952D01*
X183103691Y-66150057D01*
X183034508Y-66060258D01*
X182912891Y-65999576D01*
X182809895Y-65980161D01*
X182629683Y-65962845D01*
X182629683Y-66210495D01*
X182629683Y-66458144D01*
X182421201Y-66458144D01*
X182421201Y-66210495D01*
X182421201Y-65832699D01*
X182737249Y-65832699D01*
X182944465Y-65841032D01*
G37*
G36*
X187611880Y-65853614D02*
G01*
X187646923Y-65903515D01*
X187687636Y-66001120D01*
X187698963Y-66030728D01*
X187807677Y-66317498D01*
X187903887Y-66574497D01*
X187985265Y-66795309D01*
X188049482Y-66973521D01*
X188094211Y-67102718D01*
X188117123Y-67176486D01*
X188119696Y-67189966D01*
X188090200Y-67213471D01*
X188024931Y-67216197D01*
X187959749Y-67195842D01*
X187912726Y-67141275D01*
X187872694Y-67048842D01*
X187815223Y-66892480D01*
X187500755Y-66882521D01*
X187186287Y-66872562D01*
X187139515Y-67038882D01*
X187106592Y-67139577D01*
X187070617Y-67190963D01*
X187014749Y-67211844D01*
X186980775Y-67216091D01*
X186905045Y-67215913D01*
X186870441Y-67200899D01*
X186870208Y-67198717D01*
X186882504Y-67159047D01*
X186916011Y-67064698D01*
X186966982Y-66925849D01*
X187031673Y-66752679D01*
X187064360Y-66666299D01*
X187290499Y-66666299D01*
X187309088Y-66689706D01*
X187366763Y-66699399D01*
X187478220Y-66701369D01*
X187488150Y-66701372D01*
X187601837Y-66697401D01*
X187684214Y-66687083D01*
X187713990Y-66675312D01*
X187710764Y-66633729D01*
X187688025Y-66549759D01*
X187652118Y-66440556D01*
X187609386Y-66323274D01*
X187566175Y-66215065D01*
X187528829Y-66133083D01*
X187503694Y-66094482D01*
X187499073Y-66094271D01*
X187476227Y-66136689D01*
X187438602Y-66224768D01*
X187393904Y-66338414D01*
X187349835Y-66457529D01*
X187314099Y-66562020D01*
X187296300Y-66623192D01*
X187290499Y-66666299D01*
X187064360Y-66666299D01*
X187106337Y-66555369D01*
X187123526Y-66510264D01*
X187375444Y-65850073D01*
X187498781Y-65839620D01*
X187567502Y-65837091D01*
X187611880Y-65853614D01*
G37*
G36*
X181664241Y-69909903D02*
G01*
X181679964Y-69953111D01*
X181688404Y-70039363D01*
X181691401Y-70180310D01*
X181691516Y-70228185D01*
X181691516Y-70558281D01*
X181879728Y-70558281D01*
X181986202Y-70564505D01*
X182059883Y-70580519D01*
X182080212Y-70595095D01*
X182096027Y-70579668D01*
X182129786Y-70510092D01*
X182176414Y-70397784D01*
X182197112Y-70343324D01*
X182323425Y-70343324D01*
X182353403Y-70375635D01*
X182426809Y-70384475D01*
X182438575Y-70384546D01*
X182519016Y-70381732D01*
X182559160Y-70374815D01*
X182560189Y-70373362D01*
X182549952Y-70337011D01*
X182523714Y-70255951D01*
X182501865Y-70191009D01*
X182443542Y-70019840D01*
X182381162Y-70158759D01*
X182333728Y-70275160D01*
X182323425Y-70343324D01*
X182197112Y-70343324D01*
X182226880Y-70264999D01*
X182288551Y-70101877D01*
X182335124Y-69994327D01*
X182372628Y-69931715D01*
X182407087Y-69903407D01*
X182434673Y-69898291D01*
X182471377Y-69908245D01*
X182506502Y-69945070D01*
X182546216Y-70019541D01*
X182596686Y-70142429D01*
X182638574Y-70254447D01*
X182700132Y-70423408D01*
X182739726Y-70537813D01*
X182759476Y-70608295D01*
X182761502Y-70645485D01*
X182747923Y-70660017D01*
X182720861Y-70662521D01*
X182719949Y-70662521D01*
X182675816Y-70633056D01*
X182636144Y-70561800D01*
X182634889Y-70558281D01*
X182605858Y-70494138D01*
X182562575Y-70463616D01*
X182481828Y-70454463D01*
X182437364Y-70454040D01*
X182336330Y-70458506D01*
X182280985Y-70480095D01*
X182247691Y-70531093D01*
X182236830Y-70558281D01*
X182197484Y-70662521D01*
X181892379Y-70662521D01*
X181587275Y-70662521D01*
X181587275Y-70280305D01*
X181588764Y-70109220D01*
X181594231Y-69996571D01*
X181605180Y-69931342D01*
X181623111Y-69902519D01*
X181639395Y-69898089D01*
X181664241Y-69909903D01*
G37*
G36*
X184380950Y-65839107D02*
G01*
X184453705Y-65850279D01*
X184507375Y-65873217D01*
X184558746Y-65910886D01*
X184571453Y-65921485D01*
X184642422Y-65993522D01*
X184673552Y-66070889D01*
X184679751Y-66168513D01*
X184668679Y-66286322D01*
X184628602Y-66365912D01*
X184597656Y-66397538D01*
X184515562Y-66470662D01*
X184612475Y-66552210D01*
X184706452Y-66672876D01*
X184738171Y-66820314D01*
X184713413Y-66965263D01*
X184652749Y-67073067D01*
X184548456Y-67149644D01*
X184394015Y-67197633D01*
X184182907Y-67219669D01*
X184079276Y-67221813D01*
X183913966Y-67218441D01*
X183810545Y-67206676D01*
X183761804Y-67185541D01*
X183757054Y-67178025D01*
X183752114Y-67130424D01*
X183748768Y-67025191D01*
X183747146Y-66874171D01*
X183747263Y-66782448D01*
X183747381Y-66689210D01*
X183748715Y-66562385D01*
X183950066Y-66562385D01*
X183950066Y-66782448D01*
X183953474Y-66900401D01*
X183962355Y-66988874D01*
X183973230Y-67025677D01*
X184024703Y-67041834D01*
X184120030Y-67048146D01*
X184234350Y-67045148D01*
X184342805Y-67033376D01*
X184413669Y-67016178D01*
X184487808Y-66955328D01*
X184523794Y-66858442D01*
X184521157Y-66747872D01*
X184479428Y-66645973D01*
X184422634Y-66588977D01*
X184369617Y-66575437D01*
X184270350Y-66565978D01*
X184167234Y-66562917D01*
X183950066Y-66562385D01*
X183748715Y-66562385D01*
X183749458Y-66491773D01*
X183753104Y-66245466D01*
X183953827Y-66245466D01*
X183960103Y-66324839D01*
X183964156Y-66340505D01*
X184008718Y-66370721D01*
X184098769Y-66386489D01*
X184211665Y-66387035D01*
X184324761Y-66371588D01*
X184382140Y-66354763D01*
X184444445Y-66316930D01*
X184468742Y-66251505D01*
X184471269Y-66196629D01*
X184462941Y-66110800D01*
X184424988Y-66059978D01*
X184346239Y-66020141D01*
X184225817Y-65987224D01*
X184102383Y-65977927D01*
X184094324Y-65978480D01*
X184015131Y-65989370D01*
X183976543Y-66018176D01*
X183961106Y-66085452D01*
X183956560Y-66140710D01*
X183953827Y-66245466D01*
X183753104Y-66245466D01*
X183758958Y-65850073D01*
X184111056Y-65840215D01*
X184272329Y-65836740D01*
X184380950Y-65839107D01*
G37*
G36*
X186488443Y-68438819D02*
G01*
X187170957Y-68439116D01*
X187831986Y-68439599D01*
X188468256Y-68440258D01*
X189076491Y-68441083D01*
X189653418Y-68442067D01*
X190195760Y-68443197D01*
X190700244Y-68444466D01*
X191163595Y-68445864D01*
X191582537Y-68447380D01*
X191953796Y-68449006D01*
X192274097Y-68450732D01*
X192540165Y-68452548D01*
X192748725Y-68454444D01*
X192896502Y-68456412D01*
X192980223Y-68458441D01*
X192998797Y-68459809D01*
X193045503Y-68507161D01*
X193047456Y-68573237D01*
X193004657Y-68623596D01*
X192998797Y-68626109D01*
X192959152Y-68628173D01*
X192853289Y-68630183D01*
X192684481Y-68632127D01*
X192456004Y-68633997D01*
X192171133Y-68635784D01*
X191833142Y-68637477D01*
X191445306Y-68639066D01*
X191010900Y-68640543D01*
X190533199Y-68641898D01*
X190015478Y-68643121D01*
X189461011Y-68644203D01*
X188873074Y-68645134D01*
X188254941Y-68645904D01*
X187609887Y-68646504D01*
X186941187Y-68646925D01*
X186252116Y-68647156D01*
X185787720Y-68647200D01*
X184950669Y-68647159D01*
X184180394Y-68647021D01*
X183474176Y-68646769D01*
X182829296Y-68646380D01*
X182243036Y-68645837D01*
X181712678Y-68645119D01*
X181235502Y-68644206D01*
X180808792Y-68643079D01*
X180429828Y-68641718D01*
X180095892Y-68640103D01*
X179804265Y-68638214D01*
X179552229Y-68636032D01*
X179337065Y-68633537D01*
X179156056Y-68630710D01*
X179006482Y-68627529D01*
X178885626Y-68623977D01*
X178790768Y-68620032D01*
X178719191Y-68615676D01*
X178668175Y-68610888D01*
X178635003Y-68605648D01*
X178616956Y-68599938D01*
X178611605Y-68595080D01*
X178605214Y-68516538D01*
X178611605Y-68490839D01*
X178619623Y-68484742D01*
X178640617Y-68479133D01*
X178677306Y-68473990D01*
X178732410Y-68469294D01*
X178808645Y-68465026D01*
X178908731Y-68461165D01*
X179035385Y-68457692D01*
X179191327Y-68454587D01*
X179379275Y-68451831D01*
X179601948Y-68449403D01*
X179862063Y-68447284D01*
X180162339Y-68445455D01*
X180505495Y-68443895D01*
X180894248Y-68442584D01*
X181331319Y-68441504D01*
X181819424Y-68440633D01*
X182361283Y-68439954D01*
X182959613Y-68439444D01*
X183617134Y-68439086D01*
X184336563Y-68438859D01*
X185120619Y-68438744D01*
X185787720Y-68438718D01*
X186488443Y-68438819D01*
G37*
G36*
X185680260Y-57742937D02*
G01*
X185917676Y-57743985D01*
X187899381Y-57754040D01*
X188070346Y-57859474D01*
X188237279Y-57996716D01*
X188336053Y-58137449D01*
X188430795Y-58309991D01*
X188430844Y-59508759D01*
X188430580Y-59833156D01*
X188429519Y-60095695D01*
X188427300Y-60304009D01*
X188423562Y-60465733D01*
X188417945Y-60588501D01*
X188410087Y-60679948D01*
X188399629Y-60747707D01*
X188386209Y-60799413D01*
X188369467Y-60842699D01*
X188367616Y-60846814D01*
X188268784Y-61000322D01*
X188130168Y-61133252D01*
X187974562Y-61225337D01*
X187920851Y-61244016D01*
X187852879Y-61252741D01*
X187717186Y-61260276D01*
X187515536Y-61266593D01*
X187249693Y-61271662D01*
X186921419Y-61275455D01*
X186532478Y-61277941D01*
X186084634Y-61279093D01*
X185791653Y-61279134D01*
X185349766Y-61278546D01*
X184972303Y-61277339D01*
X184654195Y-61275397D01*
X184390375Y-61272601D01*
X184175772Y-61268836D01*
X184005321Y-61263985D01*
X183873950Y-61257929D01*
X183776594Y-61250554D01*
X183708182Y-61241741D01*
X183663648Y-61231373D01*
X183659486Y-61229955D01*
X183480379Y-61131254D01*
X183331315Y-60980064D01*
X183251509Y-60846516D01*
X183234096Y-60803963D01*
X183220105Y-60754340D01*
X183209160Y-60689976D01*
X183200886Y-60603199D01*
X183194907Y-60486340D01*
X183190847Y-60331726D01*
X183188332Y-60131688D01*
X183186985Y-59878553D01*
X183186431Y-59564652D01*
X183186396Y-59516291D01*
X183186386Y-59500657D01*
X183498356Y-59500657D01*
X183498534Y-59816780D01*
X183499350Y-60071053D01*
X183501227Y-60271120D01*
X183504590Y-60424623D01*
X183509860Y-60539206D01*
X183517462Y-60622513D01*
X183527819Y-60682188D01*
X183541354Y-60725872D01*
X183558490Y-60761211D01*
X183569165Y-60779150D01*
X183640973Y-60864786D01*
X183723704Y-60923830D01*
X183734213Y-60928183D01*
X183790005Y-60935785D01*
X183911429Y-60942683D01*
X184094629Y-60948807D01*
X184335745Y-60954087D01*
X184630919Y-60958455D01*
X184976294Y-60961841D01*
X185368011Y-60964175D01*
X185801455Y-60965387D01*
X186237908Y-60965714D01*
X186609984Y-60965315D01*
X186922796Y-60964079D01*
X187181460Y-60961895D01*
X187391087Y-60958652D01*
X187556794Y-60954241D01*
X187683692Y-60948551D01*
X187776898Y-60941471D01*
X187841523Y-60932891D01*
X187882683Y-60922700D01*
X187888970Y-60920285D01*
X187947641Y-60893070D01*
X187995435Y-60860688D01*
X188033463Y-60816206D01*
X188062839Y-60752689D01*
X188084674Y-60663206D01*
X188100081Y-60540822D01*
X188110171Y-60378605D01*
X188116059Y-60169622D01*
X188118854Y-59906939D01*
X188119671Y-59583623D01*
X188119696Y-59482134D01*
X188119572Y-59169701D01*
X188118890Y-58919175D01*
X188117192Y-58722968D01*
X188114017Y-58573492D01*
X188108903Y-58463159D01*
X188101391Y-58384383D01*
X188091020Y-58329577D01*
X188077330Y-58291151D01*
X188059859Y-58261520D01*
X188044368Y-58240972D01*
X188012427Y-58201251D01*
X187980289Y-58167438D01*
X187942403Y-58139058D01*
X187893218Y-58115636D01*
X187827182Y-58096694D01*
X187738743Y-58081758D01*
X187622351Y-58070352D01*
X187472454Y-58062000D01*
X187283501Y-58056226D01*
X187049941Y-58052554D01*
X186766221Y-58050508D01*
X186426791Y-58049614D01*
X186026099Y-58049394D01*
X185809026Y-58049389D01*
X185376763Y-58049453D01*
X185008443Y-58049962D01*
X184698514Y-58051392D01*
X184441425Y-58054219D01*
X184231624Y-58058919D01*
X184063560Y-58065967D01*
X183931682Y-58075839D01*
X183830438Y-58089011D01*
X183754277Y-58105959D01*
X183697647Y-58127158D01*
X183654998Y-58153085D01*
X183620777Y-58184214D01*
X183589434Y-58221023D01*
X183573684Y-58240972D01*
X183553295Y-58268752D01*
X183536962Y-58299725D01*
X183524235Y-58341408D01*
X183514664Y-58401320D01*
X183507801Y-58486976D01*
X183503195Y-58605893D01*
X183500397Y-58765588D01*
X183498958Y-58973579D01*
X183498428Y-59237382D01*
X183498356Y-59500657D01*
X183186386Y-59500657D01*
X183185633Y-58325054D01*
X183270048Y-58158469D01*
X183399869Y-57972710D01*
X183571921Y-57841170D01*
X183766728Y-57770227D01*
X183845238Y-57761551D01*
X183991527Y-57754433D01*
X184203898Y-57748894D01*
X184480655Y-57744954D01*
X184820099Y-57742634D01*
X185220533Y-57741955D01*
X185680260Y-57742937D01*
G37*
G36*
X185878187Y-50346387D02*
G01*
X185924060Y-50386040D01*
X185950963Y-50465342D01*
X185963214Y-50595104D01*
X185965387Y-50727079D01*
X185966672Y-50874046D01*
X185972241Y-50963805D01*
X185984664Y-51008624D01*
X186006513Y-51020768D01*
X186026194Y-51017186D01*
X186270485Y-50948188D01*
X186475600Y-50899928D01*
X186666086Y-50868799D01*
X186866489Y-50851196D01*
X187101355Y-50843515D01*
X187216276Y-50842379D01*
X187432284Y-50842347D01*
X187595222Y-50846086D01*
X187721481Y-50855236D01*
X187827453Y-50871438D01*
X187929529Y-50896331D01*
X188015456Y-50922349D01*
X188331750Y-51055162D01*
X188614820Y-51238352D01*
X188855374Y-51463968D01*
X189044126Y-51724059D01*
X189116123Y-51864437D01*
X189247957Y-52244004D01*
X189318626Y-52652095D01*
X189327653Y-53083373D01*
X189274557Y-53532498D01*
X189268627Y-53563824D01*
X189229459Y-53758677D01*
X189195685Y-53894782D01*
X189160620Y-53981827D01*
X189117581Y-54029499D01*
X189059883Y-54047487D01*
X188980842Y-54045478D01*
X188939424Y-54040973D01*
X188817462Y-54022034D01*
X188659006Y-53991226D01*
X188494705Y-53954593D01*
X188465213Y-53947438D01*
X187933085Y-53789461D01*
X187452699Y-53590896D01*
X187025710Y-53352775D01*
X186653778Y-53076131D01*
X186338559Y-52761997D01*
X186135851Y-52495695D01*
X185965387Y-52240831D01*
X185965387Y-54050582D01*
X185965387Y-55860333D01*
X188309582Y-55860333D01*
X188770110Y-55860373D01*
X189166108Y-55860590D01*
X189502536Y-55861129D01*
X189784357Y-55862135D01*
X190016534Y-55863753D01*
X190204028Y-55866126D01*
X190351803Y-55869401D01*
X190464821Y-55873722D01*
X190548043Y-55879233D01*
X190606433Y-55886080D01*
X190644952Y-55894407D01*
X190668563Y-55904360D01*
X190682229Y-55916082D01*
X190690911Y-55929719D01*
X190690969Y-55929827D01*
X190709152Y-56018680D01*
X190690969Y-56068814D01*
X190654397Y-56111021D01*
X190590120Y-56132132D01*
X190478314Y-56138279D01*
X190466321Y-56138308D01*
X190278866Y-56138308D01*
X190020972Y-56651232D01*
X189763078Y-57164156D01*
X189722126Y-57684953D01*
X189674734Y-58289987D01*
X189630163Y-58863653D01*
X189588990Y-59398432D01*
X189551791Y-59886806D01*
X189519140Y-60321254D01*
X189491615Y-60694258D01*
X189490648Y-60707528D01*
X189460656Y-61111694D01*
X189433962Y-61452526D01*
X189409832Y-61736068D01*
X189387534Y-61968361D01*
X189366333Y-62155450D01*
X189345498Y-62303377D01*
X189324293Y-62418185D01*
X189301987Y-62505917D01*
X189277845Y-62572616D01*
X189259848Y-62609327D01*
X189130333Y-62774493D01*
X188953271Y-62896696D01*
X188818722Y-62948148D01*
X188758901Y-62954871D01*
X188631682Y-62960902D01*
X188439157Y-62966217D01*
X188183420Y-62970792D01*
X187866562Y-62974605D01*
X187490677Y-62977633D01*
X187057857Y-62979851D01*
X186570194Y-62981237D01*
X186029782Y-62981768D01*
X185791653Y-62981733D01*
X185259831Y-62981321D01*
X184793238Y-62980560D01*
X184387613Y-62979378D01*
X184038690Y-62977705D01*
X183742207Y-62975471D01*
X183493900Y-62972606D01*
X183289505Y-62969039D01*
X183124760Y-62964699D01*
X182995400Y-62959517D01*
X182897163Y-62953422D01*
X182825785Y-62946344D01*
X182777002Y-62938212D01*
X182753306Y-62931605D01*
X182572515Y-62845681D01*
X182439124Y-62727301D01*
X182357318Y-62605987D01*
X182334408Y-62556547D01*
X182315993Y-62499133D01*
X182653079Y-62499133D01*
X182703369Y-62550229D01*
X182791832Y-62603100D01*
X182904507Y-62647896D01*
X182933697Y-62656377D01*
X182999527Y-62664683D01*
X183128188Y-62672271D01*
X183313020Y-62679129D01*
X183547364Y-62685246D01*
X183824559Y-62690609D01*
X184137947Y-62695206D01*
X184480867Y-62699027D01*
X184846660Y-62702059D01*
X185228667Y-62704291D01*
X185620228Y-62705710D01*
X186014683Y-62706305D01*
X186405373Y-62706065D01*
X186785638Y-62704978D01*
X187148819Y-62703031D01*
X187488255Y-62700214D01*
X187797288Y-62696514D01*
X188069258Y-62691919D01*
X188297505Y-62686419D01*
X188475369Y-62680000D01*
X188596191Y-62672652D01*
X188645740Y-62666445D01*
X188748399Y-62643045D01*
X188791766Y-62625834D01*
X188784674Y-62607279D01*
X188743004Y-62583492D01*
X188648535Y-62547989D01*
X188495020Y-62506834D01*
X188292459Y-62462245D01*
X188050851Y-62416438D01*
X187804032Y-62375336D01*
X187568861Y-62345553D01*
X187275382Y-62319676D01*
X186934683Y-62297964D01*
X186557853Y-62280672D01*
X186155981Y-62268058D01*
X185740158Y-62260377D01*
X185321470Y-62257887D01*
X184911008Y-62260845D01*
X184519862Y-62269506D01*
X184159118Y-62284129D01*
X184071680Y-62288938D01*
X183832036Y-62305119D01*
X183588902Y-62325433D01*
X183352924Y-62348596D01*
X183134747Y-62373326D01*
X182945017Y-62398340D01*
X182794379Y-62422355D01*
X182693477Y-62444088D01*
X182654922Y-62459664D01*
X182653079Y-62499133D01*
X182315993Y-62499133D01*
X182313159Y-62490296D01*
X182292927Y-62401706D01*
X182273072Y-62285253D01*
X182252950Y-62135408D01*
X182231921Y-61946645D01*
X182209343Y-61713438D01*
X182184574Y-61430259D01*
X182156972Y-61091582D01*
X182125895Y-60691881D01*
X182108618Y-60464300D01*
X182079324Y-60076859D01*
X182049041Y-59677805D01*
X182018650Y-59278685D01*
X181989037Y-58891046D01*
X181961085Y-58526438D01*
X181935677Y-58196407D01*
X181913697Y-57912500D01*
X181896029Y-57686267D01*
X181895926Y-57684953D01*
X181854974Y-57164156D01*
X181597080Y-56651232D01*
X181348171Y-56156178D01*
X181691516Y-56156178D01*
X181706248Y-56192011D01*
X181746727Y-56278285D01*
X181807378Y-56403407D01*
X181882622Y-56555782D01*
X181912959Y-56616574D01*
X181995155Y-56785075D01*
X182066772Y-56939824D01*
X182121315Y-57066202D01*
X182152288Y-57149590D01*
X182155872Y-57163342D01*
X182164563Y-57228070D01*
X182176774Y-57350379D01*
X182191493Y-57518503D01*
X182207708Y-57720677D01*
X182224410Y-57945137D01*
X182230547Y-58032015D01*
X182248307Y-58281989D01*
X182266787Y-58533013D01*
X182284698Y-58768221D01*
X182300753Y-58970745D01*
X182313662Y-59123718D01*
X182315481Y-59143917D01*
X182332962Y-59347895D01*
X182350975Y-59578450D01*
X182366228Y-59793001D01*
X182369206Y-59838855D01*
X182380420Y-60002211D01*
X182396053Y-60211273D01*
X182414280Y-60442534D01*
X182433281Y-60672486D01*
X182439254Y-60742275D01*
X182458515Y-60974400D01*
X182477775Y-61222694D01*
X182495083Y-61460974D01*
X182508489Y-61663055D01*
X182511098Y-61706502D01*
X182522063Y-61865568D01*
X182534260Y-61995646D01*
X182546190Y-62083191D01*
X182556225Y-62114668D01*
X182598011Y-62109170D01*
X182691134Y-62094596D01*
X182818444Y-62073663D01*
X182872911Y-62064489D01*
X183109031Y-62027881D01*
X183351180Y-61997790D01*
X183608346Y-61973740D01*
X183889512Y-61955256D01*
X184203664Y-61941862D01*
X184559788Y-61933082D01*
X184966867Y-61928441D01*
X185433888Y-61927464D01*
X185461557Y-61927507D01*
X185796348Y-61929215D01*
X186125550Y-61933003D01*
X186438188Y-61938606D01*
X186723288Y-61945754D01*
X186969875Y-61954182D01*
X187166975Y-61963620D01*
X187284306Y-61971956D01*
X187545708Y-61999724D01*
X187817973Y-62036103D01*
X188087270Y-62078604D01*
X188339766Y-62124738D01*
X188561631Y-62172016D01*
X188739032Y-62217947D01*
X188838850Y-62251727D01*
X188938068Y-62290603D01*
X189009467Y-62316008D01*
X189029674Y-62321365D01*
X189048052Y-62291726D01*
X189066076Y-62214910D01*
X189071799Y-62175586D01*
X189079559Y-62097868D01*
X189091072Y-61963208D01*
X189105360Y-61783998D01*
X189121445Y-61572628D01*
X189138349Y-61341489D01*
X189145133Y-61246106D01*
X189181032Y-60740123D01*
X189213223Y-60292681D01*
X189241577Y-59905501D01*
X189265963Y-59580303D01*
X189286252Y-59318811D01*
X189302314Y-59122744D01*
X189314020Y-58993825D01*
X189316479Y-58970182D01*
X189324500Y-58883776D01*
X189336149Y-58741143D01*
X189350426Y-58555394D01*
X189366330Y-58339643D01*
X189382860Y-58107002D01*
X189388057Y-58032015D01*
X189404519Y-57802259D01*
X189420890Y-57590409D01*
X189436167Y-57408232D01*
X189449347Y-57267493D01*
X189459424Y-57179959D01*
X189462180Y-57163342D01*
X189485319Y-57094746D01*
X189533862Y-56979029D01*
X189601314Y-56830812D01*
X189681180Y-56664714D01*
X189705093Y-56616574D01*
X189784314Y-56457072D01*
X189850998Y-56320545D01*
X189899569Y-56218588D01*
X189924451Y-56162793D01*
X189926536Y-56156178D01*
X189892502Y-56153883D01*
X189793246Y-56151674D01*
X189633044Y-56149569D01*
X189416169Y-56147587D01*
X189146893Y-56145746D01*
X188829491Y-56144065D01*
X188468235Y-56142562D01*
X188067399Y-56141256D01*
X187631257Y-56140165D01*
X187164082Y-56139308D01*
X186670147Y-56138704D01*
X186153727Y-56138371D01*
X185809026Y-56138308D01*
X185280314Y-56138456D01*
X184771318Y-56138887D01*
X184286312Y-56139582D01*
X183829569Y-56140523D01*
X183405363Y-56141692D01*
X183017967Y-56143069D01*
X182671655Y-56144637D01*
X182370700Y-56146377D01*
X182119375Y-56148269D01*
X181921954Y-56150297D01*
X181782711Y-56152440D01*
X181705918Y-56154682D01*
X181691516Y-56156178D01*
X181348171Y-56156178D01*
X181339186Y-56138308D01*
X181151730Y-56138308D01*
X181035105Y-56133124D01*
X180967649Y-56113484D01*
X180929538Y-56073254D01*
X180927083Y-56068814D01*
X180908900Y-55979961D01*
X180927083Y-55929827D01*
X180935748Y-55916175D01*
X180949359Y-55904439D01*
X180972879Y-55894474D01*
X181011271Y-55886135D01*
X181069497Y-55879278D01*
X181152520Y-55873757D01*
X181265301Y-55869429D01*
X181412804Y-55866147D01*
X181599990Y-55863767D01*
X181831821Y-55862145D01*
X182113261Y-55861135D01*
X182449271Y-55860593D01*
X182844814Y-55860374D01*
X183304852Y-55860333D01*
X183308470Y-55860333D01*
X185652665Y-55860333D01*
X185652665Y-54432798D01*
X185652665Y-53005263D01*
X185479334Y-53264415D01*
X185214065Y-53599263D01*
X184890062Y-53899998D01*
X184510066Y-54164909D01*
X184076819Y-54392288D01*
X183593064Y-54580425D01*
X183175791Y-54700480D01*
X183007422Y-54740139D01*
X182845293Y-54774824D01*
X182713041Y-54799634D01*
X182659328Y-54807569D01*
X182576531Y-54813671D01*
X182515425Y-54802752D01*
X182469736Y-54765108D01*
X182433189Y-54691032D01*
X182399508Y-54570819D01*
X182362417Y-54394762D01*
X182349425Y-54328257D01*
X182293610Y-53904970D01*
X182292458Y-53628161D01*
X182602054Y-53628161D01*
X182605710Y-53800312D01*
X182615531Y-53980089D01*
X182630189Y-54150962D01*
X182648356Y-54296397D01*
X182668704Y-54399864D01*
X182682789Y-54437304D01*
X182719278Y-54462486D01*
X182790953Y-54466681D01*
X182906689Y-54448943D01*
X183075357Y-54408322D01*
X183154476Y-54386882D01*
X183624868Y-54238813D01*
X184034963Y-54070113D01*
X184391989Y-53876571D01*
X184703175Y-53653978D01*
X184975749Y-53398123D01*
X185103867Y-53251466D01*
X185186852Y-53138084D01*
X185277063Y-52995803D01*
X185364993Y-52842039D01*
X185441136Y-52694208D01*
X185495985Y-52569725D01*
X185519590Y-52489881D01*
X185519251Y-52432140D01*
X185485636Y-52404548D01*
X185400729Y-52392228D01*
X185227925Y-52396010D01*
X185016641Y-52427992D01*
X184789274Y-52482859D01*
X184568218Y-52555296D01*
X184392183Y-52631616D01*
X184231324Y-52708758D01*
X184117487Y-52751942D01*
X184038607Y-52763791D01*
X183982620Y-52746925D01*
X183957015Y-52726160D01*
X183913669Y-52644608D01*
X183932773Y-52555727D01*
X184008180Y-52463324D01*
X184133744Y-52371201D01*
X184303320Y-52283164D01*
X184510759Y-52203018D01*
X184749917Y-52134568D01*
X184992384Y-52085242D01*
X185136318Y-52060297D01*
X185249292Y-52038726D01*
X185317422Y-52023303D01*
X185330944Y-52017590D01*
X185288975Y-52003913D01*
X185193015Y-51984288D01*
X185058084Y-51960931D01*
X184899204Y-51936056D01*
X184731395Y-51911877D01*
X184569680Y-51890608D01*
X184429079Y-51874463D01*
X184324613Y-51865658D01*
X184293675Y-51864680D01*
X184128697Y-51877026D01*
X183934038Y-51909810D01*
X183734028Y-51957208D01*
X183553002Y-52013394D01*
X183415293Y-52072543D01*
X183407636Y-52076796D01*
X183151646Y-52261157D01*
X182940497Y-52495503D01*
X182777441Y-52774145D01*
X182665725Y-53091394D01*
X182608601Y-53441561D01*
X182605893Y-53480169D01*
X182602054Y-53628161D01*
X182292458Y-53628161D01*
X182291923Y-53499520D01*
X182342921Y-53118449D01*
X182445161Y-52768296D01*
X182597200Y-52455603D01*
X182797594Y-52186912D01*
X182829252Y-52153358D01*
X183008692Y-51987921D01*
X183196530Y-51858765D01*
X183415615Y-51751877D01*
X183592199Y-51685418D01*
X183688310Y-51654460D01*
X183778261Y-51632535D01*
X183876824Y-51618200D01*
X183998771Y-51610015D01*
X184158873Y-51606540D01*
X184371901Y-51606334D01*
X184401776Y-51606461D01*
X184657992Y-51610188D01*
X184865773Y-51620780D01*
X185046073Y-51641298D01*
X185219846Y-51674805D01*
X185408045Y-51724364D01*
X185591858Y-51780400D01*
X185612605Y-51782631D01*
X185628027Y-51768598D01*
X185638907Y-51729663D01*
X185646027Y-51657192D01*
X185646401Y-51646847D01*
X186061354Y-51646847D01*
X186078117Y-51700465D01*
X186087723Y-51727495D01*
X186254817Y-52098485D01*
X186482852Y-52443657D01*
X186766043Y-52756595D01*
X187098600Y-53030884D01*
X187466582Y-53255882D01*
X187634719Y-53340521D01*
X187784587Y-53408021D01*
X187938441Y-53467022D01*
X188118535Y-53526160D01*
X188310804Y-53583550D01*
X188481294Y-53632820D01*
X188599600Y-53665594D01*
X188680216Y-53684960D01*
X188737637Y-53694005D01*
X188786357Y-53695816D01*
X188829718Y-53694084D01*
X188908648Y-53675135D01*
X188950492Y-53615183D01*
X188960082Y-53584409D01*
X188973375Y-53507879D01*
X188987510Y-53380804D01*
X189000638Y-53222079D01*
X189009405Y-53080579D01*
X189007472Y-52689641D01*
X188957089Y-52344753D01*
X188856650Y-52040628D01*
X188704545Y-51771978D01*
X188556238Y-51591274D01*
X188355212Y-51414415D01*
X188122983Y-51281384D01*
X187846094Y-51185245D01*
X187705316Y-51152572D01*
X187554861Y-51125099D01*
X187426890Y-51111607D01*
X187294903Y-51111278D01*
X187132399Y-51123293D01*
X187045124Y-51132203D01*
X186867524Y-51153570D01*
X186692598Y-51178677D01*
X186546333Y-51203621D01*
X186486591Y-51216073D01*
X186295483Y-51260679D01*
X186621766Y-51321965D01*
X186987540Y-51403593D01*
X187293746Y-51501323D01*
X187549217Y-51618979D01*
X187762785Y-51760385D01*
X187885683Y-51869181D01*
X187978631Y-51970709D01*
X188022547Y-52049829D01*
X188024996Y-52124459D01*
X188012009Y-52168472D01*
X187957450Y-52236639D01*
X187869701Y-52248612D01*
X187754892Y-52205499D01*
X187619152Y-52108406D01*
X187603477Y-52094718D01*
X187447263Y-51971548D01*
X187278507Y-51873015D01*
X187082188Y-51792739D01*
X186843286Y-51724339D01*
X186614085Y-51674409D01*
X186401289Y-51632563D01*
X186248202Y-51604464D01*
X186146245Y-51590978D01*
X186086838Y-51592969D01*
X186061401Y-51611304D01*
X186061354Y-51646847D01*
X185646401Y-51646847D01*
X185650171Y-51542546D01*
X185652120Y-51377090D01*
X185652658Y-51152186D01*
X185652665Y-51109295D01*
X185653461Y-50857994D01*
X185656985Y-50667743D01*
X185664943Y-50530106D01*
X185679040Y-50436645D01*
X185700980Y-50378924D01*
X185732468Y-50348507D01*
X185775209Y-50336958D01*
X185809026Y-50335572D01*
X185878187Y-50346387D01*
G37*
%TD*%
M02*
