%TF.GenerationSoftware,KiCad,Pcbnew,10.0.1*%
%TF.CreationDate,2026-05-25T23:06:50-07:00*%
%TF.ProjectId,HerbUnitPCB,48657262-556e-4697-9450-43422e6b6963,rev?*%
%TF.SameCoordinates,Original*%
%TF.FileFunction,Soldermask,Top*%
%TF.FilePolarity,Negative*%
%FSLAX46Y46*%
G04 Gerber Fmt 4.6, Leading zero omitted, Abs format (unit mm)*
G04 Created by KiCad (PCBNEW 10.0.1) date 2026-05-25 23:06:50*
%MOMM*%
%LPD*%
G01*
G04 APERTURE LIST*
G04 Aperture macros list*
%AMRoundRect*
0 Rectangle with rounded corners*
0 $1 Rounding radius*
0 $2 $3 $4 $5 $6 $7 $8 $9 X,Y pos of 4 corners*
0 Add a 4 corners polygon primitive as box body*
4,1,4,$2,$3,$4,$5,$6,$7,$8,$9,$2,$3,0*
0 Add four circle primitives for the rounded corners*
1,1,$1+$1,$2,$3*
1,1,$1+$1,$4,$5*
1,1,$1+$1,$6,$7*
1,1,$1+$1,$8,$9*
0 Add four rect primitives between the rounded corners*
20,1,$1+$1,$2,$3,$4,$5,0*
20,1,$1+$1,$4,$5,$6,$7,0*
20,1,$1+$1,$6,$7,$8,$9,0*
20,1,$1+$1,$8,$9,$2,$3,0*%
G04 Aperture macros list end*
%ADD10RoundRect,0.135000X-0.185000X0.135000X-0.185000X-0.135000X0.185000X-0.135000X0.185000X0.135000X0*%
%ADD11RoundRect,0.250000X0.250000X0.475000X-0.250000X0.475000X-0.250000X-0.475000X0.250000X-0.475000X0*%
%ADD12RoundRect,0.250001X0.462499X1.074999X-0.462499X1.074999X-0.462499X-1.074999X0.462499X-1.074999X0*%
%ADD13RoundRect,0.125000X0.125000X0.225000X-0.125000X0.225000X-0.125000X-0.225000X0.125000X-0.225000X0*%
%ADD14RoundRect,0.250000X-0.250000X-0.475000X0.250000X-0.475000X0.250000X0.475000X-0.250000X0.475000X0*%
%ADD15RoundRect,0.135000X-0.135000X-0.185000X0.135000X-0.185000X0.135000X0.185000X-0.135000X0.185000X0*%
%ADD16R,1.700000X1.700000*%
%ADD17C,1.700000*%
%ADD18R,1.500000X1.500000*%
%ADD19C,1.500000*%
%ADD20R,1.700000X0.900000*%
%ADD21C,0.650000*%
%ADD22RoundRect,0.150000X-0.150000X-0.470000X0.150000X-0.470000X0.150000X0.470000X-0.150000X0.470000X0*%
%ADD23RoundRect,0.075000X-0.075000X-0.545000X0.075000X-0.545000X0.075000X0.545000X-0.075000X0.545000X0*%
%ADD24O,1.000000X2.100000*%
%ADD25O,1.000000X1.800000*%
%ADD26RoundRect,0.135000X0.185000X-0.135000X0.185000X0.135000X-0.185000X0.135000X-0.185000X-0.135000X0*%
%ADD27R,3.500000X3.500000*%
%ADD28RoundRect,0.750000X1.000000X-0.750000X1.000000X0.750000X-1.000000X0.750000X-1.000000X-0.750000X0*%
%ADD29RoundRect,0.875000X0.875000X-0.875000X0.875000X0.875000X-0.875000X0.875000X-0.875000X-0.875000X0*%
%ADD30RoundRect,0.250000X0.475000X-0.250000X0.475000X0.250000X-0.475000X0.250000X-0.475000X-0.250000X0*%
%ADD31RoundRect,0.147500X0.172500X-0.147500X0.172500X0.147500X-0.172500X0.147500X-0.172500X-0.147500X0*%
%ADD32RoundRect,0.150000X0.512500X0.150000X-0.512500X0.150000X-0.512500X-0.150000X0.512500X-0.150000X0*%
%ADD33RoundRect,0.250000X0.450000X-0.262500X0.450000X0.262500X-0.450000X0.262500X-0.450000X-0.262500X0*%
%ADD34RoundRect,0.140000X0.140000X0.170000X-0.140000X0.170000X-0.140000X-0.170000X0.140000X-0.170000X0*%
%ADD35RoundRect,0.375000X0.375000X-0.625000X0.375000X0.625000X-0.375000X0.625000X-0.375000X-0.625000X0*%
%ADD36RoundRect,0.500000X1.400000X-0.500000X1.400000X0.500000X-1.400000X0.500000X-1.400000X-0.500000X0*%
%ADD37R,1.500000X0.900000*%
%ADD38R,0.900000X1.500000*%
%ADD39C,0.600000*%
%ADD40R,3.900000X3.900000*%
%ADD41RoundRect,0.250000X-1.050000X1.050000X-1.050000X-1.050000X1.050000X-1.050000X1.050000X1.050000X0*%
%ADD42C,2.600000*%
%ADD43RoundRect,0.093750X0.093750X-0.156250X0.093750X0.156250X-0.093750X0.156250X-0.093750X-0.156250X0*%
%ADD44RoundRect,0.075000X0.075000X-0.250000X0.075000X0.250000X-0.075000X0.250000X-0.075000X-0.250000X0*%
%ADD45RoundRect,0.250000X-0.750000X-0.500000X0.750000X-0.500000X0.750000X0.500000X-0.750000X0.500000X0*%
%ADD46C,1.300000*%
G04 APERTURE END LIST*
D10*
%TO.C,R15*%
X141000000Y-70490000D03*
X141000000Y-71510000D03*
%TD*%
D11*
%TO.C,C3*%
X162148000Y-81345000D03*
X160248000Y-81345000D03*
%TD*%
D12*
%TO.C,D2*%
X191516000Y-86360000D03*
X188541000Y-86360000D03*
%TD*%
D13*
%TO.C,D1*%
X161666000Y-84370000D03*
X160866000Y-84370000D03*
%TD*%
D14*
%TO.C,C7*%
X156479200Y-77368400D03*
X158379200Y-77368400D03*
%TD*%
D15*
%TO.C,R10*%
X185162000Y-86360000D03*
X186182000Y-86360000D03*
%TD*%
%TO.C,R8*%
X161546000Y-55626000D03*
X162566000Y-55626000D03*
%TD*%
D16*
%TO.C,J6*%
X150426500Y-65532000D03*
D17*
X150426500Y-62992000D03*
X150426500Y-60452000D03*
%TD*%
D10*
%TO.C,R11*%
X191770000Y-44704000D03*
X191770000Y-45724000D03*
%TD*%
D18*
%TO.C,U5*%
X186286000Y-46580000D03*
D19*
X186286000Y-44040000D03*
X186286000Y-41500000D03*
X186286000Y-38960000D03*
%TD*%
D20*
%TO.C,SW1*%
X178054000Y-76278000D03*
X178054000Y-79678000D03*
%TD*%
D12*
%TO.C,D4*%
X191516000Y-93980000D03*
X188541000Y-93980000D03*
%TD*%
D21*
%TO.C,J1*%
X164242000Y-88242000D03*
X170022000Y-88242000D03*
D22*
X163932000Y-87122000D03*
X164732000Y-87122000D03*
D23*
X165882000Y-87122000D03*
X166882000Y-87122000D03*
X167382000Y-87122000D03*
X168382000Y-87122000D03*
D22*
X169532000Y-87122000D03*
X170332000Y-87122000D03*
X170332000Y-87122000D03*
X169532000Y-87122000D03*
D23*
X168882000Y-87122000D03*
X167882000Y-87122000D03*
X166382000Y-87122000D03*
X165382000Y-87122000D03*
D22*
X164732000Y-87122000D03*
X163932000Y-87122000D03*
D24*
X162812000Y-87722000D03*
D25*
X162812000Y-91922000D03*
D24*
X171452000Y-87722000D03*
D25*
X171452000Y-91922000D03*
%TD*%
D12*
%TO.C,D3*%
X191516000Y-90170000D03*
X188541000Y-90170000D03*
%TD*%
D26*
%TO.C,R3*%
X164688000Y-83633000D03*
X164688000Y-82613000D03*
%TD*%
D27*
%TO.C,J2*%
X146616500Y-81122000D03*
D28*
X146616500Y-87122000D03*
D29*
X151316500Y-84122000D03*
%TD*%
D15*
%TO.C,R16*%
X157450200Y-86664800D03*
X158470200Y-86664800D03*
%TD*%
D30*
%TO.C,C6*%
X160479200Y-75649400D03*
X160479200Y-73749400D03*
%TD*%
D16*
%TO.C,J3*%
X150172500Y-54967500D03*
D17*
X150172500Y-52427500D03*
X150172500Y-49887500D03*
%TD*%
D10*
%TO.C,R5*%
X180340000Y-78482000D03*
X180340000Y-79502000D03*
%TD*%
D20*
%TO.C,SW2*%
X186436000Y-76278000D03*
X186436000Y-79678000D03*
%TD*%
D31*
%TO.C,D6*%
X160020000Y-90029500D03*
X160020000Y-89059500D03*
%TD*%
D10*
%TO.C,R7*%
X188724000Y-78266000D03*
X188724000Y-79286000D03*
%TD*%
D15*
%TO.C,R12*%
X183536400Y-90170000D03*
X184556400Y-90170000D03*
%TD*%
D14*
%TO.C,C5*%
X150304500Y-78994000D03*
X152204500Y-78994000D03*
%TD*%
D31*
%TO.C,D5*%
X141000000Y-75985000D03*
X141000000Y-75015000D03*
%TD*%
D15*
%TO.C,R13*%
X181898500Y-93980000D03*
X182918500Y-93980000D03*
%TD*%
D10*
%TO.C,R4*%
X180340000Y-76450000D03*
X180340000Y-77470000D03*
%TD*%
D11*
%TO.C,C4*%
X162082000Y-79059000D03*
X160182000Y-79059000D03*
%TD*%
D32*
%TO.C,U6*%
X158434200Y-75458400D03*
X158434200Y-74508400D03*
X158434200Y-73558400D03*
X156159200Y-73558400D03*
X156159200Y-75458400D03*
%TD*%
D33*
%TO.C,R1*%
X164180000Y-80987500D03*
X164180000Y-79162500D03*
%TD*%
D10*
%TO.C,R6*%
X188724000Y-76256000D03*
X188724000Y-77276000D03*
%TD*%
D34*
%TO.C,C8*%
X179296000Y-81026000D03*
X178336000Y-81026000D03*
%TD*%
D35*
%TO.C,U3*%
X143502500Y-76658000D03*
X145802500Y-76658000D03*
D36*
X145802500Y-70358000D03*
D35*
X148102500Y-76658000D03*
%TD*%
D37*
%TO.C,U2*%
X158488000Y-36092000D03*
X158488000Y-37362000D03*
X158488000Y-38632000D03*
X158488000Y-39902000D03*
X158488000Y-41172000D03*
X158488000Y-42442000D03*
X158488000Y-43712000D03*
X158488000Y-44982000D03*
X158488000Y-46252000D03*
X158488000Y-47522000D03*
X158488000Y-48792000D03*
X158488000Y-50062000D03*
X158488000Y-51332000D03*
X158488000Y-52602000D03*
D38*
X160253000Y-53852000D03*
X161523000Y-53852000D03*
X162793000Y-53852000D03*
X164063000Y-53852000D03*
X165333000Y-53852000D03*
X166603000Y-53852000D03*
X167873000Y-53852000D03*
X169143000Y-53852000D03*
X170413000Y-53852000D03*
X171683000Y-53852000D03*
X172953000Y-53852000D03*
X174223000Y-53852000D03*
D37*
X175988000Y-52602000D03*
X175988000Y-51332000D03*
X175988000Y-50062000D03*
X175988000Y-48792000D03*
X175988000Y-47522000D03*
X175988000Y-46252000D03*
X175988000Y-44982000D03*
X175988000Y-43712000D03*
X175988000Y-42442000D03*
X175988000Y-41172000D03*
X175988000Y-39902000D03*
X175988000Y-38632000D03*
X175988000Y-37362000D03*
X175988000Y-36092000D03*
D39*
X164338000Y-43112000D03*
X164338000Y-44512000D03*
X165038000Y-42412000D03*
X165038000Y-43812000D03*
X165038000Y-45212000D03*
X165738000Y-43112000D03*
D40*
X165738000Y-43812000D03*
D39*
X165738000Y-44512000D03*
X166438000Y-42412000D03*
X166438000Y-43812000D03*
X166438000Y-45212000D03*
X167138000Y-43112000D03*
X167138000Y-44512000D03*
%TD*%
D41*
%TO.C,J5*%
X145585000Y-38603000D03*
D42*
X145585000Y-43683000D03*
%TD*%
D43*
%TO.C,U1*%
X166182500Y-80925000D03*
D44*
X166720000Y-81000000D03*
D43*
X167257500Y-80925000D03*
X167257500Y-79225000D03*
D44*
X166720000Y-79150000D03*
D43*
X166182500Y-79225000D03*
%TD*%
D45*
%TO.C,SW3*%
X160274000Y-63500000D03*
X174574000Y-63500000D03*
X160274000Y-68500000D03*
X174574000Y-68500000D03*
%TD*%
D10*
%TO.C,R2*%
X168498000Y-82613000D03*
X168498000Y-83633000D03*
%TD*%
D34*
%TO.C,C9*%
X187650000Y-81026000D03*
X186690000Y-81026000D03*
%TD*%
D46*
%TO.C,J4*%
X168800000Y-57100000D03*
X168800000Y-79500000D03*
%TD*%
M02*
