%TF.GenerationSoftware,KiCad,Pcbnew,10.0.1*%
%TF.CreationDate,2026-05-25T23:06:49-07:00*%
%TF.ProjectId,HerbUnitPCB,48657262-556e-4697-9450-43422e6b6963,rev?*%
%TF.SameCoordinates,Original*%
%TF.FileFunction,Copper,L2,Bot*%
%TF.FilePolarity,Positive*%
%FSLAX46Y46*%
G04 Gerber Fmt 4.6, Leading zero omitted, Abs format (unit mm)*
G04 Created by KiCad (PCBNEW 10.0.1) date 2026-05-25 23:06:49*
%MOMM*%
%LPD*%
G01*
G04 APERTURE LIST*
G04 Aperture macros list*
%AMRoundRect*
0 Rectangle with rounded corners*
0 $1 Rounding radius*
0 $2 $3 $4 $5 $6 $7 $8 $9 X,Y pos of 4 corners*
0 Add a 4 corners polygon primitive as box body*
4,1,4,$2,$3,$4,$5,$6,$7,$8,$9,$2,$3,0*
0 Add four circle primitives for the rounded corners*
1,1,$1+$1,$2,$3*
1,1,$1+$1,$4,$5*
1,1,$1+$1,$6,$7*
1,1,$1+$1,$8,$9*
0 Add four rect primitives between the rounded corners*
20,1,$1+$1,$2,$3,$4,$5,0*
20,1,$1+$1,$4,$5,$6,$7,0*
20,1,$1+$1,$6,$7,$8,$9,0*
20,1,$1+$1,$8,$9,$2,$3,0*%
G04 Aperture macros list end*
%TA.AperFunction,ComponentPad*%
%ADD10R,1.700000X1.700000*%
%TD*%
%TA.AperFunction,ComponentPad*%
%ADD11C,1.700000*%
%TD*%
%TA.AperFunction,ComponentPad*%
%ADD12R,1.500000X1.500000*%
%TD*%
%TA.AperFunction,ComponentPad*%
%ADD13C,1.500000*%
%TD*%
%TA.AperFunction,ComponentPad*%
%ADD14O,1.000000X2.100000*%
%TD*%
%TA.AperFunction,ComponentPad*%
%ADD15O,1.000000X1.800000*%
%TD*%
%TA.AperFunction,ComponentPad*%
%ADD16R,3.500000X3.500000*%
%TD*%
%TA.AperFunction,ComponentPad*%
%ADD17RoundRect,0.750000X1.000000X-0.750000X1.000000X0.750000X-1.000000X0.750000X-1.000000X-0.750000X0*%
%TD*%
%TA.AperFunction,ComponentPad*%
%ADD18RoundRect,0.875000X0.875000X-0.875000X0.875000X0.875000X-0.875000X0.875000X-0.875000X-0.875000X0*%
%TD*%
%TA.AperFunction,HeatsinkPad*%
%ADD19C,0.600000*%
%TD*%
%TA.AperFunction,ComponentPad*%
%ADD20RoundRect,0.250000X-1.050000X1.050000X-1.050000X-1.050000X1.050000X-1.050000X1.050000X1.050000X0*%
%TD*%
%TA.AperFunction,ComponentPad*%
%ADD21C,2.600000*%
%TD*%
%TA.AperFunction,SMDPad,CuDef*%
%ADD22RoundRect,0.250000X-0.450000X0.262500X-0.450000X-0.262500X0.450000X-0.262500X0.450000X0.262500X0*%
%TD*%
%TA.AperFunction,SMDPad,CuDef*%
%ADD23R,2.000000X1.100000*%
%TD*%
%TA.AperFunction,SMDPad,CuDef*%
%ADD24R,1.000000X2.000000*%
%TD*%
%TA.AperFunction,SMDPad,CuDef*%
%ADD25R,2.000000X2.000000*%
%TD*%
%TA.AperFunction,SMDPad,CuDef*%
%ADD26RoundRect,0.250000X0.475000X-0.250000X0.475000X0.250000X-0.475000X0.250000X-0.475000X-0.250000X0*%
%TD*%
%TA.AperFunction,SMDPad,CuDef*%
%ADD27RoundRect,0.140000X0.170000X-0.140000X0.170000X0.140000X-0.170000X0.140000X-0.170000X-0.140000X0*%
%TD*%
%TA.AperFunction,ViaPad*%
%ADD28C,0.600000*%
%TD*%
%TA.AperFunction,Conductor*%
%ADD29C,0.500000*%
%TD*%
%TA.AperFunction,Conductor*%
%ADD30C,0.150000*%
%TD*%
%TA.AperFunction,Conductor*%
%ADD31C,0.400000*%
%TD*%
%TA.AperFunction,Conductor*%
%ADD32C,0.250000*%
%TD*%
G04 APERTURE END LIST*
D10*
%TO.P,J6,1,Pin_1_1*%
%TO.N,GND*%
X150426500Y-65532000D03*
D11*
%TO.P,J6,2,Pin_2_2*%
%TO.N,+5V_JACK*%
X150426500Y-62992000D03*
%TO.P,J6,3,Pin_3_3*%
%TO.N,PumpMotor*%
X150426500Y-60452000D03*
%TD*%
D12*
%TO.P,U5,1,VDD_1*%
%TO.N,+3.3V_USB*%
X186286000Y-46580000D03*
D13*
%TO.P,U5,2,DATA_2*%
%TO.N,TempSensor*%
X186286000Y-44040000D03*
%TO.P,U5,3,NC_3*%
%TO.N,unconnected-(U5-NC-Pad3)*%
X186286000Y-41500000D03*
%TO.P,U5,4,GND_4*%
%TO.N,GND*%
X186286000Y-38960000D03*
%TD*%
D14*
%TO.P,J1,SH,SHIELD_SH*%
%TO.N,GND*%
X162812000Y-87722000D03*
D15*
X162812000Y-91922000D03*
D14*
X171452000Y-87722000D03*
D15*
X171452000Y-91922000D03*
%TD*%
D16*
%TO.P,J2,1*%
%TO.N,JACK_BUS*%
X146616500Y-81122000D03*
D17*
%TO.P,J2,2*%
%TO.N,unconnected-(J2-Pad2)*%
X146616500Y-87122000D03*
D18*
%TO.P,J2,3*%
%TO.N,GND*%
X151316500Y-84122000D03*
%TD*%
D10*
%TO.P,J3,1,Pin_1_1*%
%TO.N,GND*%
X150172500Y-54967500D03*
D11*
%TO.P,J3,2,Pin_2_2*%
%TO.N,+3.3V_USB*%
X150172500Y-52427500D03*
%TO.P,J3,3,Pin_3_3*%
%TO.N,MoistureRead*%
X150172500Y-49887500D03*
%TD*%
D19*
%TO.P,U2,41,GND_41*%
%TO.N,GND*%
X164338000Y-43112000D03*
X164338000Y-44512000D03*
X165038000Y-42412000D03*
X165038000Y-43812000D03*
X165038000Y-45212000D03*
X165738000Y-43112000D03*
X165738000Y-44512000D03*
X166438000Y-42412000D03*
X166438000Y-43812000D03*
X166438000Y-45212000D03*
X167138000Y-43112000D03*
X167138000Y-44512000D03*
%TD*%
D20*
%TO.P,J5,1,Pin_1_1*%
%TO.N,+3.3V_USB*%
X145585000Y-38603000D03*
D21*
%TO.P,J5,2,Pin_2_2*%
%TO.N,Net-(J5-Pin_2)*%
X145585000Y-43683000D03*
%TD*%
D22*
%TO.P,R9,1*%
%TO.N,MoistureRead*%
X153153500Y-54055000D03*
%TO.P,R9,2*%
%TO.N,GND*%
X153153500Y-55880000D03*
%TD*%
D23*
%TO.P,J4,1,CD/DAT3_1*%
%TO.N,SD_CS*%
X166600000Y-75075000D03*
%TO.P,J4,2,CMD_2*%
%TO.N,SD_MOSI*%
X166600000Y-72575000D03*
%TO.P,J4,3,VSS_3*%
%TO.N,GND*%
X166600000Y-70075000D03*
%TO.P,J4,4,VDD_4*%
%TO.N,+3.3V_USB*%
X166600000Y-67575000D03*
%TO.P,J4,5,CLK_5*%
%TO.N,SD_SCK*%
X166600000Y-65075000D03*
%TO.P,J4,6,VSS_6*%
%TO.N,GND*%
X166600000Y-62575000D03*
%TO.P,J4,7,DAT0_7*%
%TO.N,SD_MISO*%
X166600000Y-60150000D03*
%TO.P,J4,8,DAT1_8*%
%TO.N,unconnected-(J4-DAT1-Pad8)*%
X166600000Y-58450000D03*
%TO.P,J4,9,DAT2_9*%
%TO.N,unconnected-(J4-DAT2-Pad9)*%
X166600000Y-77575000D03*
D24*
%TO.P,J4,CP*%
%TO.N,N/C*%
X178000000Y-55400000D03*
D25*
%TO.P,J4,SH*%
X192000000Y-54500000D03*
X173350000Y-54500000D03*
X192000000Y-83500000D03*
X173350000Y-83500000D03*
D24*
%TO.P,J4,SW*%
X189550000Y-55400000D03*
%TO.P,J4,WP*%
X186950000Y-55400000D03*
%TD*%
D26*
%TO.P,C1,1*%
%TO.N,+3.3V_USB*%
X161439600Y-37780000D03*
%TO.P,C1,2*%
%TO.N,GND*%
X161439600Y-35880000D03*
%TD*%
D27*
%TO.P,C2,1*%
%TO.N,+3.3V_USB*%
X158546800Y-37208400D03*
%TO.P,C2,2*%
%TO.N,GND*%
X158546800Y-36248400D03*
%TD*%
D22*
%TO.P,R14,1*%
%TO.N,WaterRead*%
X153000000Y-44087500D03*
%TO.P,R14,2*%
%TO.N,Net-(J5-Pin_2)*%
X153000000Y-45912500D03*
%TD*%
D28*
%TO.N,VBUS*%
X164642800Y-85852000D03*
X169519600Y-85852000D03*
%TO.N,GND*%
X152196800Y-77470000D03*
X160223200Y-82753200D03*
X159816800Y-35864800D03*
X158597600Y-35153600D03*
X157124400Y-35966400D03*
X168605200Y-62585600D03*
X153517600Y-78994000D03*
X157784800Y-58724800D03*
X173228000Y-91897200D03*
X164947600Y-61874400D03*
X168097200Y-84785200D03*
X160782000Y-87782400D03*
X174574000Y-70358000D03*
X158800800Y-81330800D03*
X164033200Y-56946800D03*
X152298400Y-80721200D03*
X157784800Y-62128400D03*
X159918400Y-84328000D03*
X163372800Y-55626000D03*
X160883600Y-91846400D03*
X160883600Y-85496400D03*
X162864800Y-35864800D03*
X162001200Y-73761600D03*
X157784800Y-55727600D03*
X168583400Y-70075000D03*
X193598800Y-86410800D03*
X160883600Y-83261200D03*
X162255200Y-57962800D03*
X164185600Y-63703200D03*
X160324800Y-71069200D03*
X158851600Y-79044800D03*
X173278800Y-87680800D03*
X160172400Y-77419200D03*
X193852800Y-93929200D03*
X166217600Y-83972400D03*
X193751200Y-90170000D03*
X160477200Y-72542400D03*
%TO.N,+3.3V_USB*%
X188724000Y-75133200D03*
X155905200Y-78892400D03*
X156870400Y-37693600D03*
X155194000Y-78181200D03*
X155194000Y-78892400D03*
X156870400Y-37033200D03*
X180340000Y-75285600D03*
X155194000Y-77470000D03*
%TO.N,En*%
X176428400Y-54457600D03*
X159969200Y-47396400D03*
%TO.N,BootMode1*%
X174650400Y-52120800D03*
X180848000Y-51562000D03*
%TO.N,WaterRead*%
X154127200Y-42976800D03*
%TO.N,SD_CS*%
X156718000Y-48818800D03*
%TO.N,SD_MOSI*%
X157148400Y-50062000D03*
%TO.N,SD_SCK*%
X160375600Y-55372000D03*
%TO.N,SD_MISO*%
X171683000Y-55422800D03*
%TD*%
%TO.N,VBUS*%
D29*
X169519600Y-85852000D02*
X164642800Y-85852000D01*
%TO.N,GND*%
D30*
X166600000Y-70075000D02*
X168583400Y-70075000D01*
X168594600Y-62575000D02*
X168605200Y-62585600D01*
X168583400Y-70075000D02*
X168605200Y-70053200D01*
X166600000Y-62575000D02*
X168594600Y-62575000D01*
%TO.N,+3.3V_USB*%
D31*
X155194000Y-77470000D02*
X155194000Y-59029600D01*
X155194000Y-39370000D02*
X156870400Y-37693600D01*
X159562800Y-76352400D02*
X157022800Y-78892400D01*
X173510200Y-76352400D02*
X159562800Y-76352400D01*
X155194000Y-42062400D02*
X155194000Y-39370000D01*
X155194000Y-59029600D02*
X154432000Y-59029600D01*
X155194000Y-47294800D02*
X155194000Y-42062400D01*
X157022800Y-78892400D02*
X155905200Y-78892400D01*
X173837600Y-76025000D02*
X187832200Y-76025000D01*
X179600600Y-76025000D02*
X173837600Y-76025000D01*
X155194000Y-59029600D02*
X155194000Y-57449000D01*
X173837600Y-73412600D02*
X168000000Y-67575000D01*
X168000000Y-67575000D02*
X166600000Y-67575000D01*
X173837600Y-76025000D02*
X173837600Y-73412600D01*
X155194000Y-42062400D02*
X151734600Y-38603000D01*
X151422500Y-56020100D02*
X151422500Y-53677500D01*
X155194000Y-57449000D02*
X155194000Y-48212000D01*
X151734600Y-38603000D02*
X145585000Y-38603000D01*
X187832200Y-76025000D02*
X188724000Y-75133200D01*
X154432000Y-59029600D02*
X151422500Y-56020100D01*
D32*
X150172500Y-52427500D02*
X150172500Y-52433300D01*
D31*
X173837600Y-76025000D02*
X173510200Y-76352400D01*
X186286000Y-46580000D02*
X155908800Y-46580000D01*
X155194000Y-48212000D02*
X155194000Y-47294800D01*
X151422500Y-53677500D02*
X150172500Y-52427500D01*
X180340000Y-75285600D02*
X179600600Y-76025000D01*
X155908800Y-46580000D02*
X155194000Y-47294800D01*
%TO.N,MoistureRead*%
D30*
X153153500Y-52868500D02*
X153153500Y-54055000D01*
X150172500Y-49887500D02*
X153153500Y-52868500D01*
%TO.N,En*%
X169112827Y-47396400D02*
X159969200Y-47396400D01*
X176174027Y-54457600D02*
X169112827Y-47396400D01*
X176428400Y-54457600D02*
X176174027Y-54457600D01*
%TO.N,BootMode1*%
X180848000Y-51562000D02*
X175209200Y-51562000D01*
X175209200Y-51562000D02*
X174650400Y-52120800D01*
%TO.N,WaterRead*%
X153000000Y-44087500D02*
X153016500Y-44087500D01*
X153016500Y-44087500D02*
X154127200Y-42976800D01*
%TO.N,SD_CS*%
X156718000Y-48818800D02*
X156573400Y-48963400D01*
X165143773Y-75075000D02*
X166600000Y-75075000D01*
X156573400Y-66504627D02*
X165143773Y-75075000D01*
X156573400Y-48963400D02*
X156573400Y-66504627D01*
%TO.N,SD_MOSI*%
X166600000Y-72575000D02*
X164559400Y-72575000D01*
X164559400Y-72575000D02*
X164541200Y-72593200D01*
X157148400Y-65200400D02*
X157148400Y-50062000D01*
X164541200Y-72593200D02*
X157148400Y-65200400D01*
%TO.N,SD_SCK*%
X164134800Y-62609800D02*
X166600000Y-65075000D01*
X160375600Y-55372000D02*
X161340800Y-55372000D01*
X164134800Y-58166000D02*
X164134800Y-62609800D01*
X161340800Y-55372000D02*
X164134800Y-58166000D01*
%TO.N,SD_MISO*%
X171683000Y-56217000D02*
X167750000Y-60150000D01*
X171683000Y-55422800D02*
X171683000Y-56217000D01*
X167750000Y-60150000D02*
X166600000Y-60150000D01*
%TO.N,Net-(J5-Pin_2)*%
X145585000Y-43683000D02*
X148203126Y-46301126D01*
X148203126Y-46301126D02*
X152611374Y-46301126D01*
%TD*%
%TA.AperFunction,Conductor*%
%TO.N,GND*%
G36*
X194167269Y-34849521D02*
G01*
X194192513Y-34856934D01*
X194245259Y-34888230D01*
X194976574Y-35619545D01*
X194997723Y-35647796D01*
X195010331Y-35670885D01*
X195025500Y-35730314D01*
X195025500Y-94818337D01*
X195020476Y-94853274D01*
X195013064Y-94878515D01*
X194981769Y-94931259D01*
X194250455Y-95662573D01*
X194222204Y-95683722D01*
X194199116Y-95696330D01*
X194139686Y-95711500D01*
X139115663Y-95711500D01*
X139080727Y-95706477D01*
X139055485Y-95699065D01*
X139002740Y-95667769D01*
X138271426Y-94936455D01*
X138271421Y-94936450D01*
X138250274Y-94908199D01*
X138237667Y-94885110D01*
X138222500Y-94825685D01*
X138222500Y-86316869D01*
X144666000Y-86316869D01*
X144666000Y-87927134D01*
X144676081Y-88040544D01*
X144676081Y-88040547D01*
X144676082Y-88040548D01*
X144699959Y-88123996D01*
X144729359Y-88226743D01*
X144730713Y-88229183D01*
X144818766Y-88397751D01*
X144866018Y-88455700D01*
X144940928Y-88547571D01*
X144999542Y-88595364D01*
X145090749Y-88669734D01*
X145262094Y-88759237D01*
X145447948Y-88812417D01*
X145561362Y-88822500D01*
X145561370Y-88822500D01*
X147671630Y-88822500D01*
X147671638Y-88822500D01*
X147785052Y-88812417D01*
X147970906Y-88759237D01*
X148142251Y-88669734D01*
X148292071Y-88547571D01*
X148414234Y-88397751D01*
X148503737Y-88226406D01*
X148520955Y-88166234D01*
X163666500Y-88166234D01*
X163666500Y-88317765D01*
X163686109Y-88390950D01*
X163705719Y-88464137D01*
X163743602Y-88529750D01*
X163781485Y-88595365D01*
X163888635Y-88702515D01*
X164019865Y-88778281D01*
X164166234Y-88817500D01*
X164166236Y-88817500D01*
X164317764Y-88817500D01*
X164317766Y-88817500D01*
X164464135Y-88778281D01*
X164595365Y-88702515D01*
X164702515Y-88595365D01*
X164778281Y-88464135D01*
X164817500Y-88317766D01*
X164817500Y-88166234D01*
X169446500Y-88166234D01*
X169446500Y-88317765D01*
X169466109Y-88390950D01*
X169485719Y-88464137D01*
X169523602Y-88529750D01*
X169561485Y-88595365D01*
X169668635Y-88702515D01*
X169799865Y-88778281D01*
X169946234Y-88817500D01*
X169946236Y-88817500D01*
X170097764Y-88817500D01*
X170097766Y-88817500D01*
X170244135Y-88778281D01*
X170375365Y-88702515D01*
X170482515Y-88595365D01*
X170558281Y-88464135D01*
X170597500Y-88317766D01*
X170597500Y-88166234D01*
X170558281Y-88019865D01*
X170558276Y-88019857D01*
X170548129Y-88002281D01*
X170482515Y-87888635D01*
X170375365Y-87781485D01*
X170309750Y-87743602D01*
X170244136Y-87705719D01*
X170170950Y-87686109D01*
X170170949Y-87686108D01*
X170097767Y-87666500D01*
X170097766Y-87666500D01*
X169946234Y-87666500D01*
X169799859Y-87705720D01*
X169799857Y-87705721D01*
X169668645Y-87781478D01*
X169668631Y-87781487D01*
X169668626Y-87781491D01*
X169561491Y-87888626D01*
X169561487Y-87888631D01*
X169561478Y-87888645D01*
X169485721Y-88019857D01*
X169485720Y-88019859D01*
X169457818Y-88123995D01*
X169446500Y-88166234D01*
X164817500Y-88166234D01*
X164778281Y-88019865D01*
X164778276Y-88019857D01*
X164768129Y-88002281D01*
X164702515Y-87888635D01*
X164595365Y-87781485D01*
X164529750Y-87743602D01*
X164464136Y-87705719D01*
X164390950Y-87686109D01*
X164390949Y-87686108D01*
X164317767Y-87666500D01*
X164317766Y-87666500D01*
X164166234Y-87666500D01*
X164019859Y-87705720D01*
X164019857Y-87705721D01*
X163888645Y-87781478D01*
X163888631Y-87781487D01*
X163888626Y-87781491D01*
X163781491Y-87888626D01*
X163781487Y-87888631D01*
X163781478Y-87888645D01*
X163705721Y-88019857D01*
X163705720Y-88019859D01*
X163677818Y-88123995D01*
X163666500Y-88166234D01*
X148520955Y-88166234D01*
X148556917Y-88040552D01*
X148567000Y-87927138D01*
X148567000Y-86316862D01*
X148556917Y-86203448D01*
X148503737Y-86017594D01*
X148414234Y-85846249D01*
X148365195Y-85786108D01*
X164142300Y-85786108D01*
X164142300Y-85917891D01*
X164159354Y-85981539D01*
X164176408Y-86045188D01*
X164209354Y-86102250D01*
X164242300Y-86159314D01*
X164335486Y-86252500D01*
X164335487Y-86252501D01*
X164335489Y-86252502D01*
X164434321Y-86309563D01*
X164434324Y-86309565D01*
X164446953Y-86316857D01*
X164446954Y-86316857D01*
X164446975Y-86316869D01*
X164449614Y-86318392D01*
X164576908Y-86352500D01*
X164576910Y-86352500D01*
X164708690Y-86352500D01*
X164708692Y-86352500D01*
X164798637Y-86328399D01*
X164798967Y-86328312D01*
X164843984Y-86316460D01*
X164844049Y-86316618D01*
X164881160Y-86306673D01*
X164881494Y-86306586D01*
X164881931Y-86306598D01*
X164913063Y-86302500D01*
X169249339Y-86302500D01*
X169281434Y-86306726D01*
X169313360Y-86315281D01*
X169359017Y-86327515D01*
X169363916Y-86328440D01*
X169453708Y-86352500D01*
X169453710Y-86352500D01*
X169585490Y-86352500D01*
X169585492Y-86352500D01*
X169712786Y-86318392D01*
X169826914Y-86252500D01*
X169920100Y-86159314D01*
X169985992Y-86045186D01*
X170020100Y-85917892D01*
X170020100Y-85786108D01*
X169985992Y-85658814D01*
X169985987Y-85658806D01*
X169964459Y-85621518D01*
X169920100Y-85544686D01*
X169826914Y-85451500D01*
X169740312Y-85401500D01*
X169740312Y-85401499D01*
X169740310Y-85401499D01*
X169733212Y-85397401D01*
X169712787Y-85385608D01*
X169649139Y-85368554D01*
X169585492Y-85351500D01*
X169585491Y-85351500D01*
X169453708Y-85351500D01*
X169363943Y-85375552D01*
X169363419Y-85375691D01*
X169318415Y-85387538D01*
X169318350Y-85387381D01*
X169281216Y-85397332D01*
X169280905Y-85397414D01*
X169280464Y-85397401D01*
X169249336Y-85401500D01*
X164913063Y-85401500D01*
X164880967Y-85397274D01*
X164865637Y-85393166D01*
X164803399Y-85376487D01*
X164798434Y-85375546D01*
X164772339Y-85368554D01*
X164708692Y-85351500D01*
X164708691Y-85351500D01*
X164576908Y-85351500D01*
X164449608Y-85385609D01*
X164449606Y-85385610D01*
X164335496Y-85451493D01*
X164335482Y-85451502D01*
X164335477Y-85451506D01*
X164242306Y-85544677D01*
X164242302Y-85544682D01*
X164242293Y-85544696D01*
X164176410Y-85658806D01*
X164176409Y-85658808D01*
X164176408Y-85658812D01*
X164142300Y-85786108D01*
X148365195Y-85786108D01*
X148364946Y-85785802D01*
X148364882Y-85785723D01*
X148292076Y-85696432D01*
X148245933Y-85658808D01*
X148200200Y-85621518D01*
X148142251Y-85574266D01*
X148085617Y-85544683D01*
X148079675Y-85541579D01*
X148079669Y-85541575D01*
X147970904Y-85484761D01*
X147816345Y-85440537D01*
X147816343Y-85440536D01*
X147791853Y-85433528D01*
X147785653Y-85431364D01*
X147779570Y-85431095D01*
X147696162Y-85423680D01*
X147696162Y-85423679D01*
X147671643Y-85421500D01*
X147671638Y-85421500D01*
X145561362Y-85421500D01*
X145561351Y-85421500D01*
X145549099Y-85422589D01*
X145549099Y-85422590D01*
X145539230Y-85423467D01*
X145447953Y-85431581D01*
X145262097Y-85484760D01*
X145090749Y-85574265D01*
X144940928Y-85696428D01*
X144818765Y-85846249D01*
X144729260Y-86017597D01*
X144676081Y-86203453D01*
X144669650Y-86275799D01*
X144666001Y-86316862D01*
X144666000Y-86316869D01*
X138222500Y-86316869D01*
X138222500Y-79352247D01*
X144666000Y-79352247D01*
X144666000Y-82891752D01*
X144677631Y-82950229D01*
X144677632Y-82950230D01*
X144677632Y-82950231D01*
X144677634Y-82950233D01*
X144721947Y-83016552D01*
X144788265Y-83060864D01*
X144788267Y-83060866D01*
X144788270Y-83060868D01*
X144839112Y-83070981D01*
X144841837Y-83071703D01*
X144846749Y-83072500D01*
X148386250Y-83072500D01*
X148390373Y-83072500D01*
X148398232Y-83070116D01*
X148417881Y-83066208D01*
X148432758Y-83063249D01*
X148438854Y-83062648D01*
X148438886Y-83062639D01*
X148449811Y-83059902D01*
X148460015Y-83050654D01*
X148511052Y-83016552D01*
X148555367Y-82950231D01*
X148555367Y-82950229D01*
X148555368Y-82950229D01*
X148557530Y-82939355D01*
X148557666Y-82939090D01*
X148557749Y-82938256D01*
X148566568Y-82893917D01*
X148567000Y-82891931D01*
X148567000Y-82480247D01*
X172149500Y-82480247D01*
X172149500Y-84519752D01*
X172161131Y-84578229D01*
X172161132Y-84578230D01*
X172161132Y-84578231D01*
X172161134Y-84578233D01*
X172205447Y-84644552D01*
X172271765Y-84688864D01*
X172271767Y-84688866D01*
X172271770Y-84688868D01*
X172322612Y-84698981D01*
X172325337Y-84699703D01*
X172330249Y-84700500D01*
X174369750Y-84700500D01*
X174373873Y-84700500D01*
X174381732Y-84698116D01*
X174401381Y-84694208D01*
X174416258Y-84691249D01*
X174422354Y-84690648D01*
X174422386Y-84690639D01*
X174433311Y-84687902D01*
X174443515Y-84678654D01*
X174494552Y-84644552D01*
X174538867Y-84578231D01*
X174538867Y-84578229D01*
X174538868Y-84578229D01*
X174541030Y-84567355D01*
X174541166Y-84567090D01*
X174541249Y-84566256D01*
X174550068Y-84521917D01*
X174550500Y-84519931D01*
X174550500Y-82482726D01*
X174550500Y-82480249D01*
X174550499Y-82480247D01*
X190799500Y-82480247D01*
X190799500Y-84519752D01*
X190811131Y-84578229D01*
X190811132Y-84578230D01*
X190811132Y-84578231D01*
X190811134Y-84578233D01*
X190855447Y-84644552D01*
X190921765Y-84688864D01*
X190921767Y-84688866D01*
X190921770Y-84688868D01*
X190972612Y-84698981D01*
X190975337Y-84699703D01*
X190980249Y-84700500D01*
X193019750Y-84700500D01*
X193023873Y-84700500D01*
X193031732Y-84698116D01*
X193051381Y-84694208D01*
X193066258Y-84691249D01*
X193072354Y-84690648D01*
X193072386Y-84690639D01*
X193083311Y-84687902D01*
X193093515Y-84678654D01*
X193144552Y-84644552D01*
X193188867Y-84578231D01*
X193188867Y-84578229D01*
X193188868Y-84578229D01*
X193191030Y-84567355D01*
X193191166Y-84567090D01*
X193191249Y-84566256D01*
X193200068Y-84521917D01*
X193200500Y-84519931D01*
X193200500Y-82482295D01*
X193200500Y-82480249D01*
X193200499Y-82480247D01*
X193188868Y-82421770D01*
X193188867Y-82421769D01*
X193144552Y-82355447D01*
X193108146Y-82331121D01*
X193088385Y-82317917D01*
X193083641Y-82314024D01*
X193078230Y-82311132D01*
X193078229Y-82311131D01*
X193019752Y-82299500D01*
X193019750Y-82299500D01*
X190980249Y-82299500D01*
X190980247Y-82299500D01*
X190921770Y-82311131D01*
X190921769Y-82311131D01*
X190921768Y-82311132D01*
X190921765Y-82311133D01*
X190921759Y-82311138D01*
X190855447Y-82355447D01*
X190811138Y-82421759D01*
X190811133Y-82421765D01*
X190811132Y-82421768D01*
X190811132Y-82421769D01*
X190811131Y-82421770D01*
X190799500Y-82480247D01*
X174550499Y-82480247D01*
X174549361Y-82474528D01*
X174549360Y-82474517D01*
X174538868Y-82421770D01*
X174535975Y-82416358D01*
X174532081Y-82411613D01*
X174530956Y-82409930D01*
X174494552Y-82355447D01*
X174458146Y-82331121D01*
X174438385Y-82317917D01*
X174433641Y-82314024D01*
X174428230Y-82311132D01*
X174428229Y-82311131D01*
X174369752Y-82299500D01*
X174369750Y-82299500D01*
X172330249Y-82299500D01*
X172330247Y-82299500D01*
X172271770Y-82311131D01*
X172271769Y-82311131D01*
X172271768Y-82311132D01*
X172266355Y-82314024D01*
X172261614Y-82317916D01*
X172205447Y-82355446D01*
X172205446Y-82355447D01*
X172178272Y-82396114D01*
X172178270Y-82396119D01*
X172161132Y-82421769D01*
X172161131Y-82421770D01*
X172149500Y-82480247D01*
X148567000Y-82480247D01*
X148567000Y-79354295D01*
X148567000Y-79352249D01*
X148566999Y-79352247D01*
X148555368Y-79293770D01*
X148555367Y-79293769D01*
X148511052Y-79227447D01*
X148464521Y-79196356D01*
X148454885Y-79189917D01*
X148450141Y-79186024D01*
X148444730Y-79183132D01*
X148444729Y-79183131D01*
X148386252Y-79171500D01*
X148386250Y-79171500D01*
X144846749Y-79171500D01*
X144846747Y-79171500D01*
X144788270Y-79183131D01*
X144788269Y-79183131D01*
X144788268Y-79183132D01*
X144782855Y-79186024D01*
X144778114Y-79189916D01*
X144721947Y-79227446D01*
X144721946Y-79227447D01*
X144694772Y-79268114D01*
X144694770Y-79268119D01*
X144677632Y-79293769D01*
X144677631Y-79293770D01*
X144666000Y-79352247D01*
X138222500Y-79352247D01*
X138222500Y-63095471D01*
X149375999Y-63095471D01*
X149416364Y-63298394D01*
X149416368Y-63298412D01*
X149416370Y-63298420D01*
X149495558Y-63489596D01*
X149610523Y-63661655D01*
X149610527Y-63661661D01*
X149756836Y-63807970D01*
X149756840Y-63807973D01*
X149756842Y-63807975D01*
X149756845Y-63807977D01*
X149756849Y-63807980D01*
X149756848Y-63807980D01*
X149756911Y-63808032D01*
X149756948Y-63808046D01*
X149928902Y-63922941D01*
X150120080Y-64002130D01*
X150311040Y-64040114D01*
X150320059Y-64041908D01*
X150322294Y-64042409D01*
X150323032Y-64042500D01*
X150529966Y-64042500D01*
X150534086Y-64042500D01*
X150541935Y-64040118D01*
X150732920Y-64002130D01*
X150924098Y-63922941D01*
X151096155Y-63807977D01*
X151242477Y-63661655D01*
X151357441Y-63489598D01*
X151436630Y-63298420D01*
X151477000Y-63095465D01*
X151477000Y-62888535D01*
X151436630Y-62685580D01*
X151357441Y-62494402D01*
X151242546Y-62322449D01*
X151242536Y-62322417D01*
X151242480Y-62322348D01*
X151242480Y-62322349D01*
X151242477Y-62322345D01*
X151242475Y-62322342D01*
X151242473Y-62322340D01*
X151242470Y-62322336D01*
X151096162Y-62176028D01*
X151096155Y-62176022D01*
X151010126Y-62118540D01*
X151010125Y-62118540D01*
X150924104Y-62061062D01*
X150924095Y-62061057D01*
X150800510Y-62009867D01*
X150732920Y-61981870D01*
X150732912Y-61981868D01*
X150732904Y-61981866D01*
X150732894Y-61981864D01*
X150529971Y-61941500D01*
X150529969Y-61941500D01*
X150529965Y-61941500D01*
X150323035Y-61941500D01*
X150323030Y-61941500D01*
X150323028Y-61941500D01*
X150120104Y-61981864D01*
X150120079Y-61981870D01*
X149928904Y-62061057D01*
X149756837Y-62176027D01*
X149610527Y-62322337D01*
X149495557Y-62494404D01*
X149416370Y-62685579D01*
X149416364Y-62685604D01*
X149376000Y-62888527D01*
X149376000Y-62888530D01*
X149376000Y-63095469D01*
X149376000Y-63095471D01*
X149375999Y-63095471D01*
X138222500Y-63095471D01*
X138222500Y-60555471D01*
X149375999Y-60555471D01*
X149416364Y-60758394D01*
X149416368Y-60758412D01*
X149416370Y-60758420D01*
X149495558Y-60949596D01*
X149610523Y-61121655D01*
X149610527Y-61121661D01*
X149756836Y-61267970D01*
X149756840Y-61267973D01*
X149756842Y-61267975D01*
X149756845Y-61267977D01*
X149756849Y-61267980D01*
X149756848Y-61267980D01*
X149756911Y-61268032D01*
X149756948Y-61268046D01*
X149928902Y-61382941D01*
X150120080Y-61462130D01*
X150311040Y-61500114D01*
X150320059Y-61501908D01*
X150322294Y-61502409D01*
X150323032Y-61502500D01*
X150529966Y-61502500D01*
X150534086Y-61502500D01*
X150541935Y-61500118D01*
X150732920Y-61462130D01*
X150924098Y-61382941D01*
X151096155Y-61267977D01*
X151242477Y-61121655D01*
X151357441Y-60949598D01*
X151436630Y-60758420D01*
X151477000Y-60555465D01*
X151477000Y-60348535D01*
X151436630Y-60145580D01*
X151357441Y-59954402D01*
X151242546Y-59782449D01*
X151242536Y-59782417D01*
X151242480Y-59782348D01*
X151242480Y-59782349D01*
X151242477Y-59782345D01*
X151242475Y-59782342D01*
X151242473Y-59782340D01*
X151242470Y-59782336D01*
X151096159Y-59636025D01*
X150987170Y-59563202D01*
X150987122Y-59563170D01*
X150944467Y-59534669D01*
X150924097Y-59521058D01*
X150765702Y-59455449D01*
X150732920Y-59441870D01*
X150732912Y-59441868D01*
X150732904Y-59441866D01*
X150732894Y-59441864D01*
X150529971Y-59401500D01*
X150529969Y-59401500D01*
X150529965Y-59401500D01*
X150323035Y-59401500D01*
X150323030Y-59401500D01*
X150323028Y-59401500D01*
X150120104Y-59441864D01*
X150120079Y-59441870D01*
X149928904Y-59521057D01*
X149756837Y-59636027D01*
X149610527Y-59782337D01*
X149495557Y-59954404D01*
X149416370Y-60145579D01*
X149416364Y-60145604D01*
X149376000Y-60348527D01*
X149376000Y-60348530D01*
X149376000Y-60555469D01*
X149376000Y-60555471D01*
X149375999Y-60555471D01*
X138222500Y-60555471D01*
X138222500Y-49990971D01*
X149121999Y-49990971D01*
X149162364Y-50193894D01*
X149162368Y-50193912D01*
X149162370Y-50193920D01*
X149241558Y-50385096D01*
X149348853Y-50545676D01*
X149356527Y-50557161D01*
X149502836Y-50703470D01*
X149502840Y-50703473D01*
X149502842Y-50703475D01*
X149502845Y-50703477D01*
X149502849Y-50703480D01*
X149502848Y-50703480D01*
X149502911Y-50703532D01*
X149502948Y-50703546D01*
X149674902Y-50818441D01*
X149866080Y-50897630D01*
X150057040Y-50935614D01*
X150066059Y-50937408D01*
X150068294Y-50937909D01*
X150069032Y-50938000D01*
X150275966Y-50938000D01*
X150280086Y-50938000D01*
X150287935Y-50935618D01*
X150478920Y-50897630D01*
X150608002Y-50844161D01*
X150642195Y-50835434D01*
X150651639Y-50834418D01*
X150657734Y-50833763D01*
X150726494Y-50846167D01*
X150726497Y-50846169D01*
X150738675Y-50852265D01*
X150770851Y-50875467D01*
X151800247Y-51904863D01*
X152829072Y-52933687D01*
X152850223Y-52961940D01*
X152856384Y-52973223D01*
X152858314Y-52976227D01*
X152878000Y-53043264D01*
X152878000Y-53200170D01*
X152877999Y-53200176D01*
X152878000Y-53200179D01*
X152872975Y-53235114D01*
X152868570Y-53250112D01*
X152830827Y-53308855D01*
X152830792Y-53308885D01*
X152830791Y-53308887D01*
X152830789Y-53308887D01*
X152829458Y-53310042D01*
X152774597Y-53337518D01*
X152767039Y-53339163D01*
X152740668Y-53342000D01*
X152649230Y-53342000D01*
X152630574Y-53343749D01*
X152624569Y-53344312D01*
X152620999Y-53344478D01*
X152618797Y-53344853D01*
X152490618Y-53389706D01*
X152381349Y-53470349D01*
X152300706Y-53579618D01*
X152255853Y-53707797D01*
X152255478Y-53709999D01*
X152255312Y-53713569D01*
X152253000Y-53738230D01*
X152253000Y-54371769D01*
X152255853Y-54402199D01*
X152255853Y-54402201D01*
X152298296Y-54523492D01*
X152300707Y-54530382D01*
X152381350Y-54639650D01*
X152490617Y-54720292D01*
X152490618Y-54720293D01*
X152618799Y-54765146D01*
X152618803Y-54765147D01*
X152637242Y-54766875D01*
X152649230Y-54768000D01*
X152649234Y-54768000D01*
X152649239Y-54768000D01*
X153657770Y-54768000D01*
X153657771Y-54768000D01*
X153659076Y-54767877D01*
X153688199Y-54765146D01*
X153688201Y-54765146D01*
X153752290Y-54742719D01*
X153816382Y-54720293D01*
X153925650Y-54639650D01*
X154006293Y-54530382D01*
X154028719Y-54466290D01*
X154051146Y-54402201D01*
X154051146Y-54402199D01*
X154054000Y-54371769D01*
X154054000Y-53738230D01*
X154051687Y-53713578D01*
X154051520Y-53710002D01*
X154051146Y-53707800D01*
X154051146Y-53707798D01*
X154006293Y-53579619D01*
X154006292Y-53579617D01*
X153964544Y-53523050D01*
X153925650Y-53470350D01*
X153816382Y-53389707D01*
X153816380Y-53389706D01*
X153727032Y-53358441D01*
X153688204Y-53344854D01*
X153688202Y-53344853D01*
X153688200Y-53344853D01*
X153657770Y-53342000D01*
X153657766Y-53342000D01*
X153657764Y-53342000D01*
X153570830Y-53342000D01*
X153570825Y-53341999D01*
X153570823Y-53342000D01*
X153535889Y-53336975D01*
X153520890Y-53332570D01*
X153462144Y-53294827D01*
X153462115Y-53294793D01*
X153462114Y-53294793D01*
X153462113Y-53294791D01*
X153460957Y-53293458D01*
X153433477Y-53238583D01*
X153431832Y-53231021D01*
X153429000Y-53204668D01*
X153429000Y-52813701D01*
X153428998Y-52813696D01*
X153387060Y-52712444D01*
X151161827Y-50487211D01*
X151140675Y-50458955D01*
X151133183Y-50445234D01*
X151131648Y-50438177D01*
X151118332Y-50376965D01*
X151119303Y-50363386D01*
X151128425Y-50324779D01*
X151182630Y-50193920D01*
X151223000Y-49990965D01*
X151223000Y-49784035D01*
X151182630Y-49581080D01*
X151103441Y-49389902D01*
X150988546Y-49217949D01*
X150988536Y-49217917D01*
X150988480Y-49217848D01*
X150988480Y-49217849D01*
X150988477Y-49217845D01*
X150988475Y-49217842D01*
X150988473Y-49217840D01*
X150988470Y-49217836D01*
X150842159Y-49071525D01*
X150753099Y-49012018D01*
X150753051Y-49011986D01*
X150670098Y-48956559D01*
X150670099Y-48956559D01*
X150670097Y-48956558D01*
X150558108Y-48910170D01*
X150478920Y-48877370D01*
X150478912Y-48877368D01*
X150478904Y-48877366D01*
X150478894Y-48877364D01*
X150275971Y-48837000D01*
X150275969Y-48837000D01*
X150275965Y-48837000D01*
X150069035Y-48837000D01*
X150069030Y-48837000D01*
X150069028Y-48837000D01*
X149866104Y-48877364D01*
X149866079Y-48877370D01*
X149674904Y-48956557D01*
X149502837Y-49071527D01*
X149356527Y-49217837D01*
X149241557Y-49389904D01*
X149162370Y-49581079D01*
X149162364Y-49581104D01*
X149122000Y-49784027D01*
X149122000Y-49784030D01*
X149122000Y-49990969D01*
X149122000Y-49990971D01*
X149121999Y-49990971D01*
X138222500Y-49990971D01*
X138222500Y-43564896D01*
X144084500Y-43564896D01*
X144084500Y-43801102D01*
X144107511Y-43946384D01*
X144121446Y-44034368D01*
X144194433Y-44258996D01*
X144268454Y-44404269D01*
X144301657Y-44469433D01*
X144440483Y-44660510D01*
X144607490Y-44827517D01*
X144798567Y-44966343D01*
X144897991Y-45017002D01*
X145009003Y-45073566D01*
X145009876Y-45074011D01*
X145013630Y-45075070D01*
X145061335Y-45090569D01*
X145129410Y-45112688D01*
X145129411Y-45112689D01*
X145129412Y-45112689D01*
X145233631Y-45146553D01*
X145466903Y-45183500D01*
X145466908Y-45183500D01*
X145703096Y-45183500D01*
X145703097Y-45183500D01*
X145936368Y-45146553D01*
X146160992Y-45073568D01*
X146346364Y-44979115D01*
X146379759Y-44967735D01*
X146395129Y-44964849D01*
X146464642Y-44971821D01*
X146474291Y-44975738D01*
X146515338Y-45002953D01*
X148047064Y-46534681D01*
X148047065Y-46534681D01*
X148047067Y-46534683D01*
X148053765Y-46537457D01*
X148053936Y-46537528D01*
X148099511Y-46556406D01*
X148099516Y-46556407D01*
X148148326Y-46576626D01*
X152302255Y-46576626D01*
X152323024Y-46578378D01*
X152343355Y-46581832D01*
X152363537Y-46587037D01*
X152402953Y-46600829D01*
X152465301Y-46622646D01*
X152471387Y-46623216D01*
X152495730Y-46625500D01*
X152495734Y-46625500D01*
X153504270Y-46625500D01*
X153504271Y-46625500D01*
X153505576Y-46625377D01*
X153534699Y-46622646D01*
X153534701Y-46622646D01*
X153598790Y-46600219D01*
X153662882Y-46577793D01*
X153772150Y-46497150D01*
X153852793Y-46387882D01*
X153875219Y-46323790D01*
X153897646Y-46259701D01*
X153897646Y-46259699D01*
X153900500Y-46229269D01*
X153900500Y-45595730D01*
X153898187Y-45571078D01*
X153898020Y-45567502D01*
X153897646Y-45565300D01*
X153897646Y-45565298D01*
X153852793Y-45437119D01*
X153852792Y-45437117D01*
X153852792Y-45437116D01*
X153772151Y-45327851D01*
X153772150Y-45327850D01*
X153662882Y-45247207D01*
X153662880Y-45247206D01*
X153534704Y-45202354D01*
X153534702Y-45202353D01*
X153534700Y-45202353D01*
X153504270Y-45199500D01*
X153504266Y-45199500D01*
X153504264Y-45199500D01*
X152495734Y-45199500D01*
X152495730Y-45199500D01*
X152477074Y-45201249D01*
X152471069Y-45201812D01*
X152469862Y-45201577D01*
X152465297Y-45202353D01*
X152337118Y-45247206D01*
X152227849Y-45327849D01*
X152147206Y-45437118D01*
X152102353Y-45565297D01*
X152101978Y-45567499D01*
X152101812Y-45571069D01*
X152099500Y-45595733D01*
X152099500Y-45883796D01*
X152099499Y-45883802D01*
X152099500Y-45883805D01*
X152094475Y-45918740D01*
X152090070Y-45933738D01*
X152052327Y-45992481D01*
X152052292Y-45992511D01*
X152052291Y-45992513D01*
X152052289Y-45992513D01*
X152050958Y-45993668D01*
X151996097Y-46021144D01*
X151988539Y-46022789D01*
X151962168Y-46025626D01*
X148386434Y-46025626D01*
X148386433Y-46025625D01*
X148386433Y-46025626D01*
X148351498Y-46020603D01*
X148326256Y-46013191D01*
X148273511Y-45981895D01*
X146908437Y-44616822D01*
X146887285Y-44588566D01*
X146879793Y-44574845D01*
X146864942Y-44506579D01*
X146865684Y-44496199D01*
X146878882Y-44448747D01*
X146975568Y-44258992D01*
X147048553Y-44034368D01*
X147062488Y-43946384D01*
X147085500Y-43801097D01*
X147085500Y-43564902D01*
X147066223Y-43443191D01*
X147048553Y-43331630D01*
X147022477Y-43251377D01*
X147013747Y-43224509D01*
X146975568Y-43107008D01*
X146975566Y-43107005D01*
X146975566Y-43107003D01*
X146973312Y-43102580D01*
X146973008Y-43101800D01*
X146972286Y-43100566D01*
X146868342Y-42896566D01*
X146729517Y-42705490D01*
X146562510Y-42538483D01*
X146371433Y-42399657D01*
X146160996Y-42292433D01*
X145936368Y-42219446D01*
X145936362Y-42219445D01*
X145703102Y-42182500D01*
X145703097Y-42182500D01*
X145703092Y-42182500D01*
X145466908Y-42182500D01*
X145466903Y-42182500D01*
X145466898Y-42182500D01*
X145233636Y-42219445D01*
X145233634Y-42219445D01*
X145233631Y-42219446D01*
X145009003Y-42292433D01*
X144911099Y-42342318D01*
X144798573Y-42399653D01*
X144798560Y-42399661D01*
X144693076Y-42476299D01*
X144693077Y-42476300D01*
X144619361Y-42529858D01*
X144611980Y-42533991D01*
X144435990Y-42709981D01*
X144431860Y-42717357D01*
X144400297Y-42760801D01*
X144400296Y-42760803D01*
X144301657Y-42896566D01*
X144194433Y-43107003D01*
X144121446Y-43331631D01*
X144121445Y-43331634D01*
X144121445Y-43331636D01*
X144084500Y-43564896D01*
X138222500Y-43564896D01*
X138222500Y-37498730D01*
X144084500Y-37498730D01*
X144084500Y-37501124D01*
X144084500Y-39707265D01*
X144086812Y-39731929D01*
X144086978Y-39735499D01*
X144087353Y-39737699D01*
X144087353Y-39737701D01*
X144132206Y-39865880D01*
X144132207Y-39865882D01*
X144212850Y-39975150D01*
X144322117Y-40055792D01*
X144322118Y-40055793D01*
X144450299Y-40100646D01*
X144450303Y-40100647D01*
X144468742Y-40102375D01*
X144480730Y-40103500D01*
X144480734Y-40103500D01*
X144480739Y-40103500D01*
X146689270Y-40103500D01*
X146689271Y-40103500D01*
X146690576Y-40103377D01*
X146719699Y-40100646D01*
X146719701Y-40100646D01*
X146783790Y-40078219D01*
X146847882Y-40055793D01*
X146957150Y-39975150D01*
X147037793Y-39865882D01*
X147060219Y-39801790D01*
X147082646Y-39737701D01*
X147082646Y-39737699D01*
X147085500Y-39707269D01*
X147085500Y-39145329D01*
X147090523Y-39110393D01*
X147094927Y-39095395D01*
X147132672Y-39036644D01*
X147132700Y-39036619D01*
X147132699Y-39036619D01*
X147134041Y-39035456D01*
X147188920Y-39007977D01*
X147196479Y-39006333D01*
X147222832Y-39003500D01*
X151499515Y-39003500D01*
X151527986Y-39007593D01*
X151534447Y-39008521D01*
X151559691Y-39015934D01*
X151612437Y-39047230D01*
X154744573Y-42179366D01*
X154765723Y-42207618D01*
X154778331Y-42230707D01*
X154793500Y-42290136D01*
X154793500Y-42649260D01*
X154789257Y-42664943D01*
X154789862Y-42679075D01*
X154788476Y-42684198D01*
X154785289Y-42695051D01*
X154778075Y-42706274D01*
X154776587Y-42711778D01*
X154771411Y-42720644D01*
X154764872Y-42726818D01*
X154747514Y-42753828D01*
X154725743Y-42763769D01*
X154720612Y-42768615D01*
X154711307Y-42770361D01*
X154683957Y-42782851D01*
X154661755Y-42779663D01*
X154651941Y-42781506D01*
X154639547Y-42776475D01*
X154614849Y-42772929D01*
X154614288Y-42772672D01*
X154596420Y-42758967D01*
X154587203Y-42755226D01*
X154582096Y-42747981D01*
X154570134Y-42738806D01*
X154568704Y-42737074D01*
X154556937Y-42720125D01*
X154548487Y-42705489D01*
X154548487Y-42705490D01*
X154527700Y-42669486D01*
X154434514Y-42576300D01*
X154369013Y-42538483D01*
X154369013Y-42538482D01*
X154369011Y-42538482D01*
X154320387Y-42510408D01*
X154256739Y-42493354D01*
X154193092Y-42476300D01*
X154193091Y-42476300D01*
X154061308Y-42476300D01*
X153934008Y-42510409D01*
X153934006Y-42510410D01*
X153819896Y-42576293D01*
X153819882Y-42576302D01*
X153819877Y-42576306D01*
X153726706Y-42669477D01*
X153726702Y-42669482D01*
X153726693Y-42669496D01*
X153660810Y-42783606D01*
X153660809Y-42783608D01*
X153626700Y-42910908D01*
X153626700Y-43018492D01*
X153626699Y-43018494D01*
X153626700Y-43018495D01*
X153621676Y-43053429D01*
X153614264Y-43078670D01*
X153582969Y-43131414D01*
X153388811Y-43325573D01*
X153360560Y-43346722D01*
X153337472Y-43359330D01*
X153278042Y-43374500D01*
X152495730Y-43374500D01*
X152477074Y-43376249D01*
X152471069Y-43376812D01*
X152467499Y-43376978D01*
X152465297Y-43377353D01*
X152337118Y-43422206D01*
X152227849Y-43502849D01*
X152147206Y-43612118D01*
X152102353Y-43740297D01*
X152101978Y-43742499D01*
X152101812Y-43746069D01*
X152099501Y-43770726D01*
X152099500Y-43770733D01*
X152099500Y-44404265D01*
X152101812Y-44428929D01*
X152101978Y-44432499D01*
X152102352Y-44434701D01*
X152140212Y-44542892D01*
X152147206Y-44562881D01*
X152147207Y-44562882D01*
X152227850Y-44672150D01*
X152337117Y-44752792D01*
X152337118Y-44752793D01*
X152465299Y-44797646D01*
X152465303Y-44797647D01*
X152483742Y-44799375D01*
X152495730Y-44800500D01*
X152495734Y-44800500D01*
X152495739Y-44800500D01*
X153504270Y-44800500D01*
X153504271Y-44800500D01*
X153505576Y-44800377D01*
X153534699Y-44797646D01*
X153534701Y-44797646D01*
X153598790Y-44775219D01*
X153662882Y-44752793D01*
X153772150Y-44672150D01*
X153852793Y-44562882D01*
X153875219Y-44498790D01*
X153897646Y-44434701D01*
X153897646Y-44434699D01*
X153900500Y-44404269D01*
X153900500Y-43770730D01*
X153899754Y-43762773D01*
X153897647Y-43740304D01*
X153896510Y-43736330D01*
X153895041Y-43732857D01*
X153891854Y-43723748D01*
X153887123Y-43699643D01*
X153887046Y-43699660D01*
X153885479Y-43692085D01*
X153885405Y-43690888D01*
X153885057Y-43689112D01*
X153884636Y-43680856D01*
X153884789Y-43680848D01*
X153883319Y-43656880D01*
X153883457Y-43655189D01*
X153891083Y-43621359D01*
X153893075Y-43616099D01*
X153909795Y-43585673D01*
X153910047Y-43585336D01*
X153921586Y-43572026D01*
X153967390Y-43526222D01*
X153995647Y-43505071D01*
X154018736Y-43492465D01*
X154078157Y-43477300D01*
X154193090Y-43477300D01*
X154193092Y-43477300D01*
X154320386Y-43443192D01*
X154434514Y-43377300D01*
X154527700Y-43284114D01*
X154553200Y-43239945D01*
X154564728Y-43228477D01*
X154571292Y-43215907D01*
X154574963Y-43212255D01*
X154583207Y-43204394D01*
X154595097Y-43198265D01*
X154599149Y-43194235D01*
X154608062Y-43189151D01*
X154616794Y-43187080D01*
X154645307Y-43172383D01*
X154669175Y-43174663D01*
X154676047Y-43173034D01*
X154684959Y-43176170D01*
X154714860Y-43179027D01*
X154732519Y-43192910D01*
X154741954Y-43196231D01*
X154750160Y-43206779D01*
X154769754Y-43222183D01*
X154770112Y-43222687D01*
X154778749Y-43243526D01*
X154784857Y-43251377D01*
X154785651Y-43260180D01*
X154791408Y-43274071D01*
X154791781Y-43276288D01*
X154793500Y-43296861D01*
X154793500Y-58487266D01*
X154791601Y-58500467D01*
X154791900Y-58500489D01*
X154791545Y-58505448D01*
X154790876Y-58508276D01*
X154791155Y-58509815D01*
X154789267Y-58516699D01*
X154788476Y-58522204D01*
X154787193Y-58526573D01*
X154786607Y-58526401D01*
X154786523Y-58526708D01*
X154782758Y-58542648D01*
X154782797Y-58542663D01*
X154782683Y-58542967D01*
X154782436Y-58544015D01*
X154781575Y-58546093D01*
X154781259Y-58546787D01*
X154781186Y-58547033D01*
X154780136Y-58549572D01*
X154779791Y-58549999D01*
X154779422Y-58550809D01*
X154779215Y-58550714D01*
X154759652Y-58575005D01*
X154739883Y-58601411D01*
X154737483Y-58603208D01*
X154736704Y-58603498D01*
X154736310Y-58603988D01*
X154727739Y-58606843D01*
X154672021Y-58627631D01*
X154628228Y-58622925D01*
X154606908Y-58616665D01*
X154554161Y-58585369D01*
X151871926Y-55903133D01*
X151871925Y-55903132D01*
X151871921Y-55903128D01*
X151850774Y-55874877D01*
X151838167Y-55851788D01*
X151823000Y-55792363D01*
X151823000Y-53624775D01*
X151823000Y-53624773D01*
X151795707Y-53522913D01*
X151795707Y-53522912D01*
X151742980Y-53431587D01*
X151213604Y-52902211D01*
X151192452Y-52873955D01*
X151184960Y-52860234D01*
X151177365Y-52825320D01*
X151170109Y-52791964D01*
X151171080Y-52778386D01*
X151180205Y-52739774D01*
X151180949Y-52737978D01*
X151182114Y-52735425D01*
X151182628Y-52733924D01*
X151182630Y-52733920D01*
X151223000Y-52530965D01*
X151223000Y-52324035D01*
X151182630Y-52121080D01*
X151103441Y-51929902D01*
X150988546Y-51757949D01*
X150988536Y-51757917D01*
X150988480Y-51757848D01*
X150988480Y-51757849D01*
X150988477Y-51757845D01*
X150988475Y-51757842D01*
X150988473Y-51757840D01*
X150988470Y-51757836D01*
X150842162Y-51611528D01*
X150842155Y-51611522D01*
X150757212Y-51554765D01*
X150757155Y-51554729D01*
X150756126Y-51554041D01*
X150670098Y-51496559D01*
X150669009Y-51496108D01*
X150478920Y-51417370D01*
X150478912Y-51417368D01*
X150478904Y-51417366D01*
X150478894Y-51417364D01*
X150275971Y-51377000D01*
X150275969Y-51377000D01*
X150275965Y-51377000D01*
X150069035Y-51377000D01*
X150069030Y-51377000D01*
X150069028Y-51377000D01*
X149866104Y-51417364D01*
X149866079Y-51417370D01*
X149674904Y-51496557D01*
X149502837Y-51611527D01*
X149356527Y-51757837D01*
X149241557Y-51929904D01*
X149162370Y-52121079D01*
X149162364Y-52121104D01*
X149122000Y-52324027D01*
X149122000Y-52324030D01*
X149122000Y-52530969D01*
X149122000Y-52530971D01*
X149121999Y-52530971D01*
X149158098Y-52712446D01*
X149162368Y-52733912D01*
X149162370Y-52733920D01*
X149241558Y-52925096D01*
X149349991Y-53087379D01*
X149356527Y-53097161D01*
X149502836Y-53243470D01*
X149502840Y-53243473D01*
X149502842Y-53243475D01*
X149502845Y-53243477D01*
X149502849Y-53243480D01*
X149502848Y-53243480D01*
X149502911Y-53243532D01*
X149502948Y-53243546D01*
X149674902Y-53358441D01*
X149866080Y-53437630D01*
X150014956Y-53467243D01*
X150030576Y-53470350D01*
X150066059Y-53477408D01*
X150068294Y-53477909D01*
X150069032Y-53478000D01*
X150275966Y-53478000D01*
X150279693Y-53478000D01*
X150286185Y-53475979D01*
X150287006Y-53475803D01*
X150478920Y-53437630D01*
X150493442Y-53431613D01*
X150504499Y-53429247D01*
X150508149Y-53429520D01*
X150517192Y-53427211D01*
X150532734Y-53425540D01*
X150601493Y-53437943D01*
X150601494Y-53437944D01*
X150613671Y-53444039D01*
X150645850Y-53467243D01*
X150973074Y-53794467D01*
X150994223Y-53822718D01*
X151006831Y-53845807D01*
X151022000Y-53905236D01*
X151022000Y-56072829D01*
X151049291Y-56174687D01*
X151063617Y-56199498D01*
X151063618Y-56199501D01*
X151102015Y-56266006D01*
X151102022Y-56266015D01*
X154106125Y-59270117D01*
X154106146Y-59270139D01*
X154107189Y-59271182D01*
X154111519Y-59275512D01*
X154111520Y-59275513D01*
X154186087Y-59350080D01*
X154271685Y-59399500D01*
X154277413Y-59402807D01*
X154379273Y-59430101D01*
X154379275Y-59430101D01*
X154492323Y-59430101D01*
X154494227Y-59430101D01*
X154494290Y-59430100D01*
X154651670Y-59430100D01*
X154686606Y-59435123D01*
X154701604Y-59439527D01*
X154716612Y-59449169D01*
X154718709Y-59449785D01*
X154720138Y-59451434D01*
X154760355Y-59477272D01*
X154761542Y-59478641D01*
X154789018Y-59533502D01*
X154790663Y-59541060D01*
X154793500Y-59567431D01*
X154793500Y-74648705D01*
X154773815Y-74715744D01*
X154750165Y-74742882D01*
X154745350Y-74747005D01*
X154745349Y-74747007D01*
X154727297Y-74764491D01*
X154727294Y-74764495D01*
X154682189Y-74844049D01*
X154662115Y-74910984D01*
X154653459Y-74968817D01*
X154653459Y-74968821D01*
X154629523Y-79122098D01*
X154629524Y-79122120D01*
X154634090Y-79166382D01*
X154645299Y-79218632D01*
X154647906Y-79229369D01*
X154647908Y-79229373D01*
X154682223Y-79293769D01*
X154690917Y-79310083D01*
X154690919Y-79310086D01*
X154736678Y-79362895D01*
X154738059Y-79364304D01*
X154754264Y-79380843D01*
X154754265Y-79380844D01*
X154754267Y-79380845D01*
X154808729Y-79411309D01*
X154834081Y-79425490D01*
X154901120Y-79445175D01*
X154959018Y-79453500D01*
X154959022Y-79453500D01*
X157177922Y-79453500D01*
X157177923Y-79453500D01*
X157181571Y-79453099D01*
X157222499Y-79448607D01*
X157275012Y-79436938D01*
X157286059Y-79434160D01*
X157328055Y-79411299D01*
X167899500Y-79411299D01*
X167899500Y-79588699D01*
X167934099Y-79762646D01*
X167934101Y-79762653D01*
X167934109Y-79762676D01*
X168001977Y-79926526D01*
X168001985Y-79926544D01*
X168001994Y-79926559D01*
X168100536Y-80074036D01*
X168100537Y-80074037D01*
X168100542Y-80074043D01*
X168225955Y-80199456D01*
X168225961Y-80199461D01*
X168225965Y-80199464D01*
X168373446Y-80298009D01*
X168373459Y-80298016D01*
X168409579Y-80312977D01*
X168495144Y-80348419D01*
X168495182Y-80348434D01*
X168496363Y-80348923D01*
X168537334Y-80365894D01*
X168537336Y-80365894D01*
X168537341Y-80365896D01*
X168703680Y-80398982D01*
X168706403Y-80399704D01*
X168711306Y-80400500D01*
X168888693Y-80400500D01*
X168892814Y-80400500D01*
X168900667Y-80398117D01*
X168946682Y-80388964D01*
X168946683Y-80388964D01*
X169062653Y-80365897D01*
X169062653Y-80365896D01*
X169062658Y-80365896D01*
X169062661Y-80365894D01*
X169062666Y-80365894D01*
X169065854Y-80364573D01*
X169073835Y-80361273D01*
X169073876Y-80361251D01*
X169226540Y-80298016D01*
X169226540Y-80298015D01*
X169226547Y-80298013D01*
X169374035Y-80199464D01*
X169499464Y-80074035D01*
X169598013Y-79926547D01*
X169665894Y-79762666D01*
X169700500Y-79588691D01*
X169700500Y-79411309D01*
X169700500Y-79411306D01*
X169700500Y-79411286D01*
X169700469Y-79411155D01*
X169665896Y-79237341D01*
X169665893Y-79237332D01*
X169655764Y-79212879D01*
X169648923Y-79196363D01*
X169648921Y-79196359D01*
X169648921Y-79196356D01*
X169598021Y-79073472D01*
X169598016Y-79073459D01*
X169598009Y-79073446D01*
X169499464Y-78925965D01*
X169499461Y-78925961D01*
X169499456Y-78925955D01*
X169374043Y-78800542D01*
X169374037Y-78800537D01*
X169374036Y-78800536D01*
X169226559Y-78701994D01*
X169226558Y-78701993D01*
X169226553Y-78701990D01*
X169226540Y-78701983D01*
X169226526Y-78701977D01*
X169062676Y-78634109D01*
X169062653Y-78634101D01*
X169062646Y-78634099D01*
X168888698Y-78599500D01*
X168888694Y-78599500D01*
X168888691Y-78599500D01*
X168711309Y-78599500D01*
X168711306Y-78599500D01*
X168711301Y-78599500D01*
X168537352Y-78634100D01*
X168537345Y-78634101D01*
X168537322Y-78634109D01*
X168373472Y-78701977D01*
X168373454Y-78701985D01*
X168373439Y-78701994D01*
X168225962Y-78800536D01*
X168225961Y-78800537D01*
X168225955Y-78800542D01*
X168100542Y-78925955D01*
X168100537Y-78925961D01*
X168100536Y-78925962D01*
X168001994Y-79073439D01*
X168001985Y-79073454D01*
X168001977Y-79073472D01*
X167934109Y-79237322D01*
X167934101Y-79237345D01*
X167934099Y-79237352D01*
X167899500Y-79411299D01*
X157328055Y-79411299D01*
X157366385Y-79390434D01*
X157418780Y-79344211D01*
X157436579Y-79326459D01*
X157480513Y-79246247D01*
X157499600Y-79179035D01*
X157507409Y-79121067D01*
X157506576Y-79027486D01*
X157525663Y-78960274D01*
X157542885Y-78938706D01*
X159679774Y-76801818D01*
X159708019Y-76780675D01*
X159731111Y-76768067D01*
X159790536Y-76752900D01*
X165290854Y-76752900D01*
X165325790Y-76757923D01*
X165338857Y-76761760D01*
X165397635Y-76799535D01*
X165426659Y-76863092D01*
X165422649Y-76898877D01*
X165423264Y-76901834D01*
X165421399Y-76910036D01*
X165419711Y-76925107D01*
X165415466Y-76936185D01*
X165415441Y-76936250D01*
X165414874Y-76937728D01*
X165409642Y-76949177D01*
X165407059Y-76958124D01*
X165406543Y-76959470D01*
X165407294Y-76965791D01*
X165406645Y-76969321D01*
X165399930Y-77003083D01*
X165399500Y-77005247D01*
X165399500Y-78144752D01*
X165411131Y-78203229D01*
X165411132Y-78203230D01*
X165411132Y-78203231D01*
X165411134Y-78203233D01*
X165455447Y-78269552D01*
X165521765Y-78313864D01*
X165521767Y-78313866D01*
X165521770Y-78313868D01*
X165572612Y-78323981D01*
X165575337Y-78324703D01*
X165580249Y-78325500D01*
X167619750Y-78325500D01*
X167623873Y-78325500D01*
X167631732Y-78323116D01*
X167651381Y-78319208D01*
X167666258Y-78316249D01*
X167672354Y-78315648D01*
X167672386Y-78315639D01*
X167683311Y-78312902D01*
X167693515Y-78303654D01*
X167744552Y-78269552D01*
X167788867Y-78203231D01*
X167788867Y-78203229D01*
X167788868Y-78203229D01*
X167791030Y-78192355D01*
X167791166Y-78192090D01*
X167791249Y-78191256D01*
X167800068Y-78146917D01*
X167800500Y-78144931D01*
X167800500Y-77005064D01*
X167800069Y-77003083D01*
X167793997Y-76972559D01*
X167794574Y-76966107D01*
X167791460Y-76956161D01*
X167788177Y-76943300D01*
X167787963Y-76942227D01*
X167784547Y-76934083D01*
X167778813Y-76915770D01*
X167777571Y-76845915D01*
X167814294Y-76786474D01*
X167869715Y-76757801D01*
X167877779Y-76755971D01*
X167905205Y-76752900D01*
X173562925Y-76752900D01*
X173562927Y-76752900D01*
X173664788Y-76725607D01*
X173756113Y-76672880D01*
X173954573Y-76474417D01*
X173982820Y-76453273D01*
X174005910Y-76440665D01*
X174065334Y-76425500D01*
X187884925Y-76425500D01*
X187884927Y-76425500D01*
X187986788Y-76398207D01*
X188078113Y-76345480D01*
X188754859Y-75668731D01*
X188780533Y-75649031D01*
X188807845Y-75633262D01*
X188837751Y-75620876D01*
X188917183Y-75599593D01*
X188917183Y-75599592D01*
X188917186Y-75599592D01*
X189031314Y-75533700D01*
X189124500Y-75440514D01*
X189190392Y-75326386D01*
X189224500Y-75199092D01*
X189224500Y-75067308D01*
X189190392Y-74940014D01*
X189190387Y-74940006D01*
X189160537Y-74888304D01*
X189124500Y-74825886D01*
X189031314Y-74732700D01*
X188974250Y-74699754D01*
X188917187Y-74666808D01*
X188853539Y-74649754D01*
X188789892Y-74632700D01*
X188789891Y-74632700D01*
X188658108Y-74632700D01*
X188530808Y-74666809D01*
X188530806Y-74666810D01*
X188416696Y-74732693D01*
X188416682Y-74732702D01*
X188416677Y-74732706D01*
X188323506Y-74825877D01*
X188323502Y-74825882D01*
X188323499Y-74825888D01*
X188257610Y-74940006D01*
X188257609Y-74940007D01*
X188236324Y-75019447D01*
X188223934Y-75049356D01*
X188208166Y-75076665D01*
X188188462Y-75102343D01*
X187715233Y-75575573D01*
X187686982Y-75596722D01*
X187663894Y-75609330D01*
X187604464Y-75624500D01*
X180946778Y-75624500D01*
X180946775Y-75624499D01*
X180946774Y-75624500D01*
X180911839Y-75619476D01*
X180898521Y-75615565D01*
X180839744Y-75577789D01*
X180810723Y-75514240D01*
X180809512Y-75505819D01*
X180812475Y-75456080D01*
X180816647Y-75440513D01*
X180840500Y-75351492D01*
X180840500Y-75219708D01*
X180806392Y-75092414D01*
X180806387Y-75092406D01*
X180764264Y-75019447D01*
X180740500Y-74978286D01*
X180647314Y-74885100D01*
X180576212Y-74844049D01*
X180544755Y-74825887D01*
X180544754Y-74825886D01*
X180533187Y-74819208D01*
X180459634Y-74799500D01*
X180456365Y-74798624D01*
X180405892Y-74785100D01*
X180405891Y-74785100D01*
X180274108Y-74785100D01*
X180146808Y-74819209D01*
X180146806Y-74819210D01*
X180032696Y-74885093D01*
X180032682Y-74885102D01*
X180032677Y-74885106D01*
X179939506Y-74978277D01*
X179939502Y-74978282D01*
X179939493Y-74978296D01*
X179873610Y-75092406D01*
X179873609Y-75092407D01*
X179852324Y-75171847D01*
X179839934Y-75201756D01*
X179824166Y-75229065D01*
X179804462Y-75254743D01*
X179483633Y-75575573D01*
X179455382Y-75596722D01*
X179432294Y-75609330D01*
X179372864Y-75624500D01*
X174379930Y-75624500D01*
X174379925Y-75624499D01*
X174379923Y-75624500D01*
X174344989Y-75619475D01*
X174329990Y-75615070D01*
X174271244Y-75577327D01*
X174271215Y-75577293D01*
X174271214Y-75577293D01*
X174271213Y-75577291D01*
X174270057Y-75575958D01*
X174242577Y-75521083D01*
X174240932Y-75513521D01*
X174238100Y-75487168D01*
X174238100Y-73359875D01*
X174238100Y-73359873D01*
X174210807Y-73258013D01*
X174210807Y-73258012D01*
X174158080Y-73166687D01*
X168245913Y-67254520D01*
X168235119Y-67248288D01*
X168200250Y-67228155D01*
X168200250Y-67228156D01*
X168154589Y-67201793D01*
X168103657Y-67188146D01*
X168103656Y-67188145D01*
X168052730Y-67174500D01*
X168052727Y-67174500D01*
X168052726Y-67174500D01*
X167942330Y-67174500D01*
X167942325Y-67174499D01*
X167942323Y-67174500D01*
X167907389Y-67169475D01*
X167892390Y-67165070D01*
X167833644Y-67127327D01*
X167833615Y-67127293D01*
X167833614Y-67127293D01*
X167833613Y-67127291D01*
X167832457Y-67125958D01*
X167804977Y-67071083D01*
X167803332Y-67063521D01*
X167800500Y-67037168D01*
X167800500Y-67005063D01*
X167800069Y-67003081D01*
X167788868Y-66946770D01*
X167785975Y-66941358D01*
X167782081Y-66936613D01*
X167780956Y-66934930D01*
X167744552Y-66880447D01*
X167708146Y-66856121D01*
X167688385Y-66842917D01*
X167683641Y-66839024D01*
X167678230Y-66836132D01*
X167678229Y-66836131D01*
X167619752Y-66824500D01*
X167619750Y-66824500D01*
X165580249Y-66824500D01*
X165580247Y-66824500D01*
X165521770Y-66836131D01*
X165521769Y-66836131D01*
X165521768Y-66836132D01*
X165521765Y-66836133D01*
X165521759Y-66836138D01*
X165455447Y-66880447D01*
X165411138Y-66946759D01*
X165411133Y-66946765D01*
X165411132Y-66946768D01*
X165411132Y-66946769D01*
X165411131Y-66946770D01*
X165399500Y-67005247D01*
X165399500Y-68144752D01*
X165411131Y-68203229D01*
X165411132Y-68203230D01*
X165411132Y-68203231D01*
X165411134Y-68203233D01*
X165455447Y-68269552D01*
X165521765Y-68313864D01*
X165521767Y-68313866D01*
X165521770Y-68313868D01*
X165572612Y-68323981D01*
X165575337Y-68324703D01*
X165580249Y-68325500D01*
X167619750Y-68325500D01*
X167623873Y-68325500D01*
X167631732Y-68323116D01*
X167660205Y-68317453D01*
X167666258Y-68316249D01*
X167672354Y-68315648D01*
X167672386Y-68315639D01*
X167683311Y-68312902D01*
X167693515Y-68303654D01*
X167744552Y-68269552D01*
X167788867Y-68203231D01*
X167788867Y-68203227D01*
X167789694Y-68201991D01*
X167791620Y-68197872D01*
X167794509Y-68192346D01*
X167794511Y-68192347D01*
X167803468Y-68175219D01*
X167813198Y-68165133D01*
X167818908Y-68152329D01*
X167836978Y-68140485D01*
X167851977Y-68124939D01*
X167865619Y-68121713D01*
X167877345Y-68114029D01*
X167898947Y-68113835D01*
X167919972Y-68108865D01*
X167934597Y-68113515D01*
X167947212Y-68113402D01*
X167979444Y-68127774D01*
X167986442Y-68132183D01*
X168008020Y-68149413D01*
X173388173Y-73529566D01*
X173409323Y-73557818D01*
X173421931Y-73580907D01*
X173437100Y-73640336D01*
X173437100Y-75789916D01*
X173432834Y-75822162D01*
X173432474Y-75823496D01*
X173428455Y-75837185D01*
X173427055Y-75843616D01*
X173426263Y-75846561D01*
X173409575Y-75873859D01*
X173394210Y-75901996D01*
X173393233Y-75902973D01*
X173390552Y-75904979D01*
X173389822Y-75906175D01*
X173387369Y-75907362D01*
X173364982Y-75924122D01*
X173341894Y-75936730D01*
X173282464Y-75951900D01*
X167872529Y-75951900D01*
X167872525Y-75951899D01*
X167872524Y-75951900D01*
X167837589Y-75946876D01*
X167824520Y-75943038D01*
X167765744Y-75905261D01*
X167736721Y-75841704D01*
X167743672Y-75779690D01*
X167746634Y-75771958D01*
X167759311Y-75747462D01*
X167762531Y-75742643D01*
X167778652Y-75718516D01*
X167787843Y-75708376D01*
X167788867Y-75703229D01*
X167788868Y-75703229D01*
X167800072Y-75646896D01*
X167800500Y-75644931D01*
X167800500Y-74507295D01*
X167800500Y-74505249D01*
X167800499Y-74505247D01*
X167788868Y-74446770D01*
X167788867Y-74446769D01*
X167744552Y-74380447D01*
X167708146Y-74356121D01*
X167688385Y-74342917D01*
X167683641Y-74339024D01*
X167678230Y-74336132D01*
X167678229Y-74336131D01*
X167619752Y-74324500D01*
X167619750Y-74324500D01*
X165580249Y-74324500D01*
X165580247Y-74324500D01*
X165521770Y-74336131D01*
X165521769Y-74336131D01*
X165521768Y-74336132D01*
X165521765Y-74336133D01*
X165521759Y-74336138D01*
X165455447Y-74380447D01*
X165411138Y-74446759D01*
X165411133Y-74446765D01*
X165411132Y-74446768D01*
X165411132Y-74446769D01*
X165411131Y-74446770D01*
X165399500Y-74505247D01*
X165399500Y-74505249D01*
X165399500Y-74623919D01*
X165399499Y-74623921D01*
X165399500Y-74623922D01*
X165395936Y-74648705D01*
X165394476Y-74658857D01*
X165391289Y-74669710D01*
X165353514Y-74728487D01*
X165289957Y-74757510D01*
X165220807Y-74747569D01*
X165213829Y-74744382D01*
X165177657Y-74719268D01*
X156897826Y-66439437D01*
X156876674Y-66411181D01*
X156864067Y-66388092D01*
X156848900Y-66328667D01*
X156848900Y-65607706D01*
X156853921Y-65572779D01*
X156857107Y-65561926D01*
X156894877Y-65503145D01*
X156958431Y-65474116D01*
X157027586Y-65484054D01*
X157034572Y-65487244D01*
X157070742Y-65512357D01*
X164385141Y-72826757D01*
X164385142Y-72826757D01*
X164385144Y-72826759D01*
X164442463Y-72850500D01*
X164486400Y-72868699D01*
X164486402Y-72868699D01*
X164595998Y-72868699D01*
X164595999Y-72868699D01*
X164596000Y-72868699D01*
X164605867Y-72864611D01*
X164629125Y-72857556D01*
X164652630Y-72852881D01*
X164676814Y-72850500D01*
X165257670Y-72850500D01*
X165292606Y-72855523D01*
X165307604Y-72859927D01*
X165366355Y-72897672D01*
X165367542Y-72899041D01*
X165395018Y-72953902D01*
X165396663Y-72961460D01*
X165399500Y-72987831D01*
X165399500Y-73144752D01*
X165411131Y-73203229D01*
X165411132Y-73203230D01*
X165411132Y-73203231D01*
X165411134Y-73203233D01*
X165455447Y-73269552D01*
X165521765Y-73313864D01*
X165521767Y-73313866D01*
X165521770Y-73313868D01*
X165572612Y-73323981D01*
X165575337Y-73324703D01*
X165580249Y-73325500D01*
X167619750Y-73325500D01*
X167623873Y-73325500D01*
X167631732Y-73323116D01*
X167651381Y-73319208D01*
X167666258Y-73316249D01*
X167672354Y-73315648D01*
X167672386Y-73315639D01*
X167683311Y-73312902D01*
X167693515Y-73303654D01*
X167744552Y-73269552D01*
X167788867Y-73203231D01*
X167788867Y-73203229D01*
X167788868Y-73203229D01*
X167791030Y-73192355D01*
X167791166Y-73192090D01*
X167791249Y-73191256D01*
X167796136Y-73166690D01*
X167800072Y-73146896D01*
X167800500Y-73144931D01*
X167800500Y-72007295D01*
X167800500Y-72005249D01*
X167800499Y-72005247D01*
X167788868Y-71946770D01*
X167788867Y-71946769D01*
X167744552Y-71880447D01*
X167708146Y-71856121D01*
X167688385Y-71842917D01*
X167683641Y-71839024D01*
X167678230Y-71836132D01*
X167678229Y-71836131D01*
X167619752Y-71824500D01*
X167619750Y-71824500D01*
X165580249Y-71824500D01*
X165580247Y-71824500D01*
X165521770Y-71836131D01*
X165521769Y-71836131D01*
X165521768Y-71836132D01*
X165521765Y-71836133D01*
X165521759Y-71836138D01*
X165455447Y-71880447D01*
X165411138Y-71946759D01*
X165411133Y-71946765D01*
X165411132Y-71946768D01*
X165411132Y-71946769D01*
X165411131Y-71946770D01*
X165399500Y-72005247D01*
X165399500Y-72005249D01*
X165399500Y-72157670D01*
X165399499Y-72157676D01*
X165399500Y-72157679D01*
X165394475Y-72192614D01*
X165390070Y-72207612D01*
X165352327Y-72266355D01*
X165352292Y-72266385D01*
X165352291Y-72266387D01*
X165352289Y-72266387D01*
X165350958Y-72267542D01*
X165296097Y-72295018D01*
X165288539Y-72296663D01*
X165262168Y-72299500D01*
X164706307Y-72299500D01*
X164706306Y-72299499D01*
X164706306Y-72299500D01*
X164671371Y-72294477D01*
X164646129Y-72287065D01*
X164593384Y-72255769D01*
X157472826Y-65135211D01*
X157451674Y-65106955D01*
X157439067Y-65083866D01*
X157423900Y-65024441D01*
X157423900Y-55306108D01*
X159875100Y-55306108D01*
X159875100Y-55437891D01*
X159909208Y-55565187D01*
X159909209Y-55565190D01*
X159938536Y-55615986D01*
X159975095Y-55679307D01*
X159975098Y-55679311D01*
X159975100Y-55679314D01*
X160068286Y-55772500D01*
X160182414Y-55838392D01*
X160309708Y-55872500D01*
X160309710Y-55872500D01*
X160441490Y-55872500D01*
X160441492Y-55872500D01*
X160568786Y-55838392D01*
X160682914Y-55772500D01*
X160758995Y-55696418D01*
X160787240Y-55675275D01*
X160810332Y-55662667D01*
X160869757Y-55647500D01*
X161157493Y-55647500D01*
X161192425Y-55652521D01*
X161217669Y-55659934D01*
X161270415Y-55691230D01*
X163810374Y-58231189D01*
X163831523Y-58259440D01*
X163844131Y-58282529D01*
X163859300Y-58341958D01*
X163859300Y-62664600D01*
X163901243Y-62765858D01*
X163901244Y-62765859D01*
X165395067Y-64259683D01*
X165395068Y-64259684D01*
X165416219Y-64287939D01*
X165423711Y-64301660D01*
X165438562Y-64369930D01*
X165438038Y-64377257D01*
X165417460Y-64437297D01*
X165411167Y-64446714D01*
X165411168Y-64446715D01*
X165411130Y-64446771D01*
X165399500Y-64505247D01*
X165399500Y-65644752D01*
X165411131Y-65703229D01*
X165411132Y-65703230D01*
X165411132Y-65703231D01*
X165411134Y-65703233D01*
X165455447Y-65769552D01*
X165521765Y-65813864D01*
X165521767Y-65813866D01*
X165521770Y-65813868D01*
X165572612Y-65823981D01*
X165575337Y-65824703D01*
X165580249Y-65825500D01*
X167619750Y-65825500D01*
X167623873Y-65825500D01*
X167631732Y-65823116D01*
X167651381Y-65819208D01*
X167666258Y-65816249D01*
X167672354Y-65815648D01*
X167672386Y-65815639D01*
X167683311Y-65812902D01*
X167693515Y-65803654D01*
X167744552Y-65769552D01*
X167788867Y-65703231D01*
X167788867Y-65703229D01*
X167788868Y-65703229D01*
X167791030Y-65692355D01*
X167791166Y-65692090D01*
X167791249Y-65691256D01*
X167800068Y-65646917D01*
X167800500Y-65644931D01*
X167800500Y-64507295D01*
X167800500Y-64505249D01*
X167800499Y-64505247D01*
X167788868Y-64446770D01*
X167788867Y-64446769D01*
X167744552Y-64380447D01*
X167708146Y-64356121D01*
X167688385Y-64342917D01*
X167683641Y-64339024D01*
X167678230Y-64336132D01*
X167678229Y-64336131D01*
X167619752Y-64324500D01*
X167619750Y-64324500D01*
X166308308Y-64324500D01*
X166308307Y-64324499D01*
X166308307Y-64324500D01*
X166273372Y-64319477D01*
X166248130Y-64312065D01*
X166195385Y-64280769D01*
X164459226Y-62544610D01*
X164438074Y-62516354D01*
X164425467Y-62493265D01*
X164410300Y-62433840D01*
X164410300Y-58111201D01*
X164410298Y-58111196D01*
X164368360Y-58009944D01*
X164368358Y-58009942D01*
X161496859Y-55138444D01*
X161496858Y-55138443D01*
X161470293Y-55127439D01*
X161468093Y-55126146D01*
X161461356Y-55123737D01*
X161395604Y-55096500D01*
X161395602Y-55096500D01*
X161395600Y-55096500D01*
X160877106Y-55096500D01*
X160877105Y-55096499D01*
X160877105Y-55096500D01*
X160842170Y-55091477D01*
X160816928Y-55084065D01*
X160764183Y-55052769D01*
X160682916Y-54971502D01*
X160682914Y-54971500D01*
X160600628Y-54923992D01*
X160600628Y-54923991D01*
X160600626Y-54923991D01*
X160568787Y-54905608D01*
X160505139Y-54888554D01*
X160441492Y-54871500D01*
X160441491Y-54871500D01*
X160309708Y-54871500D01*
X160182408Y-54905609D01*
X160182406Y-54905610D01*
X160068296Y-54971493D01*
X160068282Y-54971502D01*
X160068277Y-54971506D01*
X159975106Y-55064677D01*
X159975102Y-55064682D01*
X159975093Y-55064696D01*
X159909210Y-55178806D01*
X159909209Y-55178808D01*
X159875100Y-55306108D01*
X157423900Y-55306108D01*
X157423900Y-50563505D01*
X157428922Y-50528572D01*
X157436334Y-50503327D01*
X157467627Y-50450586D01*
X157548900Y-50369314D01*
X157614792Y-50255186D01*
X157648900Y-50127892D01*
X157648900Y-49996108D01*
X157614792Y-49868814D01*
X157548900Y-49754686D01*
X157455714Y-49661500D01*
X157437021Y-49650707D01*
X157407247Y-49633517D01*
X157407244Y-49633516D01*
X157398650Y-49628554D01*
X157341587Y-49595608D01*
X157233303Y-49566594D01*
X157227193Y-49564956D01*
X157227191Y-49564956D01*
X157223781Y-49564042D01*
X157214292Y-49561500D01*
X157214289Y-49561500D01*
X157082508Y-49561500D01*
X157022216Y-49577655D01*
X156988733Y-49581872D01*
X156987919Y-49581862D01*
X156979998Y-49581674D01*
X156979352Y-49581766D01*
X156974190Y-49581709D01*
X156944800Y-49572720D01*
X156914845Y-49565825D01*
X156911691Y-49562594D01*
X156907376Y-49561275D01*
X156887508Y-49537821D01*
X156871828Y-49521758D01*
X156870220Y-49522792D01*
X156868571Y-49520225D01*
X156867813Y-49517645D01*
X156866039Y-49515827D01*
X156866033Y-49515815D01*
X156865002Y-49513871D01*
X156866476Y-49513089D01*
X156866432Y-49512940D01*
X156862215Y-49507961D01*
X156859951Y-49490858D01*
X156848900Y-49453206D01*
X156848900Y-49410573D01*
X156853923Y-49375639D01*
X156859224Y-49357585D01*
X156892627Y-49302780D01*
X156900172Y-49295586D01*
X156923738Y-49277944D01*
X157025314Y-49219300D01*
X157118500Y-49126114D01*
X157184392Y-49011986D01*
X157218500Y-48884692D01*
X157218500Y-48752908D01*
X157184392Y-48625614D01*
X157184387Y-48625606D01*
X157175563Y-48610321D01*
X157118500Y-48511486D01*
X157025314Y-48418300D01*
X156968250Y-48385354D01*
X156911187Y-48352408D01*
X156847539Y-48335354D01*
X156783892Y-48318300D01*
X156783891Y-48318300D01*
X156652108Y-48318300D01*
X156524808Y-48352409D01*
X156524806Y-48352410D01*
X156410696Y-48418293D01*
X156410682Y-48418302D01*
X156410677Y-48418306D01*
X156317506Y-48511477D01*
X156317502Y-48511482D01*
X156317493Y-48511496D01*
X156251610Y-48625606D01*
X156251609Y-48625608D01*
X156217500Y-48752908D01*
X156217500Y-48884693D01*
X156236755Y-48956558D01*
X156236756Y-48956558D01*
X156251606Y-49011980D01*
X156251608Y-49011985D01*
X156251609Y-49011988D01*
X156251610Y-49011991D01*
X156251626Y-49012018D01*
X156273123Y-49049251D01*
X156285511Y-49079157D01*
X156293674Y-49109619D01*
X156297900Y-49141715D01*
X156297900Y-66559427D01*
X156339843Y-66660685D01*
X156339844Y-66660686D01*
X164987715Y-75308558D01*
X164987717Y-75308560D01*
X165066030Y-75340997D01*
X165066029Y-75340997D01*
X165088973Y-75350500D01*
X165198573Y-75350500D01*
X165257671Y-75350500D01*
X165292606Y-75355523D01*
X165307604Y-75359927D01*
X165366355Y-75397672D01*
X165366379Y-75397700D01*
X165366382Y-75397702D01*
X165366383Y-75397704D01*
X165367542Y-75399041D01*
X165395018Y-75453902D01*
X165396663Y-75461460D01*
X165399500Y-75487831D01*
X165399500Y-75644752D01*
X165411131Y-75703229D01*
X165411132Y-75703230D01*
X165414024Y-75708642D01*
X165417915Y-75713383D01*
X165438497Y-75744186D01*
X165453730Y-75776024D01*
X165457799Y-75789019D01*
X165458117Y-75806846D01*
X165459375Y-75810863D01*
X165458261Y-75814922D01*
X165459046Y-75858878D01*
X165422327Y-75918321D01*
X165366913Y-75946996D01*
X165364418Y-75947562D01*
X165358855Y-75948824D01*
X165331411Y-75951900D01*
X159510073Y-75951900D01*
X159408213Y-75979192D01*
X159408208Y-75979195D01*
X159316888Y-76031918D01*
X159316882Y-76031923D01*
X157705162Y-77643643D01*
X157643839Y-77677128D01*
X157574147Y-77672144D01*
X157518214Y-77630272D01*
X157493797Y-77564808D01*
X157493486Y-77557083D01*
X157470549Y-74980230D01*
X157470329Y-74978283D01*
X157465793Y-74938069D01*
X157465791Y-74938057D01*
X157459857Y-74910984D01*
X157454886Y-74888304D01*
X157452774Y-74879584D01*
X157410231Y-74798626D01*
X157401967Y-74788977D01*
X157364791Y-74745569D01*
X157347295Y-74727505D01*
X157267735Y-74682397D01*
X157200819Y-74662328D01*
X157200821Y-74662328D01*
X157167911Y-74657402D01*
X157142963Y-74653668D01*
X157129118Y-74653588D01*
X155717785Y-74645453D01*
X155650860Y-74625382D01*
X155605411Y-74572315D01*
X155594500Y-74521455D01*
X155594500Y-47529884D01*
X155599522Y-47494951D01*
X155606934Y-47469706D01*
X155638228Y-47416964D01*
X156025769Y-47029423D01*
X156054019Y-47008275D01*
X156077111Y-46995667D01*
X156136536Y-46980500D01*
X159398788Y-46980500D01*
X159433720Y-46985521D01*
X159447039Y-46989432D01*
X159505817Y-47027206D01*
X159534843Y-47090761D01*
X159534845Y-47090778D01*
X159535076Y-47092386D01*
X159529514Y-47150580D01*
X159527876Y-47155312D01*
X159518087Y-47176748D01*
X159511494Y-47188167D01*
X159502810Y-47203208D01*
X159502809Y-47203211D01*
X159502806Y-47203218D01*
X159468700Y-47330508D01*
X159468700Y-47462290D01*
X159502808Y-47589588D01*
X159535754Y-47646650D01*
X159568700Y-47703714D01*
X159661886Y-47796900D01*
X159776014Y-47862792D01*
X159903308Y-47896900D01*
X159903310Y-47896900D01*
X160035090Y-47896900D01*
X160035092Y-47896900D01*
X160162386Y-47862792D01*
X160276514Y-47796900D01*
X160352595Y-47720818D01*
X160380840Y-47699675D01*
X160403932Y-47687067D01*
X160463357Y-47671900D01*
X168929520Y-47671900D01*
X168964452Y-47676921D01*
X168989696Y-47684334D01*
X169042442Y-47715630D01*
X174402022Y-53075211D01*
X174411131Y-53087379D01*
X174423171Y-53103461D01*
X174428592Y-53113388D01*
X174443446Y-53181661D01*
X174419032Y-53247126D01*
X174363100Y-53288999D01*
X174363096Y-53289001D01*
X174355908Y-53291682D01*
X174312574Y-53299500D01*
X172330247Y-53299500D01*
X172271770Y-53311131D01*
X172271769Y-53311131D01*
X172271768Y-53311132D01*
X172271765Y-53311133D01*
X172271759Y-53311138D01*
X172205447Y-53355447D01*
X172161138Y-53421759D01*
X172161133Y-53421765D01*
X172161132Y-53421768D01*
X172161132Y-53421769D01*
X172161131Y-53421770D01*
X172149947Y-53478000D01*
X172149500Y-53480249D01*
X172149500Y-54881601D01*
X172149499Y-54881605D01*
X172149500Y-54881608D01*
X172144475Y-54916542D01*
X172140564Y-54929859D01*
X172102787Y-54988635D01*
X172039229Y-55017657D01*
X172039221Y-55017658D01*
X172037613Y-55017889D01*
X171979435Y-55012333D01*
X171977101Y-55011525D01*
X171974695Y-55010692D01*
X171953246Y-55000898D01*
X171876189Y-54956409D01*
X171876186Y-54956408D01*
X171876182Y-54956406D01*
X171777103Y-54929859D01*
X171748892Y-54922300D01*
X171748891Y-54922300D01*
X171617108Y-54922300D01*
X171489808Y-54956409D01*
X171489806Y-54956410D01*
X171375696Y-55022293D01*
X171375682Y-55022302D01*
X171375677Y-55022306D01*
X171282506Y-55115477D01*
X171282502Y-55115482D01*
X171282493Y-55115496D01*
X171216610Y-55229606D01*
X171216609Y-55229608D01*
X171216608Y-55229612D01*
X171182500Y-55356908D01*
X171182500Y-55488692D01*
X171199554Y-55552339D01*
X171216608Y-55615987D01*
X171245976Y-55666852D01*
X171282500Y-55730114D01*
X171282502Y-55730116D01*
X171363385Y-55810999D01*
X171367636Y-55816301D01*
X171369454Y-55820722D01*
X171379723Y-55834439D01*
X171385884Y-55845722D01*
X171387814Y-55848726D01*
X171407500Y-55915763D01*
X171407500Y-56033693D01*
X171407499Y-56033695D01*
X171407500Y-56033696D01*
X171402476Y-56068630D01*
X171395064Y-56093871D01*
X171363769Y-56146615D01*
X169723936Y-57786447D01*
X169695684Y-57807597D01*
X169690322Y-57810525D01*
X169622049Y-57825378D01*
X169556584Y-57800962D01*
X169514712Y-57745030D01*
X169509726Y-57675343D01*
X169510109Y-57673581D01*
X169528165Y-57631079D01*
X169598013Y-57526547D01*
X169665894Y-57362666D01*
X169700500Y-57188691D01*
X169700500Y-57011309D01*
X169700500Y-57011306D01*
X169700500Y-57011125D01*
X169700074Y-57009169D01*
X169665896Y-56837341D01*
X169665893Y-56837332D01*
X169598016Y-56673459D01*
X169598009Y-56673446D01*
X169499464Y-56525965D01*
X169499461Y-56525961D01*
X169499456Y-56525955D01*
X169374043Y-56400542D01*
X169374037Y-56400537D01*
X169374036Y-56400536D01*
X169226559Y-56301994D01*
X169226558Y-56301993D01*
X169226553Y-56301990D01*
X169226540Y-56301983D01*
X169226526Y-56301977D01*
X169062676Y-56234109D01*
X169062653Y-56234101D01*
X169062646Y-56234099D01*
X168888698Y-56199500D01*
X168888694Y-56199500D01*
X168888691Y-56199500D01*
X168711309Y-56199500D01*
X168711306Y-56199500D01*
X168711301Y-56199500D01*
X168537352Y-56234100D01*
X168537345Y-56234101D01*
X168537322Y-56234109D01*
X168373472Y-56301977D01*
X168373454Y-56301985D01*
X168373439Y-56301994D01*
X168225962Y-56400536D01*
X168225961Y-56400537D01*
X168225955Y-56400542D01*
X168100542Y-56525955D01*
X168100537Y-56525961D01*
X168100536Y-56525962D01*
X168001994Y-56673439D01*
X168001985Y-56673454D01*
X168001977Y-56673472D01*
X167934109Y-56837322D01*
X167934101Y-56837345D01*
X167934099Y-56837352D01*
X167899500Y-57011299D01*
X167899500Y-57188699D01*
X167934099Y-57362646D01*
X167934101Y-57362653D01*
X167934109Y-57362676D01*
X168001977Y-57526526D01*
X168001985Y-57526544D01*
X168001994Y-57526559D01*
X168100536Y-57674036D01*
X168100537Y-57674037D01*
X168100542Y-57674043D01*
X168225955Y-57799456D01*
X168225961Y-57799461D01*
X168225965Y-57799464D01*
X168373446Y-57898009D01*
X168373459Y-57898016D01*
X168472647Y-57939100D01*
X168537334Y-57965894D01*
X168537336Y-57965894D01*
X168537341Y-57965896D01*
X168703680Y-57998982D01*
X168706403Y-57999704D01*
X168711306Y-58000500D01*
X168888693Y-58000500D01*
X168892814Y-58000500D01*
X168900667Y-57998117D01*
X168946682Y-57988964D01*
X168946683Y-57988964D01*
X169062653Y-57965897D01*
X169062653Y-57965896D01*
X169062658Y-57965896D01*
X169062661Y-57965894D01*
X169062666Y-57965894D01*
X169065854Y-57964573D01*
X169073835Y-57961273D01*
X169073876Y-57961251D01*
X169226542Y-57898015D01*
X169226541Y-57898015D01*
X169226547Y-57898013D01*
X169327661Y-57830448D01*
X169343929Y-57825163D01*
X169356977Y-57816035D01*
X169359421Y-57815241D01*
X169365327Y-57813391D01*
X169381019Y-57813111D01*
X169391688Y-57809645D01*
X169396807Y-57809444D01*
X169409376Y-57812605D01*
X169435182Y-57812144D01*
X169454160Y-57823867D01*
X169464567Y-57826484D01*
X169473058Y-57835539D01*
X169494626Y-57848862D01*
X169504081Y-57868625D01*
X169512358Y-57877452D01*
X169514893Y-57891223D01*
X169524781Y-57911890D01*
X169522315Y-57931540D01*
X169525008Y-57946167D01*
X169518484Y-57962076D01*
X169516086Y-57981189D01*
X169515380Y-57982812D01*
X169501809Y-58002738D01*
X169498499Y-58010812D01*
X169494321Y-58013734D01*
X169489353Y-58021030D01*
X167988322Y-59522061D01*
X167960066Y-59543213D01*
X167946345Y-59550705D01*
X167878078Y-59565556D01*
X167875658Y-59565383D01*
X167810193Y-59540969D01*
X167781398Y-59510591D01*
X167760049Y-59478641D01*
X167744552Y-59455448D01*
X167678231Y-59411133D01*
X167678230Y-59411132D01*
X167672662Y-59407412D01*
X167647337Y-59384927D01*
X167645612Y-59382911D01*
X167626733Y-59353139D01*
X167626051Y-59351622D01*
X167623614Y-59333937D01*
X167616984Y-59319176D01*
X167619381Y-59303209D01*
X167616515Y-59282406D01*
X167625371Y-59263312D01*
X167627358Y-59250081D01*
X167636163Y-59240045D01*
X167645915Y-59219023D01*
X167645921Y-59219016D01*
X167647005Y-59217780D01*
X167661015Y-59205799D01*
X167660777Y-59205543D01*
X167672894Y-59194307D01*
X167688315Y-59182129D01*
X167688727Y-59181854D01*
X167744552Y-59144552D01*
X167788867Y-59078231D01*
X167788867Y-59078229D01*
X167788868Y-59078229D01*
X167791030Y-59067355D01*
X167791166Y-59067090D01*
X167791249Y-59066256D01*
X167800068Y-59021917D01*
X167800500Y-59019931D01*
X167800500Y-57882295D01*
X167800500Y-57880249D01*
X167800499Y-57880247D01*
X167788868Y-57821770D01*
X167788867Y-57821769D01*
X167744552Y-57755447D01*
X167708146Y-57731121D01*
X167688385Y-57717917D01*
X167683641Y-57714024D01*
X167678230Y-57711132D01*
X167678229Y-57711131D01*
X167619752Y-57699500D01*
X167619750Y-57699500D01*
X165580249Y-57699500D01*
X165580247Y-57699500D01*
X165521770Y-57711131D01*
X165521769Y-57711131D01*
X165521768Y-57711132D01*
X165521765Y-57711133D01*
X165521759Y-57711138D01*
X165455447Y-57755447D01*
X165411138Y-57821759D01*
X165411133Y-57821765D01*
X165411132Y-57821768D01*
X165411132Y-57821769D01*
X165411131Y-57821770D01*
X165399500Y-57880247D01*
X165399500Y-59019752D01*
X165411131Y-59078229D01*
X165411132Y-59078230D01*
X165411627Y-59079157D01*
X165412047Y-59079600D01*
X165455447Y-59144552D01*
X165505201Y-59177797D01*
X165509050Y-59181854D01*
X165536190Y-59203730D01*
X165576032Y-59261127D01*
X165578518Y-59330952D01*
X165542858Y-59391037D01*
X165542857Y-59391038D01*
X165527296Y-59405522D01*
X165511703Y-59417858D01*
X165455447Y-59455446D01*
X165455444Y-59455449D01*
X165417917Y-59511614D01*
X165414024Y-59516357D01*
X165411132Y-59521768D01*
X165411132Y-59521769D01*
X165411131Y-59521770D01*
X165399500Y-59580247D01*
X165399500Y-60719752D01*
X165411131Y-60778229D01*
X165411132Y-60778230D01*
X165411132Y-60778231D01*
X165411134Y-60778233D01*
X165455447Y-60844552D01*
X165521765Y-60888864D01*
X165521767Y-60888866D01*
X165521770Y-60888868D01*
X165572612Y-60898981D01*
X165575337Y-60899703D01*
X165580249Y-60900500D01*
X167619750Y-60900500D01*
X167623873Y-60900500D01*
X167631732Y-60898116D01*
X167651381Y-60894208D01*
X167666258Y-60891249D01*
X167672354Y-60890648D01*
X167672386Y-60890639D01*
X167683311Y-60887902D01*
X167693515Y-60878654D01*
X167744552Y-60844552D01*
X167788867Y-60778231D01*
X167788867Y-60778229D01*
X167788868Y-60778229D01*
X167791030Y-60767355D01*
X167791166Y-60767090D01*
X167791249Y-60766256D01*
X167792810Y-60758412D01*
X167800072Y-60721896D01*
X167800500Y-60719931D01*
X167800500Y-60527963D01*
X167805523Y-60493027D01*
X167809927Y-60478029D01*
X167847702Y-60419251D01*
X167852371Y-60415204D01*
X167857994Y-60410334D01*
X167891746Y-60389485D01*
X167906058Y-60383557D01*
X167983557Y-60306058D01*
X171916557Y-56373058D01*
X171930010Y-56340580D01*
X171958500Y-56271800D01*
X171958500Y-55924303D01*
X171962451Y-55893252D01*
X171962954Y-55891304D01*
X171966533Y-55879118D01*
X171967502Y-55873723D01*
X171968671Y-55869204D01*
X171984286Y-55843076D01*
X171997886Y-55815844D01*
X172001040Y-55812573D01*
X172041114Y-55772500D01*
X172083500Y-55730114D01*
X172088450Y-55723664D01*
X172091134Y-55725723D01*
X172097108Y-55720015D01*
X172111142Y-55700554D01*
X172121906Y-55696318D01*
X172130272Y-55688325D01*
X172153830Y-55683757D01*
X172176160Y-55674972D01*
X172194171Y-55675936D01*
X172198865Y-55675027D01*
X172211403Y-55676860D01*
X172271769Y-55688867D01*
X172271771Y-55688868D01*
X172271770Y-55688868D01*
X172322618Y-55698981D01*
X172325342Y-55699703D01*
X172330249Y-55700500D01*
X174369750Y-55700500D01*
X174373873Y-55700500D01*
X174381732Y-55698116D01*
X174401381Y-55694208D01*
X174416258Y-55691249D01*
X174422354Y-55690648D01*
X174422386Y-55690639D01*
X174433311Y-55687902D01*
X174443515Y-55678654D01*
X174494552Y-55644552D01*
X174538867Y-55578231D01*
X174538867Y-55578229D01*
X174538868Y-55578229D01*
X174541030Y-55567355D01*
X174541166Y-55567090D01*
X174541249Y-55566256D01*
X174550068Y-55521917D01*
X174550500Y-55519931D01*
X174550500Y-53540879D01*
X174555521Y-53505952D01*
X174558707Y-53495099D01*
X174596477Y-53436318D01*
X174660031Y-53407289D01*
X174729186Y-53417227D01*
X174736177Y-53420419D01*
X174772341Y-53445530D01*
X175924907Y-54598096D01*
X175940325Y-54616882D01*
X175954754Y-54638476D01*
X175959865Y-54647327D01*
X175959975Y-54647264D01*
X175962003Y-54650778D01*
X175962005Y-54650781D01*
X175972810Y-54669496D01*
X176027900Y-54764914D01*
X176121086Y-54858100D01*
X176235214Y-54923992D01*
X176362508Y-54958100D01*
X176362510Y-54958100D01*
X176494290Y-54958100D01*
X176494292Y-54958100D01*
X176621586Y-54923992D01*
X176735714Y-54858100D01*
X176828900Y-54764914D01*
X176894792Y-54650786D01*
X176928900Y-54523492D01*
X176928900Y-54391708D01*
X176925829Y-54380247D01*
X177299500Y-54380247D01*
X177299500Y-56419752D01*
X177311131Y-56478229D01*
X177311132Y-56478230D01*
X177311132Y-56478231D01*
X177311134Y-56478233D01*
X177355447Y-56544552D01*
X177421765Y-56588864D01*
X177421767Y-56588866D01*
X177421770Y-56588868D01*
X177472612Y-56598981D01*
X177475337Y-56599703D01*
X177480249Y-56600500D01*
X178519750Y-56600500D01*
X178523873Y-56600500D01*
X178531732Y-56598116D01*
X178551381Y-56594208D01*
X178566258Y-56591249D01*
X178572354Y-56590648D01*
X178572386Y-56590639D01*
X178583311Y-56587902D01*
X178593515Y-56578654D01*
X178644552Y-56544552D01*
X178688867Y-56478231D01*
X178688867Y-56478229D01*
X178688868Y-56478229D01*
X178691030Y-56467355D01*
X178691166Y-56467090D01*
X178691249Y-56466256D01*
X178700068Y-56421917D01*
X178700500Y-56419931D01*
X178700500Y-54382726D01*
X178700500Y-54380249D01*
X178700499Y-54380247D01*
X186249500Y-54380247D01*
X186249500Y-56419752D01*
X186261131Y-56478229D01*
X186261132Y-56478230D01*
X186261132Y-56478231D01*
X186261134Y-56478233D01*
X186305447Y-56544552D01*
X186371765Y-56588864D01*
X186371767Y-56588866D01*
X186371770Y-56588868D01*
X186422612Y-56598981D01*
X186425337Y-56599703D01*
X186430249Y-56600500D01*
X187469750Y-56600500D01*
X187473873Y-56600500D01*
X187481732Y-56598116D01*
X187501381Y-56594208D01*
X187516258Y-56591249D01*
X187522354Y-56590648D01*
X187522386Y-56590639D01*
X187533311Y-56587902D01*
X187543515Y-56578654D01*
X187594552Y-56544552D01*
X187638867Y-56478231D01*
X187638867Y-56478229D01*
X187638868Y-56478229D01*
X187641030Y-56467355D01*
X187641166Y-56467090D01*
X187641249Y-56466256D01*
X187650068Y-56421917D01*
X187650500Y-56419931D01*
X187650500Y-54382726D01*
X187650500Y-54380249D01*
X187650499Y-54380247D01*
X188849500Y-54380247D01*
X188849500Y-56419752D01*
X188861131Y-56478229D01*
X188861132Y-56478230D01*
X188861132Y-56478231D01*
X188861134Y-56478233D01*
X188905447Y-56544552D01*
X188971765Y-56588864D01*
X188971767Y-56588866D01*
X188971770Y-56588868D01*
X189022612Y-56598981D01*
X189025337Y-56599703D01*
X189030249Y-56600500D01*
X190069750Y-56600500D01*
X190073873Y-56600500D01*
X190081732Y-56598116D01*
X190101381Y-56594208D01*
X190116258Y-56591249D01*
X190122354Y-56590648D01*
X190122386Y-56590639D01*
X190133311Y-56587902D01*
X190143515Y-56578654D01*
X190194552Y-56544552D01*
X190238867Y-56478231D01*
X190238867Y-56478229D01*
X190238868Y-56478229D01*
X190241030Y-56467355D01*
X190241166Y-56467090D01*
X190241249Y-56466256D01*
X190250068Y-56421917D01*
X190250500Y-56419931D01*
X190250500Y-54382295D01*
X190250500Y-54380249D01*
X190250499Y-54380247D01*
X190238868Y-54321770D01*
X190238867Y-54321769D01*
X190194552Y-54255447D01*
X190158146Y-54231121D01*
X190138385Y-54217917D01*
X190133641Y-54214024D01*
X190128230Y-54211132D01*
X190128229Y-54211131D01*
X190069752Y-54199500D01*
X190069750Y-54199500D01*
X189030249Y-54199500D01*
X189030247Y-54199500D01*
X188971770Y-54211131D01*
X188971769Y-54211131D01*
X188971768Y-54211132D01*
X188971765Y-54211133D01*
X188971759Y-54211138D01*
X188905447Y-54255447D01*
X188861138Y-54321759D01*
X188861133Y-54321765D01*
X188861132Y-54321768D01*
X188861132Y-54321769D01*
X188861131Y-54321770D01*
X188849500Y-54380247D01*
X187650499Y-54380247D01*
X187649361Y-54374528D01*
X187649360Y-54374517D01*
X187638868Y-54321770D01*
X187635975Y-54316358D01*
X187632081Y-54311613D01*
X187630956Y-54309930D01*
X187594552Y-54255447D01*
X187558146Y-54231121D01*
X187538385Y-54217917D01*
X187533641Y-54214024D01*
X187528230Y-54211132D01*
X187528229Y-54211131D01*
X187469752Y-54199500D01*
X187469750Y-54199500D01*
X186430249Y-54199500D01*
X186430247Y-54199500D01*
X186371770Y-54211131D01*
X186371769Y-54211131D01*
X186371768Y-54211132D01*
X186371765Y-54211133D01*
X186371759Y-54211138D01*
X186305447Y-54255447D01*
X186261138Y-54321759D01*
X186261133Y-54321765D01*
X186261132Y-54321768D01*
X186261132Y-54321769D01*
X186261131Y-54321770D01*
X186249500Y-54380247D01*
X178700499Y-54380247D01*
X178699361Y-54374528D01*
X178699360Y-54374517D01*
X178688868Y-54321770D01*
X178685975Y-54316358D01*
X178682081Y-54311613D01*
X178680956Y-54309930D01*
X178644552Y-54255447D01*
X178608146Y-54231121D01*
X178588385Y-54217917D01*
X178583641Y-54214024D01*
X178578230Y-54211132D01*
X178578229Y-54211131D01*
X178519752Y-54199500D01*
X178519750Y-54199500D01*
X177480249Y-54199500D01*
X177480247Y-54199500D01*
X177421770Y-54211131D01*
X177421769Y-54211131D01*
X177421768Y-54211132D01*
X177421765Y-54211133D01*
X177421759Y-54211138D01*
X177355447Y-54255447D01*
X177311138Y-54321759D01*
X177311133Y-54321765D01*
X177311132Y-54321768D01*
X177311132Y-54321769D01*
X177311131Y-54321770D01*
X177299500Y-54380247D01*
X176925829Y-54380247D01*
X176894792Y-54264414D01*
X176889615Y-54255448D01*
X176889614Y-54255446D01*
X176889615Y-54255446D01*
X176889612Y-54255443D01*
X176864030Y-54211133D01*
X176828900Y-54150286D01*
X176735714Y-54057100D01*
X176655179Y-54010603D01*
X176621587Y-53991208D01*
X176557939Y-53974154D01*
X176494292Y-53957100D01*
X176494291Y-53957100D01*
X176362508Y-53957100D01*
X176235206Y-53991210D01*
X176232641Y-53992236D01*
X176215827Y-53997607D01*
X176197623Y-54002021D01*
X176127834Y-53998692D01*
X176127831Y-53998691D01*
X176119450Y-53995790D01*
X176072338Y-53966295D01*
X175586290Y-53480247D01*
X190799500Y-53480247D01*
X190799500Y-55519752D01*
X190811131Y-55578229D01*
X190811132Y-55578230D01*
X190811132Y-55578231D01*
X190811134Y-55578233D01*
X190855447Y-55644552D01*
X190921765Y-55688864D01*
X190921767Y-55688866D01*
X190921770Y-55688868D01*
X190972612Y-55698981D01*
X190975337Y-55699703D01*
X190980249Y-55700500D01*
X193019750Y-55700500D01*
X193023873Y-55700500D01*
X193031732Y-55698116D01*
X193051381Y-55694208D01*
X193066258Y-55691249D01*
X193072354Y-55690648D01*
X193072386Y-55690639D01*
X193083311Y-55687902D01*
X193093515Y-55678654D01*
X193144552Y-55644552D01*
X193188867Y-55578231D01*
X193188867Y-55578229D01*
X193188868Y-55578229D01*
X193191030Y-55567355D01*
X193191166Y-55567090D01*
X193191249Y-55566256D01*
X193200068Y-55521917D01*
X193200500Y-55519931D01*
X193200500Y-53482295D01*
X193200500Y-53480249D01*
X193200499Y-53480247D01*
X193188868Y-53421770D01*
X193188867Y-53421769D01*
X193144552Y-53355447D01*
X193094967Y-53322315D01*
X193088385Y-53317917D01*
X193083641Y-53314024D01*
X193078230Y-53311132D01*
X193078229Y-53311131D01*
X193019752Y-53299500D01*
X193019750Y-53299500D01*
X190980249Y-53299500D01*
X190980247Y-53299500D01*
X190921770Y-53311131D01*
X190921769Y-53311131D01*
X190921768Y-53311132D01*
X190921765Y-53311133D01*
X190921759Y-53311138D01*
X190855447Y-53355447D01*
X190811138Y-53421759D01*
X190811133Y-53421765D01*
X190811132Y-53421768D01*
X190811132Y-53421769D01*
X190811131Y-53421770D01*
X190799500Y-53480247D01*
X175586290Y-53480247D01*
X174875144Y-52769101D01*
X174875139Y-52769096D01*
X174853993Y-52740849D01*
X174847338Y-52728661D01*
X174832487Y-52660391D01*
X174856901Y-52594930D01*
X174862005Y-52588112D01*
X174899268Y-52555043D01*
X174940968Y-52530968D01*
X174957714Y-52521300D01*
X175050900Y-52428114D01*
X175116792Y-52313986D01*
X175150900Y-52186692D01*
X175150900Y-52079105D01*
X175155163Y-52046870D01*
X175155525Y-52045521D01*
X175159544Y-52031837D01*
X175160950Y-52025372D01*
X175161731Y-52022473D01*
X175178429Y-51995149D01*
X175193777Y-51967036D01*
X175274393Y-51886421D01*
X175302648Y-51865272D01*
X175325736Y-51852666D01*
X175385159Y-51837500D01*
X180346494Y-51837500D01*
X180381426Y-51842521D01*
X180406670Y-51849934D01*
X180459416Y-51881230D01*
X180540686Y-51962500D01*
X180654814Y-52028392D01*
X180782108Y-52062500D01*
X180782110Y-52062500D01*
X180913890Y-52062500D01*
X180913892Y-52062500D01*
X181041186Y-52028392D01*
X181155314Y-51962500D01*
X181248500Y-51869314D01*
X181314392Y-51755186D01*
X181348500Y-51627892D01*
X181348500Y-51496108D01*
X181314392Y-51368814D01*
X181248500Y-51254686D01*
X181155314Y-51161500D01*
X181098250Y-51128554D01*
X181041187Y-51095608D01*
X180977539Y-51078554D01*
X180913892Y-51061500D01*
X180913891Y-51061500D01*
X180782108Y-51061500D01*
X180654808Y-51095609D01*
X180654806Y-51095610D01*
X180540696Y-51161493D01*
X180540685Y-51161500D01*
X180464609Y-51237576D01*
X180436357Y-51258725D01*
X180413272Y-51271331D01*
X180353843Y-51286500D01*
X175154397Y-51286500D01*
X175153619Y-51286683D01*
X175150332Y-51288184D01*
X175053146Y-51328438D01*
X175053141Y-51328441D01*
X174810209Y-51571373D01*
X174781958Y-51592522D01*
X174758870Y-51605130D01*
X174699440Y-51620300D01*
X174584508Y-51620300D01*
X174457208Y-51654409D01*
X174457206Y-51654410D01*
X174343096Y-51720293D01*
X174343082Y-51720302D01*
X174343077Y-51720306D01*
X174249906Y-51813477D01*
X174249902Y-51813482D01*
X174218689Y-51867545D01*
X174203842Y-51886424D01*
X174196873Y-51895285D01*
X174186827Y-51904863D01*
X174124726Y-51936879D01*
X174055173Y-51930238D01*
X174055169Y-51930236D01*
X174047274Y-51927075D01*
X174005683Y-51899640D01*
X169310830Y-47204788D01*
X169289681Y-47176538D01*
X169284259Y-47166608D01*
X169280467Y-47149179D01*
X169271919Y-47133518D01*
X169273193Y-47115744D01*
X169269406Y-47098338D01*
X169275639Y-47081624D01*
X169276915Y-47063827D01*
X169287594Y-47049565D01*
X169293820Y-47032873D01*
X169308102Y-47022180D01*
X169318796Y-47007901D01*
X169349731Y-46991015D01*
X169349749Y-46991001D01*
X169353958Y-46989432D01*
X169356965Y-46988311D01*
X169400279Y-46980500D01*
X185193670Y-46980500D01*
X185228606Y-46985523D01*
X185243604Y-46989927D01*
X185302355Y-47027672D01*
X185303542Y-47029041D01*
X185331018Y-47083902D01*
X185332663Y-47091460D01*
X185335500Y-47117831D01*
X185335500Y-47349752D01*
X185347131Y-47408229D01*
X185347132Y-47408230D01*
X185347132Y-47408231D01*
X185347134Y-47408233D01*
X185391447Y-47474552D01*
X185457765Y-47518864D01*
X185457767Y-47518866D01*
X185457770Y-47518868D01*
X185508612Y-47528981D01*
X185511337Y-47529703D01*
X185516249Y-47530500D01*
X187055750Y-47530500D01*
X187059873Y-47530500D01*
X187067732Y-47528116D01*
X187087381Y-47524208D01*
X187102258Y-47521249D01*
X187108354Y-47520648D01*
X187108386Y-47520639D01*
X187119311Y-47517902D01*
X187129515Y-47508654D01*
X187180552Y-47474552D01*
X187224867Y-47408231D01*
X187224867Y-47408229D01*
X187224868Y-47408229D01*
X187227030Y-47397355D01*
X187227166Y-47397090D01*
X187227249Y-47396256D01*
X187236068Y-47351917D01*
X187236500Y-47349931D01*
X187236500Y-45812295D01*
X187236500Y-45810249D01*
X187236499Y-45810247D01*
X187224868Y-45751770D01*
X187224867Y-45751769D01*
X187180552Y-45685447D01*
X187144146Y-45661121D01*
X187124385Y-45647917D01*
X187119641Y-45644024D01*
X187114230Y-45641132D01*
X187114229Y-45641131D01*
X187055752Y-45629500D01*
X187055750Y-45629500D01*
X185516249Y-45629500D01*
X185516247Y-45629500D01*
X185457770Y-45641131D01*
X185457769Y-45641131D01*
X185457768Y-45641132D01*
X185457765Y-45641133D01*
X185457759Y-45641138D01*
X185391447Y-45685447D01*
X185347138Y-45751759D01*
X185347133Y-45751765D01*
X185347132Y-45751768D01*
X185347132Y-45751769D01*
X185347131Y-45751770D01*
X185335500Y-45810247D01*
X185335500Y-45810249D01*
X185335500Y-46037670D01*
X185335499Y-46037676D01*
X185335500Y-46037679D01*
X185330475Y-46072614D01*
X185326070Y-46087612D01*
X185288327Y-46146355D01*
X185288292Y-46146385D01*
X185288291Y-46146387D01*
X185288289Y-46146387D01*
X185286958Y-46147542D01*
X185232097Y-46175018D01*
X185224539Y-46176663D01*
X185198168Y-46179500D01*
X155856071Y-46179500D01*
X155767812Y-46203148D01*
X155732771Y-46207338D01*
X155718898Y-46207008D01*
X155652346Y-46185735D01*
X155607860Y-46131858D01*
X155607856Y-46131850D01*
X155604509Y-46124033D01*
X155594500Y-46075226D01*
X155594500Y-44133622D01*
X185335499Y-44133622D01*
X185372021Y-44317225D01*
X185372027Y-44317252D01*
X185443672Y-44490222D01*
X185443677Y-44490232D01*
X185547698Y-44645909D01*
X185547699Y-44645910D01*
X185547704Y-44645916D01*
X185680082Y-44778294D01*
X185680088Y-44778299D01*
X185680089Y-44778300D01*
X185835761Y-44882318D01*
X185835766Y-44882320D01*
X185835768Y-44882321D01*
X185835769Y-44882322D01*
X186008749Y-44953973D01*
X186180389Y-44988114D01*
X186189408Y-44989908D01*
X186191643Y-44990409D01*
X186192381Y-44990500D01*
X186379617Y-44990500D01*
X186383737Y-44990500D01*
X186391586Y-44988118D01*
X186563251Y-44953973D01*
X186736231Y-44882322D01*
X186891908Y-44778302D01*
X187024302Y-44645908D01*
X187128322Y-44490231D01*
X187199973Y-44317251D01*
X187236500Y-44133616D01*
X187236500Y-43946384D01*
X187199973Y-43762749D01*
X187128322Y-43589769D01*
X187128321Y-43589768D01*
X187128318Y-43589762D01*
X187128318Y-43589761D01*
X187024300Y-43434089D01*
X187024299Y-43434088D01*
X187024294Y-43434082D01*
X186891916Y-43301704D01*
X186891910Y-43301699D01*
X186891909Y-43301698D01*
X186736231Y-43197677D01*
X186736232Y-43197677D01*
X186736222Y-43197672D01*
X186563252Y-43126027D01*
X186563225Y-43126021D01*
X186379622Y-43089500D01*
X186379620Y-43089500D01*
X186379616Y-43089500D01*
X186192384Y-43089500D01*
X186192379Y-43089500D01*
X186192377Y-43089500D01*
X186008773Y-43126021D01*
X186008746Y-43126027D01*
X185835776Y-43197672D01*
X185835766Y-43197677D01*
X185680089Y-43301698D01*
X185680088Y-43301699D01*
X185680082Y-43301704D01*
X185547704Y-43434082D01*
X185547699Y-43434088D01*
X185547698Y-43434089D01*
X185443677Y-43589766D01*
X185443672Y-43589776D01*
X185372027Y-43762746D01*
X185372021Y-43762773D01*
X185335500Y-43946376D01*
X185335500Y-43946379D01*
X185335500Y-44133620D01*
X185335500Y-44133622D01*
X185335499Y-44133622D01*
X155594500Y-44133622D01*
X155594500Y-41593622D01*
X185335499Y-41593622D01*
X185372021Y-41777225D01*
X185372027Y-41777252D01*
X185443672Y-41950222D01*
X185443677Y-41950232D01*
X185547698Y-42105909D01*
X185547699Y-42105910D01*
X185547704Y-42105916D01*
X185680082Y-42238294D01*
X185680088Y-42238299D01*
X185680089Y-42238300D01*
X185835761Y-42342318D01*
X185835766Y-42342320D01*
X185835768Y-42342321D01*
X185835769Y-42342322D01*
X186008749Y-42413973D01*
X186180389Y-42448114D01*
X186189408Y-42449908D01*
X186191643Y-42450409D01*
X186192381Y-42450500D01*
X186379617Y-42450500D01*
X186383737Y-42450500D01*
X186391586Y-42448118D01*
X186563251Y-42413973D01*
X186736231Y-42342322D01*
X186891908Y-42238302D01*
X187024302Y-42105908D01*
X187128322Y-41950231D01*
X187199973Y-41777251D01*
X187236500Y-41593616D01*
X187236500Y-41406384D01*
X187199973Y-41222749D01*
X187128322Y-41049769D01*
X187128321Y-41049768D01*
X187128318Y-41049762D01*
X187128318Y-41049761D01*
X187024300Y-40894089D01*
X187024299Y-40894088D01*
X187024294Y-40894082D01*
X186891916Y-40761704D01*
X186891910Y-40761699D01*
X186891909Y-40761698D01*
X186736231Y-40657677D01*
X186736232Y-40657677D01*
X186736222Y-40657672D01*
X186563252Y-40586027D01*
X186563225Y-40586021D01*
X186379622Y-40549500D01*
X186379620Y-40549500D01*
X186379616Y-40549500D01*
X186192384Y-40549500D01*
X186192379Y-40549500D01*
X186192377Y-40549500D01*
X186008773Y-40586021D01*
X186008746Y-40586027D01*
X185835776Y-40657672D01*
X185835766Y-40657677D01*
X185680089Y-40761698D01*
X185680088Y-40761699D01*
X185680082Y-40761704D01*
X185547704Y-40894082D01*
X185547699Y-40894088D01*
X185547698Y-40894089D01*
X185443677Y-41049766D01*
X185443672Y-41049776D01*
X185372027Y-41222746D01*
X185372021Y-41222773D01*
X185335500Y-41406376D01*
X185335500Y-41406379D01*
X185335500Y-41593620D01*
X185335500Y-41593622D01*
X185335499Y-41593622D01*
X155594500Y-41593622D01*
X155594500Y-39605083D01*
X155599522Y-39570150D01*
X155606934Y-39544905D01*
X155638228Y-39492163D01*
X156126892Y-39003500D01*
X156890172Y-38240218D01*
X156951495Y-38206734D01*
X156977853Y-38203900D01*
X160046100Y-38203900D01*
X160113139Y-38223585D01*
X160158894Y-38276389D01*
X160170100Y-38327900D01*
X160170100Y-38433207D01*
X160174797Y-38476886D01*
X160185997Y-38528374D01*
X160188490Y-38538572D01*
X160188491Y-38538575D01*
X160231499Y-38619283D01*
X160231501Y-38619286D01*
X160277260Y-38672095D01*
X160294842Y-38690039D01*
X160294846Y-38690043D01*
X160294847Y-38690044D01*
X160294849Y-38690045D01*
X160374659Y-38734688D01*
X160374663Y-38734690D01*
X160441702Y-38754375D01*
X160499600Y-38762700D01*
X162385191Y-38762700D01*
X162385200Y-38762700D01*
X162428884Y-38758003D01*
X162458075Y-38751652D01*
X162480374Y-38746802D01*
X162480390Y-38746798D01*
X162480395Y-38746797D01*
X162490573Y-38744310D01*
X162571285Y-38701300D01*
X162624089Y-38655545D01*
X162642043Y-38637954D01*
X162686690Y-38558137D01*
X162706375Y-38491098D01*
X162714700Y-38433200D01*
X162714700Y-37157742D01*
X162713882Y-37150207D01*
X162709909Y-37113630D01*
X162709908Y-37113627D01*
X162709908Y-37113623D01*
X162698477Y-37061620D01*
X162695848Y-37051012D01*
X162652487Y-36970489D01*
X162652483Y-36970484D01*
X162606522Y-36917907D01*
X162606519Y-36917904D01*
X162606515Y-36917900D01*
X162606502Y-36917885D01*
X162588831Y-36900007D01*
X162588828Y-36900005D01*
X162508821Y-36855709D01*
X162508811Y-36855705D01*
X162441704Y-36836318D01*
X162441690Y-36836315D01*
X162383765Y-36828245D01*
X162383763Y-36828245D01*
X162262372Y-36828774D01*
X159213215Y-36842071D01*
X159146090Y-36822679D01*
X159100105Y-36770075D01*
X159093566Y-36752558D01*
X159092966Y-36750487D01*
X159086298Y-36727455D01*
X159078496Y-36705326D01*
X159025321Y-36630917D01*
X159019266Y-36625543D01*
X159014758Y-36621541D01*
X158973066Y-36584536D01*
X158953278Y-36569029D01*
X158953276Y-36569028D01*
X158868321Y-36535183D01*
X158868313Y-36535181D01*
X158799276Y-36524415D01*
X158799174Y-36524407D01*
X158799141Y-36524394D01*
X158794906Y-36523734D01*
X158794958Y-36523399D01*
X158756700Y-36523399D01*
X158374358Y-36523399D01*
X158363351Y-36520958D01*
X158355733Y-36521992D01*
X158321949Y-36511779D01*
X158308783Y-36505639D01*
X158283508Y-36489909D01*
X158273696Y-36482022D01*
X158273694Y-36482021D01*
X158273692Y-36482019D01*
X158202343Y-36444870D01*
X158202341Y-36444869D01*
X158135255Y-36425356D01*
X158077340Y-36417181D01*
X158077339Y-36417181D01*
X158077338Y-36417181D01*
X157828974Y-36417815D01*
X156587151Y-36420985D01*
X156543743Y-36425736D01*
X156543739Y-36425736D01*
X156492539Y-36436944D01*
X156482628Y-36439373D01*
X156482623Y-36439375D01*
X156401919Y-36482381D01*
X156401913Y-36482385D01*
X156349104Y-36528144D01*
X156331160Y-36545726D01*
X156331154Y-36545733D01*
X156286511Y-36625543D01*
X156286509Y-36625548D01*
X156266826Y-36692580D01*
X156266825Y-36692585D01*
X156266825Y-36692586D01*
X156261812Y-36727455D01*
X156258500Y-36750487D01*
X156258500Y-37687743D01*
X156238815Y-37754782D01*
X156222181Y-37775424D01*
X154873526Y-39124078D01*
X154873521Y-39124084D01*
X154873511Y-39124100D01*
X154815353Y-39224831D01*
X154814409Y-39239237D01*
X154793500Y-39317271D01*
X154793500Y-40778315D01*
X154788476Y-40813253D01*
X154785289Y-40824106D01*
X154747514Y-40882883D01*
X154683957Y-40911906D01*
X154614807Y-40901965D01*
X154607829Y-40898778D01*
X154571657Y-40873664D01*
X151980515Y-38282522D01*
X151980513Y-38282520D01*
X151980510Y-38282518D01*
X151980506Y-38282515D01*
X151911860Y-38242882D01*
X151911857Y-38242881D01*
X151889190Y-38229793D01*
X151863723Y-38222969D01*
X151838257Y-38216146D01*
X151838256Y-38216145D01*
X151787330Y-38202500D01*
X151787327Y-38202500D01*
X151787326Y-38202500D01*
X147227330Y-38202500D01*
X147227325Y-38202499D01*
X147227323Y-38202500D01*
X147192389Y-38197475D01*
X147177390Y-38193070D01*
X147118644Y-38155327D01*
X147118615Y-38155293D01*
X147118614Y-38155293D01*
X147118613Y-38155291D01*
X147117457Y-38153958D01*
X147089977Y-38099083D01*
X147088332Y-38091521D01*
X147085500Y-38065168D01*
X147085500Y-37498728D01*
X147083188Y-37474079D01*
X147083020Y-37470501D01*
X147082645Y-37468297D01*
X147045940Y-37363400D01*
X147037793Y-37340118D01*
X146957150Y-37230850D01*
X146847882Y-37150207D01*
X146847880Y-37150206D01*
X146719704Y-37105354D01*
X146719702Y-37105353D01*
X146719700Y-37105353D01*
X146689270Y-37102500D01*
X146689266Y-37102500D01*
X146689264Y-37102500D01*
X144480734Y-37102500D01*
X144480730Y-37102500D01*
X144462074Y-37104249D01*
X144456069Y-37104812D01*
X144452499Y-37104978D01*
X144450297Y-37105353D01*
X144322118Y-37150206D01*
X144212849Y-37230849D01*
X144132206Y-37340118D01*
X144087353Y-37468297D01*
X144086978Y-37470499D01*
X144086877Y-37472664D01*
X144086901Y-37473070D01*
X144086850Y-37473655D01*
X144084500Y-37498730D01*
X138222500Y-37498730D01*
X138222500Y-35737662D01*
X138227522Y-35702729D01*
X138234934Y-35677484D01*
X138266228Y-35624742D01*
X138997547Y-34893423D01*
X139025797Y-34872275D01*
X139048889Y-34859667D01*
X139108314Y-34844500D01*
X194132337Y-34844500D01*
X194167269Y-34849521D01*
G37*
%TD.AperFunction*%
%TD*%
%TA.AperFunction,Conductor*%
%TO.N,+3.3V_USB*%
G36*
X157141779Y-74859165D02*
G01*
X157208702Y-74879236D01*
X157254151Y-74932302D01*
X157265057Y-74982059D01*
X157301917Y-79122896D01*
X157282830Y-79190108D01*
X157230435Y-79236331D01*
X157177922Y-79248000D01*
X154959018Y-79248000D01*
X154891979Y-79228315D01*
X154846224Y-79175511D01*
X154835020Y-79123285D01*
X154858956Y-74970010D01*
X154879027Y-74903085D01*
X154932093Y-74857636D01*
X154983665Y-74846727D01*
X157141779Y-74859165D01*
G37*
%TD.AperFunction*%
%TD*%
%TA.AperFunction,Conductor*%
%TO.N,+3.3V_USB*%
G36*
X158144950Y-36642193D02*
G01*
X158165858Y-36658998D01*
X158178484Y-36671624D01*
X158287313Y-36722372D01*
X158336899Y-36728900D01*
X158756700Y-36728899D01*
X158767616Y-36727462D01*
X158836651Y-36738228D01*
X158888906Y-36784609D01*
X158907799Y-36849860D01*
X158908667Y-37048901D01*
X158908668Y-37048902D01*
X162384659Y-37033743D01*
X162451784Y-37053135D01*
X162497769Y-37105739D01*
X162509200Y-37157742D01*
X162509200Y-38433200D01*
X162489515Y-38500239D01*
X162436711Y-38545994D01*
X162385200Y-38557200D01*
X160499600Y-38557200D01*
X160432561Y-38537515D01*
X160386806Y-38484711D01*
X160375600Y-38433200D01*
X160375600Y-37998400D01*
X156588000Y-37998400D01*
X156520961Y-37978715D01*
X156475206Y-37925911D01*
X156464000Y-37874400D01*
X156464000Y-36750484D01*
X156483685Y-36683445D01*
X156536489Y-36637690D01*
X156587681Y-36626484D01*
X158077863Y-36622680D01*
X158144950Y-36642193D01*
G37*
%TD.AperFunction*%
%TD*%
M02*
