%TF.GenerationSoftware,KiCad,Pcbnew,10.0.1*%
%TF.CreationDate,2026-05-25T23:06:50-07:00*%
%TF.ProjectId,HerbUnitPCB,48657262-556e-4697-9450-43422e6b6963,rev?*%
%TF.SameCoordinates,Original*%
%TF.FileFunction,Legend,Bot*%
%TF.FilePolarity,Positive*%
%FSLAX46Y46*%
G04 Gerber Fmt 4.6, Leading zero omitted, Abs format (unit mm)*
G04 Created by KiCad (PCBNEW 10.0.1) date 2026-05-25 23:06:50*
%MOMM*%
%LPD*%
G01*
G04 APERTURE LIST*
%ADD10C,0.300000*%
%ADD11C,0.150000*%
%ADD12C,0.120000*%
%ADD13C,0.000000*%
G04 APERTURE END LIST*
D10*
X164524600Y-59715882D02*
X164596028Y-59930168D01*
X164596028Y-59930168D02*
X164596028Y-60287310D01*
X164596028Y-60287310D02*
X164524600Y-60430168D01*
X164524600Y-60430168D02*
X164453171Y-60501596D01*
X164453171Y-60501596D02*
X164310314Y-60573025D01*
X164310314Y-60573025D02*
X164167457Y-60573025D01*
X164167457Y-60573025D02*
X164024600Y-60501596D01*
X164024600Y-60501596D02*
X163953171Y-60430168D01*
X163953171Y-60430168D02*
X163881742Y-60287310D01*
X163881742Y-60287310D02*
X163810314Y-60001596D01*
X163810314Y-60001596D02*
X163738885Y-59858739D01*
X163738885Y-59858739D02*
X163667457Y-59787310D01*
X163667457Y-59787310D02*
X163524600Y-59715882D01*
X163524600Y-59715882D02*
X163381742Y-59715882D01*
X163381742Y-59715882D02*
X163238885Y-59787310D01*
X163238885Y-59787310D02*
X163167457Y-59858739D01*
X163167457Y-59858739D02*
X163096028Y-60001596D01*
X163096028Y-60001596D02*
X163096028Y-60358739D01*
X163096028Y-60358739D02*
X163167457Y-60573025D01*
X164596028Y-61215881D02*
X163096028Y-61215881D01*
X163096028Y-61215881D02*
X163096028Y-61573024D01*
X163096028Y-61573024D02*
X163167457Y-61787310D01*
X163167457Y-61787310D02*
X163310314Y-61930167D01*
X163310314Y-61930167D02*
X163453171Y-62001596D01*
X163453171Y-62001596D02*
X163738885Y-62073024D01*
X163738885Y-62073024D02*
X163953171Y-62073024D01*
X163953171Y-62073024D02*
X164238885Y-62001596D01*
X164238885Y-62001596D02*
X164381742Y-61930167D01*
X164381742Y-61930167D02*
X164524600Y-61787310D01*
X164524600Y-61787310D02*
X164596028Y-61573024D01*
X164596028Y-61573024D02*
X164596028Y-61215881D01*
X164453171Y-64715881D02*
X164524600Y-64644453D01*
X164524600Y-64644453D02*
X164596028Y-64430167D01*
X164596028Y-64430167D02*
X164596028Y-64287310D01*
X164596028Y-64287310D02*
X164524600Y-64073024D01*
X164524600Y-64073024D02*
X164381742Y-63930167D01*
X164381742Y-63930167D02*
X164238885Y-63858738D01*
X164238885Y-63858738D02*
X163953171Y-63787310D01*
X163953171Y-63787310D02*
X163738885Y-63787310D01*
X163738885Y-63787310D02*
X163453171Y-63858738D01*
X163453171Y-63858738D02*
X163310314Y-63930167D01*
X163310314Y-63930167D02*
X163167457Y-64073024D01*
X163167457Y-64073024D02*
X163096028Y-64287310D01*
X163096028Y-64287310D02*
X163096028Y-64430167D01*
X163096028Y-64430167D02*
X163167457Y-64644453D01*
X163167457Y-64644453D02*
X163238885Y-64715881D01*
X164596028Y-66001596D02*
X163810314Y-66001596D01*
X163810314Y-66001596D02*
X163667457Y-65930167D01*
X163667457Y-65930167D02*
X163596028Y-65787310D01*
X163596028Y-65787310D02*
X163596028Y-65501596D01*
X163596028Y-65501596D02*
X163667457Y-65358738D01*
X164524600Y-66001596D02*
X164596028Y-65858738D01*
X164596028Y-65858738D02*
X164596028Y-65501596D01*
X164596028Y-65501596D02*
X164524600Y-65358738D01*
X164524600Y-65358738D02*
X164381742Y-65287310D01*
X164381742Y-65287310D02*
X164238885Y-65287310D01*
X164238885Y-65287310D02*
X164096028Y-65358738D01*
X164096028Y-65358738D02*
X164024600Y-65501596D01*
X164024600Y-65501596D02*
X164024600Y-65858738D01*
X164024600Y-65858738D02*
X163953171Y-66001596D01*
X164596028Y-66715881D02*
X163596028Y-66715881D01*
X163881742Y-66715881D02*
X163738885Y-66787310D01*
X163738885Y-66787310D02*
X163667457Y-66858739D01*
X163667457Y-66858739D02*
X163596028Y-67001596D01*
X163596028Y-67001596D02*
X163596028Y-67144453D01*
X164596028Y-68287310D02*
X163096028Y-68287310D01*
X164524600Y-68287310D02*
X164596028Y-68144452D01*
X164596028Y-68144452D02*
X164596028Y-67858738D01*
X164596028Y-67858738D02*
X164524600Y-67715881D01*
X164524600Y-67715881D02*
X164453171Y-67644452D01*
X164453171Y-67644452D02*
X164310314Y-67573024D01*
X164310314Y-67573024D02*
X163881742Y-67573024D01*
X163881742Y-67573024D02*
X163738885Y-67644452D01*
X163738885Y-67644452D02*
X163667457Y-67715881D01*
X163667457Y-67715881D02*
X163596028Y-67858738D01*
X163596028Y-67858738D02*
X163596028Y-68144452D01*
X163596028Y-68144452D02*
X163667457Y-68287310D01*
X164596028Y-71001595D02*
X163881742Y-70501595D01*
X164596028Y-70144452D02*
X163096028Y-70144452D01*
X163096028Y-70144452D02*
X163096028Y-70715881D01*
X163096028Y-70715881D02*
X163167457Y-70858738D01*
X163167457Y-70858738D02*
X163238885Y-70930167D01*
X163238885Y-70930167D02*
X163381742Y-71001595D01*
X163381742Y-71001595D02*
X163596028Y-71001595D01*
X163596028Y-71001595D02*
X163738885Y-70930167D01*
X163738885Y-70930167D02*
X163810314Y-70858738D01*
X163810314Y-70858738D02*
X163881742Y-70715881D01*
X163881742Y-70715881D02*
X163881742Y-70144452D01*
X164524600Y-72215881D02*
X164596028Y-72073024D01*
X164596028Y-72073024D02*
X164596028Y-71787310D01*
X164596028Y-71787310D02*
X164524600Y-71644452D01*
X164524600Y-71644452D02*
X164381742Y-71573024D01*
X164381742Y-71573024D02*
X163810314Y-71573024D01*
X163810314Y-71573024D02*
X163667457Y-71644452D01*
X163667457Y-71644452D02*
X163596028Y-71787310D01*
X163596028Y-71787310D02*
X163596028Y-72073024D01*
X163596028Y-72073024D02*
X163667457Y-72215881D01*
X163667457Y-72215881D02*
X163810314Y-72287310D01*
X163810314Y-72287310D02*
X163953171Y-72287310D01*
X163953171Y-72287310D02*
X164096028Y-71573024D01*
X164596028Y-73573024D02*
X163810314Y-73573024D01*
X163810314Y-73573024D02*
X163667457Y-73501595D01*
X163667457Y-73501595D02*
X163596028Y-73358738D01*
X163596028Y-73358738D02*
X163596028Y-73073024D01*
X163596028Y-73073024D02*
X163667457Y-72930166D01*
X164524600Y-73573024D02*
X164596028Y-73430166D01*
X164596028Y-73430166D02*
X164596028Y-73073024D01*
X164596028Y-73073024D02*
X164524600Y-72930166D01*
X164524600Y-72930166D02*
X164381742Y-72858738D01*
X164381742Y-72858738D02*
X164238885Y-72858738D01*
X164238885Y-72858738D02*
X164096028Y-72930166D01*
X164096028Y-72930166D02*
X164024600Y-73073024D01*
X164024600Y-73073024D02*
X164024600Y-73430166D01*
X164024600Y-73430166D02*
X163953171Y-73573024D01*
X164596028Y-74930167D02*
X163096028Y-74930167D01*
X164524600Y-74930167D02*
X164596028Y-74787309D01*
X164596028Y-74787309D02*
X164596028Y-74501595D01*
X164596028Y-74501595D02*
X164524600Y-74358738D01*
X164524600Y-74358738D02*
X164453171Y-74287309D01*
X164453171Y-74287309D02*
X164310314Y-74215881D01*
X164310314Y-74215881D02*
X163881742Y-74215881D01*
X163881742Y-74215881D02*
X163738885Y-74287309D01*
X163738885Y-74287309D02*
X163667457Y-74358738D01*
X163667457Y-74358738D02*
X163596028Y-74501595D01*
X163596028Y-74501595D02*
X163596028Y-74787309D01*
X163596028Y-74787309D02*
X163667457Y-74930167D01*
X164524600Y-76215881D02*
X164596028Y-76073024D01*
X164596028Y-76073024D02*
X164596028Y-75787310D01*
X164596028Y-75787310D02*
X164524600Y-75644452D01*
X164524600Y-75644452D02*
X164381742Y-75573024D01*
X164381742Y-75573024D02*
X163810314Y-75573024D01*
X163810314Y-75573024D02*
X163667457Y-75644452D01*
X163667457Y-75644452D02*
X163596028Y-75787310D01*
X163596028Y-75787310D02*
X163596028Y-76073024D01*
X163596028Y-76073024D02*
X163667457Y-76215881D01*
X163667457Y-76215881D02*
X163810314Y-76287310D01*
X163810314Y-76287310D02*
X163953171Y-76287310D01*
X163953171Y-76287310D02*
X164096028Y-75573024D01*
X164596028Y-76930166D02*
X163596028Y-76930166D01*
X163881742Y-76930166D02*
X163738885Y-77001595D01*
X163738885Y-77001595D02*
X163667457Y-77073024D01*
X163667457Y-77073024D02*
X163596028Y-77215881D01*
X163596028Y-77215881D02*
X163596028Y-77358738D01*
D11*
X155344019Y-54800833D02*
X154867828Y-54467500D01*
X155344019Y-54229405D02*
X154344019Y-54229405D01*
X154344019Y-54229405D02*
X154344019Y-54610357D01*
X154344019Y-54610357D02*
X154391638Y-54705595D01*
X154391638Y-54705595D02*
X154439257Y-54753214D01*
X154439257Y-54753214D02*
X154534495Y-54800833D01*
X154534495Y-54800833D02*
X154677352Y-54800833D01*
X154677352Y-54800833D02*
X154772590Y-54753214D01*
X154772590Y-54753214D02*
X154820209Y-54705595D01*
X154820209Y-54705595D02*
X154867828Y-54610357D01*
X154867828Y-54610357D02*
X154867828Y-54229405D01*
X155344019Y-55277024D02*
X155344019Y-55467500D01*
X155344019Y-55467500D02*
X155296400Y-55562738D01*
X155296400Y-55562738D02*
X155248780Y-55610357D01*
X155248780Y-55610357D02*
X155105923Y-55705595D01*
X155105923Y-55705595D02*
X154915447Y-55753214D01*
X154915447Y-55753214D02*
X154534495Y-55753214D01*
X154534495Y-55753214D02*
X154439257Y-55705595D01*
X154439257Y-55705595D02*
X154391638Y-55657976D01*
X154391638Y-55657976D02*
X154344019Y-55562738D01*
X154344019Y-55562738D02*
X154344019Y-55372262D01*
X154344019Y-55372262D02*
X154391638Y-55277024D01*
X154391638Y-55277024D02*
X154439257Y-55229405D01*
X154439257Y-55229405D02*
X154534495Y-55181786D01*
X154534495Y-55181786D02*
X154772590Y-55181786D01*
X154772590Y-55181786D02*
X154867828Y-55229405D01*
X154867828Y-55229405D02*
X154915447Y-55277024D01*
X154915447Y-55277024D02*
X154963066Y-55372262D01*
X154963066Y-55372262D02*
X154963066Y-55562738D01*
X154963066Y-55562738D02*
X154915447Y-55657976D01*
X154915447Y-55657976D02*
X154867828Y-55705595D01*
X154867828Y-55705595D02*
X154772590Y-55753214D01*
X181892533Y-52540819D02*
X181892533Y-53255104D01*
X181892533Y-53255104D02*
X181940152Y-53397961D01*
X181940152Y-53397961D02*
X182035390Y-53493200D01*
X182035390Y-53493200D02*
X182178247Y-53540819D01*
X182178247Y-53540819D02*
X182273485Y-53540819D01*
X180987771Y-52874152D02*
X180987771Y-53540819D01*
X181225866Y-52493200D02*
X181463961Y-53207485D01*
X181463961Y-53207485D02*
X180844914Y-53207485D01*
X163479180Y-36663333D02*
X163526800Y-36615714D01*
X163526800Y-36615714D02*
X163574419Y-36472857D01*
X163574419Y-36472857D02*
X163574419Y-36377619D01*
X163574419Y-36377619D02*
X163526800Y-36234762D01*
X163526800Y-36234762D02*
X163431561Y-36139524D01*
X163431561Y-36139524D02*
X163336323Y-36091905D01*
X163336323Y-36091905D02*
X163145847Y-36044286D01*
X163145847Y-36044286D02*
X163002990Y-36044286D01*
X163002990Y-36044286D02*
X162812514Y-36091905D01*
X162812514Y-36091905D02*
X162717276Y-36139524D01*
X162717276Y-36139524D02*
X162622038Y-36234762D01*
X162622038Y-36234762D02*
X162574419Y-36377619D01*
X162574419Y-36377619D02*
X162574419Y-36472857D01*
X162574419Y-36472857D02*
X162622038Y-36615714D01*
X162622038Y-36615714D02*
X162669657Y-36663333D01*
X163574419Y-37615714D02*
X163574419Y-37044286D01*
X163574419Y-37330000D02*
X162574419Y-37330000D01*
X162574419Y-37330000D02*
X162717276Y-37234762D01*
X162717276Y-37234762D02*
X162812514Y-37139524D01*
X162812514Y-37139524D02*
X162860133Y-37044286D01*
X160176380Y-36663333D02*
X160224000Y-36615714D01*
X160224000Y-36615714D02*
X160271619Y-36472857D01*
X160271619Y-36472857D02*
X160271619Y-36377619D01*
X160271619Y-36377619D02*
X160224000Y-36234762D01*
X160224000Y-36234762D02*
X160128761Y-36139524D01*
X160128761Y-36139524D02*
X160033523Y-36091905D01*
X160033523Y-36091905D02*
X159843047Y-36044286D01*
X159843047Y-36044286D02*
X159700190Y-36044286D01*
X159700190Y-36044286D02*
X159509714Y-36091905D01*
X159509714Y-36091905D02*
X159414476Y-36139524D01*
X159414476Y-36139524D02*
X159319238Y-36234762D01*
X159319238Y-36234762D02*
X159271619Y-36377619D01*
X159271619Y-36377619D02*
X159271619Y-36472857D01*
X159271619Y-36472857D02*
X159319238Y-36615714D01*
X159319238Y-36615714D02*
X159366857Y-36663333D01*
X159366857Y-37044286D02*
X159319238Y-37091905D01*
X159319238Y-37091905D02*
X159271619Y-37187143D01*
X159271619Y-37187143D02*
X159271619Y-37425238D01*
X159271619Y-37425238D02*
X159319238Y-37520476D01*
X159319238Y-37520476D02*
X159366857Y-37568095D01*
X159366857Y-37568095D02*
X159462095Y-37615714D01*
X159462095Y-37615714D02*
X159557333Y-37615714D01*
X159557333Y-37615714D02*
X159700190Y-37568095D01*
X159700190Y-37568095D02*
X160271619Y-36996667D01*
X160271619Y-36996667D02*
X160271619Y-37615714D01*
X151804819Y-44357142D02*
X151328628Y-44023809D01*
X151804819Y-43785714D02*
X150804819Y-43785714D01*
X150804819Y-43785714D02*
X150804819Y-44166666D01*
X150804819Y-44166666D02*
X150852438Y-44261904D01*
X150852438Y-44261904D02*
X150900057Y-44309523D01*
X150900057Y-44309523D02*
X150995295Y-44357142D01*
X150995295Y-44357142D02*
X151138152Y-44357142D01*
X151138152Y-44357142D02*
X151233390Y-44309523D01*
X151233390Y-44309523D02*
X151281009Y-44261904D01*
X151281009Y-44261904D02*
X151328628Y-44166666D01*
X151328628Y-44166666D02*
X151328628Y-43785714D01*
X151804819Y-45309523D02*
X151804819Y-44738095D01*
X151804819Y-45023809D02*
X150804819Y-45023809D01*
X150804819Y-45023809D02*
X150947676Y-44928571D01*
X150947676Y-44928571D02*
X151042914Y-44833333D01*
X151042914Y-44833333D02*
X151090533Y-44738095D01*
X151138152Y-46166666D02*
X151804819Y-46166666D01*
X150757200Y-45928571D02*
X151471485Y-45690476D01*
X151471485Y-45690476D02*
X151471485Y-46309523D01*
%TO.C,R9*%
D12*
X152418500Y-54740436D02*
X152418500Y-55194564D01*
X153888500Y-54740436D02*
X153888500Y-55194564D01*
D13*
%TO.C,G\u002A\u002A\u002A*%
G36*
X172422339Y-42424456D02*
G01*
X172422339Y-45864379D01*
X171476768Y-45864379D01*
X170531197Y-45864379D01*
X170531197Y-42424456D01*
X170531197Y-38984533D01*
X171476768Y-38984533D01*
X172422339Y-38984533D01*
X172422339Y-42424456D01*
G37*
G36*
X156059829Y-52168213D02*
G01*
X156122719Y-52177208D01*
X156208492Y-52195526D01*
X156252109Y-52213512D01*
X156258469Y-52223726D01*
X156279167Y-52286077D01*
X156298229Y-52377408D01*
X156306526Y-52434741D01*
X156304109Y-52489781D01*
X156273339Y-52513918D01*
X156202281Y-52513560D01*
X156079000Y-52495116D01*
X156006447Y-52477814D01*
X155955818Y-52438137D01*
X155924304Y-52356899D01*
X155911433Y-52309714D01*
X155892811Y-52218074D01*
X155905499Y-52172070D01*
X155958254Y-52159513D01*
X156059829Y-52168213D01*
G37*
G36*
X171670957Y-48370028D02*
G01*
X171761851Y-48378722D01*
X171839978Y-48394247D01*
X171850623Y-48400540D01*
X171887631Y-48453593D01*
X171925131Y-48539884D01*
X171954185Y-48636300D01*
X171965856Y-48719732D01*
X171959613Y-48724239D01*
X171909276Y-48727153D01*
X171826570Y-48722206D01*
X171733446Y-48711643D01*
X171651856Y-48697713D01*
X171603750Y-48682663D01*
X171598363Y-48676769D01*
X171577517Y-48623694D01*
X171558333Y-48538363D01*
X171553844Y-48511931D01*
X171539482Y-48429314D01*
X171531042Y-48383771D01*
X171538078Y-48376091D01*
X171589099Y-48368905D01*
X171670957Y-48370028D01*
G37*
G36*
X156901928Y-42424456D02*
G01*
X156901928Y-45864379D01*
X154277153Y-45864379D01*
X151652378Y-45864379D01*
X151652378Y-45195958D01*
X151652378Y-44527537D01*
X153315279Y-44527537D01*
X154978180Y-44527537D01*
X154978180Y-43810529D01*
X154978180Y-43093522D01*
X153453854Y-43085048D01*
X151929528Y-43076574D01*
X151929528Y-42408153D01*
X151929528Y-41739732D01*
X153453854Y-41731258D01*
X154978180Y-41722784D01*
X154978180Y-41022079D01*
X154978180Y-40321375D01*
X153315279Y-40321375D01*
X151652378Y-40321375D01*
X151652378Y-39652954D01*
X151652378Y-38984533D01*
X154277153Y-38984533D01*
X156901928Y-38984533D01*
X156901928Y-42424456D01*
G37*
G36*
X163227474Y-42424456D02*
G01*
X163227474Y-45864379D01*
X160602698Y-45864379D01*
X157977923Y-45864379D01*
X157977923Y-45195958D01*
X157977923Y-44527537D01*
X159640824Y-44527537D01*
X161303725Y-44527537D01*
X161303725Y-43810207D01*
X161303725Y-43092877D01*
X159771248Y-43092877D01*
X158238770Y-43092877D01*
X158238770Y-42408153D01*
X158238770Y-41723429D01*
X159771248Y-41723429D01*
X161303725Y-41723429D01*
X161303725Y-41022402D01*
X161303725Y-40321375D01*
X159640824Y-40321375D01*
X157977923Y-40321375D01*
X157977923Y-39652954D01*
X157977923Y-38984533D01*
X160602698Y-38984533D01*
X163227474Y-38984533D01*
X163227474Y-42424456D01*
G37*
G36*
X169520413Y-42424456D02*
G01*
X169520413Y-45864379D01*
X166895638Y-45864379D01*
X164270863Y-45864379D01*
X164270863Y-45195958D01*
X164270863Y-44527537D01*
X165933764Y-44527537D01*
X167596665Y-44527537D01*
X167596665Y-43810529D01*
X167596665Y-43093522D01*
X166072339Y-43085048D01*
X164548013Y-43076574D01*
X164548013Y-42408153D01*
X164548013Y-41739732D01*
X166072339Y-41731258D01*
X167596665Y-41722784D01*
X167596665Y-41022079D01*
X167596665Y-40321375D01*
X165933764Y-40321375D01*
X164270863Y-40321375D01*
X164270863Y-39652954D01*
X164270863Y-38984533D01*
X166895638Y-38984533D01*
X169520413Y-38984533D01*
X169520413Y-42424456D01*
G37*
G36*
X156743840Y-48285680D02*
G01*
X156842325Y-48298964D01*
X157016049Y-48326497D01*
X157074121Y-48636067D01*
X157082191Y-48678429D01*
X157112593Y-48832453D01*
X157152884Y-49031311D01*
X157200217Y-49261408D01*
X157251740Y-49509150D01*
X157304605Y-49760943D01*
X157355963Y-50003191D01*
X157402964Y-50222301D01*
X157442758Y-50404677D01*
X157472497Y-50536726D01*
X157516381Y-50725762D01*
X157336228Y-50716059D01*
X157156075Y-50706356D01*
X156999249Y-49940117D01*
X156983670Y-49864200D01*
X156931337Y-49611634D01*
X156877596Y-49355510D01*
X156826022Y-49112696D01*
X156780191Y-48900065D01*
X156743681Y-48734487D01*
X156732256Y-48683209D01*
X156699255Y-48529401D01*
X156674153Y-48403577D01*
X156659231Y-48317582D01*
X156656770Y-48283264D01*
X156675602Y-48280842D01*
X156743840Y-48285680D01*
G37*
G36*
X156189650Y-52898066D02*
G01*
X156278816Y-52911463D01*
X156363083Y-52937869D01*
X156415387Y-52986474D01*
X156448919Y-53071467D01*
X156476870Y-53207037D01*
X156485840Y-53254894D01*
X156514394Y-53395111D01*
X156552558Y-53572448D01*
X156596442Y-53769022D01*
X156642156Y-53966946D01*
X156670994Y-54091156D01*
X156706942Y-54251543D01*
X156734463Y-54381236D01*
X156751269Y-54469337D01*
X156755072Y-54504944D01*
X156736185Y-54510559D01*
X156667520Y-54513649D01*
X156567862Y-54510375D01*
X156390503Y-54499504D01*
X156351002Y-54282134D01*
X156331421Y-54180247D01*
X156302208Y-54035626D01*
X156266242Y-53861821D01*
X156226356Y-53672128D01*
X156185383Y-53479843D01*
X156146156Y-53298262D01*
X156111509Y-53140680D01*
X156084275Y-53020394D01*
X156067286Y-52950698D01*
X156061915Y-52928882D01*
X156065089Y-52897556D01*
X156102670Y-52889433D01*
X156189650Y-52898066D01*
G37*
G36*
X176817689Y-46214892D02*
G01*
X176818406Y-46227919D01*
X176819321Y-46325081D01*
X176806603Y-46373150D01*
X176776931Y-46386073D01*
X176745292Y-46372418D01*
X176724608Y-46312710D01*
X176722898Y-46239347D01*
X176671722Y-46312710D01*
X176671006Y-46313733D01*
X176619124Y-46367801D01*
X176573347Y-46387993D01*
X176549370Y-46373025D01*
X176562887Y-46321612D01*
X176580131Y-46267319D01*
X176555883Y-46189203D01*
X176543331Y-46167171D01*
X176539177Y-46141529D01*
X176628501Y-46141529D01*
X176634182Y-46164338D01*
X176677410Y-46190438D01*
X176700219Y-46184757D01*
X176726318Y-46141529D01*
X176720637Y-46118720D01*
X176677410Y-46092620D01*
X176654601Y-46098301D01*
X176628501Y-46141529D01*
X176539177Y-46141529D01*
X176535359Y-46117960D01*
X176579562Y-46072949D01*
X176635779Y-46045663D01*
X176726289Y-46034178D01*
X176756887Y-46039454D01*
X176791454Y-46061376D01*
X176808822Y-46114124D01*
X176811233Y-46141529D01*
X176817689Y-46214892D01*
G37*
G36*
X171790097Y-49107585D02*
G01*
X171884696Y-49118808D01*
X171894672Y-49120261D01*
X171991696Y-49140585D01*
X172043854Y-49171323D01*
X172070016Y-49223093D01*
X172070896Y-49226170D01*
X172086123Y-49287569D01*
X172112056Y-49399195D01*
X172145995Y-49548819D01*
X172185244Y-49724214D01*
X172227103Y-49913151D01*
X172268874Y-50103403D01*
X172307860Y-50282741D01*
X172341362Y-50438937D01*
X172366682Y-50559764D01*
X172381121Y-50632992D01*
X172381666Y-50636048D01*
X172387216Y-50685828D01*
X172371230Y-50711573D01*
X172319148Y-50721208D01*
X172216413Y-50722659D01*
X172035692Y-50722659D01*
X171998879Y-50535175D01*
X171982014Y-50451521D01*
X171953396Y-50312686D01*
X171916836Y-50137223D01*
X171875272Y-49939227D01*
X171831641Y-49732793D01*
X171827695Y-49714164D01*
X171788337Y-49524912D01*
X171755221Y-49359605D01*
X171730245Y-49228189D01*
X171715305Y-49140610D01*
X171712296Y-49106814D01*
X171726591Y-49104397D01*
X171790097Y-49107585D01*
G37*
G36*
X176982089Y-46296083D02*
G01*
X176924709Y-46409622D01*
X176824136Y-46491992D01*
X176754837Y-46525558D01*
X176692962Y-46544504D01*
X176634557Y-46536558D01*
X176548563Y-46502954D01*
X176541234Y-46499829D01*
X176439383Y-46433662D01*
X176384232Y-46337308D01*
X176367653Y-46197028D01*
X176369626Y-46178734D01*
X176472242Y-46178734D01*
X176476047Y-46289943D01*
X176528825Y-46384216D01*
X176605988Y-46436789D01*
X176706413Y-46451024D01*
X176797579Y-46415561D01*
X176863790Y-46337395D01*
X176889348Y-46223524D01*
X176882975Y-46156002D01*
X176838988Y-46051595D01*
X176763562Y-45988766D01*
X176668979Y-45975318D01*
X176567522Y-46019055D01*
X176514959Y-46073747D01*
X176472242Y-46178734D01*
X176369626Y-46178734D01*
X176376163Y-46118123D01*
X176432462Y-46000513D01*
X176534404Y-45924341D01*
X176673704Y-45897710D01*
X176685900Y-45897976D01*
X176796245Y-45916080D01*
X176881169Y-45954890D01*
X176959526Y-46048435D01*
X176994340Y-46169610D01*
X176989118Y-46223524D01*
X176982089Y-46296083D01*
G37*
G36*
X166936716Y-48666918D02*
G01*
X166943578Y-48696030D01*
X166955914Y-48773373D01*
X166952705Y-48812489D01*
X166938972Y-48815998D01*
X166871895Y-48818482D01*
X166763380Y-48816101D01*
X166628625Y-48809017D01*
X166321262Y-48788827D01*
X166338276Y-48867232D01*
X166345364Y-48898475D01*
X166366672Y-48990182D01*
X166399128Y-49128738D01*
X166440446Y-49304411D01*
X166488338Y-49507469D01*
X166540519Y-49728178D01*
X166576790Y-49881463D01*
X166627140Y-50094418D01*
X166672055Y-50284586D01*
X166709136Y-50441798D01*
X166735984Y-50555888D01*
X166750199Y-50616689D01*
X166774650Y-50722659D01*
X166588472Y-50722659D01*
X166402294Y-50722659D01*
X166191827Y-49768936D01*
X165981360Y-48815213D01*
X165695873Y-48812741D01*
X165641275Y-48811726D01*
X165517606Y-48805086D01*
X165425612Y-48793975D01*
X165382057Y-48780135D01*
X165381121Y-48779097D01*
X165354945Y-48726251D01*
X165331399Y-48644032D01*
X165309070Y-48538063D01*
X166106540Y-48538063D01*
X166904009Y-48538063D01*
X166936716Y-48666918D01*
G37*
G36*
X152956698Y-49120201D02*
G01*
X153030387Y-49125338D01*
X153108276Y-49131982D01*
X153140232Y-49136504D01*
X153138511Y-49153830D01*
X153128201Y-49227066D01*
X153109907Y-49349497D01*
X153084967Y-49512309D01*
X153054724Y-49706686D01*
X153020516Y-49923814D01*
X152896514Y-50706356D01*
X153138489Y-51091102D01*
X153380463Y-51475848D01*
X153195048Y-51466070D01*
X153009632Y-51456291D01*
X152581015Y-50706356D01*
X152503052Y-50570388D01*
X152367402Y-50335586D01*
X152231442Y-50102196D01*
X152103278Y-49884051D01*
X151991018Y-49694990D01*
X151902769Y-49548846D01*
X151653140Y-49141272D01*
X151820854Y-49131241D01*
X151874206Y-49129618D01*
X151964696Y-49136987D01*
X152007956Y-49157230D01*
X152044428Y-49224865D01*
X152173946Y-49463068D01*
X152293982Y-49680832D01*
X152401008Y-49871968D01*
X152491500Y-50030289D01*
X152561932Y-50149606D01*
X152608779Y-50223732D01*
X152628516Y-50246478D01*
X152635243Y-50221280D01*
X152648887Y-50140247D01*
X152667061Y-50014102D01*
X152688220Y-49853659D01*
X152710822Y-49669733D01*
X152777450Y-49108666D01*
X152956698Y-49120201D01*
G37*
G36*
X177851538Y-49777722D02*
G01*
X177892391Y-49859532D01*
X177991790Y-50055726D01*
X178067644Y-50199750D01*
X178122995Y-50296709D01*
X178160886Y-50351708D01*
X178184361Y-50369850D01*
X178196463Y-50356240D01*
X178203545Y-50313961D01*
X178215282Y-50213360D01*
X178229400Y-50069969D01*
X178244716Y-49895956D01*
X178260044Y-49703487D01*
X178303770Y-49124969D01*
X178476919Y-49124969D01*
X178557611Y-49126085D01*
X178619791Y-49134939D01*
X178645202Y-49159223D01*
X178650067Y-49206583D01*
X178649683Y-49218053D01*
X178643988Y-49292003D01*
X178632510Y-49414338D01*
X178616581Y-49572660D01*
X178597532Y-49754573D01*
X178576695Y-49947679D01*
X178555403Y-50139580D01*
X178534985Y-50317879D01*
X178516775Y-50470180D01*
X178502103Y-50584084D01*
X178483042Y-50722659D01*
X178281107Y-50722659D01*
X178079172Y-50722659D01*
X177728944Y-50094995D01*
X177697701Y-50039038D01*
X177588873Y-49844655D01*
X177486082Y-49661811D01*
X177395742Y-49501870D01*
X177324265Y-49376195D01*
X177278067Y-49296150D01*
X177177418Y-49124969D01*
X177351942Y-49124969D01*
X177526466Y-49124969D01*
X177851538Y-49777722D01*
G37*
G36*
X167928621Y-52879481D02*
G01*
X168018889Y-52915901D01*
X168123034Y-52996871D01*
X168188682Y-53055066D01*
X168231536Y-53086796D01*
X168243467Y-53079874D01*
X168233493Y-53037629D01*
X168232458Y-53034228D01*
X168212140Y-52958370D01*
X168214927Y-52914449D01*
X168251082Y-52897404D01*
X168330866Y-52902177D01*
X168464543Y-52923705D01*
X168466518Y-52924046D01*
X168514854Y-52935398D01*
X168547671Y-52958050D01*
X168571838Y-53005204D01*
X168594220Y-53090063D01*
X168621684Y-53225827D01*
X168625303Y-53244189D01*
X168656285Y-53393075D01*
X168697167Y-53579827D01*
X168743052Y-53782412D01*
X168789043Y-53978800D01*
X168806820Y-54053598D01*
X168843944Y-54212409D01*
X168873793Y-54343729D01*
X168893676Y-54435593D01*
X168900901Y-54476040D01*
X168885758Y-54487713D01*
X168821565Y-54500125D01*
X168724159Y-54504944D01*
X168625702Y-54503199D01*
X168568945Y-54491438D01*
X168542065Y-54459937D01*
X168526972Y-54398974D01*
X168488399Y-54209245D01*
X168442144Y-54001590D01*
X168394892Y-53806680D01*
X168349907Y-53637348D01*
X168310451Y-53506432D01*
X168279789Y-53426767D01*
X168252360Y-53375972D01*
X168178350Y-53279639D01*
X168090035Y-53232323D01*
X167970254Y-53222708D01*
X167909282Y-53223963D01*
X167850341Y-53212700D01*
X167813613Y-53171545D01*
X167777024Y-53084737D01*
X167746473Y-52990927D01*
X167744643Y-52919329D01*
X167786058Y-52884069D01*
X167875646Y-52874648D01*
X167928621Y-52879481D01*
G37*
G36*
X170543093Y-53901734D02*
G01*
X170534949Y-54072790D01*
X170490349Y-54239758D01*
X170403702Y-54366935D01*
X170270847Y-54462893D01*
X170098422Y-54524010D01*
X169893583Y-54542985D01*
X169687510Y-54515626D01*
X169502542Y-54442526D01*
X169440395Y-54402049D01*
X169330056Y-54310279D01*
X169247255Y-54217250D01*
X169215073Y-54167061D01*
X169128319Y-53984005D01*
X169067843Y-53779627D01*
X169036817Y-53572330D01*
X169037480Y-53492596D01*
X169371532Y-53492596D01*
X169391204Y-53666581D01*
X169438168Y-53846293D01*
X169507081Y-54014065D01*
X169592605Y-54152229D01*
X169689399Y-54243118D01*
X169772523Y-54282204D01*
X169922386Y-54304850D01*
X170064242Y-54270548D01*
X170089286Y-54255590D01*
X170156739Y-54171205D01*
X170193334Y-54047117D01*
X170201168Y-53895960D01*
X170182342Y-53730366D01*
X170138954Y-53562966D01*
X170073103Y-53406392D01*
X169986888Y-53273277D01*
X169882408Y-53176253D01*
X169854840Y-53159214D01*
X169716253Y-53108485D01*
X169587101Y-53115021D01*
X169478394Y-53176231D01*
X169401140Y-53289525D01*
X169384492Y-53342004D01*
X169371532Y-53492596D01*
X169037480Y-53492596D01*
X169038411Y-53380518D01*
X169075800Y-53222592D01*
X169095017Y-53181915D01*
X169203048Y-53043608D01*
X169355156Y-52944631D01*
X169541795Y-52889759D01*
X169753421Y-52883763D01*
X169755683Y-52883971D01*
X169974246Y-52934766D01*
X170163461Y-53040290D01*
X170319139Y-53195146D01*
X170437095Y-53393937D01*
X170513142Y-53631265D01*
X170542454Y-53895960D01*
X170543093Y-53901734D01*
G37*
G36*
X172884533Y-49100508D02*
G01*
X172934706Y-49105209D01*
X173162185Y-49160992D01*
X173352677Y-49270183D01*
X173505411Y-49432015D01*
X173619622Y-49645719D01*
X173694542Y-49910529D01*
X173708098Y-50032326D01*
X173687011Y-50240124D01*
X173612917Y-50428562D01*
X173491126Y-50586210D01*
X173326949Y-50701639D01*
X173306504Y-50710673D01*
X173176924Y-50742396D01*
X173019426Y-50752916D01*
X172862166Y-50741887D01*
X172733300Y-50708960D01*
X172702662Y-50694813D01*
X172630222Y-50635470D01*
X172587802Y-50537779D01*
X172583076Y-50520721D01*
X172560271Y-50427664D01*
X172564869Y-50387566D01*
X172605036Y-50391901D01*
X172688936Y-50432139D01*
X172815913Y-50478851D01*
X172977294Y-50491786D01*
X173124609Y-50454778D01*
X173241954Y-50369625D01*
X173246260Y-50364732D01*
X173330336Y-50220885D01*
X173362480Y-50052550D01*
X173343932Y-49872430D01*
X173275934Y-49693232D01*
X173159725Y-49527660D01*
X173152435Y-49519619D01*
X173073903Y-49438256D01*
X173009215Y-49393024D01*
X172932230Y-49371124D01*
X172816805Y-49359755D01*
X172760751Y-49356278D01*
X172656855Y-49357162D01*
X172584069Y-49375062D01*
X172518751Y-49414306D01*
X172506306Y-49423427D01*
X172444295Y-49466229D01*
X172412517Y-49483634D01*
X172407652Y-49478614D01*
X172386797Y-49430745D01*
X172359610Y-49348639D01*
X172339172Y-49270207D01*
X172338013Y-49215643D01*
X172362600Y-49185601D01*
X172398772Y-49165874D01*
X172533104Y-49123261D01*
X172702070Y-49100324D01*
X172884533Y-49100508D01*
G37*
G36*
X156687984Y-50178058D02*
G01*
X156667672Y-50362384D01*
X156617311Y-50500958D01*
X156531262Y-50605321D01*
X156403891Y-50687014D01*
X156355589Y-50707761D01*
X156177587Y-50748362D01*
X155977796Y-50751285D01*
X155780807Y-50715410D01*
X155759509Y-50708370D01*
X155618755Y-50630936D01*
X155481204Y-50509158D01*
X155362827Y-50359509D01*
X155279597Y-50198464D01*
X155256872Y-50134264D01*
X155194891Y-49881541D01*
X155185489Y-49673505D01*
X155526414Y-49673505D01*
X155549040Y-49886587D01*
X155600979Y-50089093D01*
X155676946Y-50263277D01*
X155771657Y-50391398D01*
X155808842Y-50424253D01*
X155939011Y-50498360D01*
X156070433Y-50520709D01*
X156190685Y-50493327D01*
X156287343Y-50418237D01*
X156347983Y-50297465D01*
X156350471Y-50287715D01*
X156364206Y-50135428D01*
X156344065Y-49960319D01*
X156295924Y-49779964D01*
X156225661Y-49611939D01*
X156139153Y-49473819D01*
X156042276Y-49383180D01*
X156016187Y-49368508D01*
X155883377Y-49326428D01*
X155754002Y-49330889D01*
X155642170Y-49376721D01*
X155561988Y-49458755D01*
X155527563Y-49571818D01*
X155526414Y-49673505D01*
X155185489Y-49673505D01*
X155184745Y-49657035D01*
X155224452Y-49464633D01*
X155312035Y-49308222D01*
X155445513Y-49191687D01*
X155622907Y-49118916D01*
X155842236Y-49093796D01*
X155935655Y-49098099D01*
X156142997Y-49146195D01*
X156320321Y-49249433D01*
X156470803Y-49410071D01*
X156597616Y-49630361D01*
X156638446Y-49726052D01*
X156669578Y-49831201D01*
X156684727Y-49948016D01*
X156689047Y-50103146D01*
X156688589Y-50135428D01*
X156687984Y-50178058D01*
G37*
G36*
X163314143Y-49101398D02*
G01*
X163481625Y-49126010D01*
X163612297Y-49170339D01*
X163669099Y-49203901D01*
X163820555Y-49331751D01*
X163951550Y-49495367D01*
X164043688Y-49673301D01*
X164054310Y-49703642D01*
X164093517Y-49867394D01*
X164112023Y-50042928D01*
X164108453Y-50206214D01*
X164081433Y-50333226D01*
X164077595Y-50342704D01*
X163998552Y-50473478D01*
X163882712Y-50597638D01*
X163753373Y-50689858D01*
X163621449Y-50733995D01*
X163456771Y-50752763D01*
X163289094Y-50744720D01*
X163147164Y-50708960D01*
X163116526Y-50694813D01*
X163044086Y-50635470D01*
X163001666Y-50537779D01*
X162997311Y-50522061D01*
X162974206Y-50428396D01*
X162977860Y-50387452D01*
X163015850Y-50390433D01*
X163095751Y-50428543D01*
X163122128Y-50441327D01*
X163290802Y-50491054D01*
X163443504Y-50484794D01*
X163574243Y-50430014D01*
X163677025Y-50334181D01*
X163745859Y-50204761D01*
X163774751Y-50049221D01*
X163757710Y-49875029D01*
X163688743Y-49689651D01*
X163631925Y-49591332D01*
X163523055Y-49465651D01*
X163391464Y-49391253D01*
X163224781Y-49359329D01*
X163181961Y-49356583D01*
X163074525Y-49356723D01*
X162999522Y-49374438D01*
X162932615Y-49414306D01*
X162920533Y-49423142D01*
X162857076Y-49466137D01*
X162822753Y-49483634D01*
X162815297Y-49474979D01*
X162793670Y-49423473D01*
X162768455Y-49346856D01*
X162747478Y-49269889D01*
X162738567Y-49217332D01*
X162746807Y-49206957D01*
X162799488Y-49176358D01*
X162884794Y-49139661D01*
X162971484Y-49115656D01*
X163135535Y-49097586D01*
X163314143Y-49101398D01*
G37*
G36*
X159159955Y-50291127D02*
G01*
X159099276Y-50469440D01*
X158993974Y-50610802D01*
X158845576Y-50708569D01*
X158844357Y-50709095D01*
X158725002Y-50739826D01*
X158569981Y-50752235D01*
X158406011Y-50745801D01*
X158259811Y-50720002D01*
X158190651Y-50695189D01*
X158032682Y-50593931D01*
X157894016Y-50442873D01*
X157781374Y-50252401D01*
X157701478Y-50032902D01*
X157661050Y-49794764D01*
X157655339Y-49701099D01*
X157655414Y-49696247D01*
X157997666Y-49696247D01*
X158025026Y-49909351D01*
X158056314Y-50035595D01*
X158133443Y-50235966D01*
X158231908Y-50383894D01*
X158348555Y-50473871D01*
X158372705Y-50484871D01*
X158510096Y-50523643D01*
X158625386Y-50506358D01*
X158730367Y-50431714D01*
X158749628Y-50411869D01*
X158798223Y-50346473D01*
X158820400Y-50270962D01*
X158825677Y-50157998D01*
X158825673Y-50155120D01*
X158806185Y-49938909D01*
X158752565Y-49741138D01*
X158670532Y-49571116D01*
X158565805Y-49438148D01*
X158444102Y-49351542D01*
X158311143Y-49320605D01*
X158176721Y-49341931D01*
X158073790Y-49411968D01*
X158014012Y-49530263D01*
X157997666Y-49696247D01*
X157655414Y-49696247D01*
X157657054Y-49590297D01*
X157674862Y-49502800D01*
X157712129Y-49413483D01*
X157782928Y-49297958D01*
X157900401Y-49190582D01*
X158055920Y-49125571D01*
X158259070Y-49097383D01*
X158324820Y-49094760D01*
X158449497Y-49097704D01*
X158547383Y-49117065D01*
X158645031Y-49156940D01*
X158673680Y-49171718D01*
X158840565Y-49295810D01*
X158982212Y-49465837D01*
X159084774Y-49665776D01*
X159141353Y-49850238D01*
X159174489Y-50082511D01*
X159169230Y-50157998D01*
X159159955Y-50291127D01*
G37*
G36*
X182128221Y-49849309D02*
G01*
X182163771Y-49913165D01*
X182279249Y-50121315D01*
X182382558Y-50308625D01*
X182469763Y-50467883D01*
X182536926Y-50591876D01*
X182580111Y-50673390D01*
X182595381Y-50705214D01*
X182579517Y-50712373D01*
X182514487Y-50719785D01*
X182416346Y-50722659D01*
X182237311Y-50722659D01*
X182073687Y-50396600D01*
X181910063Y-50070540D01*
X181519089Y-50070540D01*
X181128116Y-50070540D01*
X181127832Y-50225419D01*
X181127042Y-50271846D01*
X181119623Y-50414221D01*
X181106988Y-50551478D01*
X181086426Y-50722659D01*
X180907598Y-50722659D01*
X180728770Y-50722659D01*
X180744613Y-50551478D01*
X180744893Y-50548462D01*
X180752683Y-50467458D01*
X180765937Y-50332508D01*
X180783631Y-50153908D01*
X180804744Y-49941956D01*
X180817974Y-49809693D01*
X181152295Y-49809693D01*
X181465528Y-49809693D01*
X181778760Y-49809693D01*
X181545661Y-49361362D01*
X181516810Y-49305817D01*
X181419005Y-49117613D01*
X181346827Y-48982364D01*
X181296019Y-48896507D01*
X181262325Y-48856480D01*
X181241491Y-48858723D01*
X181229258Y-48899673D01*
X181221373Y-48975768D01*
X181213578Y-49083447D01*
X181211988Y-49104536D01*
X181198749Y-49273915D01*
X181184553Y-49447075D01*
X181172213Y-49589603D01*
X181152295Y-49809693D01*
X180817974Y-49809693D01*
X180828251Y-49706947D01*
X180853130Y-49459180D01*
X180945804Y-48538063D01*
X181176825Y-48538063D01*
X181407846Y-48538063D01*
X181534453Y-48774456D01*
X181538226Y-48781487D01*
X181590458Y-48877599D01*
X181668435Y-49019679D01*
X181766680Y-49197810D01*
X181879712Y-49402071D01*
X182002052Y-49622544D01*
X182106179Y-49809693D01*
X182128221Y-49849309D01*
G37*
G36*
X153706566Y-52907025D02*
G01*
X153742039Y-52917275D01*
X153776783Y-52943462D01*
X153816323Y-52992360D01*
X153866190Y-53070739D01*
X153931910Y-53185374D01*
X154019011Y-53343036D01*
X154133022Y-53550498D01*
X154218154Y-53702802D01*
X154305704Y-53852007D01*
X154368367Y-53947744D01*
X154408122Y-53992978D01*
X154426953Y-53990677D01*
X154432179Y-53969063D01*
X154445871Y-53887168D01*
X154463806Y-53760120D01*
X154484253Y-53600477D01*
X154505480Y-53420797D01*
X154563727Y-52907254D01*
X154732913Y-52907254D01*
X154796453Y-52908336D01*
X154878726Y-52913854D01*
X154917324Y-52922479D01*
X154917975Y-52940361D01*
X154910986Y-53014641D01*
X154895689Y-53138076D01*
X154873283Y-53301651D01*
X154844971Y-53496354D01*
X154811953Y-53713172D01*
X154778471Y-53932855D01*
X154747279Y-54152127D01*
X154726969Y-54317960D01*
X154716935Y-54436256D01*
X154716566Y-54512919D01*
X154725253Y-54553852D01*
X154745159Y-54588645D01*
X154796695Y-54673115D01*
X154868064Y-54786935D01*
X154950179Y-54915494D01*
X155013337Y-55014712D01*
X155079501Y-55121872D01*
X155124563Y-55198827D01*
X155141209Y-55233401D01*
X155127811Y-55241647D01*
X155065680Y-55250839D01*
X154970028Y-55254088D01*
X154798847Y-55253296D01*
X154521697Y-54758556D01*
X154504225Y-54727451D01*
X154395587Y-54536557D01*
X154265203Y-54310684D01*
X154123228Y-54067260D01*
X153979817Y-53823712D01*
X153845125Y-53597466D01*
X153769813Y-53471610D01*
X153665448Y-53296431D01*
X153576236Y-53145757D01*
X153506796Y-53027429D01*
X153461745Y-52949292D01*
X153445702Y-52919185D01*
X153456460Y-52914924D01*
X153515194Y-52909411D01*
X153607980Y-52907254D01*
X153611316Y-52907247D01*
X153664834Y-52905940D01*
X153706566Y-52907025D01*
G37*
G36*
X174571791Y-49105169D02*
G01*
X174750909Y-49170848D01*
X174905936Y-49249332D01*
X174885459Y-49167745D01*
X174878269Y-49136504D01*
X174881365Y-49103559D01*
X174918560Y-49096559D01*
X175004957Y-49107946D01*
X175094726Y-49122297D01*
X175170074Y-49141590D01*
X175218649Y-49174816D01*
X175250382Y-49234469D01*
X175275201Y-49333044D01*
X175303038Y-49483038D01*
X175304385Y-49490426D01*
X175335972Y-49653369D01*
X175377425Y-49853626D01*
X175423515Y-50066497D01*
X175469015Y-50267280D01*
X175575828Y-50725636D01*
X175395369Y-50715996D01*
X175214911Y-50706356D01*
X175104155Y-50172312D01*
X175077839Y-50047129D01*
X175040216Y-49873951D01*
X175006871Y-49727052D01*
X174980679Y-49618980D01*
X174964510Y-49562284D01*
X174961424Y-49555045D01*
X174900956Y-49484245D01*
X174800186Y-49419227D01*
X174681325Y-49371660D01*
X174566580Y-49353211D01*
X174470192Y-49368274D01*
X174381628Y-49406994D01*
X174376716Y-49410464D01*
X174337930Y-49444527D01*
X174318880Y-49487797D01*
X174315616Y-49558783D01*
X174324184Y-49675993D01*
X174331577Y-49740107D01*
X174355386Y-49890834D01*
X174388560Y-50064027D01*
X174426316Y-50233570D01*
X174452629Y-50342546D01*
X174485717Y-50480068D01*
X174511534Y-50587939D01*
X174526035Y-50649295D01*
X174531528Y-50685246D01*
X174517484Y-50710416D01*
X174467005Y-50720695D01*
X174365713Y-50722659D01*
X174188462Y-50722659D01*
X174155619Y-50567781D01*
X174106891Y-50335774D01*
X174054546Y-50077935D01*
X174015427Y-49871152D01*
X173988527Y-49708346D01*
X173972837Y-49582438D01*
X173967349Y-49486347D01*
X173971054Y-49412993D01*
X173982945Y-49355298D01*
X174013476Y-49283851D01*
X174107032Y-49178327D01*
X174238703Y-49111586D01*
X174397339Y-49086308D01*
X174571791Y-49105169D01*
G37*
G36*
X160246379Y-54096332D02*
G01*
X160243981Y-54107600D01*
X160192914Y-54225517D01*
X160104356Y-54345149D01*
X159997032Y-54445097D01*
X159889666Y-54503964D01*
X159787230Y-54522130D01*
X159631911Y-54522303D01*
X159475910Y-54499998D01*
X159351040Y-54457932D01*
X159288434Y-54428132D01*
X159256519Y-54425502D01*
X159249553Y-54455197D01*
X159239769Y-54480997D01*
X159191243Y-54499610D01*
X159090691Y-54504944D01*
X158931829Y-54504944D01*
X158909998Y-54366368D01*
X158904361Y-54334458D01*
X158884439Y-54233558D01*
X158854601Y-54089381D01*
X158817711Y-53915122D01*
X158776631Y-53723976D01*
X158734222Y-53529139D01*
X158693348Y-53343806D01*
X158656871Y-53181173D01*
X158653270Y-53165554D01*
X158988706Y-53165554D01*
X158990955Y-53184357D01*
X159004926Y-53259444D01*
X159028893Y-53375173D01*
X159059608Y-53516905D01*
X159093826Y-53669997D01*
X159128300Y-53819809D01*
X159159785Y-53951701D01*
X159185034Y-54051032D01*
X159187765Y-54060793D01*
X159237352Y-54159621D01*
X159328138Y-54224218D01*
X159391500Y-54250277D01*
X159549536Y-54280013D01*
X159689180Y-54258214D01*
X159800825Y-54189766D01*
X159874858Y-54079559D01*
X159901671Y-53932480D01*
X159899149Y-53863912D01*
X159857383Y-53651780D01*
X159769149Y-53466840D01*
X159640780Y-53319744D01*
X159478613Y-53221142D01*
X159432338Y-53204327D01*
X159316330Y-53172605D01*
X159197575Y-53151008D01*
X159092462Y-53141394D01*
X159017376Y-53145622D01*
X158988706Y-53165554D01*
X158653270Y-53165554D01*
X158627653Y-53054434D01*
X158608558Y-52976785D01*
X158587825Y-52899590D01*
X159040961Y-52913535D01*
X159067759Y-52914379D01*
X159254689Y-52922071D01*
X159393022Y-52932623D01*
X159497567Y-52948147D01*
X159583133Y-52970760D01*
X159664530Y-53002575D01*
X159804141Y-53080881D01*
X159978000Y-53234611D01*
X160116109Y-53426094D01*
X160211511Y-53642258D01*
X160257253Y-53870028D01*
X160254252Y-53932480D01*
X160246379Y-54096332D01*
G37*
G36*
X157522002Y-52892369D02*
G01*
X157709201Y-52955110D01*
X157880659Y-53034934D01*
X157859275Y-52949732D01*
X157850046Y-52905298D01*
X157861413Y-52877056D01*
X157916058Y-52885447D01*
X157974679Y-52897946D01*
X158059438Y-52907308D01*
X158099302Y-52911656D01*
X158166402Y-52934747D01*
X158182854Y-52965402D01*
X158210616Y-53051394D01*
X158245056Y-53181266D01*
X158283327Y-53344182D01*
X158322582Y-53529306D01*
X158351632Y-53671933D01*
X158392604Y-53868267D01*
X158430809Y-54046188D01*
X158462972Y-54190505D01*
X158485814Y-54286030D01*
X158504974Y-54372001D01*
X158517010Y-54461228D01*
X158513163Y-54509405D01*
X158471213Y-54528340D01*
X158393770Y-54524531D01*
X158312455Y-54511222D01*
X158240715Y-54504944D01*
X158240396Y-54504942D01*
X158218512Y-54494348D01*
X158196360Y-54457966D01*
X158171631Y-54388126D01*
X158142014Y-54277161D01*
X158105201Y-54117400D01*
X158058882Y-53901176D01*
X158014014Y-53689274D01*
X157975179Y-53519975D01*
X157939937Y-53396968D01*
X157903194Y-53311279D01*
X157859853Y-53253933D01*
X157804820Y-53215956D01*
X157732998Y-53188374D01*
X157639291Y-53162211D01*
X157606236Y-53154263D01*
X157463821Y-53146437D01*
X157358272Y-53190294D01*
X157292172Y-53284923D01*
X157291670Y-53286260D01*
X157282877Y-53320879D01*
X157280245Y-53367731D01*
X157284975Y-53434149D01*
X157298269Y-53527467D01*
X157321326Y-53655017D01*
X157355349Y-53824131D01*
X157401537Y-54042144D01*
X157461092Y-54316388D01*
X157476917Y-54399237D01*
X157486722Y-54482131D01*
X157483045Y-54521602D01*
X157467872Y-54526350D01*
X157402433Y-54525905D01*
X157307715Y-54514162D01*
X157151187Y-54487920D01*
X157044136Y-53982889D01*
X157018477Y-53858537D01*
X156971322Y-53599559D01*
X156944792Y-53394318D01*
X156938533Y-53237187D01*
X156952194Y-53122539D01*
X156985422Y-53044747D01*
X157045939Y-52978987D01*
X157178085Y-52905829D01*
X157340868Y-52876450D01*
X157522002Y-52892369D01*
G37*
G36*
X180529830Y-50128222D02*
G01*
X180506886Y-50321055D01*
X180437420Y-50487395D01*
X180323262Y-50619178D01*
X180166241Y-50708342D01*
X180135982Y-50718199D01*
X179966974Y-50742028D01*
X179787364Y-50726826D01*
X179629997Y-50674656D01*
X179568849Y-50645507D01*
X179537240Y-50642944D01*
X179530426Y-50672912D01*
X179520078Y-50699221D01*
X179470861Y-50717446D01*
X179369621Y-50722659D01*
X179208815Y-50722659D01*
X179158010Y-50486266D01*
X179144131Y-50421745D01*
X179042789Y-49954514D01*
X178952426Y-49545154D01*
X178916341Y-49385384D01*
X179247496Y-49385384D01*
X179252399Y-49426574D01*
X179265969Y-49486286D01*
X179303131Y-49649645D01*
X179341945Y-49820090D01*
X179379188Y-49983487D01*
X179411637Y-50125701D01*
X179436071Y-50232596D01*
X179449266Y-50290037D01*
X179486229Y-50353465D01*
X179556480Y-50409514D01*
X179567400Y-50415054D01*
X179738418Y-50472975D01*
X179890424Y-50473649D01*
X180016819Y-50423531D01*
X180111005Y-50329077D01*
X180166383Y-50196741D01*
X180176355Y-50032978D01*
X180134322Y-49844244D01*
X180109094Y-49780253D01*
X179996479Y-49596167D01*
X179843255Y-49462665D01*
X179651636Y-49381276D01*
X179423836Y-49353529D01*
X179322612Y-49354876D01*
X179266200Y-49363487D01*
X179247496Y-49385384D01*
X178916341Y-49385384D01*
X178873389Y-49195205D01*
X178806025Y-48906207D01*
X178750682Y-48679697D01*
X178749059Y-48673267D01*
X178712923Y-48525309D01*
X178685159Y-48402611D01*
X178668476Y-48317785D01*
X178665581Y-48283439D01*
X178684472Y-48280945D01*
X178752786Y-48285691D01*
X178851311Y-48298925D01*
X179025035Y-48326418D01*
X179103372Y-48709391D01*
X179181709Y-49092363D01*
X179315310Y-49092610D01*
X179389932Y-49095793D01*
X179521577Y-49108139D01*
X179656636Y-49126562D01*
X179908524Y-49190690D01*
X180113588Y-49296195D01*
X180277514Y-49447381D01*
X180406633Y-49648654D01*
X180428839Y-49695331D01*
X180504425Y-49916959D01*
X180518377Y-50032978D01*
X180529830Y-50128222D01*
G37*
G36*
X160048026Y-49114179D02*
G01*
X160208676Y-49170848D01*
X160363703Y-49249332D01*
X160343226Y-49167745D01*
X160336035Y-49136504D01*
X160339131Y-49103559D01*
X160376326Y-49096559D01*
X160462723Y-49107946D01*
X160579388Y-49127560D01*
X160653793Y-49151937D01*
X160696509Y-49195463D01*
X160722025Y-49273135D01*
X160744829Y-49399950D01*
X160751152Y-49436120D01*
X160777522Y-49574378D01*
X160813327Y-49750625D01*
X160854674Y-49945975D01*
X160897671Y-50141545D01*
X160919919Y-50241453D01*
X160955572Y-50405403D01*
X160984137Y-50541734D01*
X161003128Y-50638463D01*
X161010061Y-50683605D01*
X161000403Y-50703030D01*
X160947120Y-50717190D01*
X160839151Y-50716211D01*
X160668031Y-50706356D01*
X160552395Y-50152055D01*
X160521493Y-50005637D01*
X160484376Y-49834384D01*
X160452364Y-49691740D01*
X160428107Y-49589466D01*
X160414257Y-49539323D01*
X160399602Y-49516184D01*
X160330459Y-49460870D01*
X160228749Y-49408637D01*
X160116289Y-49369614D01*
X160014896Y-49353927D01*
X159930408Y-49366949D01*
X159839394Y-49406994D01*
X159834483Y-49410464D01*
X159795696Y-49444527D01*
X159776647Y-49487797D01*
X159773382Y-49558783D01*
X159781950Y-49675993D01*
X159789343Y-49740107D01*
X159813152Y-49890834D01*
X159846327Y-50064027D01*
X159884082Y-50233570D01*
X159910395Y-50342546D01*
X159943483Y-50480068D01*
X159969300Y-50587939D01*
X159983801Y-50649295D01*
X159989271Y-50685997D01*
X159974639Y-50710677D01*
X159923455Y-50720741D01*
X159821399Y-50722659D01*
X159755631Y-50721856D01*
X159680086Y-50713828D01*
X159642594Y-50691805D01*
X159625848Y-50649295D01*
X159610553Y-50579103D01*
X159571704Y-50393088D01*
X159532579Y-50196425D01*
X159495457Y-50001527D01*
X159462618Y-49820805D01*
X159436340Y-49666670D01*
X159418902Y-49551533D01*
X159412583Y-49487805D01*
X159433656Y-49358502D01*
X159502201Y-49230253D01*
X159607151Y-49141824D01*
X159709257Y-49106608D01*
X159873459Y-49092375D01*
X160048026Y-49114179D01*
G37*
G36*
X164334401Y-52909059D02*
G01*
X164408695Y-52929787D01*
X164446629Y-52964315D01*
X164475467Y-53072858D01*
X164509905Y-53222078D01*
X164546825Y-53396273D01*
X164583395Y-53580682D01*
X164616780Y-53760549D01*
X164644147Y-53921115D01*
X164662665Y-54047622D01*
X164669499Y-54125312D01*
X164651537Y-54265382D01*
X164582424Y-54401127D01*
X164463355Y-54496311D01*
X164347830Y-54530448D01*
X164192985Y-54536452D01*
X164029561Y-54512599D01*
X163882208Y-54460410D01*
X163728628Y-54383271D01*
X163730746Y-54452259D01*
X163723574Y-54493541D01*
X163692108Y-54517986D01*
X163688711Y-54517726D01*
X163625562Y-54514042D01*
X163536207Y-54509834D01*
X163522444Y-54508966D01*
X163446243Y-54492557D01*
X163408508Y-54464186D01*
X163406320Y-54455945D01*
X163391589Y-54393198D01*
X163366033Y-54280152D01*
X163331871Y-54126757D01*
X163291323Y-53942958D01*
X163246608Y-53738705D01*
X163231802Y-53670912D01*
X163187406Y-53468777D01*
X163147371Y-53288115D01*
X163114057Y-53139491D01*
X163089830Y-53033471D01*
X163077051Y-52980618D01*
X163069967Y-52947457D01*
X163080247Y-52920374D01*
X163127045Y-52909347D01*
X163224694Y-52907254D01*
X163291114Y-52909132D01*
X163375155Y-52924300D01*
X163411666Y-52957070D01*
X163421266Y-52991291D01*
X163443132Y-53082010D01*
X163473688Y-53215741D01*
X163510328Y-53381037D01*
X163550444Y-53566451D01*
X163670106Y-54126015D01*
X163812583Y-54201359D01*
X163850270Y-54220198D01*
X164011335Y-54271472D01*
X164147896Y-54262334D01*
X164259924Y-54192787D01*
X164266627Y-54185951D01*
X164300480Y-54143191D01*
X164321184Y-54092588D01*
X164328106Y-54024955D01*
X164320615Y-53931104D01*
X164298075Y-53801845D01*
X164259856Y-53627992D01*
X164205322Y-53400355D01*
X164202417Y-53388436D01*
X164165578Y-53233497D01*
X164135516Y-53100238D01*
X164115259Y-53002515D01*
X164107833Y-52954189D01*
X164114868Y-52936291D01*
X164165338Y-52911649D01*
X164245899Y-52902792D01*
X164334401Y-52909059D01*
G37*
G36*
X165742313Y-49841579D02*
G01*
X165769191Y-50047412D01*
X165754668Y-50245982D01*
X165695857Y-50425776D01*
X165589874Y-50575286D01*
X165556264Y-50606217D01*
X165459328Y-50676534D01*
X165371103Y-50718840D01*
X165305910Y-50733881D01*
X165142208Y-50751089D01*
X164964978Y-50749150D01*
X164799787Y-50729053D01*
X164672202Y-50691789D01*
X164589779Y-50647443D01*
X164533905Y-50587547D01*
X164498878Y-50493578D01*
X164489576Y-50457015D01*
X164474513Y-50381225D01*
X164474106Y-50345517D01*
X164493595Y-50348063D01*
X164557254Y-50373105D01*
X164647430Y-50416400D01*
X164695814Y-50440144D01*
X164792792Y-50475935D01*
X164893921Y-50489871D01*
X165029294Y-50487560D01*
X165081196Y-50483844D01*
X165237009Y-50453139D01*
X165342587Y-50390220D01*
X165406428Y-50287816D01*
X165437028Y-50138655D01*
X165452972Y-49972723D01*
X164893500Y-49972723D01*
X164701981Y-49972897D01*
X164540187Y-49970865D01*
X164427135Y-49962180D01*
X164354110Y-49942386D01*
X164312401Y-49907025D01*
X164293296Y-49851640D01*
X164288082Y-49771773D01*
X164288047Y-49662967D01*
X164291072Y-49600121D01*
X164596922Y-49600121D01*
X164596922Y-49744481D01*
X164988193Y-49744481D01*
X165103158Y-49743498D01*
X165254226Y-49737493D01*
X165347546Y-49726306D01*
X165379464Y-49710256D01*
X165376175Y-49686480D01*
X165340917Y-49602567D01*
X165278545Y-49506217D01*
X165203480Y-49421126D01*
X165188920Y-49408518D01*
X165072950Y-49348107D01*
X164934110Y-49322895D01*
X164797092Y-49334610D01*
X164686588Y-49384978D01*
X164638605Y-49429857D01*
X164605324Y-49497542D01*
X164596922Y-49600121D01*
X164291072Y-49600121D01*
X164293033Y-49559370D01*
X164335136Y-49391642D01*
X164423875Y-49263174D01*
X164563819Y-49165727D01*
X164669516Y-49124975D01*
X164860348Y-49093857D01*
X165057574Y-49103152D01*
X165233461Y-49153372D01*
X165278487Y-49175815D01*
X165442120Y-49295600D01*
X165575893Y-49454162D01*
X165676919Y-49639992D01*
X165699712Y-49710256D01*
X165742313Y-49841579D01*
G37*
G36*
X170607959Y-52097130D02*
G01*
X170749291Y-52125658D01*
X170856078Y-52186670D01*
X170936721Y-52288345D01*
X170999621Y-52438864D01*
X171053181Y-52646407D01*
X171075136Y-52745521D01*
X171098598Y-52829622D01*
X171124263Y-52874393D01*
X171161101Y-52893704D01*
X171218080Y-52901427D01*
X171247619Y-52904457D01*
X171325200Y-52921902D01*
X171365780Y-52962841D01*
X171391665Y-53045829D01*
X171400452Y-53106322D01*
X171376472Y-53130932D01*
X171303491Y-53135496D01*
X171295597Y-53135538D01*
X171218452Y-53140770D01*
X171177597Y-53152082D01*
X171176969Y-53153566D01*
X171180715Y-53197583D01*
X171196983Y-53293750D01*
X171223861Y-53432155D01*
X171259438Y-53602891D01*
X171301802Y-53796048D01*
X171306608Y-53817499D01*
X171349687Y-54012874D01*
X171387136Y-54188130D01*
X171416724Y-54332405D01*
X171436215Y-54434837D01*
X171443378Y-54484565D01*
X171440569Y-54512782D01*
X171413300Y-54533277D01*
X171342268Y-54525322D01*
X171253285Y-54511475D01*
X171166693Y-54504944D01*
X171144570Y-54503685D01*
X171109080Y-54485881D01*
X171087659Y-54434497D01*
X171071540Y-54333763D01*
X171067525Y-54305217D01*
X171048265Y-54192012D01*
X171019098Y-54037952D01*
X170983227Y-53859593D01*
X170943854Y-53673493D01*
X170837637Y-53184404D01*
X170698222Y-53174256D01*
X170688365Y-53173511D01*
X170600464Y-53159589D01*
X170550255Y-53124940D01*
X170512395Y-53053031D01*
X170505480Y-53036306D01*
X170477378Y-52963818D01*
X170465985Y-52926308D01*
X170475937Y-52920262D01*
X170533514Y-52909361D01*
X170625295Y-52900807D01*
X170784606Y-52890951D01*
X170727731Y-52665649D01*
X170717616Y-52627016D01*
X170670953Y-52491075D01*
X170614386Y-52407213D01*
X170537768Y-52364737D01*
X170430950Y-52352954D01*
X170375944Y-52350535D01*
X170317934Y-52330091D01*
X170290900Y-52279591D01*
X170278066Y-52228998D01*
X170269006Y-52153635D01*
X170293213Y-52112575D01*
X170361307Y-52095505D01*
X170483907Y-52092107D01*
X170607959Y-52097130D01*
G37*
G36*
X155259200Y-52437659D02*
G01*
X155328628Y-52457222D01*
X155422293Y-52481889D01*
X155439865Y-52486418D01*
X155507481Y-52508516D01*
X155547021Y-52541635D01*
X155571796Y-52603475D01*
X155595114Y-52711740D01*
X155601450Y-52743785D01*
X155622931Y-52837744D01*
X155646587Y-52886335D01*
X155684028Y-52904518D01*
X155746866Y-52907254D01*
X155792013Y-52909172D01*
X155855440Y-52931627D01*
X155891952Y-52990892D01*
X155907461Y-53033944D01*
X155919129Y-53100129D01*
X155889298Y-53129096D01*
X155809630Y-53135496D01*
X155794790Y-53135616D01*
X155724216Y-53140312D01*
X155695510Y-53149721D01*
X155695635Y-53150981D01*
X155704505Y-53193583D01*
X155725331Y-53285529D01*
X155755252Y-53414356D01*
X155791409Y-53567598D01*
X155820074Y-53689658D01*
X155867162Y-53901591D01*
X155897991Y-54063803D01*
X155913479Y-54185123D01*
X155914543Y-54274378D01*
X155902099Y-54340396D01*
X155877066Y-54392005D01*
X155821073Y-54456246D01*
X155750669Y-54504631D01*
X155740846Y-54508303D01*
X155629991Y-54530070D01*
X155497305Y-54533575D01*
X155379653Y-54517535D01*
X155359331Y-54508154D01*
X155302898Y-54449103D01*
X155257596Y-54362391D01*
X155239027Y-54274939D01*
X155242575Y-54269707D01*
X155288042Y-54262282D01*
X155369139Y-54267753D01*
X155429263Y-54272745D01*
X155529906Y-54255743D01*
X155579760Y-54198528D01*
X155579800Y-54100326D01*
X155578979Y-54096385D01*
X155562528Y-54021677D01*
X155535050Y-53900783D01*
X155500175Y-53749551D01*
X155461532Y-53583827D01*
X155364054Y-53168101D01*
X155202916Y-53168101D01*
X155162443Y-53167741D01*
X155080962Y-53159933D01*
X155036965Y-53135132D01*
X155009979Y-53084464D01*
X154982148Y-52998341D01*
X154985625Y-52939703D01*
X155035864Y-52913358D01*
X155141831Y-52907254D01*
X155225963Y-52906205D01*
X155279179Y-52897033D01*
X155294228Y-52870556D01*
X155285861Y-52817588D01*
X155266069Y-52737172D01*
X155236331Y-52633390D01*
X155230265Y-52613459D01*
X155208836Y-52509865D01*
X155214648Y-52446810D01*
X155247179Y-52433882D01*
X155259200Y-52437659D01*
G37*
G36*
X170491482Y-49093628D02*
G01*
X170672458Y-49113011D01*
X170826853Y-49167437D01*
X170975784Y-49240472D01*
X170961648Y-49166523D01*
X170956960Y-49133965D01*
X170967450Y-49107957D01*
X171012138Y-49102838D01*
X171106170Y-49112998D01*
X171159527Y-49120851D01*
X171244426Y-49138155D01*
X171288120Y-49154117D01*
X171300522Y-49183798D01*
X171322853Y-49266389D01*
X171350443Y-49387417D01*
X171379929Y-49533010D01*
X171405275Y-49660901D01*
X171449591Y-49872570D01*
X171498116Y-50094048D01*
X171544122Y-50294138D01*
X171548952Y-50314494D01*
X171584409Y-50465001D01*
X171613275Y-50589345D01*
X171632690Y-50675106D01*
X171639797Y-50709863D01*
X171623841Y-50715125D01*
X171558703Y-50720554D01*
X171460465Y-50722659D01*
X171386695Y-50720479D01*
X171310623Y-50711588D01*
X171281132Y-50698182D01*
X171276844Y-50670794D01*
X171260985Y-50589257D01*
X171236002Y-50467023D01*
X171204617Y-50316841D01*
X171169554Y-50151463D01*
X171133537Y-49983638D01*
X171099288Y-49826116D01*
X171069531Y-49691648D01*
X171046988Y-49592984D01*
X171034383Y-49542874D01*
X171015786Y-49513309D01*
X170944728Y-49457999D01*
X170842576Y-49406332D01*
X170730326Y-49368128D01*
X170628973Y-49353211D01*
X170579126Y-49358191D01*
X170474128Y-49402269D01*
X170397708Y-49479266D01*
X170368167Y-49573706D01*
X170370275Y-49598026D01*
X170384326Y-49685020D01*
X170409386Y-49815423D01*
X170442894Y-49976199D01*
X170482288Y-50154312D01*
X170505582Y-50257495D01*
X170541582Y-50420207D01*
X170570381Y-50554530D01*
X170589486Y-50648746D01*
X170596408Y-50691140D01*
X170589553Y-50702123D01*
X170532397Y-50716167D01*
X170425227Y-50716211D01*
X170254046Y-50706356D01*
X170150285Y-50200964D01*
X170105910Y-49980528D01*
X170067508Y-49772299D01*
X170044108Y-49611196D01*
X170035734Y-49488382D01*
X170042409Y-49395017D01*
X170064157Y-49322262D01*
X170101002Y-49261277D01*
X170152968Y-49203223D01*
X170217384Y-49143733D01*
X170277159Y-49109698D01*
X170353575Y-49095707D01*
X170470876Y-49093383D01*
X170491482Y-49093628D01*
G37*
G36*
X177287435Y-50194518D02*
G01*
X177249141Y-50380120D01*
X177165468Y-50535988D01*
X177039351Y-50654037D01*
X176873727Y-50726180D01*
X176820938Y-50735412D01*
X176673918Y-50736652D01*
X176519448Y-50713398D01*
X176392537Y-50669757D01*
X176341879Y-50645488D01*
X176309388Y-50642467D01*
X176302442Y-50674616D01*
X176302319Y-50678846D01*
X176286757Y-50707051D01*
X176235166Y-50718341D01*
X176133335Y-50716211D01*
X175964228Y-50706356D01*
X175922941Y-50461811D01*
X175916515Y-50425363D01*
X175889545Y-50286274D01*
X175852802Y-50109386D01*
X175810284Y-49913646D01*
X175765989Y-49718001D01*
X175743256Y-49618888D01*
X175706448Y-49453731D01*
X175690801Y-49380294D01*
X176016755Y-49380294D01*
X176024024Y-49421967D01*
X176024869Y-49425528D01*
X176040289Y-49491884D01*
X176066372Y-49605341D01*
X176099690Y-49750945D01*
X176136813Y-49913745D01*
X176142268Y-49937602D01*
X176179145Y-50093495D01*
X176212437Y-50225635D01*
X176238679Y-50320710D01*
X176254404Y-50365403D01*
X176257453Y-50369619D01*
X176307675Y-50408447D01*
X176386890Y-50448835D01*
X176529098Y-50489055D01*
X176680084Y-50481510D01*
X176806947Y-50415356D01*
X176904703Y-50292103D01*
X176931339Y-50238918D01*
X176951121Y-50172386D01*
X176949752Y-50095971D01*
X176929349Y-49983126D01*
X176888224Y-49839055D01*
X176785410Y-49647029D01*
X176638146Y-49502445D01*
X176447956Y-49406635D01*
X176216367Y-49360929D01*
X176166617Y-49356997D01*
X176074638Y-49352066D01*
X176029155Y-49358413D01*
X176016755Y-49380294D01*
X175690801Y-49380294D01*
X175676979Y-49315421D01*
X175657415Y-49216161D01*
X175650324Y-49168152D01*
X175652051Y-49157010D01*
X175669254Y-49140389D01*
X175712859Y-49130192D01*
X175792549Y-49125594D01*
X175918009Y-49125768D01*
X176098923Y-49129889D01*
X176242648Y-49134341D01*
X176388348Y-49141633D01*
X176495235Y-49152725D01*
X176578397Y-49170076D01*
X176652922Y-49196146D01*
X176733898Y-49233394D01*
X176934493Y-49364413D01*
X177100060Y-49547351D01*
X177219252Y-49774500D01*
X177277415Y-49987269D01*
X177286365Y-50172386D01*
X177287435Y-50194518D01*
G37*
G36*
X162074133Y-48292439D02*
G01*
X162092236Y-48295184D01*
X162209485Y-48316431D01*
X162276723Y-48339980D01*
X162307285Y-48373072D01*
X162314508Y-48422947D01*
X162315196Y-48438663D01*
X162327173Y-48530212D01*
X162352990Y-48676422D01*
X162391261Y-48870630D01*
X162440600Y-49106172D01*
X162499622Y-49376387D01*
X162566943Y-49674609D01*
X162641176Y-49994176D01*
X162660783Y-50077600D01*
X162706423Y-50272947D01*
X162745690Y-50442649D01*
X162776417Y-50577252D01*
X162796441Y-50667305D01*
X162803597Y-50703355D01*
X162789675Y-50710923D01*
X162726898Y-50719372D01*
X162630687Y-50722659D01*
X162457777Y-50722659D01*
X162351645Y-50225419D01*
X162315888Y-50057696D01*
X162273966Y-49863490D01*
X162240701Y-49718784D01*
X162212876Y-49615205D01*
X162187277Y-49544376D01*
X162160687Y-49497923D01*
X162129892Y-49467471D01*
X162091675Y-49444644D01*
X162042822Y-49421067D01*
X162027150Y-49413711D01*
X161878435Y-49366180D01*
X161743429Y-49359711D01*
X161633283Y-49391336D01*
X161559149Y-49458088D01*
X161532177Y-49556997D01*
X161534457Y-49581423D01*
X161548651Y-49667542D01*
X161573670Y-49797184D01*
X161606990Y-49957529D01*
X161646087Y-50135752D01*
X161669609Y-50241167D01*
X161705390Y-50405231D01*
X161734029Y-50541273D01*
X161753056Y-50637446D01*
X161759997Y-50681901D01*
X161757462Y-50691526D01*
X161708293Y-50714891D01*
X161596155Y-50722659D01*
X161554843Y-50721762D01*
X161460129Y-50708707D01*
X161419609Y-50681901D01*
X161416392Y-50669633D01*
X161400462Y-50600994D01*
X161374932Y-50486301D01*
X161342545Y-50337954D01*
X161306045Y-50168358D01*
X161255065Y-49904533D01*
X161221268Y-49666348D01*
X161208575Y-49475361D01*
X161217285Y-49336300D01*
X161247702Y-49253897D01*
X161294725Y-49204163D01*
X161430490Y-49123990D01*
X161596843Y-49090747D01*
X161782260Y-49105757D01*
X161975220Y-49170344D01*
X162141324Y-49247688D01*
X162032281Y-48791758D01*
X162017233Y-48728523D01*
X161980220Y-48570051D01*
X161950390Y-48438085D01*
X161930482Y-48344912D01*
X161923238Y-48302819D01*
X161926357Y-48295221D01*
X161974380Y-48284012D01*
X162074133Y-48292439D01*
G37*
G36*
X169775628Y-50202647D02*
G01*
X169762392Y-50330523D01*
X169721077Y-50470720D01*
X169643961Y-50581391D01*
X169520745Y-50681901D01*
X169400740Y-50734456D01*
X169240933Y-50756698D01*
X169073247Y-50742865D01*
X168922050Y-50692523D01*
X168798987Y-50629782D01*
X168819922Y-50733281D01*
X168852967Y-50846714D01*
X168915430Y-50986155D01*
X168990984Y-51107693D01*
X169067081Y-51188230D01*
X169171236Y-51234062D01*
X169330307Y-51251222D01*
X169489325Y-51239430D01*
X169620183Y-51192808D01*
X169743131Y-51101703D01*
X169748062Y-51097209D01*
X169800064Y-51054485D01*
X169831411Y-51054904D01*
X169867792Y-51097627D01*
X169931344Y-51189031D01*
X169953919Y-51249392D01*
X169935313Y-51295264D01*
X169876122Y-51344276D01*
X169860243Y-51355021D01*
X169753701Y-51412838D01*
X169639759Y-51458414D01*
X169510603Y-51488844D01*
X169295246Y-51502057D01*
X169085210Y-51473834D01*
X168897545Y-51407115D01*
X168749300Y-51304840D01*
X168719536Y-51274239D01*
X168674074Y-51217165D01*
X168632594Y-51147057D01*
X168592689Y-51056644D01*
X168551955Y-50938655D01*
X168507985Y-50785819D01*
X168458374Y-50590864D01*
X168400714Y-50346521D01*
X168332601Y-50045517D01*
X168288472Y-49849118D01*
X168241030Y-49640457D01*
X168199190Y-49459071D01*
X168180600Y-49380055D01*
X168517115Y-49380055D01*
X168524324Y-49422167D01*
X168536310Y-49474079D01*
X168562618Y-49588975D01*
X168602196Y-49762411D01*
X168655428Y-49996071D01*
X168722700Y-50291642D01*
X168725356Y-50300658D01*
X168770321Y-50368322D01*
X168844716Y-50430095D01*
X168937907Y-50468645D01*
X169070530Y-50491185D01*
X169201866Y-50488035D01*
X169303379Y-50457490D01*
X169337843Y-50427728D01*
X169394784Y-50340532D01*
X169438033Y-50231091D01*
X169455202Y-50126415D01*
X169441855Y-50015856D01*
X169397254Y-49862351D01*
X169332125Y-49713941D01*
X169257751Y-49600670D01*
X169233319Y-49574454D01*
X169101595Y-49475216D01*
X168930152Y-49407670D01*
X168708260Y-49367260D01*
X168668898Y-49362839D01*
X168575785Y-49354456D01*
X168529730Y-49358840D01*
X168517115Y-49380055D01*
X168180600Y-49380055D01*
X168165073Y-49314059D01*
X168140801Y-49214521D01*
X168128492Y-49169556D01*
X168125895Y-49151505D01*
X168141474Y-49137034D01*
X168185626Y-49128423D01*
X168267497Y-49124864D01*
X168396233Y-49125551D01*
X168580981Y-49129680D01*
X168621192Y-49130735D01*
X168797894Y-49136362D01*
X168926429Y-49143851D01*
X169021115Y-49155581D01*
X169096269Y-49173927D01*
X169166208Y-49201268D01*
X169245249Y-49239981D01*
X169390485Y-49330814D01*
X169564046Y-49500325D01*
X169688877Y-49707192D01*
X169760798Y-49943828D01*
X169771260Y-50126415D01*
X169775628Y-50202647D01*
G37*
G36*
X154984300Y-50155271D02*
G01*
X154978846Y-50263399D01*
X154930272Y-50450614D01*
X154830457Y-50598570D01*
X154678194Y-50709454D01*
X154575811Y-50742376D01*
X154424777Y-50753805D01*
X154266045Y-50736715D01*
X154126680Y-50691963D01*
X153995660Y-50628661D01*
X154017441Y-50732720D01*
X154039092Y-50815264D01*
X154090907Y-50952519D01*
X154153548Y-51072919D01*
X154215841Y-51152799D01*
X154236336Y-51167680D01*
X154320608Y-51207222D01*
X154427126Y-51240990D01*
X154528933Y-51261387D01*
X154599075Y-51260815D01*
X154644383Y-51248970D01*
X154722971Y-51230783D01*
X154738372Y-51226573D01*
X154825573Y-51185640D01*
X154914460Y-51123973D01*
X154950434Y-51094058D01*
X155001607Y-51059137D01*
X155033349Y-51062053D01*
X155066089Y-51099509D01*
X155125219Y-51192340D01*
X155142381Y-51268149D01*
X155109021Y-51329883D01*
X155020527Y-51385737D01*
X154872287Y-51443909D01*
X154694299Y-51489007D01*
X154469697Y-51502837D01*
X154257490Y-51470763D01*
X154070983Y-51395108D01*
X153923484Y-51278196D01*
X153878353Y-51222555D01*
X153827769Y-51140578D01*
X153780991Y-51036818D01*
X153735176Y-50902756D01*
X153687485Y-50729873D01*
X153635075Y-50509651D01*
X153575106Y-50233570D01*
X153561289Y-50168459D01*
X153508283Y-49925528D01*
X153455055Y-49691219D01*
X153404861Y-49479360D01*
X153378188Y-49372688D01*
X153712581Y-49372688D01*
X153717689Y-49405645D01*
X153728491Y-49446973D01*
X153750760Y-49538822D01*
X153780422Y-49664497D01*
X153814283Y-49810099D01*
X153849149Y-49961728D01*
X153881827Y-50105484D01*
X153909122Y-50227467D01*
X153927841Y-50313778D01*
X153934791Y-50350517D01*
X153936528Y-50354179D01*
X153972631Y-50384623D01*
X154040760Y-50429563D01*
X154140781Y-50473466D01*
X154286709Y-50495569D01*
X154427392Y-50477589D01*
X154539390Y-50419978D01*
X154593069Y-50355639D01*
X154639916Y-50223235D01*
X154643831Y-50059302D01*
X154603433Y-49875571D01*
X154560433Y-49766232D01*
X154458797Y-49605855D01*
X154320288Y-49489424D01*
X154137553Y-49411599D01*
X153903241Y-49367041D01*
X153894552Y-49366061D01*
X153787767Y-49355652D01*
X153731525Y-49356942D01*
X153712581Y-49372688D01*
X153378188Y-49372688D01*
X153360958Y-49303782D01*
X153326604Y-49178316D01*
X153324890Y-49172169D01*
X153324044Y-49150296D01*
X153341018Y-49135705D01*
X153385283Y-49127373D01*
X153466310Y-49124275D01*
X153593571Y-49125388D01*
X153776537Y-49129689D01*
X153957423Y-49135153D01*
X154096944Y-49142448D01*
X154199587Y-49153610D01*
X154279845Y-49170929D01*
X154352215Y-49196697D01*
X154431191Y-49233207D01*
X154550569Y-49302822D01*
X154731403Y-49463984D01*
X154867426Y-49665541D01*
X154953453Y-49898851D01*
X154972755Y-50059302D01*
X154984300Y-50155271D01*
G37*
G36*
X165030193Y-52324038D02*
G01*
X165067931Y-52343006D01*
X165096041Y-52386389D01*
X165120731Y-52463936D01*
X165148207Y-52585399D01*
X165184675Y-52760528D01*
X165204402Y-52853735D01*
X165233144Y-52986431D01*
X165256091Y-53088629D01*
X165269546Y-53143647D01*
X165280706Y-53164571D01*
X165308089Y-53180570D01*
X165361113Y-53191062D01*
X165449667Y-53197168D01*
X165583643Y-53200009D01*
X165772932Y-53200707D01*
X165935975Y-53199839D01*
X166088257Y-53195957D01*
X166188131Y-53188412D01*
X166242704Y-53176609D01*
X166259082Y-53159950D01*
X166259079Y-53159818D01*
X166251381Y-53113261D01*
X166231174Y-53017403D01*
X166201514Y-52886159D01*
X166165453Y-52733442D01*
X166147304Y-52657963D01*
X166113715Y-52509872D01*
X166099363Y-52411769D01*
X166107347Y-52354015D01*
X166140766Y-52326968D01*
X166202720Y-52320991D01*
X166296307Y-52326442D01*
X166438069Y-52336651D01*
X166496091Y-52597498D01*
X166507650Y-52649181D01*
X166538451Y-52785783D01*
X166579309Y-52966087D01*
X166627310Y-53177261D01*
X166679540Y-53406472D01*
X166733083Y-53640887D01*
X166769844Y-53802498D01*
X166815716Y-54006858D01*
X166854861Y-54184381D01*
X166885285Y-54325893D01*
X166904995Y-54422219D01*
X166911997Y-54464186D01*
X166906211Y-54477860D01*
X166850388Y-54498269D01*
X166733230Y-54504944D01*
X166669312Y-54504179D01*
X166592969Y-54496202D01*
X166554785Y-54474178D01*
X166537331Y-54431580D01*
X166530204Y-54399479D01*
X166510510Y-54306404D01*
X166483964Y-54178053D01*
X166454257Y-54032158D01*
X166436920Y-53947631D01*
X166404944Y-53797409D01*
X166376241Y-53669133D01*
X166355445Y-53583827D01*
X166322521Y-53461555D01*
X165834689Y-53461555D01*
X165766739Y-53461813D01*
X165597339Y-53465074D01*
X165464538Y-53471603D01*
X165377866Y-53480805D01*
X165346858Y-53492083D01*
X165347106Y-53495323D01*
X165356637Y-53547128D01*
X165377944Y-53647157D01*
X165408220Y-53782542D01*
X165444657Y-53940414D01*
X165449733Y-53962099D01*
X165487543Y-54123708D01*
X165520783Y-54265895D01*
X165546017Y-54373968D01*
X165559815Y-54433238D01*
X165560025Y-54434146D01*
X165565708Y-54475691D01*
X165548621Y-54496653D01*
X165494665Y-54502437D01*
X165389743Y-54498450D01*
X165376379Y-54497747D01*
X165276129Y-54490105D01*
X165221446Y-54473947D01*
X165194548Y-54438882D01*
X165177652Y-54374520D01*
X165175661Y-54365387D01*
X165159132Y-54290926D01*
X165130781Y-54164194D01*
X165092659Y-53994323D01*
X165046815Y-53790443D01*
X164995302Y-53561684D01*
X164940169Y-53317178D01*
X164923171Y-53241759D01*
X164870754Y-53008061D01*
X164823874Y-52797382D01*
X164784314Y-52617837D01*
X164753852Y-52477540D01*
X164734269Y-52384607D01*
X164727345Y-52347152D01*
X164742611Y-52336297D01*
X164806948Y-52324807D01*
X164904481Y-52320348D01*
X164976622Y-52319734D01*
X165030193Y-52324038D01*
G37*
G36*
X161995952Y-52895673D02*
G01*
X162184930Y-52965386D01*
X162314508Y-53029496D01*
X162314508Y-52949875D01*
X162314555Y-52944059D01*
X162327799Y-52889983D01*
X162371569Y-52885907D01*
X162377885Y-52887576D01*
X162453412Y-52904159D01*
X162549657Y-52921954D01*
X162628893Y-52941757D01*
X162670286Y-52981512D01*
X162691813Y-53063376D01*
X162709576Y-53160133D01*
X162739938Y-53316254D01*
X162776980Y-53500545D01*
X162817507Y-53697643D01*
X162858321Y-53892186D01*
X162896227Y-54068812D01*
X162928029Y-54212160D01*
X162950530Y-54306866D01*
X162968199Y-54381233D01*
X162983304Y-54463123D01*
X162984447Y-54502502D01*
X162972957Y-54507646D01*
X162915082Y-54512253D01*
X162829736Y-54510768D01*
X162740088Y-54504509D01*
X162669309Y-54494795D01*
X162640567Y-54482942D01*
X162634884Y-54450295D01*
X162617804Y-54365327D01*
X162591988Y-54240971D01*
X162560130Y-54089816D01*
X162524922Y-53924454D01*
X162489058Y-53757472D01*
X162455230Y-53601463D01*
X162426133Y-53469014D01*
X162404458Y-53372716D01*
X162392900Y-53325159D01*
X162367730Y-53285217D01*
X162290002Y-53227485D01*
X162183340Y-53179776D01*
X162069334Y-53151015D01*
X161969574Y-53150130D01*
X161901052Y-53169910D01*
X161849147Y-53205845D01*
X161816874Y-53264051D01*
X161804056Y-53351236D01*
X161810514Y-53474107D01*
X161836070Y-53639370D01*
X161880548Y-53853732D01*
X161943769Y-54123901D01*
X161965713Y-54216015D01*
X161994242Y-54340329D01*
X162013798Y-54431489D01*
X162021055Y-54474415D01*
X162005074Y-54486977D01*
X161939936Y-54499924D01*
X161841723Y-54504944D01*
X161802097Y-54504656D01*
X161714777Y-54498639D01*
X161673231Y-54481267D01*
X161662862Y-54447883D01*
X161661356Y-54430157D01*
X161649304Y-54352738D01*
X161627148Y-54230420D01*
X161597229Y-54075864D01*
X161561887Y-53901734D01*
X161544285Y-53816759D01*
X161509566Y-53648433D01*
X161480117Y-53504730D01*
X161458613Y-53398722D01*
X161447727Y-53343484D01*
X161447325Y-53341496D01*
X161405590Y-53281645D01*
X161319292Y-53224303D01*
X161208126Y-53177777D01*
X161091783Y-53150374D01*
X160989959Y-53150400D01*
X160976121Y-53153112D01*
X160911352Y-53171706D01*
X160864954Y-53201984D01*
X160836655Y-53251291D01*
X160826185Y-53326970D01*
X160833274Y-53436367D01*
X160857652Y-53586826D01*
X160899047Y-53785692D01*
X160957189Y-54040309D01*
X161065506Y-54504944D01*
X160891784Y-54504944D01*
X160835727Y-54504336D01*
X160757776Y-54496649D01*
X160718806Y-54474663D01*
X160701153Y-54431580D01*
X160681339Y-54344410D01*
X160631331Y-54113716D01*
X160585631Y-53888287D01*
X160546371Y-53679764D01*
X160515686Y-53499787D01*
X160495711Y-53359997D01*
X160488578Y-53272035D01*
X160508527Y-53119589D01*
X160574042Y-53005393D01*
X160692196Y-52919429D01*
X160786328Y-52888733D01*
X160944091Y-52883062D01*
X161121611Y-52916735D01*
X161301905Y-52987846D01*
X161472067Y-53074074D01*
X161548147Y-52991983D01*
X161549111Y-52990947D01*
X161668623Y-52908847D01*
X161820710Y-52876957D01*
X161995952Y-52895673D01*
G37*
G36*
X182757224Y-42458660D02*
G01*
X182651659Y-42563644D01*
X182496890Y-42688559D01*
X182293327Y-42841353D01*
X182214988Y-42899830D01*
X181744493Y-43262583D01*
X181313683Y-43616949D01*
X180905007Y-43977799D01*
X180500913Y-44360005D01*
X180202298Y-44658365D01*
X179824506Y-45056259D01*
X179468302Y-45454518D01*
X179141719Y-45843808D01*
X178852788Y-46214794D01*
X178609542Y-46558140D01*
X178562850Y-46626492D01*
X178476452Y-46739282D01*
X178405662Y-46807338D01*
X178341445Y-46840164D01*
X178322189Y-46845237D01*
X178182692Y-46850970D01*
X178066215Y-46797808D01*
X178055066Y-46786882D01*
X178005363Y-46729010D01*
X177928471Y-46633582D01*
X177832556Y-46510838D01*
X177725788Y-46371019D01*
X177705494Y-46344212D01*
X177286329Y-45815572D01*
X176835972Y-45291464D01*
X176362560Y-44779799D01*
X175874229Y-44288487D01*
X175379117Y-43825438D01*
X174885358Y-43398564D01*
X174401091Y-43015776D01*
X173934452Y-42684983D01*
X173922504Y-42677038D01*
X173791209Y-42586418D01*
X173705766Y-42516493D01*
X173656597Y-42455667D01*
X173634121Y-42392343D01*
X173628757Y-42314923D01*
X173629393Y-42309521D01*
X174838878Y-42309521D01*
X174860486Y-42460617D01*
X174932392Y-42635202D01*
X175005805Y-42761494D01*
X175130432Y-42941653D01*
X175291087Y-43150773D01*
X175480990Y-43381099D01*
X175693361Y-43624875D01*
X175921422Y-43874348D01*
X176158392Y-44121759D01*
X176397492Y-44359355D01*
X176631942Y-44579380D01*
X176637730Y-44584631D01*
X176861102Y-44783374D01*
X177085478Y-44976008D01*
X177302783Y-45156094D01*
X177504943Y-45317193D01*
X177683883Y-45452868D01*
X177831529Y-45556679D01*
X177939804Y-45622189D01*
X178076062Y-45678984D01*
X178221197Y-45698639D01*
X178368509Y-45667166D01*
X178535611Y-45583420D01*
X178597920Y-45544632D01*
X178834624Y-45379958D01*
X179100119Y-45172665D01*
X179386688Y-44930371D01*
X179686614Y-44660691D01*
X179992180Y-44371242D01*
X180295669Y-44069641D01*
X180589364Y-43763503D01*
X180865548Y-43460446D01*
X181116504Y-43168086D01*
X181334516Y-42894039D01*
X181511865Y-42645922D01*
X181561092Y-42568599D01*
X181601159Y-42485361D01*
X181615110Y-42405576D01*
X181611004Y-42301222D01*
X181600620Y-42222500D01*
X181559040Y-42090943D01*
X181478365Y-41949401D01*
X181415397Y-41858094D01*
X181232772Y-41618267D01*
X181008956Y-41350924D01*
X180751867Y-41063951D01*
X180469423Y-40765233D01*
X180169540Y-40462655D01*
X179860136Y-40164104D01*
X179549128Y-39877464D01*
X179244433Y-39610621D01*
X178953968Y-39371461D01*
X178685651Y-39167869D01*
X178661553Y-39150660D01*
X178495334Y-39042521D01*
X178357160Y-38978482D01*
X178232274Y-38955539D01*
X178105917Y-38970692D01*
X177963333Y-39020939D01*
X177928982Y-39036824D01*
X177774968Y-39127025D01*
X177587517Y-39260285D01*
X177372674Y-39430602D01*
X177136483Y-39631974D01*
X176884989Y-39858399D01*
X176624235Y-40103874D01*
X176360266Y-40362396D01*
X176099125Y-40627964D01*
X175846857Y-40894574D01*
X175609506Y-41156225D01*
X175393116Y-41406914D01*
X175203731Y-41640639D01*
X175047395Y-41851396D01*
X174930153Y-42033185D01*
X174867502Y-42163983D01*
X174838878Y-42309521D01*
X173629393Y-42309521D01*
X173636333Y-42250568D01*
X173680579Y-42158791D01*
X173771241Y-42066120D01*
X173916137Y-41962980D01*
X173961996Y-41933079D01*
X174139734Y-41809567D01*
X174349690Y-41654560D01*
X174579624Y-41477599D01*
X174817294Y-41288223D01*
X175050459Y-41095969D01*
X175266878Y-40910379D01*
X175490109Y-40709218D01*
X175811861Y-40403637D01*
X176142693Y-40073264D01*
X176474044Y-39727472D01*
X176797349Y-39375633D01*
X177104046Y-39027119D01*
X177385572Y-38691304D01*
X177633364Y-38377558D01*
X177838860Y-38095256D01*
X177862278Y-38061630D01*
X177965344Y-37926463D01*
X178052545Y-37839986D01*
X178134089Y-37793741D01*
X178220182Y-37779270D01*
X178222370Y-37779242D01*
X178275090Y-37783393D01*
X178325890Y-37801330D01*
X178381502Y-37839531D01*
X178448657Y-37904473D01*
X178534086Y-38002637D01*
X178644520Y-38140501D01*
X178786691Y-38324544D01*
X178872391Y-38435974D01*
X179113914Y-38743496D01*
X179339296Y-39018574D01*
X179561688Y-39276159D01*
X179794240Y-39531206D01*
X180050104Y-39798667D01*
X180342431Y-40093496D01*
X180417633Y-40168111D01*
X180720512Y-40462589D01*
X181003281Y-40725870D01*
X181281074Y-40971021D01*
X181569027Y-41211111D01*
X181882273Y-41459204D01*
X182235946Y-41728370D01*
X182334378Y-41802262D01*
X182532643Y-41954554D01*
X182679246Y-42079092D01*
X182774596Y-42183824D01*
X182819102Y-42276698D01*
X182813175Y-42365661D01*
X182789161Y-42405576D01*
X182757224Y-42458660D01*
G37*
G36*
X180883072Y-41510580D02*
G01*
X181050421Y-41713005D01*
X181180643Y-41882320D01*
X181277346Y-42023081D01*
X181344136Y-42139847D01*
X181351981Y-42155586D01*
X181395329Y-42248198D01*
X181402671Y-42276301D01*
X181411952Y-42311829D01*
X181404379Y-42372217D01*
X181375142Y-42455099D01*
X181341090Y-42526517D01*
X181254277Y-42665576D01*
X181129552Y-42837637D01*
X180972825Y-43035896D01*
X180790004Y-43253548D01*
X180586998Y-43483786D01*
X180369715Y-43719805D01*
X180144065Y-43954799D01*
X179915955Y-44181964D01*
X179691296Y-44394495D01*
X179600950Y-44476653D01*
X179547963Y-44523536D01*
X179406034Y-44649114D01*
X179206719Y-44819813D01*
X179010538Y-44982748D01*
X178825024Y-45131917D01*
X178657711Y-45261318D01*
X178516133Y-45364948D01*
X178407821Y-45436807D01*
X178340311Y-45470891D01*
X178273441Y-45490460D01*
X178220734Y-45499960D01*
X178169678Y-45493598D01*
X178087804Y-45471446D01*
X178037676Y-45451144D01*
X177935006Y-45394563D01*
X177810257Y-45314620D01*
X177680230Y-45221613D01*
X177432993Y-45026588D01*
X177142598Y-44780428D01*
X176852172Y-44518996D01*
X177930791Y-44518996D01*
X178033658Y-44539569D01*
X178120550Y-44552299D01*
X178189508Y-44554446D01*
X178204652Y-44552881D01*
X178283222Y-44545327D01*
X178383634Y-44536143D01*
X178524774Y-44523536D01*
X178501765Y-43848964D01*
X178499827Y-43793464D01*
X178492126Y-43594752D01*
X178484225Y-43420984D01*
X178476660Y-43282218D01*
X178469963Y-43188516D01*
X178464669Y-43149937D01*
X178464499Y-43149666D01*
X178426088Y-43137473D01*
X178340952Y-43128791D01*
X178227193Y-43125483D01*
X178003803Y-43125483D01*
X177985646Y-43394481D01*
X177977826Y-43520962D01*
X177967917Y-43700896D01*
X177957926Y-43899180D01*
X177949140Y-44091238D01*
X177930791Y-44518996D01*
X176852172Y-44518996D01*
X176843000Y-44510740D01*
X176541873Y-44225354D01*
X176246889Y-43932099D01*
X175965721Y-43638807D01*
X175706043Y-43353307D01*
X175475526Y-43083429D01*
X175281844Y-42837003D01*
X175132669Y-42621859D01*
X175079358Y-42528640D01*
X175040838Y-42425369D01*
X175035107Y-42343595D01*
X176446397Y-42343595D01*
X176477552Y-42471282D01*
X176572947Y-42597087D01*
X176642487Y-42655759D01*
X176827651Y-42763281D01*
X177071936Y-42854423D01*
X177377568Y-42930104D01*
X177500759Y-42951305D01*
X177702027Y-42976422D01*
X177927354Y-42996589D01*
X178159040Y-43010787D01*
X178379388Y-43017992D01*
X178570700Y-43017183D01*
X178715279Y-43007338D01*
X178960049Y-42970869D01*
X179293915Y-42901521D01*
X179585303Y-42816096D01*
X179828651Y-42716624D01*
X180018398Y-42605139D01*
X180148981Y-42483671D01*
X180195526Y-42401256D01*
X180208900Y-42276301D01*
X180163923Y-42145632D01*
X180063683Y-42014267D01*
X179911266Y-41887226D01*
X179709759Y-41769527D01*
X179636809Y-41734098D01*
X179485795Y-41669343D01*
X179367190Y-41638374D01*
X179264720Y-41640502D01*
X179162109Y-41675038D01*
X179043081Y-41741292D01*
X179029360Y-41749854D01*
X178939200Y-41811665D01*
X178881777Y-41861011D01*
X178868990Y-41887874D01*
X178877813Y-41893999D01*
X178937422Y-41921223D01*
X179025035Y-41952144D01*
X179133895Y-41990228D01*
X179335666Y-42091213D01*
X179477416Y-42213589D01*
X179516003Y-42263634D01*
X179556666Y-42355531D01*
X179539404Y-42440431D01*
X179463481Y-42535294D01*
X179415329Y-42576785D01*
X179257953Y-42665057D01*
X179053138Y-42734362D01*
X178811482Y-42784774D01*
X178543582Y-42816369D01*
X178260036Y-42829219D01*
X177971440Y-42823400D01*
X177688392Y-42798984D01*
X177421490Y-42756046D01*
X177181330Y-42694660D01*
X176978510Y-42614901D01*
X176823628Y-42516842D01*
X176775739Y-42467770D01*
X176726601Y-42359882D01*
X176739947Y-42247593D01*
X176815985Y-42141087D01*
X176837012Y-42121880D01*
X176956227Y-42034473D01*
X177076137Y-41993671D01*
X177223042Y-41989695D01*
X177387783Y-42000579D01*
X177447561Y-41825794D01*
X177507339Y-41651009D01*
X177434736Y-41672335D01*
X177402916Y-41680924D01*
X177310514Y-41704003D01*
X177183006Y-41734672D01*
X177038004Y-41768655D01*
X176942296Y-41791292D01*
X176832282Y-41820351D01*
X176773381Y-41842386D01*
X176757585Y-41860779D01*
X176776885Y-41878911D01*
X176812739Y-41903600D01*
X176823865Y-41926126D01*
X176809794Y-41935721D01*
X176752516Y-41973198D01*
X176670167Y-42026251D01*
X176574018Y-42098951D01*
X176478785Y-42218120D01*
X176446397Y-42343595D01*
X175035107Y-42343595D01*
X175033729Y-42323934D01*
X175060712Y-42214494D01*
X175124468Y-42087208D01*
X175227680Y-41932234D01*
X175373029Y-41739732D01*
X175557063Y-41508864D01*
X175746266Y-41291401D01*
X177712543Y-41291401D01*
X177719210Y-41313313D01*
X177772931Y-41327758D01*
X177883524Y-41332158D01*
X178069529Y-41332158D01*
X178045734Y-42033185D01*
X178021939Y-42734212D01*
X178241292Y-42734212D01*
X178460645Y-42734212D01*
X178440397Y-42236972D01*
X178437772Y-42174322D01*
X178428815Y-41980565D01*
X178419220Y-41797471D01*
X178409980Y-41643208D01*
X178402089Y-41535945D01*
X178384029Y-41332158D01*
X178549654Y-41332158D01*
X178610707Y-41330428D01*
X178686086Y-41321566D01*
X178715708Y-41307704D01*
X178713121Y-41294216D01*
X178693673Y-41227957D01*
X178658251Y-41117875D01*
X178610527Y-40974534D01*
X178554169Y-40808501D01*
X178492847Y-40630340D01*
X178430232Y-40450617D01*
X178369992Y-40279897D01*
X178315799Y-40128747D01*
X178271320Y-40007731D01*
X178240228Y-39927415D01*
X178226190Y-39898365D01*
X178221884Y-39904412D01*
X178198123Y-39958440D01*
X178157580Y-40061276D01*
X178103602Y-40204126D01*
X178039535Y-40378199D01*
X177968727Y-40574702D01*
X177938624Y-40659066D01*
X177869936Y-40851482D01*
X177809595Y-41020407D01*
X177760989Y-41156357D01*
X177727508Y-41249849D01*
X177712543Y-41291401D01*
X175746266Y-41291401D01*
X176108965Y-40874527D01*
X176699982Y-40279487D01*
X177342405Y-39711085D01*
X177453939Y-39619015D01*
X177663159Y-39452796D01*
X177836378Y-39328208D01*
X177981079Y-39242785D01*
X178104747Y-39194061D01*
X178214868Y-39179567D01*
X178318926Y-39196839D01*
X178424405Y-39243409D01*
X178538790Y-39316810D01*
X178714958Y-39445425D01*
X179081631Y-39733678D01*
X179459808Y-40055431D01*
X179833694Y-40396522D01*
X180187491Y-40742786D01*
X180505403Y-41080061D01*
X180674989Y-41270487D01*
X180707244Y-41307704D01*
X180883072Y-41510580D01*
G37*
G36*
X173320008Y-91218551D02*
G01*
X173307982Y-91230577D01*
X173295955Y-91218551D01*
X173307982Y-91206524D01*
X173320008Y-91218551D01*
G37*
G36*
X174330235Y-90569119D02*
G01*
X174318209Y-90581146D01*
X174306182Y-90569119D01*
X174318209Y-90557093D01*
X174330235Y-90569119D01*
G37*
G36*
X174378341Y-90448854D02*
G01*
X174366315Y-90460880D01*
X174354288Y-90448854D01*
X174366315Y-90436827D01*
X174378341Y-90448854D01*
G37*
G36*
X175148038Y-90136164D02*
G01*
X175136012Y-90148191D01*
X175123985Y-90136164D01*
X175136012Y-90124138D01*
X175148038Y-90136164D01*
G37*
G36*
X175292357Y-90184271D02*
G01*
X175280330Y-90196297D01*
X175268304Y-90184271D01*
X175280330Y-90172244D01*
X175292357Y-90184271D01*
G37*
G36*
X176567167Y-90256430D02*
G01*
X176555141Y-90268456D01*
X176543114Y-90256430D01*
X176555141Y-90244403D01*
X176567167Y-90256430D01*
G37*
G36*
X189219061Y-91603399D02*
G01*
X189207035Y-91615426D01*
X189195008Y-91603399D01*
X189207035Y-91591373D01*
X189219061Y-91603399D01*
G37*
G36*
X191167357Y-93335218D02*
G01*
X191155330Y-93347244D01*
X191143304Y-93335218D01*
X191155330Y-93323191D01*
X191167357Y-93335218D01*
G37*
G36*
X173696839Y-90757534D02*
G01*
X173700602Y-90764769D01*
X173680804Y-90773570D01*
X173668070Y-90771834D01*
X173664768Y-90757534D01*
X173668294Y-90754656D01*
X173696839Y-90757534D01*
G37*
G36*
X174081687Y-90661322D02*
G01*
X174085450Y-90668557D01*
X174065652Y-90677358D01*
X174052919Y-90675622D01*
X174049617Y-90661322D01*
X174053142Y-90658444D01*
X174081687Y-90661322D01*
G37*
G36*
X175188127Y-90348633D02*
G01*
X175191890Y-90355868D01*
X175172091Y-90364668D01*
X175159358Y-90362932D01*
X175156056Y-90348633D01*
X175159582Y-90345754D01*
X175188127Y-90348633D01*
G37*
G36*
X180271334Y-84519782D02*
G01*
X180269598Y-84532515D01*
X180255299Y-84535817D01*
X180252420Y-84532292D01*
X180255299Y-84503747D01*
X180262533Y-84499984D01*
X180271334Y-84519782D01*
G37*
G36*
X174391758Y-90486016D02*
G01*
X174414421Y-90508986D01*
X174418901Y-90517502D01*
X174417260Y-90533039D01*
X174413031Y-90531957D01*
X174390368Y-90508986D01*
X174385888Y-90500470D01*
X174387529Y-90484933D01*
X174391758Y-90486016D01*
G37*
G36*
X174480567Y-93440388D02*
G01*
X174506222Y-93462403D01*
X174522660Y-93482481D01*
X174522265Y-93486701D01*
X174506594Y-93486864D01*
X174471486Y-93449469D01*
X174458049Y-93432042D01*
X174452076Y-93419586D01*
X174480567Y-93440388D01*
G37*
G36*
X175161455Y-90173326D02*
G01*
X175184118Y-90196297D01*
X175188598Y-90204813D01*
X175186957Y-90220350D01*
X175182728Y-90219268D01*
X175160065Y-90196297D01*
X175155585Y-90187781D01*
X175157226Y-90172244D01*
X175161455Y-90173326D01*
G37*
G36*
X173584591Y-90871713D02*
G01*
X173627787Y-90893337D01*
X173654746Y-90909120D01*
X173661421Y-90920982D01*
X173640614Y-90917454D01*
X173605576Y-90902259D01*
X173571149Y-90880481D01*
X173544804Y-90858741D01*
X173544655Y-90853608D01*
X173584591Y-90871713D01*
G37*
G36*
X174264352Y-90594759D02*
G01*
X174221997Y-90616379D01*
X174218776Y-90617919D01*
X174162564Y-90641539D01*
X174125785Y-90651488D01*
X174116906Y-90646583D01*
X174138302Y-90631565D01*
X174181549Y-90612666D01*
X174234023Y-90596320D01*
X174264308Y-90589843D01*
X174264352Y-90594759D01*
G37*
G36*
X173991524Y-90692942D02*
G01*
X173933360Y-90714111D01*
X173916386Y-90719422D01*
X173839013Y-90738153D01*
X173777016Y-90745623D01*
X173764390Y-90741611D01*
X173789240Y-90729598D01*
X173849175Y-90712411D01*
X173916411Y-90696453D01*
X173979919Y-90684050D01*
X174006000Y-90682900D01*
X173991524Y-90692942D01*
G37*
G36*
X173127584Y-91316826D02*
G01*
X173137763Y-91319640D01*
X173217918Y-91344879D01*
X173274514Y-91368105D01*
X173295955Y-91384648D01*
X173294511Y-91386973D01*
X173266461Y-91385640D01*
X173215371Y-91371890D01*
X173158052Y-91350895D01*
X173111318Y-91327829D01*
X173092586Y-91315606D01*
X173088878Y-91307810D01*
X173127584Y-91316826D01*
G37*
G36*
X175201240Y-90244693D02*
G01*
X175227151Y-90264081D01*
X175268304Y-90304536D01*
X175275615Y-90312429D01*
X175306530Y-90349566D01*
X175312769Y-90364668D01*
X175311315Y-90364378D01*
X175285403Y-90344990D01*
X175244251Y-90304536D01*
X175236939Y-90296642D01*
X175206025Y-90259506D01*
X175199785Y-90244403D01*
X175201240Y-90244693D01*
G37*
G36*
X176602438Y-90269318D02*
G01*
X176626913Y-90293522D01*
X176663379Y-90340615D01*
X176672375Y-90353521D01*
X176698345Y-90395742D01*
X176702735Y-90412774D01*
X176700268Y-90411913D01*
X176675793Y-90387709D01*
X176639326Y-90340615D01*
X176630331Y-90327710D01*
X176604360Y-90285488D01*
X176599971Y-90268456D01*
X176602438Y-90269318D01*
G37*
G36*
X173644724Y-91007480D02*
G01*
X173622009Y-91028820D01*
X173560097Y-91079217D01*
X173488379Y-91131291D01*
X173406994Y-91183395D01*
X173359437Y-91205445D01*
X173344061Y-91198093D01*
X173354891Y-91187426D01*
X173396382Y-91156739D01*
X173458313Y-91114809D01*
X173503526Y-91085059D01*
X173577844Y-91035685D01*
X173632698Y-90998669D01*
X173692830Y-90957382D01*
X173644724Y-91007480D01*
G37*
G36*
X174883878Y-90296542D02*
G01*
X174964101Y-90301297D01*
X175032340Y-90307734D01*
X175075879Y-90315385D01*
X175084050Y-90319738D01*
X175063583Y-90324268D01*
X175006391Y-90325064D01*
X174919535Y-90321837D01*
X174872340Y-90319104D01*
X174783497Y-90312738D01*
X174719932Y-90306479D01*
X174693035Y-90301359D01*
X174698466Y-90297021D01*
X174738345Y-90293938D01*
X174804387Y-90293934D01*
X174883878Y-90296542D01*
G37*
G36*
X178658720Y-92245815D02*
G01*
X178677405Y-92288612D01*
X178700159Y-92381845D01*
X178692420Y-92502002D01*
X178647723Y-92610298D01*
X178622404Y-92646772D01*
X178599193Y-92671363D01*
X178599727Y-92654406D01*
X178626017Y-92597122D01*
X178645166Y-92549205D01*
X178656828Y-92471006D01*
X178653885Y-92362605D01*
X178650907Y-92322243D01*
X178647069Y-92257604D01*
X178649141Y-92233804D01*
X178658720Y-92245815D01*
G37*
G36*
X175358502Y-90207455D02*
G01*
X175359027Y-90207658D01*
X175542038Y-90269399D01*
X175733693Y-90314589D01*
X175946844Y-90345651D01*
X176194345Y-90365009D01*
X176288748Y-90370411D01*
X176441234Y-90382025D01*
X176555892Y-90396494D01*
X176639533Y-90415636D01*
X176698966Y-90441267D01*
X176741003Y-90475205D01*
X176772452Y-90519267D01*
X176814695Y-90593172D01*
X176726319Y-90509611D01*
X176637942Y-90426049D01*
X176247773Y-90408606D01*
X176175708Y-90404905D01*
X176033052Y-90394952D01*
X175902343Y-90382609D01*
X175795629Y-90369100D01*
X175724956Y-90355642D01*
X175667492Y-90339377D01*
X175569877Y-90308642D01*
X175475170Y-90275734D01*
X175394164Y-90244659D01*
X175337647Y-90219420D01*
X175316410Y-90204022D01*
X175323782Y-90199623D01*
X175358502Y-90207455D01*
G37*
G36*
X177345407Y-93614063D02*
G01*
X177307104Y-93686122D01*
X177241266Y-93796239D01*
X177191174Y-93875066D01*
X177089008Y-94019020D01*
X176995495Y-94127625D01*
X176913547Y-94197713D01*
X176846076Y-94226117D01*
X176790883Y-94240609D01*
X176739000Y-94271542D01*
X176712614Y-94294154D01*
X176682278Y-94309365D01*
X176669383Y-94304337D01*
X176665440Y-94277787D01*
X176686312Y-94249925D01*
X176690612Y-94246735D01*
X176722500Y-94212762D01*
X176763202Y-94159977D01*
X176775916Y-94141186D01*
X176792290Y-94108423D01*
X176782362Y-94105402D01*
X176782543Y-94098279D01*
X176809582Y-94061645D01*
X176859202Y-94001279D01*
X176926530Y-93923334D01*
X176991173Y-93851211D01*
X177054731Y-93783223D01*
X177101015Y-93737073D01*
X177122963Y-93720066D01*
X177129168Y-93719042D01*
X177160475Y-93698170D01*
X177166999Y-93688781D01*
X177150453Y-93693576D01*
X177136021Y-93698534D01*
X177120387Y-93683785D01*
X177129725Y-93669706D01*
X177170750Y-93672676D01*
X177179760Y-93675014D01*
X177230421Y-93667451D01*
X177291016Y-93621691D01*
X177298411Y-93614675D01*
X177340732Y-93579496D01*
X177356507Y-93578907D01*
X177345407Y-93614063D01*
G37*
G36*
X177790055Y-93961651D02*
G01*
X177838321Y-93989264D01*
X177847450Y-93994833D01*
X177977061Y-94078176D01*
X178097719Y-94163141D01*
X178201205Y-94243382D01*
X178279303Y-94312549D01*
X178323795Y-94364294D01*
X178366144Y-94466834D01*
X178364784Y-94565399D01*
X178319337Y-94654735D01*
X178231657Y-94733199D01*
X178103595Y-94799151D01*
X177937005Y-94850949D01*
X177733739Y-94886954D01*
X177720760Y-94888462D01*
X177607368Y-94896283D01*
X177457659Y-94900016D01*
X177281741Y-94899925D01*
X177089719Y-94896272D01*
X176891700Y-94889320D01*
X176697789Y-94879331D01*
X176518092Y-94866570D01*
X176362716Y-94851298D01*
X176253472Y-94837657D01*
X176068848Y-94812125D01*
X175865506Y-94781698D01*
X175654520Y-94748196D01*
X175446963Y-94713441D01*
X175253911Y-94679255D01*
X175086436Y-94647458D01*
X174955614Y-94619873D01*
X174949746Y-94618520D01*
X174860836Y-94596312D01*
X174751763Y-94566695D01*
X174630841Y-94532210D01*
X174506383Y-94495396D01*
X174386703Y-94458791D01*
X174280112Y-94424935D01*
X174194925Y-94396367D01*
X174139454Y-94375627D01*
X174122012Y-94365253D01*
X174127163Y-94364449D01*
X174170356Y-94367788D01*
X174251384Y-94377928D01*
X174363418Y-94393803D01*
X174499630Y-94414349D01*
X174653192Y-94438498D01*
X174817277Y-94465185D01*
X174985055Y-94493345D01*
X175149700Y-94521911D01*
X175304383Y-94549817D01*
X175543772Y-94592913D01*
X175901163Y-94652101D01*
X176226259Y-94698571D01*
X176527523Y-94733249D01*
X176813417Y-94757059D01*
X177092403Y-94770925D01*
X177372944Y-94775771D01*
X177608765Y-94772948D01*
X177813075Y-94762125D01*
X177976935Y-94742409D01*
X178103985Y-94712943D01*
X178197864Y-94672872D01*
X178262213Y-94621339D01*
X178300672Y-94557487D01*
X178303209Y-94550399D01*
X178310870Y-94479146D01*
X178284914Y-94403514D01*
X178222693Y-94319854D01*
X178121562Y-94224517D01*
X177978872Y-94113852D01*
X177970775Y-94107958D01*
X177871606Y-94034710D01*
X177807737Y-93985296D01*
X177780206Y-93960636D01*
X177790055Y-93961651D01*
G37*
G36*
X181307858Y-91261144D02*
G01*
X181270404Y-91317102D01*
X181264094Y-91321493D01*
X181185576Y-91347829D01*
X181087128Y-91335236D01*
X180967476Y-91283173D01*
X180825346Y-91191103D01*
X180659466Y-91058485D01*
X180635400Y-91037843D01*
X180557167Y-90971805D01*
X180509196Y-90934423D01*
X180486882Y-90923068D01*
X180485616Y-90935112D01*
X180500794Y-90967923D01*
X180503207Y-90972578D01*
X180604215Y-91145130D01*
X180729372Y-91324699D01*
X180872679Y-91505187D01*
X181028136Y-91680495D01*
X181189741Y-91844522D01*
X181351495Y-91991171D01*
X181507398Y-92114340D01*
X181651449Y-92207933D01*
X181777648Y-92265848D01*
X181872150Y-92282244D01*
X181951612Y-92265572D01*
X182003104Y-92216842D01*
X182017206Y-92174183D01*
X182032899Y-92089025D01*
X182046358Y-91976923D01*
X182056250Y-91849317D01*
X182061243Y-91717646D01*
X182062369Y-91668834D01*
X182064833Y-91613075D01*
X182067591Y-91591368D01*
X182072427Y-91602302D01*
X182087228Y-91648170D01*
X182107573Y-91717651D01*
X182131448Y-91810414D01*
X182160706Y-91992401D01*
X182156804Y-92141534D01*
X182119602Y-92259325D01*
X182048958Y-92347287D01*
X181997731Y-92381412D01*
X181896006Y-92408294D01*
X181774574Y-92394745D01*
X181630330Y-92340718D01*
X181563779Y-92306211D01*
X181391751Y-92194145D01*
X181210516Y-92047792D01*
X181026829Y-91874251D01*
X180847442Y-91680621D01*
X180679108Y-91474000D01*
X180528580Y-91261487D01*
X180402612Y-91050180D01*
X180396117Y-91038061D01*
X180347821Y-90949308D01*
X180304617Y-90871995D01*
X180275180Y-90821676D01*
X180258981Y-90794779D01*
X180242948Y-90761158D01*
X180231516Y-90720018D01*
X180221259Y-90657943D01*
X180208750Y-90561515D01*
X180205161Y-90523060D01*
X180329340Y-90523060D01*
X180343585Y-90610552D01*
X180378434Y-90702437D01*
X180429728Y-90785907D01*
X180493310Y-90848154D01*
X180511898Y-90861410D01*
X180586202Y-90918602D01*
X180658682Y-90979213D01*
X180716165Y-91022990D01*
X180805589Y-91079728D01*
X180899212Y-91130225D01*
X181008800Y-91180314D01*
X181103829Y-91214783D01*
X181165341Y-91223622D01*
X181196653Y-91207693D01*
X181197415Y-91206085D01*
X181194042Y-91169069D01*
X181173260Y-91103557D01*
X181139132Y-91022617D01*
X181085143Y-90924846D01*
X181001919Y-90809362D01*
X180904120Y-90699713D01*
X180797913Y-90600591D01*
X180689466Y-90516689D01*
X180584945Y-90452700D01*
X180490518Y-90413318D01*
X180412352Y-90403235D01*
X180356613Y-90427144D01*
X180339858Y-90452767D01*
X180329340Y-90523060D01*
X180205161Y-90523060D01*
X180204450Y-90515437D01*
X180212031Y-90411530D01*
X180250440Y-90338878D01*
X180322255Y-90291343D01*
X180415271Y-90275027D01*
X180534146Y-90293165D01*
X180667090Y-90345873D01*
X180709181Y-90370978D01*
X180801762Y-90442182D01*
X180906198Y-90537384D01*
X181012712Y-90646342D01*
X181111531Y-90758816D01*
X181192879Y-90864569D01*
X181246983Y-90953358D01*
X181292034Y-91065139D01*
X181314924Y-91174930D01*
X181312371Y-91206085D01*
X181307858Y-91261144D01*
G37*
G36*
X181239722Y-87253026D02*
G01*
X181247415Y-87273854D01*
X181285105Y-87375898D01*
X181342082Y-87538657D01*
X181410000Y-87739505D01*
X181488206Y-87976644D01*
X181537252Y-88125613D01*
X181612558Y-88350151D01*
X181689480Y-88575132D01*
X181764783Y-88791296D01*
X181835233Y-88989386D01*
X181897593Y-89160143D01*
X181948628Y-89294308D01*
X181993807Y-89410763D01*
X182069996Y-89611751D01*
X182149671Y-89826458D01*
X182225743Y-90035714D01*
X182291121Y-90220350D01*
X182353402Y-90397573D01*
X182477816Y-90737902D01*
X182594395Y-91036277D01*
X182704798Y-91296116D01*
X182810687Y-91520837D01*
X182913722Y-91713856D01*
X183015563Y-91878593D01*
X183117870Y-92018464D01*
X183222305Y-92136887D01*
X183275790Y-92187626D01*
X183380191Y-92258669D01*
X183480932Y-92285973D01*
X183583348Y-92271529D01*
X183635643Y-92244402D01*
X183675618Y-92195170D01*
X183701373Y-92118466D01*
X183715084Y-92007619D01*
X183718928Y-91855956D01*
X183703298Y-91611078D01*
X183647568Y-91345990D01*
X183552231Y-91105692D01*
X183522171Y-91051700D01*
X183443838Y-90940115D01*
X183354007Y-90840988D01*
X183262903Y-90764873D01*
X183180753Y-90722323D01*
X183151944Y-90715063D01*
X183044093Y-90708160D01*
X182943402Y-90729109D01*
X182867720Y-90774911D01*
X182855368Y-90786697D01*
X182827419Y-90803184D01*
X182823880Y-90779583D01*
X182844409Y-90715014D01*
X182892858Y-90643020D01*
X182976025Y-90589854D01*
X183081117Y-90563713D01*
X183197376Y-90567168D01*
X183314042Y-90602790D01*
X183347468Y-90620837D01*
X183444501Y-90694234D01*
X183550071Y-90798243D01*
X183656333Y-90923183D01*
X183755440Y-91059374D01*
X183839548Y-91197136D01*
X183900811Y-91326789D01*
X183938253Y-91433920D01*
X183980905Y-91582122D01*
X184015674Y-91731827D01*
X184039084Y-91867706D01*
X184047660Y-91974428D01*
X184033860Y-92107986D01*
X183985855Y-92254052D01*
X183908896Y-92380411D01*
X183808657Y-92478098D01*
X183690816Y-92538147D01*
X183587429Y-92563171D01*
X183460039Y-92568033D01*
X183344195Y-92535420D01*
X183231341Y-92462495D01*
X183112924Y-92346420D01*
X183092219Y-92322859D01*
X182995383Y-92200962D01*
X182898292Y-92058554D01*
X182799940Y-91893251D01*
X182699317Y-91702667D01*
X182595417Y-91484417D01*
X182487231Y-91236114D01*
X182373753Y-90955375D01*
X182253974Y-90639812D01*
X182126888Y-90287040D01*
X181991485Y-89894675D01*
X181846760Y-89460329D01*
X181691704Y-88981619D01*
X181688009Y-88970076D01*
X181561567Y-88575894D01*
X181446755Y-88219951D01*
X181341083Y-87894727D01*
X181242058Y-87592703D01*
X181147191Y-87306360D01*
X181136300Y-87273854D01*
X181209402Y-87273854D01*
X181221429Y-87285880D01*
X181233455Y-87273854D01*
X181221429Y-87261827D01*
X181209402Y-87273854D01*
X181136300Y-87273854D01*
X181103904Y-87177158D01*
X181190488Y-87177158D01*
X181193367Y-87205704D01*
X181200601Y-87209467D01*
X181209402Y-87189668D01*
X181207666Y-87176935D01*
X181193367Y-87173633D01*
X181190488Y-87177158D01*
X181103904Y-87177158D01*
X181053991Y-87028178D01*
X180959967Y-86750640D01*
X180862629Y-86466225D01*
X180759485Y-86167414D01*
X180745706Y-86127571D01*
X180660958Y-85879531D01*
X180580937Y-85640335D01*
X180507058Y-85414543D01*
X180440739Y-85206721D01*
X180383394Y-85021431D01*
X180336441Y-84863236D01*
X180301295Y-84736699D01*
X180279372Y-84646384D01*
X180272088Y-84596853D01*
X180273719Y-84589902D01*
X180287575Y-84604836D01*
X180314176Y-84659060D01*
X180351866Y-84748138D01*
X180398985Y-84867634D01*
X180453879Y-85013113D01*
X180514889Y-85180138D01*
X180580358Y-85364275D01*
X180648629Y-85561086D01*
X180718045Y-85766136D01*
X180786948Y-85974990D01*
X180802932Y-86024108D01*
X180882888Y-86269514D01*
X180949607Y-86473492D01*
X181004402Y-86639725D01*
X181048585Y-86771896D01*
X181083468Y-86873688D01*
X181110363Y-86948783D01*
X181130583Y-87000865D01*
X181145440Y-87033615D01*
X181156245Y-87050718D01*
X181164312Y-87055856D01*
X181170953Y-87052712D01*
X181180090Y-87054916D01*
X181173734Y-87090455D01*
X181166747Y-87127873D01*
X181181707Y-87131786D01*
X181186347Y-87134141D01*
X181206585Y-87171841D01*
X181213861Y-87189668D01*
X181239722Y-87253026D01*
G37*
G36*
X178355929Y-90998503D02*
G01*
X178383676Y-91098286D01*
X178390822Y-91123984D01*
X178394956Y-91146392D01*
X178403831Y-91194498D01*
X178408268Y-91218551D01*
X178408819Y-91222947D01*
X178420858Y-91285185D01*
X178442426Y-91373795D01*
X178469255Y-91471108D01*
X178489420Y-91555095D01*
X178510540Y-91693220D01*
X178523281Y-91844781D01*
X178527412Y-91997660D01*
X178522704Y-92139740D01*
X178508924Y-92258902D01*
X178485844Y-92343030D01*
X178476204Y-92364341D01*
X178448581Y-92418037D01*
X178436375Y-92426359D01*
X178439746Y-92389518D01*
X178458854Y-92307722D01*
X178479651Y-92205793D01*
X178489173Y-92066675D01*
X178478079Y-91910266D01*
X178446087Y-91723616D01*
X178384496Y-91489851D01*
X178272296Y-91214862D01*
X178259997Y-91194498D01*
X178371145Y-91194498D01*
X178383171Y-91206524D01*
X178395198Y-91194498D01*
X178383171Y-91182471D01*
X178371145Y-91194498D01*
X178259997Y-91194498D01*
X178230943Y-91146392D01*
X178347091Y-91146392D01*
X178359118Y-91158418D01*
X178371145Y-91146392D01*
X178359118Y-91134365D01*
X178347091Y-91146392D01*
X178230943Y-91146392D01*
X178201889Y-91098286D01*
X178323038Y-91098286D01*
X178335065Y-91110312D01*
X178347091Y-91098286D01*
X178335065Y-91086259D01*
X178323038Y-91098286D01*
X178201889Y-91098286D01*
X178123834Y-90969048D01*
X178090301Y-90929914D01*
X178226826Y-90929914D01*
X178238853Y-90941941D01*
X178250879Y-90929914D01*
X178238853Y-90917888D01*
X178226826Y-90929914D01*
X178090301Y-90929914D01*
X177940520Y-90755113D01*
X177831348Y-90658320D01*
X177641710Y-90528613D01*
X177417527Y-90415891D01*
X177154714Y-90318202D01*
X176849185Y-90233592D01*
X176722790Y-90203261D01*
X176600387Y-90173423D01*
X176520496Y-90152553D01*
X176480736Y-90139312D01*
X176478728Y-90132360D01*
X176512091Y-90130360D01*
X176578443Y-90131972D01*
X176675406Y-90135858D01*
X176984775Y-90168722D01*
X177279173Y-90240896D01*
X177551265Y-90350411D01*
X177796445Y-90495410D01*
X178010109Y-90674036D01*
X178195289Y-90857755D01*
X178081560Y-90617225D01*
X177974549Y-90378764D01*
X177886463Y-90156923D01*
X177819181Y-89957312D01*
X177774066Y-89784452D01*
X177752481Y-89642860D01*
X177755789Y-89537058D01*
X177761542Y-89514020D01*
X177806501Y-89433361D01*
X177877048Y-89376258D01*
X177959474Y-89354969D01*
X177977780Y-89355920D01*
X178083272Y-89384151D01*
X178205273Y-89448012D01*
X178337004Y-89542750D01*
X178471684Y-89663611D01*
X178602535Y-89805841D01*
X178640789Y-89853566D01*
X178720411Y-89960183D01*
X178815485Y-90094027D01*
X178920102Y-90246440D01*
X179028355Y-90408763D01*
X179134336Y-90572339D01*
X179232136Y-90728510D01*
X179233141Y-90730146D01*
X179270676Y-90787334D01*
X179293868Y-90814943D01*
X179297731Y-90807007D01*
X179278469Y-90729499D01*
X179254424Y-90617656D01*
X179233683Y-90505970D01*
X179219071Y-90409936D01*
X179213418Y-90345047D01*
X179220230Y-90279178D01*
X179249508Y-90196848D01*
X179294774Y-90142546D01*
X179310482Y-90134323D01*
X179384261Y-90125201D01*
X179478185Y-90144633D01*
X179579538Y-90190480D01*
X179601478Y-90204298D01*
X179665288Y-90250758D01*
X179745331Y-90314596D01*
X179834927Y-90389828D01*
X179927396Y-90470471D01*
X180016058Y-90550541D01*
X180094232Y-90624053D01*
X180155239Y-90685024D01*
X180192399Y-90727470D01*
X180199031Y-90745408D01*
X180198703Y-90745495D01*
X180172026Y-90732177D01*
X180118407Y-90691954D01*
X180045473Y-90630920D01*
X179960853Y-90555166D01*
X179856841Y-90461209D01*
X179730853Y-90355269D01*
X179625347Y-90278181D01*
X179533966Y-90225431D01*
X179450355Y-90192504D01*
X179379867Y-90178876D01*
X179324190Y-90193466D01*
X179294152Y-90245169D01*
X179285160Y-90338031D01*
X179290542Y-90418506D01*
X179317471Y-90558002D01*
X179367875Y-90728692D01*
X179442688Y-90933611D01*
X179542844Y-91175791D01*
X179587023Y-91278973D01*
X179633212Y-91391205D01*
X179662617Y-91470846D01*
X179677281Y-91524341D01*
X179679248Y-91558137D01*
X179670562Y-91578679D01*
X179659537Y-91591694D01*
X179638797Y-91611751D01*
X179618141Y-91619741D01*
X179594571Y-91611953D01*
X179565090Y-91584677D01*
X179526699Y-91534204D01*
X179476400Y-91456823D01*
X179411196Y-91348823D01*
X179328088Y-91206494D01*
X179224079Y-91026127D01*
X179032855Y-90702552D01*
X178844141Y-90403025D01*
X178669743Y-90148291D01*
X178509284Y-89937887D01*
X178362385Y-89771352D01*
X178228667Y-89648222D01*
X178107752Y-89568036D01*
X177999261Y-89530332D01*
X177952926Y-89524863D01*
X177920889Y-89532482D01*
X177911700Y-89561758D01*
X177911472Y-89637118D01*
X177920928Y-89728223D01*
X177942201Y-89833248D01*
X177976965Y-89958141D01*
X178026894Y-90108853D01*
X178093661Y-90291331D01*
X178178942Y-90511526D01*
X178229370Y-90641143D01*
X178302481Y-90838695D01*
X178332989Y-90929914D01*
X178355929Y-90998503D01*
G37*
G36*
X176864514Y-93797408D02*
G01*
X176887081Y-93784184D01*
X176900630Y-93774737D01*
X176912496Y-93782186D01*
X176908926Y-93829082D01*
X176900822Y-93855570D01*
X176861745Y-93920952D01*
X176827704Y-93963541D01*
X176789453Y-94011396D01*
X176681921Y-94129584D01*
X176666507Y-94145788D01*
X176585185Y-94228496D01*
X176515346Y-94295085D01*
X176463995Y-94339103D01*
X176438136Y-94354100D01*
X176423418Y-94353618D01*
X176374743Y-94363799D01*
X176359188Y-94369669D01*
X176302584Y-94389746D01*
X176302139Y-94389894D01*
X176216167Y-94402174D01*
X176153971Y-94375511D01*
X176139643Y-94366756D01*
X176080030Y-94352900D01*
X175996271Y-94349749D01*
X175948299Y-94349733D01*
X175886507Y-94343573D01*
X175856547Y-94331710D01*
X175834490Y-94317577D01*
X175784024Y-94309365D01*
X175745828Y-94302731D01*
X175725311Y-94281962D01*
X175722188Y-94273872D01*
X175685576Y-94263900D01*
X175605716Y-94268723D01*
X175563717Y-94272221D01*
X175502208Y-94270689D01*
X175472005Y-94260047D01*
X175447287Y-94245080D01*
X175395056Y-94237206D01*
X175346696Y-94228731D01*
X175289133Y-94198209D01*
X175262015Y-94180616D01*
X175216425Y-94173293D01*
X175183973Y-94189571D01*
X175180868Y-94225382D01*
X175184966Y-94243540D01*
X175173910Y-94261259D01*
X175162440Y-94256914D01*
X175139255Y-94224957D01*
X175129815Y-94207989D01*
X175104987Y-94194890D01*
X175098521Y-94195046D01*
X175062581Y-94177127D01*
X175014730Y-94139789D01*
X174967726Y-94094887D01*
X174934327Y-94054273D01*
X174927291Y-94029801D01*
X174928358Y-94024484D01*
X174903116Y-94041162D01*
X174886836Y-94050125D01*
X174862748Y-94047540D01*
X174829913Y-94023150D01*
X174781504Y-93971488D01*
X174723237Y-93902039D01*
X174811479Y-93902039D01*
X174832281Y-93930530D01*
X174839780Y-93939843D01*
X174871755Y-93970741D01*
X174883455Y-93963541D01*
X174874675Y-93951120D01*
X174841362Y-93921449D01*
X174823934Y-93908012D01*
X174811479Y-93902039D01*
X174723237Y-93902039D01*
X174710691Y-93887086D01*
X174619148Y-93774329D01*
X174537202Y-93669230D01*
X174484013Y-93594668D01*
X174457626Y-93547869D01*
X174456088Y-93526063D01*
X174457500Y-93525429D01*
X174481637Y-93541114D01*
X174525611Y-93585262D01*
X174581050Y-93649596D01*
X174645546Y-93724777D01*
X174709470Y-93792571D01*
X174757963Y-93837079D01*
X174823323Y-93887620D01*
X174757177Y-93797830D01*
X174745423Y-93781892D01*
X174685018Y-93700330D01*
X174628635Y-93624630D01*
X174613164Y-93602665D01*
X174583022Y-93548480D01*
X174575328Y-93513954D01*
X174582721Y-93513216D01*
X174613834Y-93539042D01*
X174662706Y-93592681D01*
X174722710Y-93667242D01*
X174754543Y-93708326D01*
X174817229Y-93786532D01*
X174868723Y-93847324D01*
X174900221Y-93880143D01*
X174921299Y-93896383D01*
X174927480Y-93892431D01*
X174908566Y-93852358D01*
X174889946Y-93821055D01*
X174843987Y-93755068D01*
X174788830Y-93683986D01*
X174750954Y-93637010D01*
X174705033Y-93577528D01*
X174678366Y-93539668D01*
X174678426Y-93529986D01*
X174705451Y-93543141D01*
X174753973Y-93577322D01*
X174816006Y-93626836D01*
X174883568Y-93685991D01*
X174896030Y-93696738D01*
X174944182Y-93728898D01*
X174987856Y-93747466D01*
X175014927Y-93748506D01*
X175013269Y-93728084D01*
X175015472Y-93716065D01*
X175048786Y-93708039D01*
X175080161Y-93717224D01*
X175113202Y-93760064D01*
X175119681Y-93779143D01*
X175133427Y-93796655D01*
X175152098Y-93772090D01*
X175152121Y-93772049D01*
X175193491Y-93738021D01*
X175245974Y-93737102D01*
X175286955Y-93769692D01*
X175293254Y-93780460D01*
X175312240Y-93794899D01*
X175339201Y-93769692D01*
X175359922Y-93749350D01*
X175410813Y-93734602D01*
X175460171Y-93767501D01*
X175467763Y-93776269D01*
X175493703Y-93790360D01*
X175526041Y-93766428D01*
X175560693Y-93742198D01*
X175604439Y-93748851D01*
X175644766Y-93802990D01*
X175672459Y-93858063D01*
X175699731Y-93807104D01*
X175703474Y-93800445D01*
X175743993Y-93761245D01*
X175788338Y-93768706D01*
X175831819Y-93822291D01*
X175835481Y-93828877D01*
X175858670Y-93861324D01*
X175868666Y-93858371D01*
X175881798Y-93839815D01*
X175922789Y-93829242D01*
X175970582Y-93833908D01*
X176003216Y-93854453D01*
X176016492Y-93867594D01*
X176045526Y-93854453D01*
X176089063Y-93831380D01*
X176140577Y-93834565D01*
X176174121Y-93865689D01*
X176183396Y-93882889D01*
X176204270Y-93883504D01*
X176244302Y-93850619D01*
X176263094Y-93835155D01*
X176316893Y-93812881D01*
X176358223Y-93824538D01*
X176374743Y-93868440D01*
X176380369Y-93895202D01*
X176403607Y-93881221D01*
X176434414Y-93863345D01*
X176437715Y-93862718D01*
X176713828Y-93862718D01*
X176729792Y-93856679D01*
X176757177Y-93821197D01*
X176774551Y-93791505D01*
X176775308Y-93782695D01*
X176745671Y-93809692D01*
X176720045Y-93839813D01*
X176713828Y-93862718D01*
X176437715Y-93862718D01*
X176492255Y-93852358D01*
X176551939Y-93836475D01*
X176611588Y-93798238D01*
X176620381Y-93790386D01*
X176651590Y-93766101D01*
X176656819Y-93769320D01*
X176652575Y-93782855D01*
X176661626Y-93825467D01*
X176667659Y-93833118D01*
X176691964Y-93833204D01*
X176730031Y-93793764D01*
X176736513Y-93785713D01*
X176772875Y-93752559D01*
X176793504Y-93761670D01*
X176805915Y-93779621D01*
X176821728Y-93762159D01*
X176821807Y-93761991D01*
X176847505Y-93734413D01*
X176869855Y-93738846D01*
X176869853Y-93771574D01*
X176869748Y-93771847D01*
X176867527Y-93782695D01*
X176864514Y-93797408D01*
G37*
G36*
X184354462Y-90633469D02*
G01*
X184458709Y-90677433D01*
X184587740Y-90754315D01*
X184745198Y-90865585D01*
X184770615Y-90885215D01*
X184861693Y-90961779D01*
X184975760Y-91064174D01*
X185105632Y-91185436D01*
X185244128Y-91318599D01*
X185384064Y-91456697D01*
X185518258Y-91592766D01*
X185639527Y-91719840D01*
X185740689Y-91830954D01*
X185877436Y-91986349D01*
X185770147Y-91758795D01*
X185677727Y-91551108D01*
X185602633Y-91350640D01*
X185558612Y-91186424D01*
X185545672Y-91058548D01*
X185563822Y-90967099D01*
X185613069Y-90912166D01*
X185693420Y-90893835D01*
X185776956Y-90910938D01*
X185891249Y-90968811D01*
X186028319Y-91066907D01*
X186187437Y-91204511D01*
X186367872Y-91380904D01*
X186568894Y-91595371D01*
X186789774Y-91847194D01*
X187029780Y-92135656D01*
X187288185Y-92460040D01*
X187357600Y-92548707D01*
X187458592Y-92677149D01*
X187549868Y-92792587D01*
X187626471Y-92888781D01*
X187683445Y-92959491D01*
X187715834Y-92998475D01*
X187779083Y-93070634D01*
X187764784Y-92965989D01*
X187757431Y-92923009D01*
X187726534Y-92798345D01*
X187680312Y-92649987D01*
X187623647Y-92491177D01*
X187561421Y-92335158D01*
X187498516Y-92195172D01*
X187439812Y-92084460D01*
X187404993Y-92025993D01*
X187316498Y-91871598D01*
X187254150Y-91751226D01*
X187216546Y-91661039D01*
X187202283Y-91597202D01*
X187209957Y-91555879D01*
X187238165Y-91533234D01*
X187239254Y-91532825D01*
X187275298Y-91530675D01*
X187313122Y-91554208D01*
X187356614Y-91608220D01*
X187409664Y-91697510D01*
X187476160Y-91826877D01*
X187622115Y-92093571D01*
X187786943Y-92342640D01*
X187964950Y-92566921D01*
X188151160Y-92760703D01*
X188340593Y-92918275D01*
X188528271Y-93033926D01*
X188553120Y-93046096D01*
X188716495Y-93110993D01*
X188861459Y-93142468D01*
X188984441Y-93141596D01*
X189081871Y-93109453D01*
X189150179Y-93047113D01*
X189185793Y-92955651D01*
X189185144Y-92836142D01*
X189183948Y-92828529D01*
X189140458Y-92675323D01*
X189060204Y-92505147D01*
X188948153Y-92324157D01*
X188809274Y-92138511D01*
X188648535Y-91954367D01*
X188470903Y-91777880D01*
X188281349Y-91615209D01*
X188084838Y-91472511D01*
X188079398Y-91468938D01*
X187955179Y-91392599D01*
X187827777Y-91322984D01*
X187705880Y-91264017D01*
X187598174Y-91219624D01*
X187513344Y-91193728D01*
X187460078Y-91190254D01*
X187448660Y-91192709D01*
X187418376Y-91188221D01*
X187423029Y-91168307D01*
X187462007Y-91146767D01*
X187521946Y-91141946D01*
X187622700Y-91162192D01*
X187748577Y-91207809D01*
X187893451Y-91275411D01*
X188051195Y-91361613D01*
X188215683Y-91463026D01*
X188380790Y-91576266D01*
X188540390Y-91697946D01*
X188688355Y-91824678D01*
X188775388Y-91907653D01*
X188959786Y-92108779D01*
X189115171Y-92315430D01*
X189233278Y-92517103D01*
X189252598Y-92557121D01*
X189296526Y-92663539D01*
X189321254Y-92760901D01*
X189333224Y-92872091D01*
X189337053Y-92963355D01*
X189332816Y-93029598D01*
X189317125Y-93079926D01*
X189287047Y-93130767D01*
X189279196Y-93141738D01*
X189216290Y-93208365D01*
X189146423Y-93258525D01*
X189130650Y-93266269D01*
X189068385Y-93286813D01*
X188990246Y-93294983D01*
X188880477Y-93292810D01*
X188810867Y-93286605D01*
X188606098Y-93237433D01*
X188400527Y-93141726D01*
X188193259Y-92999003D01*
X187983402Y-92808782D01*
X187922522Y-92748549D01*
X187866604Y-92698548D01*
X187838628Y-92682719D01*
X187836719Y-92699666D01*
X187866223Y-92797208D01*
X187905849Y-92963412D01*
X187919206Y-93090836D01*
X187906225Y-93180540D01*
X187866838Y-93233586D01*
X187800976Y-93251032D01*
X187765543Y-93236344D01*
X187700110Y-93182299D01*
X187609251Y-93089029D01*
X187493463Y-92957082D01*
X187353247Y-92787006D01*
X187189103Y-92579350D01*
X187179772Y-92567358D01*
X186975758Y-92309263D01*
X186780765Y-92070288D01*
X186598371Y-91854583D01*
X186432155Y-91666300D01*
X186285695Y-91509588D01*
X186162570Y-91388600D01*
X186115790Y-91345943D01*
X186004986Y-91248812D01*
X185902771Y-91164347D01*
X185815713Y-91097669D01*
X185750378Y-91053902D01*
X185713332Y-91038168D01*
X185691526Y-91047684D01*
X185680226Y-91093488D01*
X185691533Y-91173744D01*
X185723857Y-91284626D01*
X185775609Y-91422306D01*
X185845198Y-91582959D01*
X185931037Y-91762756D01*
X186031534Y-91957871D01*
X186145101Y-92164476D01*
X186270147Y-92378746D01*
X186271444Y-92380905D01*
X186344600Y-92505618D01*
X186407465Y-92618255D01*
X186456272Y-92711615D01*
X186487254Y-92778497D01*
X186496644Y-92811700D01*
X186481458Y-92838501D01*
X186436388Y-92861619D01*
X186408845Y-92858748D01*
X186373355Y-92834512D01*
X186327654Y-92781541D01*
X186265038Y-92693248D01*
X186242900Y-92661496D01*
X186173532Y-92567523D01*
X186085715Y-92453687D01*
X185988459Y-92331556D01*
X185890773Y-92212697D01*
X185804304Y-92110496D01*
X185600882Y-91878340D01*
X185399380Y-91659369D01*
X185203186Y-91456730D01*
X185015687Y-91273571D01*
X184840273Y-91113039D01*
X184680330Y-90978282D01*
X184539247Y-90872447D01*
X184420412Y-90798681D01*
X184327212Y-90760132D01*
X184321078Y-90758600D01*
X184278832Y-90751692D01*
X184267017Y-90768696D01*
X184276026Y-90821048D01*
X184287624Y-90867644D01*
X184306651Y-90926855D01*
X184333549Y-90994133D01*
X184370753Y-91074204D01*
X184420698Y-91171796D01*
X184485817Y-91291635D01*
X184568544Y-91438448D01*
X184671314Y-91616962D01*
X184796560Y-91831903D01*
X184800085Y-91837931D01*
X184896659Y-92004317D01*
X184981148Y-92152243D01*
X185051475Y-92277889D01*
X185105564Y-92377437D01*
X185141338Y-92447067D01*
X185156722Y-92482961D01*
X185149639Y-92481299D01*
X185114922Y-92439350D01*
X185048558Y-92353694D01*
X184966632Y-92243981D01*
X184875733Y-92119358D01*
X184782451Y-91988973D01*
X184693375Y-91861972D01*
X184615095Y-91747502D01*
X184554198Y-91654712D01*
X184454959Y-91491102D01*
X184360267Y-91320474D01*
X184278732Y-91158343D01*
X184214000Y-91012411D01*
X184169718Y-90890378D01*
X184149530Y-90799946D01*
X184147097Y-90772249D01*
X184146768Y-90710115D01*
X184161521Y-90673021D01*
X184196457Y-90644012D01*
X184205755Y-90638414D01*
X184271358Y-90620953D01*
X184354462Y-90633469D01*
G37*
G36*
X190838966Y-92830901D02*
G01*
X191081981Y-92924919D01*
X191322843Y-92998706D01*
X191552936Y-93049520D01*
X191763644Y-93074621D01*
X191946349Y-93071267D01*
X192039344Y-93057771D01*
X192182818Y-93020379D01*
X192312512Y-92960877D01*
X192434483Y-92874649D01*
X192554787Y-92757081D01*
X192679477Y-92603555D01*
X192814611Y-92409457D01*
X193012675Y-92109076D01*
X193012328Y-92108513D01*
X193208419Y-92108513D01*
X193404646Y-92395288D01*
X193484618Y-92510942D01*
X193697237Y-92805047D01*
X193894771Y-93057139D01*
X194079061Y-93269255D01*
X194251945Y-93443430D01*
X194415265Y-93581702D01*
X194570860Y-93686107D01*
X194578721Y-93690608D01*
X194680759Y-93738961D01*
X194758666Y-93755847D01*
X194807382Y-93740110D01*
X194816486Y-93721771D01*
X194823346Y-93661668D01*
X194819725Y-93578451D01*
X194806610Y-93487003D01*
X194784987Y-93402204D01*
X194719970Y-93235821D01*
X194627861Y-93048522D01*
X194517292Y-92858177D01*
X194392951Y-92670688D01*
X194259528Y-92491957D01*
X194121711Y-92327887D01*
X193984191Y-92184379D01*
X193851657Y-92067337D01*
X193728798Y-91982662D01*
X193620303Y-91936257D01*
X193594427Y-91930257D01*
X193491720Y-91922946D01*
X193401428Y-91951382D01*
X193307804Y-92019772D01*
X193208419Y-92108513D01*
X193012328Y-92108513D01*
X192864316Y-91868264D01*
X192770957Y-91714094D01*
X192645861Y-91501699D01*
X192509300Y-91264716D01*
X192366856Y-91013023D01*
X192224113Y-90756498D01*
X192086653Y-90505016D01*
X191960059Y-90268456D01*
X191958305Y-90265136D01*
X191885683Y-90127043D01*
X191818586Y-89997885D01*
X191754158Y-89871815D01*
X191689549Y-89742988D01*
X191621903Y-89605558D01*
X191548368Y-89453678D01*
X191466090Y-89281503D01*
X191372217Y-89083186D01*
X191263893Y-88852882D01*
X191138267Y-88584744D01*
X190950183Y-88187367D01*
X190739345Y-87754448D01*
X190541928Y-87363886D01*
X190356910Y-87013915D01*
X190183270Y-86702767D01*
X190019983Y-86428676D01*
X189866027Y-86189874D01*
X189720381Y-85984595D01*
X189582020Y-85811071D01*
X189449924Y-85667537D01*
X189434461Y-85652235D01*
X189294509Y-85528788D01*
X189164924Y-85445315D01*
X189038181Y-85397867D01*
X188906754Y-85382493D01*
X188857812Y-85383696D01*
X188717891Y-85409227D01*
X188602998Y-85471199D01*
X188503963Y-85573972D01*
X188486657Y-85596637D01*
X188444620Y-85647686D01*
X188428409Y-85658200D01*
X188437658Y-85627983D01*
X188472000Y-85556840D01*
X188549964Y-85441519D01*
X188667294Y-85344576D01*
X188813131Y-85285589D01*
X188985706Y-85265560D01*
X189039360Y-85268903D01*
X189185518Y-85309791D01*
X189340466Y-85397279D01*
X189504331Y-85531481D01*
X189677242Y-85712513D01*
X189859328Y-85940488D01*
X190050716Y-86215521D01*
X190099959Y-86290903D01*
X190153994Y-86374995D01*
X190206071Y-86458143D01*
X190257721Y-86543295D01*
X190310473Y-86633398D01*
X190365860Y-86731401D01*
X190425411Y-86840252D01*
X190490658Y-86962900D01*
X190563130Y-87102293D01*
X190644359Y-87261379D01*
X190735875Y-87443106D01*
X190839209Y-87650423D01*
X190955892Y-87886278D01*
X191087454Y-88153619D01*
X191235427Y-88455395D01*
X191401340Y-88794554D01*
X191586724Y-89174043D01*
X191702018Y-89407505D01*
X191871714Y-89742812D01*
X192047721Y-90081845D01*
X192226325Y-90417802D01*
X192403809Y-90743882D01*
X192576459Y-91053282D01*
X192740560Y-91339199D01*
X192892395Y-91594832D01*
X193028251Y-91813378D01*
X193116509Y-91951197D01*
X193225289Y-91868163D01*
X193241393Y-91856159D01*
X193371147Y-91781594D01*
X193500927Y-91748710D01*
X193634054Y-91758199D01*
X193773847Y-91810752D01*
X193923626Y-91907064D01*
X194086709Y-92047825D01*
X194119287Y-92079495D01*
X194305294Y-92280299D01*
X194484786Y-92505904D01*
X194649092Y-92743903D01*
X194789536Y-92981892D01*
X194897447Y-93207463D01*
X194924410Y-93276140D01*
X194980989Y-93460459D01*
X195003922Y-93617487D01*
X195000244Y-93661668D01*
X194993276Y-93745386D01*
X194949121Y-93842317D01*
X194871523Y-93906440D01*
X194843858Y-93920020D01*
X194791559Y-93940699D01*
X194744983Y-93944587D01*
X194687337Y-93931315D01*
X194601829Y-93900515D01*
X194571179Y-93888091D01*
X194415111Y-93802183D01*
X194244546Y-93673945D01*
X194061573Y-93505579D01*
X193868285Y-93299286D01*
X193666773Y-93057269D01*
X193459128Y-92781728D01*
X193247442Y-92474864D01*
X193107822Y-92263942D01*
X192943303Y-92518462D01*
X192942786Y-92519263D01*
X192795210Y-92732340D01*
X192653699Y-92902412D01*
X192512644Y-93033125D01*
X192417900Y-93094687D01*
X192366439Y-93128125D01*
X192209475Y-93191059D01*
X192036145Y-93225573D01*
X191840841Y-93235313D01*
X191736929Y-93231310D01*
X191468663Y-93193647D01*
X191203436Y-93119291D01*
X191193100Y-93115694D01*
X191171783Y-93111254D01*
X191191410Y-93128129D01*
X191209073Y-93143085D01*
X191210829Y-93154451D01*
X191182617Y-93149803D01*
X191114354Y-93130484D01*
X191020635Y-93099782D01*
X191006162Y-93094687D01*
X191119251Y-93094687D01*
X191131277Y-93106714D01*
X191143304Y-93094687D01*
X191131277Y-93082661D01*
X191119251Y-93094687D01*
X191006162Y-93094687D01*
X190912270Y-93061634D01*
X190800068Y-93019975D01*
X190694840Y-92978742D01*
X190607394Y-92941870D01*
X190548541Y-92913296D01*
X190489771Y-92881460D01*
X190440602Y-92857913D01*
X190421713Y-92853331D01*
X190426901Y-92859515D01*
X190463533Y-92888357D01*
X190528452Y-92934837D01*
X190613575Y-92993491D01*
X190710820Y-93058856D01*
X190812106Y-93125468D01*
X190909352Y-93187862D01*
X190994475Y-93240575D01*
X191069186Y-93287508D01*
X191105686Y-93314891D01*
X191100559Y-93319724D01*
X191054513Y-93301490D01*
X190968256Y-93259675D01*
X190862595Y-93203151D01*
X190659102Y-93081243D01*
X190441526Y-92936367D01*
X190295703Y-92830104D01*
X190373607Y-92830104D01*
X190385633Y-92842130D01*
X190397660Y-92830104D01*
X190385633Y-92818077D01*
X190373607Y-92830104D01*
X190295703Y-92830104D01*
X190221807Y-92776255D01*
X190173158Y-92737969D01*
X190073487Y-92654501D01*
X189960482Y-92555049D01*
X189840349Y-92445555D01*
X189719295Y-92331960D01*
X189603526Y-92220207D01*
X189499247Y-92116237D01*
X189412665Y-92025991D01*
X189349987Y-91955411D01*
X189317419Y-91910439D01*
X189316078Y-91907408D01*
X189326005Y-91907873D01*
X189363243Y-91937622D01*
X189422524Y-91992108D01*
X189498578Y-92066784D01*
X189522825Y-92091107D01*
X189583215Y-92150558D01*
X189617744Y-92182593D01*
X189623800Y-92184907D01*
X189598770Y-92155194D01*
X189556113Y-92105857D01*
X189480125Y-92012805D01*
X189402072Y-91912263D01*
X189330255Y-91815270D01*
X189272976Y-91732866D01*
X189238535Y-91676090D01*
X189235609Y-91664597D01*
X189253901Y-91679365D01*
X189292381Y-91723664D01*
X189369489Y-91811759D01*
X189491842Y-91937150D01*
X189632237Y-92069504D01*
X189778677Y-92197596D01*
X189919168Y-92310202D01*
X190121050Y-92463098D01*
X189988758Y-92338650D01*
X189856466Y-92214202D01*
X190000785Y-92327851D01*
X190014774Y-92338951D01*
X190080952Y-92394020D01*
X190127509Y-92437012D01*
X190145103Y-92459413D01*
X190146117Y-92465721D01*
X190166999Y-92497370D01*
X190176388Y-92503894D01*
X190171593Y-92487348D01*
X190164015Y-92472822D01*
X190164068Y-92460753D01*
X190186365Y-92468558D01*
X190236635Y-92498801D01*
X190320604Y-92554044D01*
X190380949Y-92593140D01*
X190602417Y-92719394D01*
X190837275Y-92830104D01*
X190838966Y-92830901D01*
G37*
%TO.C,J4*%
D12*
X166100000Y-54800000D02*
X166100000Y-57300000D01*
X166100000Y-57300000D02*
X167400000Y-57300000D01*
X166100000Y-79300000D02*
X167400000Y-79300000D01*
X166100000Y-83200000D02*
X166100000Y-79300000D01*
X166100000Y-83200000D02*
X172090000Y-83200000D01*
X167400000Y-57300000D02*
X167400000Y-57640000D01*
X172090000Y-54800000D02*
X166100000Y-54800000D01*
X174610000Y-83190000D02*
X190740000Y-83200000D01*
X177240000Y-54800000D02*
X174610000Y-54800000D01*
X186180000Y-54800000D02*
X178760000Y-54800000D01*
X188790000Y-54800000D02*
X187710000Y-54800000D01*
X190740000Y-54800000D02*
X190310000Y-54800000D01*
X193260000Y-83200000D02*
X197000000Y-83200000D01*
X197000000Y-54800000D02*
X193260000Y-54800000D01*
X197000000Y-83200000D02*
X197000000Y-54800000D01*
%TO.C,C1*%
X160704600Y-37091252D02*
X160704600Y-36568748D01*
X162174600Y-37091252D02*
X162174600Y-36568748D01*
%TO.C,C2*%
X158186800Y-36836236D02*
X158186800Y-36620564D01*
X158906800Y-36836236D02*
X158906800Y-36620564D01*
%TO.C,R14*%
X152265000Y-44772936D02*
X152265000Y-45227064D01*
X153735000Y-44772936D02*
X153735000Y-45227064D01*
%TD*%
M02*
