M48
; DRILL file KiCad 10.0.1 date 2026-05-25T23:06:54
; FORMAT={-:-/ absolute / metric / decimal}
; #@! TF.CreationDate,2026-05-25T23:06:54-07:00
; #@! TF.GenerationSoftware,Kicad,Pcbnew,10.0.1
; #@! TF.FileFunction,Plated,1,2,PTH
FMAT,2
METRIC
; #@! TA.AperFunction,Plated,PTH,ComponentDrill
T1C0.200
; #@! TA.AperFunction,Plated,PTH,ViaDrill
T2C0.300
; #@! TA.AperFunction,Plated,PTH,ComponentDrill
T3C0.600
; #@! TA.AperFunction,Plated,PTH,ComponentDrill
T4C0.800
; #@! TA.AperFunction,Plated,PTH,ComponentDrill
T5C1.000
; #@! TA.AperFunction,Plated,PTH,ComponentDrill
T6C1.300
%
G90
G05
T1
X164.338Y-43.112
X164.338Y-44.512
X165.038Y-42.412
X165.038Y-43.812
X165.038Y-45.212
X165.738Y-43.112
X165.738Y-44.512
X166.438Y-42.412
X166.438Y-43.812
X166.438Y-45.212
X167.138Y-43.112
X167.138Y-44.512
T2
X152.197Y-77.47
X152.298Y-80.721
X153.518Y-78.994
X154.127Y-42.977
X155.194Y-77.47
X155.194Y-78.181
X155.194Y-78.892
X155.905Y-78.892
X156.718Y-48.819
X156.87Y-37.033
X156.87Y-37.694
X157.124Y-35.966
X157.148Y-50.062
X157.785Y-55.728
X157.785Y-58.725
X157.785Y-62.128
X158.598Y-35.154
X158.801Y-81.331
X158.852Y-79.045
X159.817Y-35.865
X159.918Y-84.328
X159.969Y-47.396
X160.172Y-77.419
X160.223Y-82.753
X160.325Y-71.069
X160.376Y-55.372
X160.477Y-72.542
X160.782Y-87.782
X160.884Y-83.261
X160.884Y-85.496
X160.884Y-91.846
X162.001Y-73.762
X162.255Y-57.963
X162.865Y-35.865
X163.373Y-55.626
X164.033Y-56.947
X164.186Y-63.703
X164.643Y-85.852
X164.948Y-61.874
X166.218Y-83.972
X168.097Y-84.785
X168.583Y-70.075
X168.605Y-62.586
X169.52Y-85.852
X171.683Y-55.423
X173.228Y-91.897
X173.279Y-87.681
X174.574Y-70.358
X174.65Y-52.121
X176.428Y-54.458
X180.34Y-75.286
X180.848Y-51.562
X188.724Y-75.133
X193.599Y-86.411
X193.751Y-90.17
X193.853Y-93.929
T4
X186.286Y-38.96
X186.286Y-41.5
X186.286Y-44.04
X186.286Y-46.58
T5
X150.172Y-49.887
X150.172Y-52.427
X150.172Y-54.967
X150.427Y-60.452
X150.427Y-62.992
X150.427Y-65.532
T6
X145.585Y-38.603
X145.585Y-43.683
T3
G00X162.812Y-87.172
M15
G01X162.812Y-88.272
M16
G05
G00X162.812Y-91.522
M15
G01X162.812Y-92.322
M16
G05
G00X171.452Y-87.172
M15
G01X171.452Y-88.272
M16
G05
G00X171.452Y-91.522
M15
G01X171.452Y-92.322
M16
G05
T5
G00X145.617Y-81.122
M15
G01X147.617Y-81.122
M16
G05
G00X145.617Y-87.122
M15
G01X147.617Y-87.122
M16
G05
G00X151.316Y-85.122
M15
G01X151.316Y-83.122
M16
G05
M30
